<?xml version="1.0" encoding="UTF-8"?>
<svg width="280px" height="116px" viewBox="0 0 280 116" version="1.1" xmlns="http://www.w3.org/2000/svg" xmlns:xlink="http://www.w3.org/1999/xlink">
    <title>collection title </title>
    <defs>
        <filter id="filter-1">
            <feColorMatrix in="SourceGraphic" type="matrix" values="0 0 0 0 0.858824 0 0 0 0 0.000000 0 0 0 0 0.047059 0 0 0 1.000000 0"></feColorMatrix>
        </filter>
        <filter id="filter-2">
            <feColorMatrix in="SourceGraphic" type="matrix" values="0 0 0 0 1.000000 0 0 0 0 1.000000 0 0 0 0 1.000000 0 0 0 1.000000 0"></feColorMatrix>
        </filter>
        <filter id="filter-3">
            <feColorMatrix in="SourceGraphic" type="matrix" values="0 0 0 0 0.858824 0 0 0 0 0.000000 0 0 0 0 0.047059 0 0 0 1.000000 0"></feColorMatrix>
        </filter>
        <polygon id="path-4" points="5.54872396e-07 9.57614962e-05 32.1377155 9.57614962e-05 32.1377155 36.3483306 5.54872396e-07 36.3483306"></polygon>
    </defs>
    <g id="🛣-Carnaby-Design" stroke="none" stroke-width="1" fill="none" fill-rule="evenodd">
        <g id="1366-carnaby---home-stage-1" transform="translate(-110.000000, -1207.000000)">
            <g id="collections" transform="translate(44.000000, 828.000000)">
                <g id="stones-red" transform="translate(0.000000, 127.000000)">
                    <g id="collection-title-" transform="translate(66.500000, 252.000000)">
                        <rect id="Rectangle" fill="#DB000C" x="112.5" y="58" width="66" height="3"></rect>
                        <g id="logo/pantone" transform="translate(0.500000, 0.000000)" filter="url(#filter-1)">
                            <g>
                                <path d="M20.011,35 C24.613,35 28.357,31.256 28.357,26.654 C28.357,22.013 24.613,18.269 20.011,18.269 L10.456,18.269 C9.247,18.269 8.233,17.294 8.233,16.046 C8.233,14.837 9.247,13.823 10.456,13.823 L27.148,13.823 L27.148,7.7 L10.456,7.7 C5.854,7.7 2.11,11.444 2.11,16.046 C2.11,20.687 5.854,24.431 10.456,24.431 L20.011,24.431 C21.22,24.431 22.234,25.406 22.234,26.654 C22.234,27.863 21.22,28.877 20.011,28.877 L3.319,28.877 L3.319,35 L20.011,35 Z M47.701,35 L47.701,13.823 L57.958,13.823 L57.958,7.7 L31.282,7.7 L31.282,13.823 L41.539,13.823 L41.539,35 L47.701,35 Z M74.377,35.585 C82.216,35.585 88.612,29.228 88.612,21.35 C88.612,13.472 82.216,7.115 74.377,7.115 C66.499,7.115 60.103,13.472 60.103,21.35 C60.103,29.228 66.499,35.585 74.377,35.585 Z M74.377,29.462 C69.892,29.462 66.265,25.835 66.265,21.35 C66.265,16.865 69.892,13.238 74.377,13.238 C78.823,13.238 82.489,16.865 82.489,21.35 C82.489,25.835 78.823,29.462 74.377,29.462 Z M97.894,35 L97.894,18.191 L114.703,35 L119.032,35 L119.032,7.7 L112.909,7.7 L112.909,24.509 L96.1,7.7 L91.732,7.7 L91.732,35 L97.894,35 Z M146.644,35 L146.644,28.877 L129.094,28.877 L129.094,24.431 L146.644,24.431 L146.644,18.269 L129.094,18.269 L129.094,13.823 L146.644,13.823 L146.644,7.7 L122.932,7.7 L122.932,35 L146.644,35 Z M168.445,35 C173.047,35 176.791,31.256 176.791,26.654 C176.791,22.013 173.047,18.269 168.445,18.269 L158.89,18.269 C157.681,18.269 156.667,17.294 156.667,16.046 C156.667,14.837 157.681,13.823 158.89,13.823 L175.582,13.823 L175.582,7.7 L158.89,7.7 C154.288,7.7 150.544,11.444 150.544,16.046 C150.544,20.687 154.288,24.431 158.89,24.431 L168.445,24.431 C169.654,24.431 170.668,25.406 170.668,26.654 C170.668,27.863 169.654,28.877 168.445,28.877 L151.753,28.877 L151.753,35 L168.445,35 Z M200.464,35 L200.464,27.2 L207.055,27.2 L212.047,35 L219.301,35 L213.88,26.459 C217.468,25.016 219.964,21.545 219.964,17.45 C219.964,12.068 215.596,7.7 210.214,7.7 L194.341,7.7 L194.341,35 L200.464,35 Z M210.214,21.038 L200.464,21.038 L200.464,13.823 L210.214,13.823 C212.203,13.823 213.841,15.461 213.841,17.45 C213.841,19.439 212.203,21.038 210.214,21.038 Z M246.796,35 L246.796,28.877 L229.246,28.877 L229.246,24.431 L246.796,24.431 L246.796,18.269 L229.246,18.269 L229.246,13.823 L246.796,13.823 L246.796,7.7 L223.084,7.7 L223.084,35 L246.796,35 Z M263.02,35 C270.547,35 276.67,28.877 276.67,21.35 C276.67,13.823 270.547,7.7 263.02,7.7 L250.696,7.7 L250.696,35 L263.02,35 Z M263.02,28.877 L256.858,28.877 L256.858,13.823 L263.02,13.823 C267.154,13.823 270.508,17.216 270.508,21.35 C270.508,25.484 267.154,28.877 263.02,28.877 Z" id="STONESRED" fill="#000000" fill-rule="nonzero"></path>
                            </g>
                        </g>
                        <g id="logo/rs-tongue-text" transform="translate(15.500000, 75.000000)" filter="url(#filter-2)">
                            <g id="Group" transform="translate(0.000000, 3.636364)">
                                <path d="M165.192857,29.0909091 C168.214286,29.0909091 169.821429,27.4545455 169.821429,24.3781818 L169.821429,16.8181818 C169.821429,16.1963636 169.532143,15.8363636 168.985714,15.6072727 L161.335714,13.0545455 L161.335714,8.53818182 C161.335714,7.68727273 161.817857,7.22909091 162.621429,7.22909091 L164.164286,7.22909091 C165.032143,7.22909091 165.45,7.68727273 165.45,8.53818182 L165.45,11.0909091 C165.45,11.4181818 165.642857,11.6145455 165.964286,11.6145455 L169.307143,11.6145455 C169.660714,11.6145455 169.821429,11.4181818 169.821429,11.0909091 L169.821429,7.62181818 C169.821429,4.54545455 168.214286,2.90909091 165.192857,2.90909091 L161.592857,2.90909091 C158.603571,2.90909091 156.964286,4.54545455 156.964286,7.62181818 L156.964286,15.3454545 C156.964286,15.9672727 157.253571,16.36 157.832143,16.5563636 L165.45,19.1090909 L165.45,23.4618182 C165.45,24.3454545 165,24.7709091 164.164286,24.7709091 L162.621429,24.7709091 C161.817857,24.7709091 161.335714,24.3454545 161.335714,23.4618182 L161.335714,20.9418182 C161.335714,20.5818182 161.175,20.4181818 160.821429,20.4181818 L157.478571,20.4181818 C157.157143,20.4181818 156.964286,20.5818182 156.964286,20.9418182 L156.964286,24.3781818 C156.964286,27.4545455 158.603571,29.0909091 161.592857,29.0909091 L165.192857,29.0909091 Z M179.85,29.0909091 C180.203571,29.0909091 180.364286,28.9272727 180.364286,28.5672727 L180.364286,7.22909091 L184.092857,7.22909091 C184.446429,7.22909091 184.607143,7.03272727 184.607143,6.70545455 L184.607143,3.43272727 C184.607143,3.10545455 184.446429,2.90909091 184.092857,2.90909091 L172.264286,2.90909091 C171.942857,2.90909091 171.75,3.10545455 171.75,3.43272727 L171.75,6.70545455 C171.75,7.03272727 171.942857,7.22909091 172.264286,7.22909091 L175.992857,7.22909091 L175.992857,28.5672727 C175.992857,28.9272727 176.185714,29.0909091 176.507143,29.0909091 L179.85,29.0909091 Z M194.764286,29.0909091 C197.785714,29.0909091 199.392857,27.4545455 199.392857,24.3781818 L199.392857,7.62181818 C199.392857,4.54545455 197.785714,2.90909091 194.764286,2.90909091 L191.164286,2.90909091 C188.142857,2.90909091 186.535714,4.54545455 186.535714,7.62181818 L186.535714,24.3781818 C186.535714,27.4545455 188.142857,29.0909091 191.164286,29.0909091 L194.764286,29.0909091 Z M193.960714,24.8690909 L192.096429,24.8690909 C191.260714,24.8690909 190.810714,24.4436364 190.810714,23.56 L190.810714,8.44 C190.810714,7.58909091 191.260714,7.13090909 192.096429,7.13090909 L193.960714,7.13090909 C194.796429,7.13090909 195.246429,7.58909091 195.246429,8.44 L195.246429,23.56 C195.246429,24.4436364 194.796429,24.8690909 193.960714,24.8690909 Z M206.464286,29.0909091 C206.817857,29.0909091 206.978571,28.8945455 206.978571,28.5672727 L206.978571,14.6909091 L207.139286,14.6909091 L212.057143,28.6654545 C212.153571,28.96 212.346429,29.0909091 212.635714,29.0909091 L215.817857,29.0909091 C216.139286,29.0909091 216.332143,28.8945455 216.332143,28.5672727 L216.332143,3.43272727 C216.332143,3.10545455 216.139286,2.90909091 215.817857,2.90909091 L212.475,2.90909091 C212.121429,2.90909091 211.960714,3.10545455 211.960714,3.43272727 L211.960714,17.2436364 L211.767857,17.2436364 L206.882143,3.33454545 C206.785714,3.04 206.592857,2.90909091 206.303571,2.90909091 L203.121429,2.90909091 C202.8,2.90909091 202.607143,3.10545455 202.607143,3.43272727 L202.607143,28.5672727 C202.607143,28.8945455 202.8,29.0909091 203.121429,29.0909091 L206.464286,29.0909091 Z M231.857143,29.0909091 C232.242857,29.0909091 232.371429,28.8945455 232.371429,28.5672727 L232.371429,25.2945455 C232.371429,24.9345455 232.242857,24.7709091 231.857143,24.7709091 L223.821429,24.7709091 L223.821429,18.16 L229.960714,18.16 C230.282143,18.16 230.475,17.9636364 230.475,17.6036364 L230.475,14.3636364 C230.475,14.0036364 230.282143,13.8072727 229.960714,13.8072727 L223.821429,13.8072727 L223.821429,7.26181818 L231.857143,7.26181818 C232.242857,7.26181818 232.371429,7.03272727 232.371429,6.70545455 L232.371429,3.43272727 C232.371429,3.10545455 232.242857,2.90909091 231.857143,2.90909091 L220.028571,2.90909091 C219.739286,2.90909091 219.546429,3.10545455 219.546429,3.43272727 L219.546429,28.5672727 C219.546429,28.8945455 219.739286,29.0909091 220.028571,29.0909091 L231.857143,29.0909091 Z M242.85,29.0909091 C245.871429,29.0909091 247.478571,27.4545455 247.478571,24.3781818 L247.478571,16.8181818 C247.478571,16.1963636 247.189286,15.8363636 246.642857,15.6072727 L238.992857,13.0545455 L238.992857,8.53818182 C238.992857,7.68727273 239.475,7.22909091 240.278571,7.22909091 L241.821429,7.22909091 C242.689286,7.22909091 243.107143,7.68727273 243.107143,8.53818182 L243.107143,11.0909091 C243.107143,11.4181818 243.3,11.6145455 243.621429,11.6145455 L246.964286,11.6145455 C247.317857,11.6145455 247.478571,11.4181818 247.478571,11.0909091 L247.478571,7.62181818 C247.478571,4.54545455 245.871429,2.90909091 242.85,2.90909091 L239.25,2.90909091 C236.260714,2.90909091 234.621429,4.54545455 234.621429,7.62181818 L234.621429,15.3454545 C234.621429,15.9672727 234.910714,16.36 235.489286,16.5563636 L243.107143,19.1090909 L243.107143,23.4618182 C243.107143,24.3454545 242.657143,24.7709091 241.821429,24.7709091 L240.278571,24.7709091 C239.475,24.7709091 238.992857,24.3454545 238.992857,23.4618182 L238.992857,20.9418182 C238.992857,20.5818182 238.832143,20.4181818 238.478571,20.4181818 L235.135714,20.4181818 C234.814286,20.4181818 234.621429,20.5818182 234.621429,20.9418182 L234.621429,24.3781818 C234.621429,27.4545455 236.260714,29.0909091 239.25,29.0909091 L242.85,29.0909091 Z" id="STONES" fill="#FFFFFF" fill-rule="nonzero"></path>
                                <path d="M5.46428571,29.0909091 C5.78571429,29.0909091 5.97857143,28.8945455 5.97857143,28.5672727 L5.97857143,20.32 L8.19642857,20.32 L10.35,28.6327273 C10.4142857,28.9272727 10.575,29.0909091 10.8964286,29.0909091 L14.2392857,29.0909091 C14.5928571,29.0909091 14.7857143,28.8945455 14.6892857,28.5018182 L12.4714286,19.9272727 C14.0142857,19.24 14.8178571,17.8 14.8178571,15.6072727 L14.8178571,7.62181818 C14.8178571,4.54545455 13.2107143,2.90909091 10.1892857,2.90909091 L2.12142857,2.90909091 C1.8,2.90909091 1.60714286,3.10545455 1.60714286,3.43272727 L1.60714286,28.5672727 C1.60714286,28.8945455 1.8,29.0909091 2.12142857,29.0909091 L5.46428571,29.0909091 Z M9.16071429,16 L5.97857143,16 L5.97857143,7.22909091 L9.16071429,7.22909091 C9.99642857,7.22909091 10.4464286,7.68727273 10.4464286,8.53818182 L10.4464286,14.6909091 C10.4464286,15.5418182 9.99642857,16 9.16071429,16 Z M25.6178571,29.0909091 C28.6392857,29.0909091 30.2464286,27.4545455 30.2464286,24.3781818 L30.2464286,7.62181818 C30.2464286,4.54545455 28.6392857,2.90909091 25.6178571,2.90909091 L22.0178571,2.90909091 C18.9964286,2.90909091 17.3892857,4.54545455 17.3892857,7.62181818 L17.3892857,24.3781818 C17.3892857,27.4545455 18.9964286,29.0909091 22.0178571,29.0909091 L25.6178571,29.0909091 Z M24.8142857,24.8690909 L22.95,24.8690909 C22.1142857,24.8690909 21.6642857,24.4436364 21.6642857,23.56 L21.6642857,8.44 C21.6642857,7.58909091 22.1142857,7.13090909 22.95,7.13090909 L24.8142857,7.13090909 C25.65,7.13090909 26.1,7.58909091 26.1,8.44 L26.1,23.56 C26.1,24.4436364 25.65,24.8690909 24.8142857,24.8690909 Z M45.4821429,29.0909091 C45.8357143,29.0909091 45.9964286,28.9272727 45.9964286,28.5672727 L45.9964286,28.5672727 L45.9964286,25.2945455 C45.9964286,24.9672727 45.8357143,24.7709091 45.4821429,24.7709091 L45.4821429,24.7709091 L37.8321429,24.7709091 L37.8321429,3.43272727 C37.8321429,3.10545455 37.6714286,2.90909091 37.3178571,2.90909091 L37.3178571,2.90909091 L33.975,2.90909091 C33.6535714,2.90909091 33.4607143,3.10545455 33.4607143,3.43272727 L33.4607143,3.43272727 L33.4607143,28.5672727 C33.4607143,28.9272727 33.6535714,29.0909091 33.975,29.0909091 L33.975,29.0909091 L45.4821429,29.0909091 Z M60.9107143,29.0909091 C61.2642857,29.0909091 61.425,28.9272727 61.425,28.5672727 L61.425,28.5672727 L61.425,25.2945455 C61.425,24.9672727 61.2642857,24.7709091 60.9107143,24.7709091 L60.9107143,24.7709091 L53.2607143,24.7709091 L53.2607143,3.43272727 C53.2607143,3.10545455 53.1,2.90909091 52.7464286,2.90909091 L52.7464286,2.90909091 L49.4035714,2.90909091 C49.0821429,2.90909091 48.8892857,3.10545455 48.8892857,3.43272727 L48.8892857,3.43272727 L48.8892857,28.5672727 C48.8892857,28.9272727 49.0821429,29.0909091 49.4035714,29.0909091 L49.4035714,29.0909091 L60.9107143,29.0909091 Z M67.8535714,29.0909091 C68.175,29.0909091 68.3678571,28.8945455 68.3678571,28.5672727 L68.3678571,3.43272727 C68.3678571,3.10545455 68.175,2.90909091 67.8535714,2.90909091 L64.5107143,2.90909091 C64.1571429,2.90909091 63.9964286,3.10545455 63.9964286,3.43272727 L63.9964286,28.5672727 C63.9964286,28.8945455 64.1571429,29.0909091 64.5107143,29.0909091 L67.8535714,29.0909091 Z M75.4392857,29.0909091 C75.7928571,29.0909091 75.9535714,28.8945455 75.9535714,28.5672727 L75.9535714,14.6909091 L76.1142857,14.6909091 L81.0321429,28.6654545 C81.1285714,28.96 81.3214286,29.0909091 81.6107143,29.0909091 L84.7928571,29.0909091 C85.1142857,29.0909091 85.3071429,28.8945455 85.3071429,28.5672727 L85.3071429,3.43272727 C85.3071429,3.10545455 85.1142857,2.90909091 84.7928571,2.90909091 L81.45,2.90909091 C81.0964286,2.90909091 80.9357143,3.10545455 80.9357143,3.43272727 L80.9357143,17.2436364 L80.7428571,17.2436364 L75.8571429,3.33454545 C75.7607143,3.04 75.5678571,2.90909091 75.2785714,2.90909091 L72.0964286,2.90909091 C71.775,2.90909091 71.5821429,3.10545455 71.5821429,3.43272727 L71.5821429,28.5672727 C71.5821429,28.8945455 71.775,29.0909091 72.0964286,29.0909091 L75.4392857,29.0909091 Z M97.3928571,29.0909091 C100.382143,29.0909091 102.021429,27.4545455 102.021429,24.3781818 L102.021429,15.28 C102.021429,14.92 101.828571,14.7563636 101.507143,14.7563636 L96.1071429,14.7563636 C95.7535714,14.7563636 95.5928571,14.92 95.5928571,15.28 L95.5928571,18.5527273 C95.5928571,18.88 95.7535714,19.0763636 96.1071429,19.0763636 L97.7785714,19.0763636 L97.7785714,23.4618182 C97.7785714,24.3454545 97.3285714,24.7709091 96.4928571,24.7709091 L94.1785714,24.7709091 C93.3428571,24.7709091 92.8928571,24.3454545 92.8928571,23.4618182 L92.8928571,8.53818182 C92.8928571,7.68727273 93.3107143,7.22909091 94.1785714,7.22909091 L96.4928571,7.22909091 C97.3285714,7.22909091 97.7785714,7.68727273 97.7785714,8.53818182 L97.7785714,11.0254545 C97.7785714,11.3527273 97.9392857,11.5490909 98.2928571,11.5490909 L101.507143,11.5490909 C101.828571,11.5490909 102.021429,11.3527273 102.021429,11.0254545 L102.021429,7.62181818 C102.021429,4.54545455 100.382143,2.90909091 97.3928571,2.90909091 L93.15,2.90909091 C90.1285714,2.90909091 88.5214286,4.54545455 88.5214286,7.62181818 L88.5214286,24.3781818 C88.5214286,27.4545455 90.1285714,29.0909091 93.15,29.0909091 L97.3928571,29.0909091 Z" id="ROLLING" fill="#FFFFFF" fill-rule="nonzero"></path>
                                <g transform="translate(114.285714, 0.000000)" id="logo/tongue/stamp" filter="url(#filter-3)">
                                    <g id="Group-3">
                                        <mask id="mask-5" fill="white">
                                            <use xlink:href="#path-4"></use>
                                        </mask>
                                        <g id="Clip-2"></g>
                                        <path d="M22.4564717,11.5588093 C21.696835,11.215375 21.2134298,9.97916437 21.2134298,9.97916437 C21.2134298,9.97916437 20.3085345,11.5038659 18.3815333,11.6962137 C16.3786084,11.902213 15.687968,10.1165381 15.687968,10.1165381 C15.5313177,10.2722161 15.0148461,11.3528099 12.9253756,11.3528099 C10.5080419,11.3528099 10.5080419,9.29229568 10.5080419,9.29229568 C10.5080419,9.29229568 9.47198892,10.1165381 8.505117,9.77301194 C7.53815271,9.4296082 7.53815271,8.53677074 7.53815271,8.53677074 C7.53815271,8.53677074 9.26484606,7.02572084 10.9915086,7.09443832 C12.718202,7.16312519 13.0634914,7.91858892 13.8922783,8.19333639 C14.7210345,8.46802265 15.7570874,8.67414448 17.2765764,7.98733701 C18.7960037,7.30043771 20.7297475,6.65483012 22.3184175,7.98733701 C24.1140764,9.49832568 24.6528387,11.2566361 24.6528387,11.2566361 C24.6528387,11.2566361 23.2161392,11.902213 22.4564717,11.5588093 M21.7657389,15.4050903 C21.4204803,16.0918978 20.7862746,16.3444842 20.2464963,17.0191093 C18.9260222,18.6689103 18.5568411,19.8731344 17.7600739,21.8269146 C16.7970197,24.1881941 16.793048,25.8449434 15.9642611,28.1114876 C15.5222352,29.3271289 15.4117672,30.1032537 14.2376293,30.9961524 C13.6367365,31.4494735 12.5938177,31.284521 12.3037623,30.5840006 C11.8202956,29.4164157 12.8701108,28.0771442 13.4087808,27.0811846 C14.7210345,24.6773278 14.892186,23.2989379 16.033319,20.9683594 C16.8615825,19.2768381 16.8897845,18.6469942 18.3124754,16.710049 C19.0721736,15.6798378 19.7489901,15.1921732 20.5226047,14.7869391 C21.5586268,14.2374441 22.2078879,14.5259657 21.7657389,15.4050903 M10.5080419,14.9929997 C9.91404557,15.7553811 9.12211207,16.3145791 8.4014532,17.2938261 C7.38762931,18.6716651 6.97996305,19.5809703 6.36401478,21.1744506 C5.70662562,22.8754913 5.53528941,24.1621151 5.22448276,25.7076309 C5.04486453,26.6141812 4.92823892,27.7109672 4.0157697,27.6994275 C3.11025862,27.6878574 2.84163177,26.6003765 2.84163177,25.7076309 C2.84163177,24.4713284 3.42497537,22.2858066 4.43020936,20.3502388 C5.38199507,18.5176094 6.14387931,17.5507897 7.67629926,16.1605846 C8.42851601,15.4782155 9.23725985,14.9174564 9.74825123,14.5808785 C10.3699261,14.1688491 10.9915086,14.3749097 10.5080419,14.9929997 M10.9224507,2.42394552 C11.1296244,1.97751148 11.654532,1.47616468 12.3037623,1.15336088 C13.2016379,0.706926844 13.8992057,0.651952862 14.6174938,1.0846434 C15.4117672,1.56542088 15.7709113,2.16300275 15.5153695,2.93912764 C15.3081342,3.55721763 14.4447722,4.05862565 13.7541626,3.66027854 C13.3397845,3.4198745 13.4778387,3.1108142 12.510936,3.07644016 C12.0275308,3.06272727 11.1987131,3.66027854 10.9915086,3.45421794 C10.6668781,3.13138353 10.7290394,2.84292317 10.9224507,2.42394552 M19.5557943,2.28657178 C19.7628448,1.84016835 20.0115209,1.75085093 20.6607512,1.42807775 C21.5586268,0.981613101 22.6568411,0.85795225 23.3889224,1.25632997 C24.0104741,1.59979492 24.4387377,2.16988981 24.1831342,2.93912764 C24.0104741,3.45421794 23.6306096,3.79762167 22.9399692,3.76327824 C22.5599815,3.74953474 22.4012377,3.45421794 22.0420936,3.17947046 C21.7313485,2.93912764 21.3445874,3.01464034 21.0061022,3.1108142 C20.6469889,3.2138139 20.3845197,3.35121824 20.0045628,3.24812672 C19.5763916,3.13823998 19.3623522,2.70554943 19.5557943,2.28657178 M31.6423399,10.9406887 C29.8189717,9.69064279 28.7415086,9.25792164 27.5674323,6.85403428 C26.476053,4.61497704 25.7716502,1.99125497 25.0119828,1.05033058 C23.8792241,-0.357658402 21.3652463,-0.158546067 19.8872906,0.535179063 C18.5750369,1.15336088 18.3124754,1.46239057 16.793048,2.83603612 C16.4615209,1.33762779 15.7777771,0.157462504 14.0303633,0.0200581573 C12.6490825,-0.0829721457 11.7098276,0.315405571 10.4390148,1.05033058 C8.8366133,1.97751148 7.55887315,3.70833486 6.64033867,5.51470156 C5.77694581,7.21806856 5.34434113,8.08611264 4.03655172,9.32654729 C3.10160714,10.2133854 2.2269766,10.8994276 1.32220443,11.215375 C0.355301724,11.5588093 0.265492611,12.2663085 1.08048645,12.8638292 C2.94529557,14.2374441 3.15246921,15.748494 3.49778941,17.1221396 C2.32365148,19.182562 1.23929187,20.7760422 0.631533251,22.8915305 C-0.0867241379,25.4053352 -0.211108374,26.7858984 0.355301724,29.6225375 C0.838737685,32.0263942 2.24772783,33.5580441 3.65662562,34.6500551 C6.17756158,36.6075696 9.88642857,36.8341996 12.7871675,35.5292103 C14.7901232,34.6295776 15.687968,33.400101 17.0001293,31.7515549 C17.4698953,31.1540343 17.8082574,30.7694919 18.519803,30.4947138 C21.3513608,29.3957851 22.6637069,27.4933976 24.1140764,24.4025803 C25.2813485,21.9094062 25.623282,20.3036823 27.0839655,17.9463514 C28.57125,15.5460759 30.3991749,13.5506673 31.6423399,12.3143649 C32.0153079,11.9434435 32.5401232,11.5588093 31.6423399,10.9406887" id="Fill-1" fill="#DB000C" mask="url(#mask-5)"></path>
                                    </g>
                                </g>
                            </g>
                        </g>
                    </g>
                </g>
            </g>
        </g>
    </g>
</svg>