<?xml version="1.0" encoding="UTF-8"?>
<svg width="5226px" height="1188px" viewBox="0 0 5226 1188" version="1.1" xmlns="http://www.w3.org/2000/svg" xmlns:xlink="http://www.w3.org/1999/xlink">
    <title>Group 35</title>
    <g id="☮️-Symbols" stroke="none" stroke-width="1" fill="none" fill-rule="evenodd">
        <g id="logo/carnaby/carnaby-long" transform="translate(0.000000, -1.000000)">
            <g id="Group-35" transform="translate(0.000000, 1.000000)">
                <g id="Group" transform="translate(2104.436941, 0.002930)">
                    <path d="M131.106759,304.69627 C173.584759,264.17027 187.634759,235.81127 215.678759,180.16227 C245.511759,121.14827 287.013759,64.6022698 339.058759,34.3102698 C380.334759,10.3012698 410.842759,-2.71373015 455.706759,0.653269846 C512.461759,5.14026985 534.670759,43.6972698 545.437759,92.6502698 C594.789759,47.7732698 603.316759,37.6772698 645.939759,17.4812698 C693.942759,-5.18273015 775.597759,-11.6877302 812.388759,34.3102698 C837.063759,65.0512698 859.941759,150.76827 895.389759,223.91727 C933.523759,302.45327 968.520759,316.58927 1027.74276,357.42927 C1056.90276,377.62327 1039.85676,390.19027 1027.74276,402.30727 C987.365759,442.69727 927.993759,507.88727 879.686759,586.30427 C832.244759,663.31927 821.137759,715.77827 783.225759,797.23027 C736.117759,898.20627 693.492759,960.35727 601.523759,996.25927 C578.412759,1005.23727 567.421759,1017.79927 552.164759,1037.32127 C509.545759,1091.17827 480.383759,1131.34527 415.327759,1160.73727 C321.110759,1203.37027 200.647759,1195.96627 118.767759,1132.01427 C73.0067593,1096.33827 27.2427593,1046.29827 11.5397593,967.76527 C-6.85624074,875.09227 -2.81724074,829.98927 20.5117593,747.86327 C40.2517593,678.75027 75.4717593,626.69127 113.607759,559.37827 C102.392759,514.50027 95.6637593,465.13427 35.0947593,420.25827 C8.62375926,400.73727 11.5397593,377.62327 42.9447593,366.40327 C72.3327593,356.08127 100.740759,333.66827 131.106759,304.69627" id="Fill-1" fill="#DB000C"></path>
                    <path d="M800.946159,367.75127 C800.946159,367.75127 758.324159,388.17127 729.386159,377.62327 C721.758159,374.93127 714.359159,367.30327 708.526159,359.89727 C708.526159,359.89727 655.359159,400.06227 610.494159,413.52627 C565.623159,426.98827 502.817159,397.81827 457.951159,435.96527 C413.087159,474.11027 358.126159,556.01127 332.328159,595.27927 C280.731159,673.81527 242.596159,824.15327 242.596159,824.15327 C242.596159,824.15327 236.988159,759.08227 265.030159,678.30327 C286.341159,616.59727 341.300159,514.50027 374.950159,471.86727 C408.598159,429.23427 437.760159,402.30727 437.760159,402.30727 C437.760159,402.30727 390.654159,409.03927 363.734159,391.08827 C349.601159,381.66327 336.815159,359.67327 336.815159,359.67327 C336.815159,359.67327 265.030159,400.06227 244.839159,415.76927 C224.650159,431.47727 157.352159,480.84227 157.352159,480.84227 C157.352159,480.84227 141.649159,451.67227 130.432159,433.72127 C119.216159,415.76927 99.0281593,388.84227 99.0281593,388.84227 C99.0281593,388.84227 145.014159,345.08627 197.731159,301.33227 C259.871159,249.94827 270.414159,244.56227 309.895159,226.16127 C328.964159,217.18727 376.072159,209.33227 433.276159,245.23527 C463.110159,263.85927 503.939159,271.03927 553.291159,253.08827 C602.641159,235.13727 648.180159,205.96827 715.927159,242.99127 C750.701159,262.06427 779.187159,308.51227 796.685159,339.47727 C810.147159,363.03827 843.797159,368.64827 855.010159,373.13627 C866.226159,377.62327 938.011159,388.84227 938.011159,388.84227 C938.011159,388.84227 862.415159,456.60727 826.972159,497.67127 C769.766159,563.86627 712.561159,661.47327 695.737159,705.23027 C668.820159,775.68927 636.289159,895.95927 626.195159,932.98327 C619.916159,956.09427 612.035159,979.40427 599.412159,1001.04527 C593.867159,1010.54927 575.962159,1022.69027 575.962159,1022.69027 C575.962159,1022.69027 555.262159,1048.59227 518.249159,1091.22927 C502.993159,1108.72727 465.138159,1143.83127 438.890159,1159.76127 C402.325159,1181.75127 330.674159,1186.81627 330.674159,1186.81627 C391.096159,1167.88127 431.675159,1151.64827 497.508159,1074.09227 C560.315159,1000.09527 577.965159,952.05927 608.248159,860.05827 C648.180159,738.66327 671.061159,662.59327 724.902159,586.30427 C755.412159,542.77427 825.849159,467.37827 848.277159,444.94027 C870.712159,422.50227 895.390159,400.06227 895.390159,400.06227 C895.390159,400.06227 828.089159,385.25227 800.946159,367.75127" id="Fill-4" fill="#231F20"></path>
                    <path d="M399.625759,37.6769698 C428.789759,23.0919698 451.444759,21.2959698 474.775759,35.4319698 C500.573759,51.1389698 512.238759,70.6629698 503.938759,96.0179698 C497.208759,116.21197 469.166759,132.59297 446.734759,119.57797 C433.275759,111.72397 437.760759,101.62697 406.354759,100.50397 C390.653759,100.05597 363.733759,119.57797 357.003759,112.84597 C346.459759,102.29997 348.478759,92.8749698 354.760759,79.1869698 C361.489759,64.6019698 378.539759,48.2229698 399.625759,37.6769698" id="Fill-6" fill="#FEFEFE"></path>
                    <path d="M671.060859,46.6530698 C700.223859,32.0670698 735.893859,28.0270698 759.671859,41.0420698 C779.858859,52.2620698 793.769859,70.8870698 785.467859,96.0180698 C779.858859,112.84607 767.521859,124.06607 745.090859,122.94407 C732.748859,122.49507 727.591859,112.84607 715.927859,103.87107 C705.834859,96.0180698 693.271859,98.4860698 682.277859,101.62707 C670.613859,104.99207 662.089859,109.48207 649.748859,106.11407 C635.841859,102.52407 628.889859,88.3870698 635.171859,74.7000698 C641.896859,60.1150698 649.974859,57.1980698 671.060859,46.6530698" id="Fill-8" fill="#FEFEFE"></path>
                    <path d="M249.326459,527.96267 C199.553459,573.38067 174.807459,604.96667 143.893459,664.83867 C111.243459,728.07467 92.2964593,799.47467 92.2964593,839.86467 C92.2964593,869.03167 101.021459,904.55967 130.431459,904.936698 C160.068459,905.31567 163.857459,869.48267 169.690459,839.86467 C179.786459,789.37367 185.351459,747.33867 206.703459,691.76567 C226.709459,639.70767 239.950459,610.00067 272.879459,564.98667 C296.286459,532.99467 322.008459,514.72467 341.300459,489.81767 C357.003459,469.62467 336.815459,462.89267 316.623459,476.35467 C300.025459,487.34967 273.757459,505.66967 249.326459,527.96267" id="Fill-10" fill="#FEFEFE"></path>
                    <path d="M594.789859,545.91427 C548.579859,609.19427 547.664859,629.77127 520.762859,685.03327 C483.697859,761.17327 478.139859,806.20627 435.517859,884.73927 C418.021859,917.27727 383.922859,961.03127 399.625859,999.17627 C409.046859,1022.06327 442.920859,1027.45127 462.436859,1012.64127 C500.573859,983.47027 504.162859,958.11427 518.518859,918.40027 C545.437859,844.35127 545.566859,790.22527 576.846859,713.08227 C602.726859,649.25227 614.717859,609.91127 657.605859,556.01127 C675.138859,533.97127 695.736859,525.71927 706.950859,503.28127 C721.311859,474.56027 700.223859,465.13427 666.574859,483.08627 C641.446859,496.32527 619.463859,512.25727 594.789859,545.91427" id="Fill-12" fill="#FEFEFE"></path>
                    <path d="M244.839159,278.89237 C244.839159,278.89237 300.922159,229.52737 357.004159,231.77237 C413.087159,234.01637 424.302159,258.69837 451.221159,267.67337 C478.140159,276.64837 511.790159,283.38137 561.142159,260.94337 C610.494159,238.50237 673.302159,217.41037 724.901159,260.94337 C783.225159,310.30737 800.724159,367.75137 800.724159,367.75137 C800.724159,367.75137 754.060159,388.84237 729.386159,377.62337 C704.713159,366.40337 689.011159,326.01537 689.011159,326.01537 C689.011159,326.01537 659.621159,375.82937 597.032159,382.11237 C531.977159,388.84237 509.546159,330.50337 509.546159,330.50337 C504.458159,335.59037 487.682159,370.89237 419.816159,370.89237 C341.300159,370.89237 341.300159,303.57637 341.300159,303.57637 C341.300159,303.57637 307.650159,330.50337 276.246159,319.28237 C244.839159,308.06337 244.839159,278.89237 244.839159,278.89237" id="Fill-14" fill="#FEFEFE"></path>
                </g>
                <path d="M1734.1662,396.9659 C1751.9512,410.6389 1764.0722,428.6539 1772.3322,449.3539 C1778.9822,466.0179 1782.3232,483.4549 1784.2482,501.2189 C1787.0872,527.4219 1787.1212,553.4569 1785.6572,579.7239 C1784.2412,605.1509 1781.0542,630.3119 1772.3612,654.4539 C1764.6342,675.9119 1753.8322,695.4769 1736.7012,711.0079 C1719.3212,726.7629 1698.9762,736.2049 1675.7292,739.3799 C1657.7232,741.8389 1639.8452,741.1509 1622.4402,735.8259 C1589.3412,725.6999 1569.0452,703.1389 1560.1722,670.0079 C1558.5622,663.9979 1557.6302,657.8069 1556.2612,651.0939 C1566.38051,650.253775 1576.00637,649.454298 1585.58039,648.659076 L1590.80009,648.225521 C1593.41002,648.008736 1596.02208,647.791775 1598.6452,647.5739 C1599.1822,649.7569 1599.6862,651.7479 1600.1602,653.7459 C1602.6892,664.4069 1606.5162,674.5059 1613.1002,683.3919 C1621.9422,695.3279 1633.9812,701.9319 1648.5292,703.7179 C1672.7292,706.6899 1693.5402,699.4509 1710.5382,681.8729 C1718.9822,673.1419 1724.0732,662.3379 1728.3672,651.1719 C1738.7442,624.1949 1743.3492,596.2089 1742.6522,567.3329 C1742.6452,567.0809 1742.5332,566.8309 1742.3502,566.0949 C1741.4892,567.1339 1740.7692,567.9239 1740.1362,568.7789 C1723.6972,590.9859 1702.1752,605.5299 1674.8832,610.4039 C1639.6832,616.6899 1609.0012,606.9719 1583.4082,582.0519 C1566.6452,565.7299 1557.0602,545.4099 1552.7352,522.6159 C1547.1712,493.2979 1549.4962,464.6259 1561.8642,437.2879 C1577.9102,401.8189 1605.4132,380.6509 1643.8642,374.4479 C1677.0292,369.0979 1707.4062,376.3929 1734.1662,396.9659 Z M545.7333,376.896 C570.0453,384.925 590.4543,398.496 604.8113,420.14 C615.8993,436.855 620.6803,455.516 621.4483,475.942 C606.1813,477.11 591.1313,478.262 576.1353,479.41 C574.9603,473.511 574.1453,468.083 572.7813,462.797 C566.3693,437.946 550.8043,421.775 525.9553,415.288 C498.6253,408.154 471.2323,408.47 444.2133,417.052 C432.8183,420.672 422.7223,426.706 415.0873,436.226 C401.2473,453.481 402.7023,480.779 418.1983,495.018 C422.9873,499.418 428.6333,502.447 434.5393,505.016 C450.2083,511.831 466.7093,515.927 483.2403,519.963 C505.3473,525.36 527.5223,530.533 549.4643,536.545 C566.0883,541.101 581.6723,548.458 595.5623,558.77 C617.4773,575.041 630.0553,597.02 632.0663,624.228 C635.2403,667.16 616.4013,698.797 580.0043,720.373 C559.0203,732.812 535.8873,738.712 511.6203,740.157 C486.6053,741.648 461.8793,739.677 437.6603,733.014 C411.2843,725.756 388.2653,712.91 370.6583,691.492 C357.7753,675.822 350.4693,657.666 347.5403,637.705 C346.6513,631.649 346.2223,625.526 345.5243,618.885 C361.0643,617.509 375.7823,616.206 390.9243,614.865 C391.4063,618.338 391.9063,621.512 392.2783,624.701 C394.7683,646.076 404.9063,662.989 422.1913,675.625 C437.1803,686.583 454.1513,692.954 472.3493,695.825 C493.7873,699.208 515.1803,698.795 536.2243,692.877 C549.4003,689.172 561.2313,682.977 571.1713,673.366 C594.0183,651.276 592.2713,609.107 557.9463,592.04 C541.1583,583.693 523.3813,578.583 505.3043,574.185 C503.534086,573.754357 501.76332,573.325821 499.992265,572.898401 L494.678487,571.618493 C473.421973,566.504306 452.161157,561.407857 431.3463,554.615 C417.1453,549.98 404.0553,543.222 392.2323,534.129 C373.3753,519.625 362.6393,500.378 360.4063,476.761 C358.1253,452.643 363.4013,430.388 378.9693,411.239 C390.0133,397.655 403.9513,387.85 419.8723,380.79 C437.3363,373.045 455.7753,369.54 474.7473,368.583 C498.8673,367.368 522.6703,369.279 545.7333,376.896 Z M924.93,374.344694 C927.303,374.327 928.689,375.101 930.006,377.076 C984.481,458.788 1039.061,540.429 1093.5,622.165 C1104.822,639.166 1115.302,656.697 1124.177,675.135 C1124.389,675.576 1124.668,675.984 1125.466,676.249 C1124.911,671.263 1124.4,666.27 1123.793,661.29 C1120.348,633.028 1119.315,604.649 1119.135,576.196 C1118.72,510.684 1118.025,445.174 1117.446,379.664 C1117.432,378.106 1117.444,376.548 1117.444,374.562 L1162.891,374.562 L1162.891,734.63 L1158.694,734.63 C1145.461,734.63 1132.225,734.516 1118.994,734.710787 C1115.629,734.758 1113.645,733.807 1111.714,730.919 C1052.894,642.974 993.938,555.121 935.102,467.188 C929.452,458.745 924.441,449.874 918.585,440.306 C921.477614,496.152591 922.347048,551.819688 923.077276,607.455133 L923.250823,620.807108 C923.740432,658.63641 924.235364,696.456545 925.328,734.314 L879.636,734.314 L879.636,374.645 C880.635,374.569 881.752,374.409 882.87,374.408 C896.89,374.391 910.911,374.45 924.93,374.344694 Z M2.7476,374.36939 C60.2686,374.4034 117.7906,374.3524 175.3116,374.5504 C189.7096,374.6004 204.0726,375.3964 218.1606,379.1194 C259.7626,390.1124 283.6666,422.6714 287.8916,462.1954 C289.7916,479.9654 287.6596,497.2614 280.2526,513.6384 C270.8186,534.4954 254.4616,548.2304 233.9826,557.4744 C220.1656,563.7114 205.5846,567.3034 190.6296,569.4944 C189.8866,569.6044 189.1516,569.7764 187.7976,570.0384 C188.6556,570.7464 189.0356,571.2024 189.5236,571.4424 C211.6396,582.3204 228.5056,599.2534 242.5626,618.9404 C254.2696,635.3344 264.9186,652.4894 275.8776,669.4094 C288.9736,689.6294 301.9016,709.9584 314.8986,730.2424 C315.6676,731.4424 316.4006,732.6644 317.4136,734.3024 C316.1336,734.4204 315.1846,734.5844 314.2346,734.5854 C296.5456,734.6004 278.8566,734.5364 261.1686,734.663668 C258.5816,734.6814 257.2166,733.7924 255.8656,731.6744 C235.8626,700.3314 216.0326,668.8724 195.5676,637.8314 C187.0826,624.9614 177.4696,612.7964 167.8506,600.7244 C160.9266,592.0364 151.8086,585.7694 142.0506,580.4624 C135.6956,577.0064 128.9226,575.1484 121.7596,575.0714 C97.9156,574.8164 74.0696,574.7234 50.2246,574.5834 C49.5926,574.5794 48.9586,574.7424 48.0546,574.8634 L48.0546,734.5974 L-0.000399999998,734.5974 L-0.000399999998,374.4834 C0.9156,374.4434 1.8316,374.36939 2.7476,374.36939 Z M1468.36,638.792 L1468.36,650.742 L1248.614,650.742 L1248.614,638.792 L1468.36,638.792 Z M1653.4652,410.5239 C1634.0122,413.5459 1619.6782,424.2959 1609.6902,440.7479 C1591.9102,470.0369 1590.2532,501.1829 1603.1022,532.3069 C1614.2942,559.4159 1635.8762,573.2399 1665.5582,573.5479 C1702.4452,574.0479 1724.5462,549.3579 1732.6992,526.5239 C1737.5422,512.9579 1738.5642,498.9689 1737.1182,484.6929 C1734.7762,461.5639 1725.4302,441.8949 1708.1062,426.3209 C1692.5182,412.3069 1674.1232,407.3139 1653.4652,410.5239 Z M1354.5035,369.7767 C1405.2855,369.7767 1446.4515,412.7587 1446.4515,465.7797 C1446.4515,518.7997 1405.2855,561.7817 1354.5035,561.7817 C1303.7225,561.7817 1262.5555,518.7997 1262.5555,465.7797 C1262.5555,412.7587 1303.7225,369.7767 1354.5035,369.7767 Z M52.4726,413.9764 L48.1586,413.9764 L48.1586,533.1704 C48.9596,533.2244 49.5826,533.3034 50.2046,533.3024 C87.6626,533.2724 125.1216,533.4344 162.5756,533.0604 C172.2006,532.9644 181.9616,531.9224 191.3896,529.9904 C205.9896,526.9994 218.4266,520.0084 227.5856,507.6114 C251.7846,474.8574 235.8606,428.3954 197.8186,418.5224 C185.2826,415.2684 172.5966,414.0134 159.7376,413.9944 C123.9826,413.9434 88.2276,413.9764 52.4726,413.9764 Z M1354.5035,401.5537 C1320.5305,401.5537 1292.9905,430.3087 1292.9905,465.7797 C1292.9905,501.2497 1320.5305,530.0047 1354.5035,530.0047 C1388.4765,530.0047 1416.0165,501.2497 1416.0165,465.7797 C1416.0165,430.3087 1388.4765,401.5537 1354.5035,401.5537 Z" id="Combined-Shape" fill="#FFFFFF"></path>
                <path d="M5033.9141,473.313 C5034.2421,474.023 5034.6821,474.809 5034.9831,475.646 C5054.4111,529.682 5073.9661,583.673 5093.1541,637.794 C5098.3901,652.566 5102.5181,667.73 5107.1511,682.706 C5107.2451,682.584 5107.6891,682.249 5107.7941,681.828 C5114.4931,655.182975 5123.83088,629.417998 5133.29747,603.69585 L5135.88058,596.681151 L5135.88058,596.681151 L5137.60061,592.004001 C5138.17322,590.444705 5138.7449,588.8851 5139.3151,587.325 C5152.7421,550.592 5166.1491,513.851 5179.5701,477.115 C5180.0141,475.899 5180.5161,474.703 5181.1011,473.219 L5225.5391,473.219 C5225.0491,474.787 5224.7081,476.101 5224.2341,477.365 C5204.0001,531.246 5183.7351,585.115 5163.5181,639.001 C5147.3451,682.111 5131.2691,725.257 5115.0631,768.354 C5109.8931,782.102 5103.6991,795.374 5095.4341,807.59 C5088.5891,817.708 5080.3831,826.378 5069.4201,832.15 C5056.4131,838.999 5042.5081,840.487 5028.1901,838.731 C5024.9363,838.332 5021.72966,837.56508 5018.52417,836.774112 L5016.38685,836.247011 C5014.9614,835.898267 5013.53417,835.559867 5012.1011,835.262 C5010.1121,834.848 5009.2891,833.774 5009.0831,831.802 C5007.7841,819.299 5006.4101,806.803 5005.0751,794.303 C5005.0361,793.933 5005.1541,793.547 5005.2371,792.846 C5008.0681,793.493 5010.8011,794.157 5013.5511,794.74 C5024.0421,796.968 5034.5471,797.433 5045.1301,795.24 C5052.3781,793.739 5058.4141,790.203 5062.7721,784.34 C5065.9501,780.063 5068.9621,775.486 5071.0501,770.615 C5075.9411,759.202 5080.1901,747.515 5084.8091,735.983 C5085.45273,734.375917 5085.01272,733.065906 5084.49085,731.767177 L5084.3245,731.357094 C5084.24113,731.151906 5084.15835,730.94625 5084.0801,730.739 C5076.0341,709.448 5067.9551,688.169 5059.8741,666.892 C5035.9111,603.793 5011.9411,540.697 4987.9801,477.597 C4987.5201,476.387 4987.1401,475.147 4986.7261,473.93 C4988.15038,473.371 4998.13742,472.986949 5008.80894,472.871632 L5010.04286,472.859524 L5010.04286,472.859524 L5011.28017,472.849833 C5012.51827,472.841362 5013.75742,472.836565 5014.98551,472.835585 L5016.20946,472.835884 C5023.5257,472.845374 5030.29862,472.99404 5033.9141,473.313 Z M4788.1364,373.7525 L4788.1364,501.1365 C4788.3644,501.2565 4788.5914,501.3755 4788.8194,501.4955 C4789.6344,500.5775 4790.4654,499.6725 4791.2614,498.7385 C4804.2454,483.5085 4820.1514,472.6165 4839.9784,469.1525 C4879.8644,462.1835 4913.8034,473.5835 4940.5854,504.3415 C4953.8584,519.5835 4961.3584,537.8095 4965.8594,557.3225 C4970.8254,578.8465 4971.5964,600.6035 4969.2204,622.5305 C4967.0874,642.2235 4962.2034,661.1325 4953.2524,678.8565 C4942.2084,700.7255 4926.6294,718.3925 4904.2754,729.1505 C4879.6764,740.9885 4854.1604,743.6355 4828.0424,734.6005 C4811.8444,728.9975 4798.9874,718.7235 4788.9464,704.8805 L4788.3401,704.056944 L4788.3401,704.056944 L4787.1144,702.4205 L4787.1144,702.4205 C4786.8314,702.5085 4786.5474,702.5965 4786.2624,702.6855 C4785.9544,712.8685 4785.6454,723.0515 4785.3284,733.4955 L4744.2854,733.4955 L4744.2854,373.7525 L4788.1364,373.7525 Z M4605.3398,468.1229 C4619.8768,469.5089 4634.0328,472.6209 4647.2968,479.0279 C4653.0998,481.8319 4658.4928,485.2599 4663.4028,489.4619 C4673.0438,497.7109 4678.3748,508.4239 4681.5708,520.4689 C4683.8088,528.8979 4684.6488,537.4719 4684.7068,546.1309 C4684.8438,566.8349 4684.8018,587.5399 4684.9268,608.2439 C4685.0718,632.3539 4685.2358,656.4649 4685.5598,680.5729 C4685.6928,690.4099 4687.0858,700.1449 4688.9938,709.7949 C4690.3008,716.4019 4692.7388,722.5849 4696.0338,728.4439 C4696.9228,730.0249 4697.7948,731.6159 4698.8578,733.5349 L4652.7858,733.5349 C4647.6858,723.9159 4645.3048,713.2699 4643.6538,701.7359 C4642.3088,702.8019 4641.2518,703.6229 4640.2118,704.4649 C4626.0798,715.9089 4610.8778,725.5399 4593.6978,731.7839 C4576.1048,738.1789 4557.9548,740.6149 4539.2708,739.5459 C4525.8128,738.7769 4512.7398,736.3939 4500.4858,730.6279 C4480.7658,721.3489 4466.4658,706.9849 4461.1538,685.3989 C4454.3328,657.6779 4460.1678,632.8789 4480.6248,612.3529 C4490.2328,602.7129 4502.3738,596.9809 4514.9728,592.3179 C4525.0828,588.5759 4535.6758,586.7299 4546.3038,585.1839 C4566.5078,582.2439 4586.7538,579.5809 4606.9218,576.4229 C4618.0248,574.6849 4628.9428,571.9219 4640.0848,568.2039 C4640.1108,557.8559 4640.6148,547.7789 4638.1128,537.8669 C4633.8448,520.9579 4622.8198,510.9279 4606.2448,506.5949 C4592.7738,503.0739 4579.0588,502.7619 4565.2768,503.7989 C4558.0818,504.3409 4551.0228,505.6229 4544.1428,507.9349 C4533.6408,511.4659 4525.5978,517.9829 4519.7718,527.3399 C4515.4458,534.2879 4512.5668,541.8489 4510.2668,549.6589 C4509.9728,550.6569 4509.6798,551.6559 4509.2608,553.0819 C4494.9858,551.2609 4480.7638,549.4459 4466.5328,547.6299 C4470.9198,517.5499 4485.7708,495.1889 4512.8218,481.4539 C4524.9438,475.2989 4537.8668,471.6439 4551.2668,469.5159 C4569.2368,466.6619 4587.2788,466.4009 4605.3398,468.1229 Z M3589.9076,373.128 C3631.4436,384.544 3660.5576,410.569 3677.9266,449.812 C3681.0926,456.964 3683.5146,464.446 3686.4666,472.272 C3670.2726,476.1 3654.9096,479.731 3639.5026,483.373 C3637.3416,477.86 3635.4546,472.572 3633.2206,467.436 C3626.7806,452.629 3618.3376,439.178 3605.9626,428.522 C3592.7316,417.128 3577.0916,411.21 3559.9976,409.061 C3540.5406,406.615 3521.2586,407.815 3502.4826,413.73 C3473.9466,422.72 3453.6756,441.472 3440.0756,467.743 C3430.8036,485.654 3426.2046,504.933 3424.2006,524.883 C3422.0036,546.754 3422.4886,568.585 3425.7706,590.319 C3429.5136,615.106 3437.1556,638.42 3452.5166,658.668 C3469.4586,681 3492.0496,693.598 3519.6836,697.446 C3537.9446,699.989 3556.0516,699.383 3573.7456,693.984 C3601.6376,685.472 3620.6786,666.828 3633.1276,640.948 C3637.7956,631.245 3641.0786,621.043 3643.5516,610.573 C3643.7866,609.581 3644.1326,608.616 3644.5306,607.292 C3660.3896,611.296 3676.0446,615.249 3692.3006,619.353 C3690.1496,626.061 3688.2996,632.435 3686.0706,638.674 C3677.4456,662.824 3664.6546,684.347 3645.7846,702.004 C3626.3206,720.217 3603.3626,731.685 3577.2606,736.402 C3544.0916,742.396 3511.1946,740.527 3479.0946,730.056 C3441.4536,717.777 3414.6806,692.854 3397.5726,657.444 C3378.1486,617.24 3371.0336,574.718 3374.4616,530.318 C3376.5186,503.679 3382.8416,478.169 3394.9116,454.243 C3417.1256,410.207 3452.5186,382.835 3500.4686,371.923 C3530.2946,365.135 3560.2756,364.984 3589.9076,373.128 Z M3861.983,466.9676 C3878.826,467.3786 3895.384,469.5206 3911.273,475.4826 C3912.742,476.0336 3914.199,476.6176 3915.646,477.2246 C3936.469,485.9686 3949.806,501.0596 3954.013,523.4586 C3955.431,531.0106 3956.306,538.7706 3956.394,546.4476 C3956.721,575.1396 3956.565,603.8366 3956.702,632.5306 C3956.71286,634.795314 3956.721,637.060335 3956.72899,639.32551 L3956.75505,646.121346 C3956.80624,657.448008 3956.91757,668.774743 3957.409,680.0826 C3957.834,689.8566 3959.328,699.6076 3960.76,709.3066 C3961.779,716.2166 3964.559,722.6126 3968.073,728.6626 C3968.91,730.1036 3969.634,731.6106 3970.555,733.3656 L3924.113,733.3656 C3922.345,728.3786 3920.258,723.3136 3918.774,718.0766 C3917.286,712.8236 3916.399,707.4006 3915.182,701.7446 C3912.034,704.1986 3908.997,706.6356 3905.889,708.9796 C3887.898,722.5496 3868.32,732.8256 3845.962,736.9496 C3820.876,741.5776 3796.057,741.0966 3772.416,730.3916 C3751.295,720.8276 3737.026,705.0586 3732.08,681.8976 C3724.748,647.5636 3740.134,615.8966 3768.032,600.6106 C3782.253,592.8186 3797.32,588.0196 3813.246,585.7296 C3830.606,583.2336 3848.075,581.4256 3865.354,578.4756 C3879.642,576.0366 3893.723,572.3816 3907.889,569.2346 C3909.139,568.9576 3910.34,568.4576 3911.773,567.9936 C3911.7995,566.7348 3911.82783,565.47778 3911.8526,564.222878 L3911.88028,562.718034 C3912.06146,551.940914 3911.8203,541.33044 3907.731,531.1016 C3903.105,519.5296 3894.743,511.7376 3883.014,508.0846 C3875.95,505.8836 3868.533,504.4226 3861.168,503.6726 C3847.562,502.2876 3833.973,502.8946 3820.594,506.2556 C3806.412,509.8186 3795.808,517.9586 3789.363,531.0486 C3786.432,537.0016 3784.413,543.4036 3781.998,549.6086 C3781.627,550.5606 3781.351,551.5496 3780.925,552.8456 C3766.601,551.0096 3752.39,549.1876 3738.267,547.3766 C3743.731,510.9516 3764.079,487.4846 3798.111,475.4966 C3818.807,468.2056 3840.247,466.4366 3861.983,466.9676 Z M4126.9959,467.6916 C4139.9309,469.4116 4151.6739,474.2376 4163.1119,481.1846 C4158.1099,494.6916 4153.1459,508.0966 4148.0839,521.7656 C4145.7169,520.5726 4143.7799,519.5406 4141.7959,518.6066 C4132.1509,514.0686 4122.0719,511.7756 4111.3499,512.5826 C4098.4649,513.5526 4088.5159,519.5806 4081.1269,529.9956 C4074.2489,539.6916 4070.6969,550.7326 4068.4649,562.2616 C4066.1409,574.2666 4065.4649,586.4186 4065.4589,598.6166 C4065.4409,641.9826 4065.4519,685.3476 4065.4519,728.7136 L4065.4519,733.6516 L4022.4629,733.6516 C4022.00234,732.01399 4021.71528,649.480179 4021.70301,577.773852 L4021.70274,570.26977 C4021.70788,519.319302 4021.85703,475.63602 4022.1879,473.3556 L4061.2929,473.3556 L4061.2929,510.7226 C4061.5409,510.7926 4061.7899,510.8616 4062.0379,510.9306 C4062.7009,509.8756 4063.3969,508.8406 4064.0179,507.7636 C4068.4719,500.0396 4073.3119,492.5906 4078.9939,485.6886 C4091.5529,470.4336 4107.7709,465.1336 4126.9959,467.6916 Z M4363.0905,474.3673 C4385.5115,483.0623 4400.2635,499.0073 4407.7455,521.8523 C4410.4345,530.0623 4411.1955,538.5123 4411.5065,547.0093 C4411.9225,558.3983 4412.0975,569.8023 4412.1115,581.2003 C4412.1725,630.3393 4412.1375,679.4783 4412.1375,728.6173 L4412.1375,733.5133 L4367.8395,733.5133 C4367.8035,732.0853 4367.7335,730.5733 4367.7335,729.0613 C4367.7275,679.0053 4367.7305,628.9493 4367.7275,578.8933 C4367.7265,568.5423 4367.8695,558.1723 4366.1375,547.9233 C4362.6805,527.4653 4351.7305,513.2123 4331.1635,507.9873 C4304.4495,501.2013 4280.8675,507.4583 4261.0925,526.8053 C4253.2425,534.4863 4249.5995,544.4753 4247.3295,554.9923 C4245.2775,564.4943 4244.1805,574.1323 4244.1635,583.8423 C4244.0735,632.0633 4244.0865,680.2853 4244.0635,728.5063 L4244.0635,733.5483 L4244.0635,733.5483 L4199.9455,733.5483 L4199.9455,473.3613 L4239.4715,473.3613 L4239.4715,509.5843 C4241.1555,507.4063 4242.3185,505.8723 4243.5125,504.3633 C4258.6155,485.2833 4278.2345,473.5143 4302.0505,469.0383 C4322.8165,465.1363 4343.2845,466.6873 4363.0905,474.3673 Z M4640.1328,603.4099 C4639.2898,603.4689 4639.0108,603.4269 4638.7798,603.5139 C4620.0528,610.4829 4600.5438,614.1939 4580.9268,617.4969 C4569.3258,619.4499 4557.7138,621.3859 4546.1958,623.7649 C4537.7328,625.5129 4529.5708,628.3709 4522.0738,632.8489 C4515.4188,636.8239 4510.6078,642.3639 4508.0728,649.7029 C4505.5398,657.0369 4505.1878,664.6059 4506.6928,672.1749 C4509.2778,685.1739 4517.5658,693.5989 4529.1098,699.2009 C4537.8798,703.4559 4547.2818,704.8329 4556.9268,704.9869 C4575.3008,705.2789 4592.6318,701.2489 4608.0658,691.1649 C4624.6908,680.3029 4635.3858,665.1669 4638.5398,645.1729 C4640.0148,635.8179 4640.0948,626.4019 4640.1298,616.9749 C4640.1468,612.5429 4640.1328,608.1099 4640.1328,603.4099 Z M3912.282,603.2246 C3902.577,605.9576 3893.902,608.9876 3884.979,610.7926 C3866.275,614.5756 3847.43,617.6606 3828.663,621.1386 C3817.974,623.1196 3807.443,625.7116 3797.605,630.5346 C3790.996,633.7746 3785.472,638.2166 3781.898,644.8206 C3773.318,660.6766 3777.21,681.7356 3791.347,692.8366 C3795.789,696.3246 3801.026,699.2516 3806.365,701.0656 C3823.137,706.7646 3840.176,705.7936 3857.006,701.1016 C3872.193,696.8666 3885.51,689.4066 3895.667,676.9686 C3904.603,666.0256 3910.256,653.7296 3910.948,639.4786 C3911.53,627.4776 3911.842,615.4636 3912.282,603.2246 Z M4855.3294,503.32832 C4834.6964,503.4425 4818.1074,511.6505 4805.4234,527.8755 C4798.4764,536.7615 4793.7364,546.7555 4790.5344,557.5155 C4785.9684,572.8555 4784.6154,588.5885 4784.5474,604.5305 C4784.9774,612.3735 4785.1244,620.2435 4785.8994,628.0525 C4787.2384,641.5565 4790.4504,654.6175 4796.7604,666.7455 C4807.2794,686.9645 4822.9554,700.1415 4846.3294,702.5995 C4868.8074,704.9635 4887.6614,698.0255 4902.1484,680.3965 C4915.9464,663.6065 4921.8994,643.7395 4924.1724,622.5445 C4925.5734,609.4785 4925.5004,596.3895 4924.2244,583.3105 C4922.9334,570.0765 4920.1154,557.2145 4914.7634,544.9865 C4911.3284,537.1425 4906.9464,529.8685 4901.2734,523.4315 C4889.0894,509.6075 4873.6504,503.2285 4855.3294,503.32832 Z" id="Combined-Shape" fill="#FFFFFF"></path>
            </g>
        </g>
    </g>
</svg>