<?xml version="1.0" encoding="UTF-8"?>
<svg width="80px" height="28px" viewBox="0 0 80 28" version="1.1" xmlns="http://www.w3.org/2000/svg" xmlns:xlink="http://www.w3.org/1999/xlink">
    <title>logo/carnaby</title>
    <defs>
        <filter id="filter-1">
            <feColorMatrix in="SourceGraphic" type="matrix" values="0 0 0 0 1.000000 0 0 0 0 1.000000 0 0 0 0 1.000000 0 0 0 1.000000 0"></feColorMatrix>
        </filter>
        <polygon id="path-2" points="3.97042025e-07 6.84694698e-05 22.9963209 6.84694698e-05 22.9963209 25.9890564 3.97042025e-07 25.9890564"></polygon>
    </defs>
    <g id="☮️-Symbols" stroke="none" stroke-width="1" fill="none" fill-rule="evenodd">
        <g id="global/nav/desktop-carnaby" transform="translate(-115.000000, -9.000000)">
            <g id="site-links" transform="translate(13.000000, 0.000000)">
                <g id="Group-34" transform="translate(102.000000, 9.000000)">
                    <path d="M74.5158262,17.550623 C74.5252419,17.5708885 74.5378343,17.5933232 74.5464487,17.6172136 C75.1024616,19.1595581 75.6620805,20.7006181 76.2112248,22.2453886 C76.3611033,22.6670244 76.4792145,23.099849 76.6118357,23.527279 C76.6144973,23.5237968 76.6272042,23.5142349 76.6302378,23.5022469 C76.8626253,22.5803682 77.2059407,21.6954525 77.5323421,20.8048567 C77.9165829,19.7563902 78.3003085,18.7076953 78.6843775,17.6591432 C78.6971131,17.624435 78.7114513,17.5902977 78.7281935,17.54794 L80,17.54794 C79.9859766,17.5926953 79.9761889,17.6302007 79.9626234,17.6662789 C79.3835434,19.2041992 78.8036049,20.7417769 78.2250115,22.2798399 C77.7621253,23.5103245 77.3020438,24.7418367 76.8382418,25.9719503 C76.6902808,26.3643582 76.5130424,26.7431511 76.2765051,27.0918597 C76.0805784,27.3806569 75.8457582,27.6281238 75.5320064,27.7928735 C75.1597285,27.9883638 74.7617792,28.0308357 74.3520101,27.9807143 L74.1978462,27.9536927 L74.1978462,27.9536927 L73.8915852,27.881699 L73.8915852,27.881699 C73.8346331,27.8698822 73.8110795,27.8392272 73.8052126,27.7829406 C73.7680077,27.4260686 73.7287136,27.0693679 73.690507,26.7126102 C73.6893623,26.7020493 73.6927679,26.6910032 73.6951433,26.6710231 L73.9330544,26.7250834 L73.9330544,26.7250834 C74.2332979,26.788677 74.5339707,26.8019495 74.8368186,26.7393549 C75.0442502,26.696512 75.217024,26.5955842 75.3417463,26.4282372 C75.432698,26.3061592 75.5188702,26.1755183 75.578627,26.0364858 C75.7186319,25.7106971 75.8402061,25.3771162 75.972398,25.0479879 C75.9956653,24.9900458 75.9694788,24.9456331 75.9515346,24.8983089 C75.7212649,24.2906019 75.4900794,23.6832375 75.258808,23.0759015 C74.5730072,21.2749013 73.8869775,19.4739582 73.201234,17.6729009 C73.1880978,17.6383639 73.1772225,17.6029707 73.1653456,17.568234 C73.2437621,17.5375504 74.228404,17.525334 74.5158262,17.550623 Z M67.4819052,14.70888 L67.4819052,18.3447894 C67.4884017,18.3482146 67.4949269,18.3516112 67.5014234,18.3550363 C67.5247767,18.3288054 67.5485592,18.3030026 67.57134,18.2763435 C67.9429025,17.8416351 68.3981187,17.5307172 68.9655793,17.4318731 C70.1070542,17.2329576 71.0783883,17.5583468 71.8448664,18.4362694 C72.2246998,18.8713204 72.4393721,19.3915434 72.5681583,19.9485011 C72.710281,20.5628586 72.732375,21.1838666 72.6643759,21.8097268 C72.6033026,22.3717937 72.4635267,22.9115401 72.2073853,23.4174345 C71.8912867,24.0416108 71.4454575,24.5459068 70.805705,24.8529714 C70.1016738,25.1908623 69.3714275,25.2663868 68.6239811,25.0085302 C68.1603794,24.8486043 67.792423,24.5553545 67.5050581,24.1602351 C67.4878866,24.1366016 67.4701427,24.1133962 67.4526564,24.0900195 C67.4445286,24.0925313 67.4364007,24.0950431 67.4282729,24.0975549 C67.4194296,24.3882358 67.4106149,24.6788882 67.401514,24.9769903 L66.2268981,24.9769903 L66.2268981,14.70888 L67.4819052,14.70888 Z M62.250407,17.4024854 C62.6664436,17.4420458 63.0715763,17.5308714 63.4511522,17.7137457 C63.6172864,17.7937515 63.7716008,17.8916251 63.9121495,18.0115624 C64.1880381,18.2470128 64.3406068,18.552793 64.4320736,18.8965923 C64.4961233,19.1371519 64.520192,19.3819073 64.5218233,19.6290603 C64.5257441,20.2200126 64.5245707,20.8109935 64.5281195,21.4019458 C64.5322693,22.0901152 64.5369628,22.7783132 64.5462354,23.4664256 C64.5500418,23.7472021 64.5899083,24.0250388 64.6445136,24.3005063 C64.6819188,24.4890893 64.7516923,24.6655701 64.8459638,24.832803 C64.8714349,24.8779293 64.8963622,24.9233411 64.9268416,24.9780864 L63.6082713,24.9780864 C63.4623136,24.7035322 63.3942001,24.3996644 63.3469212,24.0704791 C63.3084285,24.1009058 63.278178,24.1243395 63.2484141,24.1483726 C62.8439682,24.4750177 62.4088712,24.7499144 61.9172228,24.9281363 C61.4137547,25.1106396 60.8942598,25.1801987 60.3595682,25.1496863 C59.9744116,25.1277368 59.6002448,25.0597191 59.2496029,24.8951407 C58.6852046,24.6302625 58.2759507,24.2203008 58.1239258,23.6041451 C57.9287145,22.8129357 58.0956787,22.1050717 58.6811693,21.5192 C58.9561421,21.244075 59.3036073,21.080467 59.6642086,20.9473715 C59.9535196,20.8405639 60.2567109,20.7878737 60.5608467,20.7437464 C61.139068,20.6598302 61.7184628,20.5838205 62.2956825,20.493682 C62.6134409,20.4440744 62.9259049,20.3652104 63.2447795,20.2590879 C63.2455522,19.9637259 63.259919,19.676099 63.1883425,19.3931817 C63.0661959,18.9105498 62.7506698,18.6242644 62.2762787,18.500588 C61.8907787,18.4000884 61.498267,18.3911831 61.1038379,18.4207821 C60.8978944,18.4362523 60.6959004,18.4728158 60.4990293,18.5388355 C60.1984423,18.6396205 59.9682585,18.8256346 59.8015233,19.0927106 C59.6777168,19.2910267 59.5953223,19.5068396 59.5294982,19.7297597 C59.5210842,19.7582455 59.5126988,19.7867313 59.5007074,19.827462 C59.092169,19.7754854 58.6851474,19.72368 58.2778682,19.6718461 C58.4033918,18.8132755 58.8284435,18.1749991 59.6026202,17.7829623 C59.9495416,17.6073093 60.3193582,17.5029564 60.7028835,17.4422171 C61.2171697,17.3607842 61.7335165,17.3533345 62.250407,17.4024854 Z M33.1895745,14.6910464 C34.3783283,15.0168922 35.2115463,15.7596928 35.7086324,16.8798305 C35.7992406,17.0839694 35.8685276,17.2975274 35.9530399,17.5209042 C35.4895527,17.6301664 35.0499053,17.7338057 34.6089414,17.837759 C34.5470954,17.6803734 34.4930911,17.529467 34.4291845,17.3828707 C34.2448485,16.9602359 34.003217,16.5763338 33.6490836,16.2721521 C33.270395,15.9469342 32.8227914,15.7780173 32.3335756,15.7167071 C31.7767328,15.6468627 31.2248983,15.6811141 30.6875737,15.8499454 C29.8708689,16.1065461 29.29073,16.6417827 28.9015096,17.3916334 C28.6361814,17.9028653 28.5045333,18.453144 28.4471805,19.022575 C28.3843042,19.6468368 28.3981845,20.269957 28.4921412,20.8903085 C28.5992627,21.5978015 28.8179416,22.2632508 29.2575891,22.8411875 C29.7424548,23.4786077 30.3889614,23.8381912 31.1798517,23.9480243 C31.7024661,24.0206089 32.2206731,24.0033119 32.7270318,23.8492088 C33.5253058,23.6062801 34.0702431,23.0740976 34.4265229,22.3354072 C34.5600885,22.0584554 34.6540738,21.7672607 34.724849,21.4684165 C34.7315459,21.4401019 34.7414481,21.412558 34.7528385,21.3747672 C35.2067383,21.489053 35.6547425,21.6018831 36.1199755,21.7190232 C36.0584443,21.910489 36.0054702,22.0924215 35.9417067,22.2705007 C35.6948666,22.9598118 35.328799,23.5741408 34.7887555,24.0781229 C34.2317123,24.5979748 33.5746738,24.9253334 32.8276567,25.0599417 C31.878388,25.2310279 30.9369037,25.1776812 30.0182289,24.8788084 C28.9409468,24.5283301 28.1747548,23.8169553 27.6851097,22.806251 C27.1292399,21.658712 26.925586,20.4450106 27.0237211,19.1777056 C27.0825907,18.4173512 27.2635496,17.6892217 27.6089541,17.0063041 C28.2447,15.7494173 29.2576463,14.9681124 30.6299061,14.6566522 C31.4835009,14.4629029 32.3415604,14.458593 33.1895745,14.6910464 Z M40.9761449,17.3695012 C41.4582059,17.3812323 41.9320818,17.4423712 42.3868116,17.612544 C42.4288531,17.6282712 42.4705512,17.6449402 42.5119345,17.6622658 C43.1078711,17.9118735 43.4895934,18.3425859 43.6099656,18.9819184 C43.6505761,19.1974745 43.6755893,19.4189674 43.6781078,19.6380913 C43.6874662,20.4570443 43.6830016,21.2761401 43.6869511,22.0951502 C43.6891261,22.5476409 43.6874662,23.0005597 43.7071848,23.4524224 C43.719348,23.7314008 43.762105,24.0097226 43.803059,24.2865888 C43.8322505,24.4837917 43.9117831,24.6663807 44.0123795,24.8390367 C44.0363337,24.8801671 44.057054,24.9231812 44.0833836,24.973274 L42.7542529,24.973274 C42.7036542,24.8309306 42.6439547,24.6863607 42.6014838,24.5369101 C42.5588985,24.3869457 42.5334847,24.2321575 42.4986552,24.0707188 C42.4085907,24.1407917 42.3216744,24.2103507 42.2326974,24.2772267 C41.7178102,24.664554 41.1575045,24.9578609 40.5176661,25.0755718 C39.799726,25.2076684 39.0893986,25.1939392 38.4128418,24.8883874 C37.8083481,24.6154031 37.3999814,24.16531 37.2584311,23.5042278 C37.048624,22.5242357 37.4889583,21.6203675 38.2873755,21.1840607 C38.6943684,20.9616543 39.1255446,20.8246769 39.5813618,20.7593137 C40.0781617,20.6880706 40.5781383,20.636465 41.0726201,20.5522635 C41.4815305,20.4826473 41.8845454,20.378323 42.2899644,20.2884985 C42.3257097,20.2805921 42.3601099,20.2663206 42.4010925,20.2530767 C42.4087052,19.8937786 42.421498,19.5395612 42.2854425,19.2000719 C42.1530503,18.8697734 41.9137083,18.647367 41.5780343,18.5430713 C41.3758972,18.4802769 41.1636003,18.4385472 40.9528489,18.4171685 C40.5634281,18.3776366 40.1745224,18.3949621 39.7916268,18.4908948 C39.3857786,18.5925932 39.0822724,18.8249325 38.897822,19.1985876 C38.8139393,19.368475 38.7561858,19.5512067 38.6870419,19.7283154 C38.6764528,19.7554883 38.6685253,19.7837172 38.6563622,19.8207088 C38.2463928,19.768304 37.8396861,19.7162988 37.4354978,19.6646076 C37.5918728,18.6249323 38.1742439,17.9551445 39.148211,17.6129436 C39.7404843,17.4048373 40.3541076,17.3543449 40.9761449,17.3695012 Z M48.6178566,17.3901434 C48.9880453,17.4392658 49.32412,17.5770138 49.6514659,17.7753014 C49.5083129,18.1608304 49.3662474,18.5434195 49.2213773,18.933601 C49.1536357,18.8995493 49.0981718,18.8700645 49.04142,18.843434 C48.7653883,18.7139063 48.4769359,18.6484574 48.1700813,18.6714915 C47.8013521,18.6991781 47.5165629,18.8712062 47.3051246,19.1685091 C47.1082535,19.4452611 47.0065983,19.7604033 46.9427489,20.089446 C46.8762094,20.4321321 46.8568628,20.7789855 46.8567198,21.1271518 L46.8564908,24.981443 L46.8564908,24.981443 L45.6262106,24.981443 C45.6161308,24.9456978 45.6089548,23.5596061 45.6059792,21.9940361 L45.6051055,21.4359362 C45.6049896,21.342313 45.6048888,21.2485455 45.6048034,21.1548718 L45.6049774,19.5303676 C45.6063808,18.4387971 45.6106418,17.6047575 45.6183404,17.551839 L46.7374924,17.551839 L46.7374924,18.6184017 C46.7445899,18.6203997 46.7517161,18.6223406 46.7588136,18.6243386 C46.7777595,18.5942259 46.7976784,18.564684 46.8154796,18.5339147 C46.9429493,18.3134779 47.0814373,18.1008332 47.2440514,17.9038586 C47.6034793,17.4684366 48.0676534,17.3171307 48.6178566,17.3901434 Z M55.3174086,17.5807101 C55.9591072,17.8288907 56.3812683,18.2840073 56.5954541,18.9360985 C56.6723824,19.1704072 56.6941902,19.4115948 56.7030621,19.6541238 C56.7149677,19.9792275 56.719976,20.3047023 56.7203767,20.6300343 L56.7214034,22.733889 L56.7214034,22.733889 L56.7211208,24.9774898 L55.4533209,24.9774898 C55.4523192,24.9367305 55.4503159,24.8935737 55.4503159,24.8504168 L55.4501156,20.5641858 L55.4501156,20.5641858 C55.4501156,20.2687382 55.4542367,19.9727483 55.4046397,19.6802121 C55.3057033,19.0962813 54.992295,18.6894593 54.4037135,18.5403226 C53.6391814,18.3466304 52.9642846,18.5252234 52.3983408,19.077443 C52.1736805,19.296681 52.0693923,19.5817961 52.0044554,19.8819818 C51.9457575,20.1531965 51.9143337,20.4282931 51.9138472,20.7054447 C51.9112714,22.0818121 51.9116435,23.4582081 51.9109852,24.8345755 L51.9109852,24.9784888 L51.9109852,24.9784888 L50.6483655,24.9784888 L50.6483655,17.551996 L51.7795661,17.551996 L51.7795661,18.5859056 C51.8277607,18.5237392 51.8610448,18.4799543 51.8952161,18.4368831 C52.3274512,17.8922845 52.8889303,17.556363 53.5705241,17.4286335 C54.1648294,17.3172306 54.7506062,17.3615006 55.3174086,17.5807101 Z M63.2461532,21.2639694 C63.2220272,21.2656534 63.2140425,21.2644546 63.2074315,21.2669093 C62.6714806,21.4658533 62.1131495,21.5717475 61.5517276,21.6660247 C61.2197168,21.7217976 60.8873912,21.7770566 60.5577558,21.8449602 C60.3155519,21.8948532 60.0819624,21.9764288 59.8674046,22.104244 C59.6769441,22.217702 59.5392574,22.3758297 59.4667078,22.5852775 C59.3942155,22.7946112 59.3841702,23.010681 59.427242,23.2267222 C59.5011939,23.5977515 59.7384181,23.8382254 60.0687689,23.9981228 C60.3197589,24.1195729 60.5888362,24.1588764 60.8648965,24.1632435 C61.3907162,24.1716066 61.8867148,24.0565787 62.3284228,23.768752 C62.8042448,23.458719 63.1102981,23.0266936 63.2005629,22.4560067 C63.2427761,22.1889878 63.2450656,21.9202278 63.2460673,21.6511539 L63.2461532,21.2639694 L63.2461532,21.2639694 Z M42.4156597,21.2586718 C42.1379394,21.3366796 41.8896396,21.4231646 41.6342709,21.4746845 C41.0989783,21.5826623 40.559679,21.6707172 40.0225833,21.7699894 C39.7166732,21.8265329 39.4152563,21.9005161 39.1337011,22.0381785 C38.9445571,22.1306576 38.7864649,22.2574451 38.68418,22.445971 C38.4386277,22.8985188 38.550042,23.4996038 38.9546024,23.8164586 C39.0817573,23.9160163 39.2316358,23.9995614 39.3844048,24.0513382 C39.8644053,24.2140042 40.3520756,24.186289 40.833736,24.0523657 C41.2683464,23.9315151 41.6494963,23.7185565 41.9401811,23.3635398 C42.1959218,23.0511948 42.3577059,22.7002312 42.3774817,22.2934663 C42.3941381,21.9509229 42.4030959,21.6080084 42.4156597,21.2586718 Z M69.4048833,18.4073503 C68.8143843,18.4106094 68.3396498,18.6448895 67.9766445,19.1079982 C67.7777986,19.3616304 67.6421724,19.6468882 67.5505053,19.9540099 C67.4198302,20.391858 67.3811085,20.8409236 67.3791624,21.2959546 C67.3914686,21.5198166 67.3956757,21.7444492 67.4178841,21.9673408 C67.4562052,22.3527842 67.5481299,22.725583 67.7287167,23.0717514 C68.0297616,23.6488604 68.4783668,24.0249703 69.1473109,24.0951287 C69.7906409,24.1626041 70.3301978,23.9645735 70.7448321,23.4613906 C71.1396905,22.9821552 71.3100889,22.4150933 71.3751403,21.8100979 C71.4152357,21.4371848 71.4131179,21.0635868 71.3766285,20.6902456 C71.3396525,20.3125373 71.2590038,19.9454185 71.105834,19.5963958 C71.0075559,19.3725053 70.8821181,19.1648842 70.7197903,18.9811535 C70.3710945,18.5865764 69.9292148,18.4045012 69.4048833,18.4073503 Z M77.6941463,1.81975463 C78.2031665,2.20999323 78.5500593,2.72419366 78.7864535,3.31506034 C78.9767708,3.79069931 79.0723874,4.28840195 79.1274507,4.79543811 C79.2087005,5.5433764 79.2097021,6.28646239 79.1678037,7.03619888 C79.1272503,7.76195933 79.0360411,8.48012736 78.7872834,9.16918164 C78.5661432,9.78168384 78.2569991,10.3401258 77.7667244,10.7833971 C77.2693235,11.2331191 76.6870669,11.5026212 76.0217574,11.5932449 C75.5064123,11.6634319 74.9947591,11.6437944 74.4966714,11.4918035 C73.5493774,11.202778 72.9685517,10.5588215 72.7145853,9.61316653 C72.6685371,9.44162367 72.6418354,9.26491454 72.6026844,9.07330602 C73.0239298,9.03842659 73.4152967,9.00600185 73.8156786,8.97283499 C73.8310185,9.03514415 73.8454712,9.09197308 73.8590366,9.14897326 C73.9314145,9.45329771 74.04094,9.74155251 74.2293685,9.99518477 C74.482419,10.3358729 74.826965,10.5243702 75.2433165,10.5753479 C75.9359,10.6601774 76.5314645,10.4535553 77.0179615,9.95182809 C77.2596216,9.70261999 77.4052931,9.39424244 77.5282124,9.07553236 C77.8251934,8.30553041 77.9569559,7.50672867 77.9370084,6.68252374 C77.9368367,6.67533093 77.9336313,6.6681952 77.9283654,6.64718763 C77.9037529,6.67681516 77.8831471,6.6993926 77.8650026,6.72379678 C77.394561,7.35764908 76.7786195,7.77277709 75.997517,7.91189521 C74.9901228,8.09131591 74.1120586,7.81393596 73.3796086,7.10264676 C72.8998371,6.63679801 72.6255511,6.05677763 72.5017733,5.40617066 C72.3425077,4.56934976 72.4090473,3.75096759 72.7630376,2.97066165 C73.2222605,1.95827335 74.0093731,1.35407713 75.1098081,1.17702549 C76.0589623,1.02432095 76.9283263,1.23256998 77.6941463,1.81975463 Z M43.6822232,1.24688425 C44.378012,1.47608378 44.9621003,1.86343954 45.3729855,2.48122218 C45.6903147,2.95831684 45.8271429,3.49095599 45.8491224,4.07397337 C45.4121938,4.10731149 44.9814469,4.14019291 44.5522741,4.17293163 C44.5186752,4.00458557 44.4953506,3.84965468 44.456314,3.69877689 C44.272808,2.98942861 43.8273223,2.52788983 43.1161936,2.34273201 C42.3340321,2.13910692 41.5500677,2.14812648 40.7767781,2.39308169 C40.4506915,2.49637847 40.1617526,2.6686349 39.9432453,2.94036335 C39.5471562,3.43287118 39.5887971,4.21200686 40.0322795,4.61842929 C40.1693366,4.74404661 40.3308917,4.83050307 40.4999451,4.90380125 C40.9483786,5.09832115 41.4206232,5.21526143 41.8937265,5.3304606 C42.5264101,5.48450666 43.1610398,5.63213056 43.7889726,5.80375905 C44.2647374,5.93377199 44.7107669,6.14376214 45.108287,6.43809658 C45.7354757,6.90251818 46.0954474,7.52989124 46.1530005,8.30645806 C46.2438377,9.53186206 45.7046529,10.4349025 44.6630016,11.0507442 C44.0624859,11.4057609 43.400439,11.574164 42.705938,11.615437 C41.9900299,11.6579945 41.2823641,11.6017365 40.5892941,11.4115265 C39.8344067,11.2043907 39.1756224,10.8377285 38.671725,10.2263966 C38.3030244,9.7791007 38.0939043,9.26087572 38.0101074,8.69113079 C37.984665,8.5183035 37.9723587,8.34353529 37.9524112,8.15398186 C38.3971528,8.11470682 38.8183695,8.07748687 39.2517207,8.03921084 C39.2655152,8.13836889 39.2798247,8.22896407 39.2904711,8.31998739 C39.3617327,8.93006345 39.6518737,9.41283815 40.1465558,9.77350629 C40.5755283,10.0862509 41.0612239,10.2681263 41.5820066,10.350073 C42.1955727,10.4466336 42.8078222,10.4348454 43.4100837,10.2659285 C43.7871696,10.160177 44.1257628,9.98332519 44.4102086,9.70902787 C45.0640704,9.07848656 45.0141013,7.87488933 44.0317489,7.38774757 C43.5512906,7.14949994 43.0424993,7.0036457 42.5251794,6.878114 C41.815911,6.70602883 41.103523,6.54573187 40.4085355,6.3195008 C40.0021435,6.18723298 39.6275188,5.99434003 39.2891546,5.73477085 C38.7494832,5.3208131 38.442228,4.7714478 38.3783214,4.09735001 C38.3130697,3.40895223 38.4640358,2.77370133 38.9095787,2.22716178 C39.2256201,1.83943496 39.6245424,1.55957178 40.080188,1.35805887 C40.5799929,1.13696552 41.1077014,1.03695118 41.650664,1.00963562 C42.340958,0.974927452 43.0221797,1.02950149 43.6822232,1.24688425 Z M54.5344916,1.17408254 C54.6024048,1.17357751 54.642071,1.19566972 54.679791,1.25204195 C56.2388194,3.58433982 57.8008241,5.91461113 59.3588222,8.24759402 C59.6828769,8.73285195 59.982777,9.23320908 60.236772,9.75954025 C60.2428392,9.77209913 60.2508526,9.78374463 60.273662,9.7913085 C60.257807,9.64899358 60.243154,9.50647885 60.2258108,9.36433519 C60.1272178,8.5576556 60.0976543,7.7476365 60.0924742,6.93550522 C60.0805972,5.06560242 60.0607355,3.19575671 60.0441364,1.32591099 C60.0437358,1.28144115 60.0441078,1.2369713 60.0441078,1.18028509 L61.3447338,1.18028509 L61.3447338,11.4576718 L61.2246479,11.4576718 C60.845902,11.4576718 60.4670989,11.454418 60.0884389,11.4599777 C59.9921641,11.4613253 59.9353837,11.434181 59.8801201,11.3517491 C58.1967415,8.84154334 56.5094707,6.33396349 54.8256056,3.82410022 C54.663936,3.58311247 54.5204968,3.32990836 54.3529317,3.05680984 C54.4112003,4.1790027 54.440781,5.29865638 54.4604811,6.41724324 L54.5087462,9.77127572 C54.5181191,10.3302385 54.5297236,10.8893027 54.5459106,11.4486523 L53.2382156,11.4486523 L53.2382156,1.18265415 C53.2668062,1.18045635 53.2988024,1.17591803 53.3307986,1.17588948 C53.7320391,1.17540425 54.1333083,1.17708829 54.5344916,1.17408254 Z M28.142418,1.17478745 C29.7886203,1.17575819 31.4348799,1.1743025 33.0810535,1.17995399 C33.4931121,1.18138114 33.904169,1.20410129 34.3073843,1.31036653 C35.4979696,1.62413868 36.1821105,2.55346713 36.3029978,3.68159691 C36.3573742,4.18880434 36.2963868,4.68245388 36.0843761,5.14992958 C35.814383,5.74524895 35.3462881,6.13728575 34.7601679,6.40113637 C34.364737,6.57915847 33.9474698,6.68168458 33.5194703,6.74425063 C33.4981777,6.74736181 33.4771426,6.75227119 33.4384209,6.75974943 C33.4629475,6.7799578 33.4738514,6.79300191 33.4877889,6.79982367 C34.1207301,7.11031339 34.6034208,7.5936304 35.0057202,8.15555457 C35.340736,8.62348696 35.6455586,9.11311195 35.9591959,9.59608645 C36.3339637,10.173224 36.7039521,10.7534727 37.0759153,11.332437 C37.0979234,11.3666599 37.1189012,11.4015679 37.1478924,11.4483212 C37.1112885,11.4516893 37.0840717,11.4563703 37.0569121,11.4563988 C36.5506679,11.456827 36.0443951,11.4550002 35.5382082,11.4586328 C35.464199,11.459139 35.4251339,11.4337643 35.3864408,11.3733104 C34.8139719,10.4786902 34.2464541,9.58075891 33.6607631,8.69475859 C33.4179296,8.3274114 33.1428423,7.98018696 32.867526,7.63561701 C32.6693956,7.38763625 32.4084176,7.20875787 32.1291519,7.05728067 C31.9472772,6.95863639 31.7534683,6.90560367 31.5484693,6.90340587 C30.8660456,6.89612743 30.1836219,6.89347294 29.5011695,6.88947693 C29.4831109,6.88936276 29.4649663,6.89401525 29.439066,6.89746894 L29.439066,11.4567128 L28.0638012,11.4567128 L28.0638012,1.17804162 C28.0900163,1.1768999 28.1162315,1.17478745 28.142418,1.17478745 Z M70.0869836,8.72217691 L70.0869836,9.63412273 L63.7980678,9.63412273 L63.7980678,8.72217691 L70.0869836,8.72217691 Z M75.384552,2.20673934 C74.8278236,2.292996 74.4175967,2.59983223 74.1317772,3.0694201 C73.6229286,3.90541325 73.5754781,4.79441057 73.9432342,5.68277995 C74.2635398,6.45654956 74.8811983,6.85112668 75.730672,6.8599179 C76.7863467,6.87418935 77.41883,6.16946502 77.652162,5.51771633 C77.7907645,5.13050328 77.8200419,4.73121658 77.7786586,4.32373807 C77.7116039,3.66356921 77.4441293,3.10215881 76.9483597,2.65760307 C76.5022444,2.25763134 75.9757951,2.11511661 75.384552,2.20673934 Z M66.8285499,1.04369873 C68.2818592,1.04369873 69.4599952,2.27052987 69.4599952,3.78390325 C69.4599952,5.29724808 68.2818592,6.52407922 66.8285499,6.52407922 C65.3752121,6.52407922 64.1970761,5.29724808 64.1970761,3.78390325 C64.1970761,2.27052987 65.3752121,1.04369873 66.8285499,1.04369873 Z M29.5655054,2.30528657 L29.4420424,2.30528657 L29.4420424,5.7074296 C29.4649663,5.70897092 29.482796,5.71122581 29.5006258,5.71119727 C30.5726134,5.71034098 31.6446582,5.71496493 32.71656,5.70428988 C32.9920194,5.70154976 33.2713995,5.67180806 33.5411923,5.61666316 C33.9590319,5.53129133 34.3149683,5.33174788 34.5770912,4.97790149 C35.269646,4.04300718 34.8139146,2.71684672 33.7252134,2.43504262 C33.3664151,2.342164 33.0033525,2.30634266 32.6353389,2.30580034 C31.612061,2.30431611 30.5887832,2.30528657 29.5655054,2.30528657 Z M66.8285499,1.95070662 C65.8562715,1.95070662 65.0680714,2.77142932 65.0680714,3.78390325 C65.0680714,4.79632009 65.8562715,5.61707133 66.8285499,5.61707133 C67.8008284,5.61707133 68.5889999,4.79632009 68.5889999,3.78390325 C68.5889999,2.77142932 67.8008284,1.95070662 66.8285499,1.95070662 Z" id="Combined-Shape" fill="#FFFFFF"></path>
                    <g id="logo/tongue/stamp" filter="url(#filter-1)">
                        <g id="Group-3">
                            <mask id="mask-3" fill="white">
                                <use xlink:href="#path-2"></use>
                            </mask>
                            <g id="Clip-2"></g>
                            <path d="M16.0688531,8.26454865 C15.5252908,8.0189931 15.1793875,7.13510253 15.1793875,7.13510253 C15.1793875,7.13510253 14.5318847,8.22526414 13.1530082,8.36279276 C11.7198042,8.51008232 11.2256126,7.23332475 11.2256126,7.23332475 C11.1135207,7.34463451 10.7439565,8.11725909 9.24882433,8.11725909 C7.51908774,8.11725909 7.51908774,6.64399141 7.51908774,6.64399141 C7.51908774,6.64399141 6.77773429,7.23332475 6.08588372,6.98770354 C5.39396705,6.74216987 5.39396705,6.10379108 5.39396705,6.10379108 C5.39396705,6.10379108 6.62951207,5.0233904 7.86503506,5.0725234 C9.10058008,5.12163451 9.34765383,5.66179108 9.94069693,5.85823552 C10.533718,6.0546362 11.2750715,6.2020133 12.3623502,5.71094596 C13.4495849,5.21981296 14.833286,4.75820354 15.9700676,5.71094596 C17.2549613,6.79130286 17.6404757,8.04849478 17.6404757,8.04849478 C17.6404757,8.04849478 16.6124374,8.51008232 16.0688531,8.26454865 M15.5745954,11.0146396 C15.3275437,11.5057069 14.8737343,11.6863062 14.4874929,12.1686631 C13.5426203,13.3482709 13.2784508,14.2092911 12.7083195,15.6062439 C12.0192008,17.2945588 12.0163588,18.4791345 11.4233157,20.0997136 C11.1070216,20.9688971 11.0279757,21.5238264 10.1878148,22.162249 C9.75784253,22.4863736 9.01157625,22.3684325 8.80402548,21.8675604 C8.45807816,21.0327372 9.20927931,20.0751581 9.59472759,19.363047 C10.533718,17.6442894 10.6561864,16.6587406 11.4727305,14.9923769 C12.065399,13.7829392 12.0855791,13.3326008 13.1035935,11.947685 C13.6471998,11.211084 14.1314996,10.8624039 14.6850638,10.5726614 C15.4263952,10.1797726 15.8909776,10.3860655 15.5745954,11.0146396 M7.51908774,10.7199948 C7.09405038,11.2650975 6.52737797,11.6649241 6.01170651,12.3650857 C5.2862592,13.3502406 4.99455134,14.0003938 4.55380613,15.1397322 C4.08340766,16.3559763 3.96080709,17.2759123 3.73840766,18.3809561 C3.60988084,19.0291396 3.52642874,19.8133416 2.87350632,19.8050907 C2.22556284,19.796818 2.0333454,19.0192692 2.0333454,18.3809561 C2.0333454,17.4969998 2.45076015,15.9343517 3.17006092,14.5504207 C3.85111648,13.2400907 4.39628697,12.5488146 5.49281858,11.554818 C6.03107146,11.0669241 6.60977261,10.6659813 6.97541533,10.4253281 C7.42025824,10.1307271 7.86503506,10.2780604 7.51908774,10.7199948 M7.81562031,1.73312104 C7.96386456,1.41392071 8.33946513,1.05545774 8.80402548,0.82465303 C9.44650536,0.505452694 9.94565383,0.466146296 10.4596289,0.775520034 C11.0279757,1.11927593 11.2849632,1.54654697 11.1021088,2.10147626 C10.9538205,2.54341061 10.336037,2.90191734 9.84186743,2.61709916 C9.5453569,2.44521027 9.64414234,2.22423215 8.95226973,2.19965471 C8.60636648,2.18985 8.01330134,2.61709916 7.86503506,2.46976582 C7.63274387,2.23893923 7.67722375,2.03269007 7.81562031,1.73312104 M13.9932573,1.63489882 C14.1414134,1.31572037 14.319355,1.25185842 14.7839153,1.02107559 C15.4263952,0.701853367 16.2122285,0.613435859 16.7360734,0.898275926 C17.1808282,1.14385337 17.4872745,1.55147121 17.3043761,2.10147626 C17.1808282,2.46976582 16.909014,2.71529949 16.4148224,2.69074394 C16.1429201,2.68091734 16.0293301,2.46976582 15.7723425,2.27332138 C15.5499872,2.10147626 15.2732381,2.15546785 15.0310331,2.22423215 C14.7740676,2.29787694 14.5862563,2.39612104 14.3143761,2.32241061 C14.0079958,2.24384158 13.8548387,1.93446785 13.9932573,1.63489882 M22.6418521,7.82259242 C21.3371308,6.9288096 20.5661462,6.61941397 19.7260293,4.90063451 C18.9450868,3.29970859 18.4410475,1.42374731 17.8974632,0.750986364 C17.0869115,-0.255725758 15.2880207,-0.113360438 14.2304613,0.38265303 C13.2914709,0.82465303 13.1035935,1.04560926 12.0163588,2.02776582 C11.7791328,0.956403872 11.2898761,0.11258569 10.0395044,0.0143415825 C9.05112126,-0.0593250842 8.37903218,0.225514983 7.46969502,0.750986364 C6.32308774,1.41392071 5.40879368,2.65145943 4.75153123,3.94301162 C4.13372567,5.16091902 3.82417299,5.78157054 2.88837701,6.66848131 C2.21937222,7.30257054 1.59352548,7.79309074 0.946110728,8.0189931 C0.254238123,8.26454865 0.189974713,8.77041061 0.773148084,9.19763788 C2.10752261,10.1797726 2.25576686,11.2601732 2.50286264,12.2423298 C1.66270172,13.7155318 0.886782184,14.8548702 0.451897126,16.3674443 C-0.0620559387,18.1648146 -0.15105977,19.1519173 0.254238123,21.1801143 C0.60016341,22.8988719 1.60837414,23.9940015 2.61651877,24.7747894 C4.42038851,26.1744123 7.07428889,26.3364527 9.14992874,25.4033854 C10.5831548,24.760148 11.2256126,23.8810722 12.164537,22.7023618 C12.5006807,22.2751345 12.7427975,22.0001867 13.2519479,21.8037204 C15.2780849,21.0179864 16.2171414,19.6577793 17.2549613,17.4478449 C18.0902094,15.6652254 18.3348818,14.5171328 19.380082,12.8316412 C20.4443167,11.1154443 21.7522985,9.6887271 22.6418521,8.80477088 C22.9087314,8.53956212 23.2842659,8.26454865 22.6418521,7.82259242" id="Fill-1" fill="#DB000C" mask="url(#mask-3)"></path>
                        </g>
                    </g>
                </g>
            </g>
        </g>
    </g>
</svg>