<svg id="Layer_1" data-name="Layer 1" xmlns="http://www.w3.org/2000/svg" viewBox="0 0 1089 263.77"><defs><style>.cls-1,.cls-5,.cls-6{fill:#db000c;}.cls-1,.cls-2,.cls-3{fill-rule:evenodd;}.cls-2{fill:#231f20;}.cls-3{fill:#fefefe;}.cls-4{isolation:isolate;}.cls-6{font-size:96px;font-family:Norwester-Regular, Norwester;}</style></defs><g id="Page-1"><g id="Group-3"><g id="Group-2"><g id="Group"><g id="Group-34"><g id="logo_tongue_default" data-name="logo/tongue/default"><g id="Group-2-2" data-name="Group-2"><path id="Fill-1" class="cls-1" d="M29.13,68.68c9.43-9,12.56-15.3,18.79-27.66,6.62-13.11,15.84-25.67,27.41-32.4,9.17-5.33,16-8.22,25.91-7.47,12.61,1,17.55,9.56,19.94,20.43,11-10,12.86-12.21,22.33-16.7,10.66-5,28.8-6.48,37,3.74,5.49,6.83,10.57,25.87,18.44,42.12,8.48,17.44,16.25,20.58,29.41,29.65,6.48,4.49,2.69,7.28,0,10-9,9-22.16,23.45-32.89,40.87-10.54,17.11-13,28.76-21.43,46.85-10.47,22.43-19.94,36.24-40.37,44.21-5.14,2-7.58,4.79-11,9.12-9.47,12-16,20.89-30.4,27.41-20.93,9.47-47.69,7.83-65.88-6.38-10.17-7.92-20.34-19-23.83-36.48-4.08-20.58-3.19-30.6,2-48.84,4.38-15.36,12.21-26.92,20.68-41.87-2.49-10-4-20.93-17.44-30.9-5.88-4.34-5.24-9.47,1.74-12,6.53-2.3,12.84-7.28,19.59-13.71" transform="translate(0 -1)"/><path id="Fill-4" class="cls-2" d="M177.94,82.69s-9.47,4.53-15.9,2.19c-1.69-.6-3.33-2.29-4.63-3.94,0,0-11.81,8.92-21.78,11.91s-23.92-3.49-33.89,5S79.56,124.5,73.83,133.22C62.37,150.67,53.9,184.06,53.9,184.06s-1.25-14.45,5-32.39C63.61,138,75.83,115.28,83.3,105.81a147.1,147.1,0,0,1,14-15.45s-10.47,1.5-16.45-2.49c-3.14-2.09-6-7-6-7s-15.95,9-20.44,12.46S35,107.81,35,107.81s-3.49-6.48-6-10.47-7-10-7-10,10.22-9.72,21.93-19.44c13.8-11.41,16.15-12.61,24.92-16.69,4.23-2,14.7-3.74,27.41,4.23,6.63,4.14,15.7,5.73,26.66,1.75S144,46.75,159.05,55c7.73,4.24,14.06,14.56,17.95,21.44,3,5.23,10.46,6.47,12.95,7.47s18.44,3.49,18.44,3.49-16.79,15-24.67,24.17c-12.7,14.71-25.41,36.39-29.15,46.11-6,15.65-13.21,42.36-15.45,50.59a62,62,0,0,1-6,15.11c-1.23,2.11-5.21,4.81-5.21,4.81s-4.6,5.75-12.82,15.23c-3.39,3.88-11.8,11.68-17.63,15.22-8.13,4.88-24.05,6-24.05,6,13.43-4.21,22.44-7.81,37.07-25,14-16.44,17.87-27.11,24.6-47.54,8.87-27,14-43.86,25.92-60.81,6.78-9.67,22.43-26.42,27.41-31.4s10.46-10,10.46-10-14.95-3.29-21-7.17" transform="translate(0 -1)"/><path id="Fill-6" class="cls-3" d="M88.78,9.37c6.48-3.24,11.52-3.64,16.7-.5,5.73,3.49,8.32,7.83,6.48,13.46-1.5,4.48-7.73,8.12-12.71,5.23-3-1.74-2-4-9-4.24-3.49-.1-9.47,4.24-11,2.75-2.34-2.35-1.89-4.44-.49-7.48,1.49-3.24,5.28-6.88,10-9.22" transform="translate(0 -1)"/><path id="Fill-8" class="cls-3" d="M149.09,11.36c6.48-3.24,14.4-4.13,19.68-1.24,4.49,2.49,7.58,6.63,5.73,12.21-1.24,3.74-4,6.23-9,6-2.74-.1-3.88-2.24-6.48-4.24-2.24-1.74-5-1.19-7.47-.5-2.59.75-4.49,1.75-7.23,1a4.88,4.88,0,0,1-3.24-7c1.5-3.24,3.29-3.89,8-6.23" transform="translate(0 -1)"/><path id="Fill-10" class="cls-3" d="M55.39,118.27C44.33,128.36,38.84,135.38,32,148.68c-7.26,14-11.47,29.9-11.47,38.87C20.5,194,22.44,201.92,29,202s7.42-7.88,8.72-14.46c2.24-11.21,3.48-20.55,8.22-32.89,4.45-11.57,7.39-18.17,14.7-28.16,5.2-7.11,10.92-11.17,15.21-16.7,3.48-4.49-1-6-5.49-3a126,126,0,0,0-15,11.46" transform="translate(0 -1)"/><path id="Fill-12" class="cls-3" d="M132.14,122.26c-10.26,14.06-10.47,18.63-16.44,30.9-8.24,16.91-9.47,26.92-18.94,44.36-3.89,7.23-11.47,16.95-8,25.42,2.1,5.08,9.62,6.28,14,3,8.47-6.48,9.27-12.11,12.46-20.93,6-16.45,6-28.47,13-45.61,5.75-14.18,8.41-22.92,17.94-34.89,3.89-4.89,8.47-6.73,11-11.71,3.19-6.38-1.49-8.47-9-4.49-5.58,2.94-10.47,6.48-16,14" transform="translate(0 -1)"/><path id="Fill-14" class="cls-3" d="M54.39,63S66.85,52,79.31,52.48s15,6,20.94,8,13.45,3.48,24.42-1.5,24.91-9.67,36.38,0c13,11,16.84,23.73,16.84,23.73S167.53,87.37,162,84.88s-9-11.46-9-11.46a28.17,28.17,0,0,1-20.43,12.46c-14.45,1.49-19.44-11.47-19.44-11.47-1.13,1.13-4.85,9-19.93,9-17.44,0-17.44-14.95-17.44-14.95s-7.48,6-14.46,3.49a10,10,0,0,1-7-9" transform="translate(0 -1)"/></g></g></g><g id="Combined-Shape-2"><path id="Combined-Shape" class="cls-1" d="M738.86,71.64l.41,0c7.38,0,14.77,0,22.16,0a30.1,30.1,0,0,0,5.68-.61,11.33,11.33,0,0,0,7.14-4.43c4.77-6.47,1.63-15.66-5.87-17.62a29.84,29.84,0,0,0-7.51-.89h-22Zm-9.5-31.39.55,0c11.34,0,22.68,0,34,0a33,33,0,0,1,8.45.91c8.2,2.17,12.92,8.61,13.75,16.43a19.22,19.22,0,0,1-1.51,10.18,17.29,17.29,0,0,1-9.12,8.67A32.17,32.17,0,0,1,767,78.83l-.56.1a3.33,3.33,0,0,0,.34.28,28.33,28.33,0,0,1,10.46,9.4c2.31,3.24,4.41,6.63,6.57,10,2.58,4,5.13,8,7.7,12l.49.81c-.25,0-.44,0-.62,0-3.49,0-7,0-10.47,0a1.08,1.08,0,0,1-1-.59c-4-6.2-7.86-12.43-11.9-18.57-1.67-2.54-3.57-5-5.46-7.34a16.31,16.31,0,0,0-5.09-4,8.42,8.42,0,0,0-4-1.06c-4.71-.05-9.41-.07-14.11-.1a2.9,2.9,0,0,0-.43.06v31.59h-9.48ZM798.1,88.62l8.94-.79c.09.68.19,1.31.26,1.94a14.08,14.08,0,0,0,5.89,10.09,22.31,22.31,0,0,0,9.87,4,29,29,0,0,0,12.57-.59,15.86,15.86,0,0,0,6.88-3.86,10,10,0,0,0-2.6-16.1,49.13,49.13,0,0,0-10.36-3.54c-4.88-1.19-9.78-2.3-14.56-3.87a25.62,25.62,0,0,1-7.7-4.06A15.71,15.71,0,0,1,801,60.48a17.29,17.29,0,0,1,3.65-13,21.35,21.35,0,0,1,8.05-6,30,30,0,0,1,10.8-2.41,37.75,37.75,0,0,1,14,1.64,21.51,21.51,0,0,1,11.63,8.56,21,21,0,0,1,3.27,11l-8.91.69c-.23-1.17-.4-2.24-.66-3.29a12.25,12.25,0,0,0-9.22-9.41,28.34,28.34,0,0,0-16.09.35,11.64,11.64,0,0,0-5.73,3.8c-2.72,3.42-2.44,8.82.61,11.64a11.51,11.51,0,0,0,3.22,2,58.32,58.32,0,0,0,9.58,3c4.35,1.07,8.72,2.09,13,3.28a27.09,27.09,0,0,1,9.07,4.4,17.17,17.17,0,0,1,7.18,13c.63,8.5-3.08,14.76-10.24,19a29.21,29.21,0,0,1-13.46,3.91,44.15,44.15,0,0,1-14.56-1.41A25.05,25.05,0,0,1,803.05,103a21.28,21.28,0,0,1-4.55-10.65C798.32,91.15,798.24,89.94,798.1,88.62ZM1059,80.46A13.66,13.66,0,0,0,1072.24,71a19.2,19.2,0,0,0,.87-8.38A17.65,17.65,0,0,0,1067.4,51a12.34,12.34,0,0,0-10.77-3.16,11.91,11.91,0,0,0-8.63,6.05,19.79,19.79,0,0,0-1.29,18.34C1048.91,77.63,1053.16,80.4,1059,80.46ZM1037.48,96l8.35-.7c.1.44.2.83.3,1.23a16,16,0,0,0,2.55,5.94,9.78,9.78,0,0,0,7,4.08,13.71,13.71,0,0,0,12.21-4.38,17.7,17.7,0,0,0,3.52-6.15,44.12,44.12,0,0,0,2.81-16.8,1.28,1.28,0,0,0-.06-.25c-.17.21-.31.37-.43.54a20,20,0,0,1-12.86,8.34,19.44,19.44,0,0,1-18-5.68,22,22,0,0,1-6-11.91,28.38,28.38,0,0,1,1.8-17.09c3.16-7.11,8.58-11.35,16.16-12.59a22,22,0,0,1,17.79,4.51,24.21,24.21,0,0,1,7.52,10.49A39.83,39.83,0,0,1,1082.4,66a97.09,97.09,0,0,1,.27,15.72,53,53,0,0,1-2.61,15,27.46,27.46,0,0,1-7,11.33,21.76,21.76,0,0,1-12,5.68,23.89,23.89,0,0,1-10.5-.71c-6.52-2-10.52-6.55-12.27-13.19C1037.93,98.58,1037.75,97.34,1037.48,96ZM951.06,40.27h9.06v71.21h-.84c-2.63,0-5.27,0-7.91,0a1.49,1.49,0,0,1-1.45-.75q-17.59-26.1-35.21-52.16c-1.12-1.67-2.12-3.42-3.29-5.32,1,19.44.78,38.77,1.35,58.15h-9.11V40.29a6.39,6.39,0,0,1,.64,0c2.8,0,5.59,0,8.39,0a1.07,1.07,0,0,1,1,.54Q930,65,946.29,89.24a86.91,86.91,0,0,1,6.11,10.47.43.43,0,0,0,.26.23c-.11-1-.21-2-.33-3a143.36,143.36,0,0,1-.93-16.83c-.08-13-.22-25.91-.34-38.87ZM977.3,99.21V93.07h43v6.14ZM998.17,45.3a12.75,12.75,0,1,0,12.32,12.75A12.54,12.54,0,0,0,998.17,45.3Zm18.41,12.75c0,10.51-8.24,19-18.41,19s-18.41-8.53-18.41-19S988,39,998.17,39,1016.58,47.53,1016.58,58.05ZM828.22,180.29c-1.93.54-3.66,1.14-5.43,1.5-3.73.75-7.48,1.36-11.22,2.05a23.9,23.9,0,0,0-6.19,1.86,6.72,6.72,0,0,0-3.13,2.83,7.66,7.66,0,0,0,1.88,9.52,10.49,10.49,0,0,0,3,1.63,16.86,16.86,0,0,0,10.09,0,14.65,14.65,0,0,0,7.7-4.79,12.47,12.47,0,0,0,3.05-7.43C828.07,185.1,828.14,182.72,828.22,180.29Zm11.61,25.79h-9.25c-.35-1-.77-2-1.06-3s-.48-2.12-.72-3.24c-.63.49-1.23,1-1.85,1.44A28.33,28.33,0,0,1,815,206.79c-5,.92-9.94.82-14.65-1.3a13.23,13.23,0,0,1-8-9.61,14.52,14.52,0,0,1,7.16-16.11,26.6,26.6,0,0,1,9-3c3.45-.49,6.93-.85,10.38-1.43,2.84-.49,5.65-1.21,8.47-1.83.25-.06.49-.16.77-.25.06-2.49.14-4.95-.8-7.31a7.5,7.5,0,0,0-4.93-4.56,22.08,22.08,0,0,0-4.35-.88,23.39,23.39,0,0,0-8.08.52,9,9,0,0,0-6.22,4.91c-.59,1.18-1,2.45-1.47,3.68-.07.19-.13.38-.21.64l-8.5-1.09c1.09-7.21,5.14-11.86,11.92-14.24a35.6,35.6,0,0,1,12.72-1.69A29.81,29.81,0,0,1,828,155c.3.11.59.22.87.34a11.93,11.93,0,0,1,7.65,9.17A26.7,26.7,0,0,1,837,169c.07,5.69,0,11.37.06,17.06,0,3.14,0,6.28.14,9.42.09,1.94.39,3.87.67,5.79a10.76,10.76,0,0,0,1.46,3.84C839.51,205.43,839.65,205.73,839.83,206.08Zm161.51-25.55c.09,1.55.12,3.11.27,4.65a20.62,20.62,0,0,0,2.19,7.66c2.11,4,5.25,6.61,10,7.1a12.1,12.1,0,0,0,11.2-4.4,20.7,20.7,0,0,0,4.42-11.45,37.37,37.37,0,0,0,0-7.77,24.28,24.28,0,0,0-1.9-7.58,16.58,16.58,0,0,0-2.7-4.27,11.74,11.74,0,0,0-9.23-4,12.27,12.27,0,0,0-10,4.86,17.43,17.43,0,0,0-3,5.87A32.53,32.53,0,0,0,1001.34,180.53Zm.35,19.42c-.06,2-.13,4-.19,6.1h-8.24V134.84h8.8v25.22l.14.07c.16-.18.33-.36.49-.55a16.52,16.52,0,0,1,9.78-5.85c8-1.38,14.82.87,20.2,7a23.57,23.57,0,0,1,5.07,10.49,38.12,38.12,0,0,1,.68,12.91,31.77,31.77,0,0,1-3.21,11.15,21.22,21.22,0,0,1-9.83,9.95,19.69,19.69,0,0,1-15.31,1.08,16,16,0,0,1-7.84-5.88l-.37-.49ZM973,180.31a1.09,1.09,0,0,0-.27,0,63.39,63.39,0,0,1-11.52,2.77c-2.31.39-4.62.77-6.92,1.24a15.41,15.41,0,0,0-4.8,1.8,6.24,6.24,0,0,0-2.79,3.34,8.46,8.46,0,0,0-.27,4.46,7.43,7.43,0,0,0,4.46,5.35,12.9,12.9,0,0,0,5.54,1.15,17.69,17.69,0,0,0,10.18-2.74,13,13,0,0,0,6.07-9.12A37.28,37.28,0,0,0,973,183Zm0-7a24.16,24.16,0,0,0-.4-6,8.16,8.16,0,0,0-6.34-6.2,24.87,24.87,0,0,0-8.16-.55,17.34,17.34,0,0,0-4.21.82,8.88,8.88,0,0,0-4.85,3.85,17.65,17.65,0,0,0-1.89,4.42l-.2.68-8.51-1.08c.88-6,3.83-10.4,9.22-13.12a25.87,25.87,0,0,1,7.65-2.37,43.15,43.15,0,0,1,10.77-.27,24.25,24.25,0,0,1,8.35,2.16,14.67,14.67,0,0,1,3.21,2.07,11.69,11.69,0,0,1,3.62,6.14,20.33,20.33,0,0,1,.62,5.09c0,4.11,0,8.21,0,12.31q0,7.17.13,14.34a32.22,32.22,0,0,0,.68,5.79,12.31,12.31,0,0,0,1.41,3.7l.56,1H975.5a18.86,18.86,0,0,1-1.82-6.3l-.69.54a32,32,0,0,1-9.26,5.41,27,27,0,0,1-10.84,1.54,20.53,20.53,0,0,1-7.72-1.77c-3.92-1.84-6.77-4.68-7.83-9-1.36-5.5-.2-10.41,3.88-14.48a18.23,18.23,0,0,1,6.84-4,30.91,30.91,0,0,1,6.23-1.42c4-.58,8.06-1.11,12.07-1.73A42.21,42.21,0,0,0,973,173.33Zm107.35-18.75H1089c-.1.31-.16.57-.26.82l-11.85,32q-4.74,12.78-9.47,25.58a37.34,37.34,0,0,1-3.83,7.76,14.22,14.22,0,0,1-5.08,4.85,13.23,13.23,0,0,1-8,1.31c-1.06-.14-2.1-.47-3.15-.69a.67.67,0,0,1-.59-.68c-.25-2.48-.52-4.95-.78-7.42a2.16,2.16,0,0,1,0-.29l1.63.38a14.7,14.7,0,0,0,6.16.1,5.55,5.55,0,0,0,3.45-2.16,14.08,14.08,0,0,0,1.62-2.71c1-2.26,1.78-4.57,2.68-6.85a1.33,1.33,0,0,0-.14-1q-2.36-6.31-4.73-12.63l-14-37.44c-.09-.23-.16-.48-.24-.72a68.36,68.36,0,0,1,9.21-.12,4,4,0,0,1,.21.46c3.8,10.69,7.62,21.36,11.36,32.07,1,2.92,1.83,5.92,2.74,8.88a.41.41,0,0,0,.12-.17,190.89,190.89,0,0,1,6.16-18.69l7.86-21.8ZM895.15,206.11h-8.68V154.54h7.78v7.18l.79-1a18.61,18.61,0,0,1,11.52-7,21.49,21.49,0,0,1,12,1.06,14.34,14.34,0,0,1,8.78,9.41,18,18,0,0,1,.74,5q.12,3.39.12,6.77,0,14.61,0,29.22v1h-8.72c0-.28,0-.58,0-.88V175.46a37.06,37.06,0,0,0-.31-6.14c-.68-4.06-2.83-6.88-6.88-7.92a13.71,13.71,0,0,0-13.78,3.73,10.77,10.77,0,0,0-2.71,5.59,27.45,27.45,0,0,0-.62,5.72c0,9.56,0,19.11,0,28.67Zm-35.54,0H851c-.16-.57-.21-50.49,0-51.59h7.8v7.41l.15,0,.4-.63a31.65,31.65,0,0,1,3-4.38,9.93,9.93,0,0,1,9.58-3.56,18.46,18.46,0,0,1,7.21,2.67l-3,8c-.47-.23-.86-.44-1.26-.62a12,12,0,0,0-6.07-1.2,7.85,7.85,0,0,0-6,3.46,16,16,0,0,0-2.52,6.39,37.08,37.08,0,0,0-.6,7.21q0,12.89,0,25.78Zm-76.16-51.66-9.22,2.19c-.43-1.09-.8-2.14-1.24-3.15a20.78,20.78,0,0,0-5.35-7.7,16.57,16.57,0,0,0-9-3.84,26,26,0,0,0-11.3.92,20.44,20.44,0,0,0-12.26,10.68,31.27,31.27,0,0,0-3.12,11.3,52.39,52.39,0,0,0,.31,12.94,29,29,0,0,0,5.26,13.51A19.16,19.16,0,0,0,750.69,199a24.28,24.28,0,0,0,10.62-.69c5.48-1.68,9.22-5.37,11.66-10.48a29,29,0,0,0,2-6c.05-.2.12-.39.19-.65l9.39,2.39c-.42,1.32-.79,2.58-1.22,3.82a31.15,31.15,0,0,1-7.92,12.52,26,26,0,0,1-13.46,6.8,38.69,38.69,0,0,1-19.28-1.25,26.44,26.44,0,0,1-16-14.36,48.6,48.6,0,0,1-4.54-25.14,40.17,40.17,0,0,1,4-15,29.55,29.55,0,0,1,20.74-16.28,35.4,35.4,0,0,1,17.56.24A25.65,25.65,0,0,1,781.78,150C782.4,151.42,782.87,152.9,783.45,154.45Z" transform="translate(0 -1)"/></g><g id="OFFICIAL-STORE" class="cls-4"><g class="cls-4"><path class="cls-5" d="M272.8,56c0-9,4.8-13.82,13.82-13.82h10.75c9,0,13.83,4.79,13.83,13.82v49.15c0,9-4.8,13.82-13.83,13.82H286.62c-9,0-13.82-4.8-13.82-13.82ZM295,106.62c2.5,0,3.84-1.25,3.84-3.84V58.43c0-2.5-1.34-3.84-3.84-3.84h-5.56c-2.5,0-3.84,1.34-3.84,3.84v44.35c0,2.59,1.34,3.84,3.84,3.84Z" transform="translate(0 -1)"/><path class="cls-5" d="M359.2,53.34a1.42,1.42,0,0,1-1.54,1.54H333.85V74.17h18a1.42,1.42,0,0,1,1.54,1.54v9.6a1.37,1.37,0,0,1-1.54,1.53h-18v30.62a1.41,1.41,0,0,1-1.53,1.54h-10a1.37,1.37,0,0,1-1.54-1.54V43.74a1.37,1.37,0,0,1,1.54-1.53h35.32a1.41,1.41,0,0,1,1.54,1.53Z" transform="translate(0 -1)"/><path class="cls-5" d="M407.2,53.34a1.42,1.42,0,0,1-1.54,1.54H381.85V74.17h18a1.42,1.42,0,0,1,1.54,1.54v9.6a1.37,1.37,0,0,1-1.54,1.53h-18v30.62a1.41,1.41,0,0,1-1.53,1.54h-10a1.37,1.37,0,0,1-1.54-1.54V43.74a1.37,1.37,0,0,1,1.54-1.53h35.32a1.41,1.41,0,0,1,1.54,1.53Z" transform="translate(0 -1)"/><path class="cls-5" d="M428.32,42.21a1.4,1.4,0,0,1,1.53,1.53v73.72a1.41,1.41,0,0,1-1.53,1.54h-10a1.37,1.37,0,0,1-1.54-1.54V43.74a1.37,1.37,0,0,1,1.54-1.53Z" transform="translate(0 -1)"/><path class="cls-5" d="M478,66.4a1.41,1.41,0,0,1-1.54,1.53h-9.6a1.36,1.36,0,0,1-1.53-1.53V58.72c0-2.5-1.35-3.84-3.84-3.84h-5c-2.6,0-3.84,1.34-3.84,3.84v43.77c0,2.59,1.34,3.84,3.84,3.84h5c2.49,0,3.84-1.25,3.84-3.84V94.81a1.37,1.37,0,0,1,1.53-1.54h9.6A1.42,1.42,0,0,1,478,94.81v10.37c0,9-4.9,13.82-13.83,13.82H453.37c-9,0-13.91-4.8-13.91-13.82V56c0-9,4.89-13.82,13.91-13.82h10.75C473.05,42.21,478,47,478,56Z" transform="translate(0 -1)"/><path class="cls-5" d="M499.07,42.21a1.4,1.4,0,0,1,1.53,1.53v73.72a1.41,1.41,0,0,1-1.53,1.54h-10a1.37,1.37,0,0,1-1.54-1.54V43.74a1.37,1.37,0,0,1,1.54-1.53Z" transform="translate(0 -1)"/><path class="cls-5" d="M546.3,119a1.49,1.49,0,0,1-1.54-1.34l-2.68-14H525l-2.59,14a1.49,1.49,0,0,1-1.54,1.34H510.59c-1.06,0-1.54-.58-1.25-1.63l15.94-73.82a1.48,1.48,0,0,1,1.63-1.34h13.34a1.48,1.48,0,0,1,1.63,1.34l15.94,73.82c.19,1-.19,1.63-1.35,1.63ZM533.53,59l-6.14,33.51h12.29Z" transform="translate(0 -1)"/><path class="cls-5" d="M579.52,106.33h22.84a1.37,1.37,0,0,1,1.54,1.54v9.59c0,1.06-.48,1.54-1.54,1.54H568a1.37,1.37,0,0,1-1.54-1.54V43.74A1.41,1.41,0,0,1,568,42.21h10a1.37,1.37,0,0,1,1.54,1.53Z" transform="translate(0 -1)"/></g><text class="cls-6" transform="translate(608.7 118)"> </text><g class="cls-4"><path class="cls-5" d="M297.37,138.21c9,0,13.83,4.79,13.83,13.82V162.2a1.37,1.37,0,0,1-1.54,1.54h-10a1.42,1.42,0,0,1-1.54-1.54v-7.48c0-2.5-1.25-3.84-3.84-3.84h-4.61a3.49,3.49,0,0,0-3.84,3.84V168l22.85,7.49a3.52,3.52,0,0,1,2.5,3.55v22.18c0,9-4.8,13.82-13.83,13.82H286.62c-8.92,0-13.82-4.8-13.82-13.82V191.1a1.37,1.37,0,0,1,1.54-1.54h10c1.05,0,1.53.48,1.53,1.54v7.39c0,2.59,1.44,3.84,3.84,3.84h4.61c2.5,0,3.84-1.25,3.84-3.84V185.72l-22.75-7.49a3.41,3.41,0,0,1-2.59-3.55V152c0-9,4.9-13.82,13.82-13.82Z" transform="translate(0 -1)"/><path class="cls-5" d="M353.82,138.21a1.37,1.37,0,0,1,1.54,1.53v9.6a1.37,1.37,0,0,1-1.54,1.54H342.69v62.58c0,1.06-.48,1.54-1.54,1.54h-10a1.37,1.37,0,0,1-1.54-1.54V150.88H318.5a1.42,1.42,0,0,1-1.54-1.54v-9.6a1.41,1.41,0,0,1,1.54-1.53Z" transform="translate(0 -1)"/><path class="cls-5" d="M361.12,152c0-9,4.8-13.82,13.82-13.82H385.7c9,0,13.82,4.79,13.82,13.82v49.15c0,9-4.8,13.82-13.82,13.82H374.94c-9,0-13.82-4.8-13.82-13.82Zm22.18,50.59c2.49,0,3.84-1.25,3.84-3.84V154.43c0-2.5-1.35-3.84-3.84-3.84h-5.57c-2.5,0-3.84,1.34-3.84,3.84v44.35c0,2.59,1.34,3.84,3.84,3.84Z" transform="translate(0 -1)"/><path class="cls-5" d="M448.57,175.45c0,6.43-2.4,10.66-7,12.67l6.62,25.15c.29,1.15-.29,1.73-1.34,1.73h-10a1.5,1.5,0,0,1-1.63-1.34l-6.43-24.39h-6.62v24.19a1.42,1.42,0,0,1-1.54,1.54h-10a1.42,1.42,0,0,1-1.54-1.54V139.74a1.41,1.41,0,0,1,1.54-1.53h24.09c9,0,13.82,4.79,13.82,13.82Zm-16.89,1.15c2.5,0,3.84-1.34,3.84-3.84v-18c0-2.5-1.34-3.84-3.84-3.84h-9.5V176.6Z" transform="translate(0 -1)"/><path class="cls-5" d="M496.48,149.34c0,1-.39,1.63-1.54,1.63h-24v19.2h18.34a1.44,1.44,0,0,1,1.53,1.63v9.51a1.44,1.44,0,0,1-1.53,1.63H470.94v19.39h24c1.15,0,1.54.48,1.54,1.54v9.59c0,1-.39,1.54-1.54,1.54H459.62a1.39,1.39,0,0,1-1.44-1.54V139.74a1.38,1.38,0,0,1,1.44-1.53h35.32c1.15,0,1.54.57,1.54,1.53Z" transform="translate(0 -1)"/></g></g><rect class="cls-5" x="663" y="30.5" width="5" height="180.93"/></g></g></g></g></svg>