<svg xmlns="http://www.w3.org/2000/svg" width="2862.804" height="1041.143" viewBox="0 0 2862.804 1041.143"><g transform="translate(0 0.002)"><g transform="translate(0 -0.002)"><path d="M114.5,266.1c37.1-35.393,49.368-60.16,73.86-108.761C214.416,105.8,250.661,56.42,296.114,29.965,332.162,9,358.806-2.37,397.987.571c49.568,3.918,68.963,37.592,78.367,80.345,43.1-39.193,50.548-48.011,87.772-65.648,41.923-19.794,113.235-25.475,145.367,14.7,21.549,26.847,41.53,101.708,72.488,165.592,33.3,68.589,63.868,80.934,115.589,116.6,25.467,17.636,10.58,28.612,0,39.194-35.262,35.274-87.114,92.207-129.3,160.692-41.433,67.26-51.133,113.075-84.244,184.21-41.141,88.187-78.367,142.466-158.688,173.821-20.184,7.841-29.781,18.812-43.106,35.86-37.221,47.036-62.69,82.116-119.506,107.785-82.284,37.233-187.49,30.767-259-25.085C63.76,957.478,23.792,913.776,10.078,845.189-5.987,764.255-2.46,724.864,17.914,653.14c17.24-60.359,48-105.824,81.305-164.612-9.795-39.194-15.672-82.307-68.57-121.5C7.532,349.981,10.078,329.794,37.506,320c25.665-9.015,50.475-28.589,76.995-53.892" fill="#db000c"/><path d="M613.014,130.264s-37.223,17.833-62.5,8.622c-6.662-2.351-13.124-9.013-18.218-15.481,0,0-46.432,35.077-85.614,46.836s-94.04-13.718-133.224,19.6S226.282,294.68,203.751,328.973c-45.061,68.59-78.366,199.886-78.366,199.886s-4.9-56.829,19.592-127.377c18.611-53.89,66.61-143.056,96-180.289s54.855-60.75,54.855-60.75-41.14,5.88-64.65-9.8c-12.343-8.231-23.51-27.435-23.51-27.435s-62.692,35.272-80.326,48.991-76.406,56.83-76.406,56.83-13.714-25.475-23.51-41.152S0,148.684,0,148.684,40.162,110.47,86.2,72.258c54.269-44.876,63.477-49.58,97.958-65.65,16.653-7.837,57.794-14.7,107.752,16.658,26.056,16.265,61.713,22.536,104.815,6.858S479.6-11.028,538.764,21.306c30.369,16.657,55.247,57.223,70.529,84.266,11.757,20.576,41.145,25.476,50.939,29.4s72.488,13.717,72.488,13.717-66.022,59.182-96.976,95.045C585.785,301.539,535.825,386.784,521.131,425,497.623,486.534,469.212,591.57,460.4,623.9c-5.484,20.183-12.365,40.541-23.39,59.441-4.843,8.3-20.48,18.9-20.48,18.9s-18.077,22.621-50.4,59.858c-13.323,15.282-46.383,45.94-69.307,59.852-31.933,19.205-94.509,23.629-94.509,23.629,52.769-16.537,88.208-30.714,145.7-98.447,54.852-64.625,70.266-106.577,96.714-186.924C479.6,454.2,499.58,387.762,546.6,321.136c26.645-38.017,88.161-103.863,107.749-123.459S695.5,158.482,695.5,158.482s-58.777-12.933-82.482-28.218" transform="translate(86.485 190.908)" fill="#231f20"/><path d="M43.713,10.433C69.183-2.3,88.97-3.873,109.345,8.472c22.53,13.717,32.718,30.769,25.469,52.913C128.937,79.02,104.446,93.327,84.856,81.96,73.1,75.1,77.018,66.283,49.59,65.3c-13.713-.391-37.223,16.658-43.1,10.779-9.208-9.21-7.444-17.441-1.958-29.4C10.407,33.948,25.3,19.643,43.713,10.433" transform="translate(305.296 22.472)" fill="#fefefe"/><path d="M33.377,11.762C58.847-.977,90-4.5,110.765,6.862c17.631,9.8,29.779,26.065,22.529,48.013-4.9,14.7-15.674,24.5-35.264,23.515C87.251,78,82.748,69.571,72.561,61.733c-8.815-6.858-19.787-4.7-29.387-1.96-10.188,2.939-17.632,6.86-28.409,3.919C2.618,60.556-3.453,48.21,2.034,36.257,7.907,23.519,14.961,20.971,33.377,11.762" transform="translate(552.688 28.981)" fill="#fefefe"/><path d="M137.141,51.188c-43.469,39.666-65.08,67.251-92.079,119.54C16.547,225.954,0,288.311,0,323.585c0,25.473,7.62,56.5,33.306,56.827,25.883.334,29.191-30.961,34.286-56.827,8.818-44.1,13.677-80.806,32.325-129.34,17.472-45.465,29.036-71.41,57.794-110.723,20.443-27.939,42.907-43.9,59.755-65.647C231.18.239,213.548-5.64,195.914,6.117c-14.495,9.6-37.436,25.6-58.773,45.071" transform="translate(80.606 409.904)" fill="#fefefe"/><path d="M173.961,62.85c-40.357,55.265-41.157,73.236-64.651,121.5-32.37,66.5-37.225,105.825-74.449,174.412C19.582,387.176-10.2,425.389,3.516,458.7c8.228,19.988,37.811,24.694,54.856,11.76,33.306-25.477,36.44-47.621,48.978-82.3,23.509-64.67,23.622-111.94,50.941-179.312,22.6-55.746,33.073-90.1,70.529-137.177,15.313-19.249,33.3-26.456,43.1-46.051C284.458.533,266.041-7.7,236.653,7.979,214.708,19.542,195.51,33.455,173.961,62.85" transform="translate(345.493 413.92)" fill="#fefefe"/><path d="M0,41.217S48.98-1.9,97.958.065s58.774,23.515,82.284,31.354,52.9,13.718,96-5.878,97.953-38.019,143.018,0c50.936,43.112,66.219,93.28,66.219,93.28s-40.753,18.42-62.3,8.622-35.261-45.071-35.261-45.071-25.667,43.5-80.328,48.991c-56.816,5.878-76.406-45.072-76.406-45.072-4.444,4.443-19.095,35.274-78.365,35.274-68.571,0-68.571-58.79-68.571-58.79S54.855,86.291,27.43,76.491,0,41.217,0,41.217" transform="translate(213.828 202.351)" fill="#fefefe"/></g><path d="M1654.556,945.269c-5.422-.665-10.714-2.353-16.087-3.469a3.41,3.41,0,0,1-3.019-3.46c-1.3-12.5-2.673-25-4.008-37.5a8.181,8.181,0,0,1,.162-1.457c2.831.647,5.563,1.31,8.313,1.894a76.027,76.027,0,0,0,31.579.5,28.39,28.39,0,0,0,17.643-10.9,69.283,69.283,0,0,0,8.276-13.725c4.892-11.414,9.14-23.1,13.759-34.632.814-2.029-.1-3.586-.729-5.244q-12.069-31.936-24.2-63.848-35.945-94.647-71.9-189.293c-.458-1.211-.839-2.451-1.254-3.668,2.74-1.075,37.145-1.5,47.188-.616.329.709.77,1.5,1.07,2.333,19.428,54.036,38.982,108.027,58.17,162.148,5.237,14.773,9.365,29.936,14,44.911a2.338,2.338,0,0,0,.643-.877c8.12-32.3,20.116-63.3,31.521-94.5q20.138-55.1,40.253-110.21c.446-1.216.946-2.412,1.531-3.9h44.439c-.49,1.568-.832,2.882-1.306,4.146q-30.351,80.822-60.715,161.635-24.261,64.665-48.456,129.353c-5.17,13.747-11.363,27.019-19.628,39.235-6.846,10.119-15.051,18.788-26.015,24.56a64.467,64.467,0,0,1-30.569,7.257A87.541,87.541,0,0,1,1654.556,945.269ZM1470.165,845.2a99.671,99.671,0,0,1-15.755-4.066,77.02,77.02,0,0,1-21.857-11.77,87,87,0,0,1-17.24-17.95c-.421-.581-.859-1.164-1.281-1.726q-.275-.366-.55-.733l-.684.211-.168.052-.2,6.727c-.241,7.952-.482,15.939-.731,24.084h-41.043V480.29H1414.5V607.675l.193.1.009,0,.48.253q.377-.425.757-.847l0,0c.556-.62,1.131-1.261,1.682-1.906a106.329,106.329,0,0,1,10.3-10.561,86.983,86.983,0,0,1,11.49-8.645,76.375,76.375,0,0,1,12.775-6.439,74.273,74.273,0,0,1,14.152-3.942,128,128,0,0,1,21.939-1.976,104.95,104.95,0,0,1,22.1,2.3,95.984,95.984,0,0,1,20.52,6.927,101.234,101.234,0,0,1,18.874,11.606,121.772,121.772,0,0,1,17.169,16.334,99.524,99.524,0,0,1,8.915,11.965,109.9,109.9,0,0,1,7.01,12.924,143.816,143.816,0,0,1,9.347,28.093,183.481,183.481,0,0,1,4.434,32.452,211.906,211.906,0,0,1-1.072,32.755,182.209,182.209,0,0,1-5.428,28.9,149.6,149.6,0,0,1-10.54,27.425,135.9,135.9,0,0,1-9.169,15.571,112.08,112.08,0,0,1-11.079,13.742,99.71,99.71,0,0,1-13.2,11.659,98.151,98.151,0,0,1-15.53,9.322,113.81,113.81,0,0,1-22.224,8.067,95.648,95.648,0,0,1-22.661,2.777A92.938,92.938,0,0,1,1470.165,845.2ZM1481.7,609.867a69.492,69.492,0,0,0-14.719,1.6,58.214,58.214,0,0,0-24.939,12.28,70.025,70.025,0,0,0-10.247,10.665,82.106,82.106,0,0,0-8.85,14.117,98.228,98.228,0,0,0-6.04,15.522,136.271,136.271,0,0,0-4.681,23.282,211.289,211.289,0,0,0-1.306,23.733c.133,2.432.24,4.9.345,7.289.232,5.332.473,10.842,1.008,16.233,1.469,14.812,5.021,27.469,10.861,38.693a83.412,83.412,0,0,0,8.895,13.786,62.5,62.5,0,0,0,11.068,10.8,55.885,55.885,0,0,0,13.478,7.471,63.255,63.255,0,0,0,16.127,3.8,79.86,79.86,0,0,0,8.314.447,65.868,65.868,0,0,0,13.59-1.372,57.054,57.054,0,0,0,12.479-4.175,57.638,57.638,0,0,0,11.32-7.063,68.057,68.057,0,0,0,10.116-10.04,88.6,88.6,0,0,0,8.941-13.143,96,96,0,0,0,6.392-14.132,130.566,130.566,0,0,0,6.692-30.579,184.262,184.262,0,0,0,1.029-19.611c0-6.4-.331-13-.977-19.623-1.412-14.467-4.507-27-9.462-38.323a90.2,90.2,0,0,0-5.906-11.306,76.629,76.629,0,0,0-7.583-10.249,62.494,62.494,0,0,0-9.662-8.928,55.566,55.566,0,0,0-10.831-6.268,57.557,57.557,0,0,0-11.964-3.7,68.484,68.484,0,0,0-13.062-1.212ZM1165.638,846.084a126.469,126.469,0,0,1-19.844-2.585,87.84,87.84,0,0,1-18.94-6.333,89.085,89.085,0,0,1-13.719-7.946,69.5,69.5,0,0,1-11.352-10.054,61.549,61.549,0,0,1-8.65-12.361,65.03,65.03,0,0,1-5.613-14.87c-7.006-28.475-.455-53.051,19.472-73.046a70.593,70.593,0,0,1,16.052-11.883,131.179,131.179,0,0,1,18.3-8.151c10.578-3.916,21.718-5.736,31.33-7.134,7.24-1.053,14.6-2.087,21.714-3.086,12.763-1.794,25.958-3.647,38.9-5.674a203.213,203.213,0,0,0,33.162-8.219c0-1.418.017-2.854.029-4.242.081-9.024.158-17.545-2-26.1a46.9,46.9,0,0,0-4.449-11.41,38.4,38.4,0,0,0-6.87-8.942,40.439,40.439,0,0,0-9.178-6.583,53.115,53.115,0,0,0-11.372-4.337,109.365,109.365,0,0,0-27.939-3.316c-4.113,0-8.375.17-13.028.52a85.714,85.714,0,0,0-21.133,4.135,45.35,45.35,0,0,0-13.939,7.519,46.788,46.788,0,0,0-10.433,11.886c-3.8,6.1-6.816,13.189-9.5,22.319l-1.006,3.424-16.049-2.048-26.679-3.4a103.616,103.616,0,0,1,5.279-21.1,82.422,82.422,0,0,1,9.365-18.119,78.455,78.455,0,0,1,13.616-15.054,91.5,91.5,0,0,1,18.028-11.905c11.25-5.711,23.826-9.617,38.445-11.939a204.479,204.479,0,0,1,31.946-2.468c7.193,0,14.637.363,22.127,1.076a144.377,144.377,0,0,1,21.456,3.569,105.168,105.168,0,0,1,20.5,7.335A74.724,74.724,0,0,1,1289.77,596a50.953,50.953,0,0,1,6.457,6.631,53.838,53.838,0,0,1,5.045,7.448,71.414,71.414,0,0,1,6.666,16.927,101.687,101.687,0,0,1,3.136,25.662c.072,10.763.1,21.7.118,32.273v.014c.022,9.776.043,19.884.1,29.826.14,23.113.3,47.736.633,72.328a160.5,160.5,0,0,0,3.434,29.222,59.3,59.3,0,0,0,2.775,9.6,68.07,68.07,0,0,0,4.264,9.044c.584,1.038,1.166,2.091,1.783,3.207.332.6.676,1.222,1.043,1.884h-46.073a72.611,72.611,0,0,1-5.859-15.181,137.19,137.19,0,0,1-3.273-16.617c-.46.365-.887.7-1.291,1.02-.786.619-1.466,1.155-2.151,1.709a190.42,190.42,0,0,1-22.115,15.61,140.506,140.506,0,0,1-24.4,11.709,132.636,132.636,0,0,1-22.7,6.039,137.437,137.437,0,0,1-23.3,1.966C1171.289,846.327,1168.454,846.245,1165.638,846.084Zm100.1-136.1a1.933,1.933,0,0,0-.593.067,225.673,225.673,0,0,1-28.592,8.366c-10.076,2.3-20.446,4.133-29.261,5.617l-1.444.243c-10.938,1.841-22.246,3.746-33.287,6.026a86.164,86.164,0,0,0-12.423,3.518,70.741,70.741,0,0,0-11.7,5.566,33.586,33.586,0,0,0-8.546,7.165,30.46,30.46,0,0,0-5.456,9.688,42.566,42.566,0,0,0-1.379,22.473,36.62,36.62,0,0,0,2.97,8.919,34.144,34.144,0,0,0,4.879,7.368,39.306,39.306,0,0,0,6.558,5.981,52.482,52.482,0,0,0,8.009,4.758c7.768,3.769,16.608,5.608,27.818,5.785.616.01,1.238.015,1.849.015a98.045,98.045,0,0,0,25.683-3.263,82.745,82.745,0,0,0,23.605-10.573,77.555,77.555,0,0,0,11.332-8.957,65.662,65.662,0,0,0,8.957-10.615,62.592,62.592,0,0,0,6.431-12.326,68.673,68.673,0,0,0,3.754-14.094c1.523-9.653,1.558-19.506,1.589-28.2.012-3.06.009-6.074.006-9.265v-.055c0-1.4,0-2.807,0-4.245C1266.17,709.971,1265.931,709.979,1265.739,709.984ZM105.462,836.593c-37.643-12.279-64.414-37.2-81.523-72.612C4.516,723.777-2.6,681.256.829,636.855c2.057-26.639,8.38-52.149,20.449-76.075,22.214-44.034,57.608-71.408,105.557-82.319,29.826-6.788,59.808-6.939,89.438,1.205,41.537,11.416,70.651,37.44,88.02,76.684,3.166,7.152,5.587,14.634,8.54,22.46l-46.965,11.1c-2.161-5.514-4.048-10.8-6.281-15.937-6.441-14.807-14.884-28.256-27.258-38.913-13.232-11.394-28.872-17.312-45.966-19.461-19.457-2.447-38.739-1.246-57.514,4.668-28.537,8.99-48.809,27.742-62.409,54.013-9.271,17.912-13.871,37.191-15.875,57.14a261.549,261.549,0,0,0,1.571,65.436c3.743,24.787,11.384,48.1,26.746,68.349,16.942,22.333,39.532,34.93,67.167,38.778,18.261,2.543,36.368,1.937,54.06-3.462,27.894-8.51,46.934-27.156,59.384-53.036a148.373,148.373,0,0,0,10.424-30.375c.234-.992.58-1.957.977-3.281l47.77,12.061c-2.15,6.708-4,13.082-6.229,19.321-8.625,24.15-21.415,45.673-40.286,63.329a133.108,133.108,0,0,1-68.524,34.4,208.6,208.6,0,0,1-37.13,3.387A195.726,195.726,0,0,1,105.462,836.593Zm315.6,7.493a103.23,103.23,0,0,1-22.28-7.157,82.963,82.963,0,0,1-14.518-8.356,67.064,67.064,0,0,1-11.717-10.793,62.948,62.948,0,0,1-8.683-13.343,70.6,70.6,0,0,1-5.419-16,76.2,76.2,0,0,1,4.766-47.786,71.773,71.773,0,0,1,12.769-19.179A72.832,72.832,0,0,1,394.4,707.148a129.427,129.427,0,0,1,21.967-9.5,138.671,138.671,0,0,1,23.246-5.377c6.518-.937,13.16-1.792,19.584-2.617h.007c10.681-1.373,21.727-2.794,32.516-4.636,10.082-1.722,20.228-4.087,30.04-6.374,4.092-.954,8.324-1.941,12.5-2.867a22.564,22.564,0,0,0,2.546-.785c.428-.15.87-.305,1.337-.456q.014-.652.028-1.3a179.536,179.536,0,0,0-.215-18.041,59.542,59.542,0,0,0-3.854-17.547,39.637,39.637,0,0,0-9.7-14.478,38.645,38.645,0,0,0-15.023-8.539,111.434,111.434,0,0,0-21.845-4.411,132.4,132.4,0,0,0-13.344-.694,111.83,111.83,0,0,0-27.23,3.277,48.9,48.9,0,0,0-18.517,8.824,45.8,45.8,0,0,0-12.714,15.97,131.191,131.191,0,0,0-5.236,12.866c-.687,1.873-1.4,3.808-2.129,5.693-.249.64-.455,1.294-.694,2.052-.117.373-.238.758-.378,1.184l-27.461-3.52-15.2-1.949A102.012,102.012,0,0,1,371.5,629a80.3,80.3,0,0,1,12.34-20.191,81.608,81.608,0,0,1,17.7-15.61,105.772,105.772,0,0,1,22.94-11.166,144.378,144.378,0,0,1,28.116-6.749,204.3,204.3,0,0,1,28.766-1.868c2.262,0,4.613.03,6.989.088a183.5,183.5,0,0,1,25,2.176,125.382,125.382,0,0,1,24.287,6.339c1.417.532,2.847,1.1,4.372,1.742a75,75,0,0,1,14.188,7.763,59.615,59.615,0,0,1,11.227,10.233,56.609,56.609,0,0,1,8.111,12.794A65.994,65.994,0,0,1,580.379,630a133.389,133.389,0,0,1,2.381,22.989c.2,17.845.22,35.985.236,53.527.01,10.667.021,21.7.073,32.557.011,2.388.02,4.817.028,7.165v.034c.047,13.234.094,26.918.68,40.353a272.69,272.69,0,0,0,3.138,27.791l.211,1.434a45.293,45.293,0,0,0,2.721,10,67.981,67.981,0,0,0,4.593,9.355c.57.982,1.1,2.008,1.651,3.094l0,.009c.263.513.535,1.043.826,1.6H550.48c-.534-1.5-1.107-3.045-1.661-4.535l0-.007c-1.3-3.487-2.638-7.092-3.674-10.746-1.03-3.634-1.76-7.294-2.534-11.167-.337-1.683-.684-3.423-1.058-5.165-.991.772-1.984,1.554-2.946,2.31l0,0c-2.074,1.631-4.216,3.316-6.343,4.92a167.353,167.353,0,0,1-28.326,17.527,131.8,131.8,0,0,1-15.335,6.241,120.8,120.8,0,0,1-16.265,4.2,155.845,155.845,0,0,1-28.469,2.782A116.469,116.469,0,0,1,421.064,844.087Zm108.6-131.677-.011,0c-6.287,1.9-12.227,3.686-18.31,4.918-11.975,2.421-24.208,4.593-36.039,6.693-6.648,1.18-13.522,2.4-20.277,3.652-6.2,1.149-11.24,2.3-15.848,3.631a92.227,92.227,0,0,0-15.211,5.765c-7.305,3.581-12.443,8.255-15.707,14.287a38.818,38.818,0,0,0-3.794,25.789,37.031,37.031,0,0,0,13.243,22.226,51.541,51.541,0,0,0,15.018,8.229,73.413,73.413,0,0,0,12.055,2.982,77.439,77.439,0,0,0,12.109.94,89.342,89.342,0,0,0,13.256-1.024,111.293,111.293,0,0,0,13.222-2.862,84.5,84.5,0,0,0,21.216-8.99,69.239,69.239,0,0,0,9.255-6.72,67.8,67.8,0,0,0,8.19-8.422A71.986,71.986,0,0,0,532.766,766a58.448,58.448,0,0,0,4.549-19.985c.405-8.357.686-16.894.958-25.15v-.033c.119-3.619.242-7.362.375-11.07C535.564,710.631,532.565,711.535,529.666,712.409ZM650.831,840.19c-.808-2.874-1.083-254.734-.275-260.3h39.1V617.26l.745.208c.661-1.055,1.358-2.09,1.98-3.168a160.752,160.752,0,0,1,14.975-22.074c12.559-15.255,28.778-20.556,48-18,12.936,1.722,24.678,6.547,36.116,13.495-5,13.507-9.966,26.911-15.027,40.581-2.367-1.193-4.306-2.227-6.288-3.159a59.921,59.921,0,0,0-30.446-6.025c-12.884.97-22.835,7-30.223,17.413-6.879,9.7-10.431,20.737-12.662,32.265a191.046,191.046,0,0,0-3.006,36.356q-.028,65.048-.007,130.1c0,1.542,0,3.083,0,4.938Zm175.482-.1V579.9h39.526v36.223c1.684-2.178,2.847-3.713,4.041-5.221,15.1-19.08,34.722-30.849,58.538-35.324a109.837,109.837,0,0,1,61.039,5.328c22.422,8.695,37.173,24.639,44.657,47.486,2.688,8.209,3.45,16.659,3.76,25.156.416,11.39.591,22.793.6,34.191q.092,73.709.026,147.417v4.9h-44.3c-.035-1.428-.105-2.94-.105-4.452q-.009-75.084-.007-150.168c0-10.351.144-20.722-1.589-30.97C989.048,634,978.1,619.75,957.531,614.525c-26.714-6.786-50.3-.528-70.071,18.818-7.85,7.682-11.494,17.67-13.763,28.187a137.724,137.724,0,0,0-3.166,28.85q-.135,72.332-.1,144.663c0,1.561,0,3.119,0,5.043Zm850.142-468.77a111.213,111.213,0,0,1-16.843-3.736,99.471,99.471,0,0,1-22.446-9.9,83.5,83.5,0,0,1-17.773-14.385,86.85,86.85,0,0,1-13.232-18.7,109.424,109.424,0,0,1-8.818-22.837c-1.091-4.074-1.866-8.2-2.686-12.578l0-.005c-.384-2.051-.782-4.172-1.222-6.331l42.384-3.52c.173.7.344,1.392.509,2.058l0,.018.01.038c.347,1.4.675,2.722.992,4.057a97.39,97.39,0,0,0,4.949,15.489,67.593,67.593,0,0,0,7.991,14.158c8.639,11.661,20.56,18.5,35.429,20.326a85.185,85.185,0,0,0,10.339.648,73.013,73.013,0,0,0,14.4-1.4,66.957,66.957,0,0,0,13.426-4.211,69.58,69.58,0,0,0,12.433-7.028,81.309,81.309,0,0,0,11.414-9.851,67.043,67.043,0,0,0,10.47-14.438,129.409,129.409,0,0,0,7.359-16.263c2.573-6.69,4.829-13.56,6.708-20.421,1.864-6.812,3.407-13.806,4.586-20.787a224.161,224.161,0,0,0,2.99-42.631,2.421,2.421,0,0,0-.125-.581c-.048-.169-.107-.377-.177-.657-.292.351-.571.68-.818.97-.523.615-.974,1.145-1.4,1.714a120.033,120.033,0,0,1-13.293,15.187,102.849,102.849,0,0,1-15.263,12.125,97.108,97.108,0,0,1-17.3,8.876,102.805,102.805,0,0,1-19.4,5.438,116,116,0,0,1-20.309,1.858,99.513,99.513,0,0,1-19.539-1.907,94.643,94.643,0,0,1-18.391-5.7,101.14,101.14,0,0,1-17.218-9.447,119.288,119.288,0,0,1-16.016-13.159,102.322,102.322,0,0,1-11.257-12.967,103.564,103.564,0,0,1-8.744-14.324,113.328,113.328,0,0,1-6.412-15.537,131.563,131.563,0,0,1-4.26-16.608,162.149,162.149,0,0,1-2.66-21.857,142.957,142.957,0,0,1,.5-21.55,133.424,133.424,0,0,1,11.29-41.921,121.062,121.062,0,0,1,14.175-23.91,98.52,98.52,0,0,1,41.047-31.482A120,120,0,0,1,1681.035,6.2a129.493,129.493,0,0,1,20.559-1.692,114.522,114.522,0,0,1,18.572,1.5A109.228,109.228,0,0,1,1738,10.524a112.607,112.607,0,0,1,17.069,7.561,125.024,125.024,0,0,1,16.263,10.636,109.312,109.312,0,0,1,12.3,11.042,113.866,113.866,0,0,1,10.351,12.515,126.869,126.869,0,0,1,8.564,13.833,148.756,148.756,0,0,1,6.947,15c5.9,14.781,9.683,31.261,11.914,51.865,1.37,12.646,2.129,25.478,2.318,39.228.172,12.387-.126,25.234-.908,39.277a348.478,348.478,0,0,1-3.919,37.847,207.541,207.541,0,0,1-9.376,36.882,165.649,165.649,0,0,1-14.3,30.5,124.465,124.465,0,0,1-9.644,13.683,113.056,113.056,0,0,1-11.712,12.371,117.614,117.614,0,0,1-13.591,10.633,109.242,109.242,0,0,1-30.492,14.182,118.65,118.65,0,0,1-16.889,3.558,143.943,143.943,0,0,1-19.381,1.362A121.708,121.708,0,0,1,1676.454,371.317Zm25.929-329.975a76.728,76.728,0,0,0-11.748.937,62.938,62.938,0,0,0-13.642,3.684,57.385,57.385,0,0,0-11.794,6.392,61.014,61.014,0,0,0-10.02,8.91,73.734,73.734,0,0,0-8.318,11.238,107.147,107.147,0,0,0-10.337,22.286,93.963,93.963,0,0,0-4.443,22.805,95.964,95.964,0,0,0,1.3,23.15,112.958,112.958,0,0,0,6.892,23.318c5.54,13.419,13.714,23.738,24.295,30.671,10.469,6.86,23.308,10.417,38.162,10.571.364,0,.734.007,1.1.007a71.284,71.284,0,0,0,24.468-4.17,65.964,65.964,0,0,0,19.111-10.868,71.371,71.371,0,0,0,13.832-15.107,74.1,74.1,0,0,0,8.63-16.886,86.434,86.434,0,0,0,4.568-20.65,107.594,107.594,0,0,0-.148-21.182,101.082,101.082,0,0,0-3.085-16.689,88.084,88.084,0,0,0-5.8-15.331,84.631,84.631,0,0,0-8.612-13.915,90.792,90.792,0,0,0-11.512-12.439,65.773,65.773,0,0,0-20.183-12.6,62.687,62.687,0,0,0-22.707-4.13h0ZM474.832,364.767c-26.376-7.257-49.4-20.1-67-41.521-12.884-15.671-20.191-33.827-23.118-53.788-.889-6.054-1.319-12.178-2.016-18.819l45.4-4.02c.482,3.474.982,6.647,1.354,9.837,2.489,21.374,12.628,38.288,29.912,50.924,14.99,10.957,31.96,17.329,50.157,20.2,21.439,3.383,42.833,2.97,63.877-2.948,13.176-3.705,25.007-9.9,34.946-19.511,22.846-22.091,21.1-64.259-13.225-81.326-16.788-8.348-34.565-13.458-52.642-17.855-24.783-6.029-49.675-11.645-73.958-19.571A129.534,129.534,0,0,1,429.4,165.883c-18.858-14.5-29.594-33.75-31.827-57.367-2.28-24.118,3-46.374,18.563-65.522,11.043-13.585,24.982-23.389,40.9-30.45C474.507,4.8,492.946,1.294,511.918.338c24.12-1.216,47.923.7,70.986,8.312,24.313,8.03,44.721,21.6,59.079,43.245,11.088,16.715,15.869,35.375,16.637,55.8L613.3,111.164c-1.174-5.9-1.989-11.326-3.352-16.612C603.54,69.7,587.974,53.529,563.126,47.043c-27.33-7.134-54.724-6.818-81.743,1.764-11.394,3.619-21.49,9.653-29.125,19.174-13.84,17.255-12.385,44.552,3.111,58.791,4.789,4.4,10.434,7.43,16.34,10,15.669,6.815,32.171,10.912,48.7,14.948,22.107,5.4,44.282,10.569,66.223,16.583a138.178,138.178,0,0,1,46.1,22.224c21.915,16.271,34.492,38.251,36.5,65.458,3.173,42.932-15.666,74.57-52.063,96.146-20.983,12.438-44.116,18.337-68.383,19.784q-7.791.464-15.547.47A219.017,219.017,0,0,1,474.832,364.767Zm674.053-2.094Q1060.656,230.756,972.272,98.942c-5.648-8.443-10.661-17.314-16.516-26.882,5.09,98.29,3.915,196.024,6.743,294.008H916.806V6.4c1-.076,2.118-.236,3.235-.237q6.669-.008,13.34,0c9.573,0,19.147.009,28.719-.062a5.335,5.335,0,0,1,5.077,2.731Q1048.89,131.4,1130.67,253.92a440.379,440.379,0,0,1,30.677,52.97,1.938,1.938,0,0,0,1.289,1.113c-.554-4.986-1.066-9.979-1.672-14.959-3.445-28.262-4.477-56.641-4.659-85.094-.415-65.512-1.109-131.022-1.688-196.532-.014-1.558,0-3.116,0-5.1h45.445V366.385h-4.2c-13.234,0-26.47-.114-39.7.078l-.244,0A7.422,7.422,0,0,1,1148.885,362.673Zm-850.622,3.745a5.825,5.825,0,0,1-3.063-.708,6.593,6.593,0,0,1-2.165-2.281c-4.283-6.712-8.631-13.542-12.835-20.147l-.022-.035c-15.421-24.228-31.366-49.28-47.44-73.661-8.212-12.457-17.411-24.175-27.717-37.107a65.685,65.685,0,0,0-11.837-11.4,108.972,108.972,0,0,0-13.963-8.863,43.089,43.089,0,0,0-20.29-5.391c-18.423-.2-37.151-.3-55.263-.4-5.319-.029-10.819-.059-16.274-.091h-.021a7.953,7.953,0,0,0-1.3.148c-.253.042-.538.09-.852.131V366.35H37.171V6.238c.284-.013.574-.029.854-.044.617-.035,1.253-.07,1.877-.07h.015c14.776.009,29.676.012,44.084.015h.034c42.1.009,85.632.018,128.446.166,12.809.045,27.917.623,42.85,4.569a98.067,98.067,0,0,1,27.851,12.06,87.979,87.979,0,0,1,21.03,18.778A92.412,92.412,0,0,1,318.235,65.84a110.271,110.271,0,0,1,6.5,54.353,92.808,92.808,0,0,1-7.31,25.2,80.156,80.156,0,0,1-18.993,26.274,92.147,92.147,0,0,1-12.734,9.747,114.976,114.976,0,0,1-14.543,7.816,139,139,0,0,1-21.249,7.528,190.561,190.561,0,0,1-22.1,4.494c-.482.07-.95.166-1.6.3l-.011,0c-.35.071-.747.151-1.221.243.311.257.555.477.771.671a4.435,4.435,0,0,0,.954.733,120.315,120.315,0,0,1,15.641,9.242,132.29,132.29,0,0,1,13.9,11.2,172.907,172.907,0,0,1,23.5,27.052c9.028,12.642,17.566,25.952,25.823,38.824,2.447,3.814,4.977,7.758,7.493,11.644,9.26,14.3,18.59,28.893,27.614,43.006l0,.005c3.534,5.527,7.539,11.792,11.4,17.822.515.8,1.012,1.614,1.587,2.551l.009.014c.283.463.586.957.919,1.495-.432.04-.82.085-1.2.127a17.687,17.687,0,0,1-1.984.156q-3.121,0-6.242,0l-9.325,0h-.3l-8.632,0c-8.512,0-18.563.01-28.57.082ZM116.957,165.059h.113c6.193,0,12.6.007,18.9.007,19.064,0,41.55-.03,63.781-.252a151.284,151.284,0,0,0,28.814-3.07,63.427,63.427,0,0,0,20.139-7.662,54.915,54.915,0,0,0,8.59-6.411,57.455,57.455,0,0,0,7.466-8.306,59.358,59.358,0,0,0,7.317-13.045,57.783,57.783,0,0,0-4.918-52.709,55.231,55.231,0,0,0-8.381-10.163,53.746,53.746,0,0,0-10.788-7.966,54.763,54.763,0,0,0-13-5.207,150.926,150.926,0,0,0-38.082-4.528c-13.559-.02-28.31-.029-46.421-.029-10.315,0-21,0-30.422.005h-.479c-9.815,0-19.965.005-29.944.005H85.329V164.925c.261.018.5.038.733.057h.011c.472.04.88.074,1.292.074h.011c3.375,0,6.932,0,10.874,0C104.529,165.052,110.847,165.056,116.957,165.059ZM1285.785,302.5v-31.95H1505.53V302.5Zm87.359-110.911a88.7,88.7,0,0,1-17.259-5.594,90.777,90.777,0,0,1-15.619-8.851,93.6,93.6,0,0,1-13.608-11.723,95.856,95.856,0,0,1-11.227-14.208,97.408,97.408,0,0,1-8.478-16.307,98.65,98.65,0,0,1-5.358-18.021,101.155,101.155,0,0,1,0-38.7,98.692,98.692,0,0,1,5.358-18.021,97.443,97.443,0,0,1,8.478-16.307,95.9,95.9,0,0,1,11.227-14.208,93.589,93.589,0,0,1,13.608-11.722,90.722,90.722,0,0,1,15.619-8.852,88.554,88.554,0,0,1,71.581,0,90.8,90.8,0,0,1,15.619,8.852,93.588,93.588,0,0,1,13.608,11.722,95.96,95.96,0,0,1,11.228,14.208,97.366,97.366,0,0,1,8.477,16.307,98.625,98.625,0,0,1,5.358,18.021,101.109,101.109,0,0,1,0,38.7A98.584,98.584,0,0,1,1476.4,134.9a97.331,97.331,0,0,1-8.477,16.307,95.913,95.913,0,0,1-11.228,14.208,93.594,93.594,0,0,1-13.608,11.723,90.851,90.851,0,0,1-15.619,8.851,88.779,88.779,0,0,1-54.321,5.594Zm-5.413-153.23a60.738,60.738,0,0,0-10.449,5.921,62.6,62.6,0,0,0-9.1,7.843,64.149,64.149,0,0,0-7.511,9.506A65.161,65.161,0,0,0,1335,72.534a67.064,67.064,0,0,0,0,50,65.127,65.127,0,0,0,5.672,10.909,64.2,64.2,0,0,0,7.511,9.506,62.6,62.6,0,0,0,9.1,7.843,60.738,60.738,0,0,0,10.449,5.921,59.317,59.317,0,0,0,47.887,0,60.738,60.738,0,0,0,10.449-5.921,62.653,62.653,0,0,0,9.1-7.843,64.14,64.14,0,0,0,7.511-9.506,65.153,65.153,0,0,0,5.672-10.909,67.064,67.064,0,0,0,0-50,65.153,65.153,0,0,0-5.672-10.909,64.14,64.14,0,0,0-7.511-9.506,62.653,62.653,0,0,0-9.1-7.843,60.738,60.738,0,0,0-10.449-5.921,59.317,59.317,0,0,0-47.887,0Z" transform="translate(1010.897 95.196)" fill="#e4e4e4"/></g></svg>