<?xml version="1.0" encoding="UTF-8"?>
<svg width="2863px" height="1042px" viewBox="0 0 2863 1042" version="1.1" xmlns="http://www.w3.org/2000/svg" xmlns:xlink="http://www.w3.org/1999/xlink">
    <title>logo/carnaby/default black</title>
    <g id="logo/carnaby/default-black" stroke="none" stroke-width="1" fill="none" fill-rule="evenodd">
        <g id="Group-34">
            <g id="Group-2" transform="translate(0.000171, -0.002173)">
                <path d="M114.500529,266.103573 C151.598529,230.710573 163.868529,205.943573 188.360529,157.342573 C214.415529,105.803573 250.660529,56.4195729 296.113529,29.9645729 C332.161529,8.99657291 358.805529,-2.37042709 397.986529,0.570572913 C447.554529,4.48857291 466.949529,38.1625729 476.353529,80.9155729 C519.454529,41.7225729 526.901529,32.9045729 564.125529,15.2675729 C606.048529,-4.52642709 677.360529,-10.2074271 709.492529,29.9645729 C731.041529,56.8115729 751.022529,131.672573 781.980529,195.556573 C815.285529,264.145573 845.848529,276.490573 897.569529,312.157573 C923.036529,329.793573 908.149529,340.769573 897.569529,351.351573 C862.307529,386.625573 810.455529,443.558573 768.266529,512.043573 C726.833529,579.303573 717.133529,625.118573 684.022529,696.253573 C642.881529,784.440573 605.655529,838.719573 525.334529,870.074573 C505.150529,877.915573 495.553529,888.886573 482.228529,905.934573 C445.007529,952.970573 419.538529,988.050573 362.722529,1013.71957 C280.438529,1050.95257 175.232529,1044.48657 103.724529,988.634573 C63.759529,957.477573 23.791529,913.775573 10.077529,845.188573 C-5.98747099,764.254573 -2.46047099,724.863573 17.913529,653.139573 C35.153529,592.780573 65.912529,547.315573 99.218529,488.527573 C89.423529,449.333573 83.546529,406.220573 30.648529,367.028573 C7.53152901,349.980573 10.077529,329.793573 37.505529,319.995573 C63.170529,310.980573 87.980529,291.406573 114.500529,266.103573" id="Fill-1" fill="#DB000C"></path>
                <path d="M699.498629,321.171873 C699.498629,321.171873 662.275629,339.004873 637.002629,329.793873 C630.340629,327.442873 623.878629,320.780873 618.784629,314.312873 C618.784629,314.312873 572.352629,349.389873 533.170629,361.148873 C493.981629,372.905873 439.130629,347.430873 399.946629,380.745873 C360.766629,414.059873 312.766629,485.587873 290.235629,519.880873 C245.174629,588.470873 211.869629,719.766873 211.869629,719.766873 C211.869629,719.766873 206.971629,662.937873 231.461629,592.389873 C250.072629,538.499873 298.071629,449.333873 327.458629,412.100873 C356.845629,374.867873 382.313629,351.350873 382.313629,351.350873 C382.313629,351.350873 341.173629,357.230873 317.663629,341.552873 C305.320629,333.321873 294.153629,314.117873 294.153629,314.117873 C294.153629,314.117873 231.461629,349.389873 213.827629,363.108873 C196.195629,376.825873 137.421629,419.938873 137.421629,419.938873 C137.421629,419.938873 123.707629,394.463873 113.911629,378.786873 C104.116629,363.108873 86.484629,339.591873 86.484629,339.591873 C86.484629,339.591873 126.646629,301.377873 172.686629,263.165873 C226.955629,218.289873 236.163629,213.585873 270.644629,197.515873 C287.297629,189.678873 328.438629,182.817873 378.396629,214.173873 C404.452629,230.438873 440.109629,236.709873 483.211629,221.031873 C526.311629,205.354873 566.082629,179.879873 625.248629,212.213873 C655.617629,228.870873 680.495629,269.436873 695.777629,296.479873 C707.534629,317.055873 736.922629,321.955873 746.716629,325.874873 C756.511629,329.793873 819.204629,339.591873 819.204629,339.591873 C819.204629,339.591873 753.182629,398.773873 722.228629,434.636873 C672.269629,492.446873 622.309629,577.691873 607.615629,615.905873 C584.107629,677.441873 555.696629,782.477873 546.881629,814.812873 C541.397629,834.995873 534.516629,855.353873 523.491629,874.253873 C518.648629,882.553873 503.011629,893.156873 503.011629,893.156873 C503.011629,893.156873 484.934629,915.777873 452.607629,953.014873 C439.284629,968.296873 406.224629,998.954873 383.300629,1012.86687 C351.367629,1032.07187 288.791629,1036.49587 288.791629,1036.49587 C341.560629,1019.95887 376.999629,1005.78187 434.494629,938.048873 C489.346629,873.423873 504.760629,831.471873 531.208629,751.124873 C566.082629,645.104873 586.064629,578.669873 633.086629,512.043873 C659.731629,474.026873 721.247629,408.180873 740.835629,388.584873 C760.428629,368.987873 781.980629,349.389873 781.980629,349.389873 C781.980629,349.389873 723.203629,336.456873 699.498629,321.171873" id="Fill-4" fill="#231F20"></path>
                <path d="M349.009329,32.9047729 C374.479329,20.1667729 394.266329,18.5987729 414.641329,30.9437729 C437.171329,44.6607729 447.359329,61.7127729 440.110329,83.8567729 C434.233329,101.491773 409.742329,115.798773 390.152329,104.431773 C378.397329,97.5727729 382.314329,88.7547729 354.886329,87.7737729 C341.173329,87.3827729 317.663329,104.431773 311.785329,98.5527729 C302.577329,89.3427729 304.341329,81.1117729 309.827329,69.1567729 C315.703329,56.4197729 330.594329,42.1147729 349.009329,32.9047729" id="Fill-6" fill="#FEFEFE"></path>
                <path d="M586.065029,40.7436729 C611.535029,28.0046729 642.686029,24.4766729 663.453029,35.8436729 C681.084029,45.6416729 693.232029,61.9086729 685.982029,83.8566729 C681.084029,98.5526729 670.308029,108.351673 650.718029,107.371673 C639.939029,106.979673 635.436029,98.5526729 625.249029,90.7146729 C616.434029,83.8566729 605.462029,86.0116729 595.862029,88.7546729 C585.674029,91.6936729 578.230029,95.6146729 567.453029,92.6736729 C555.306029,89.5376729 549.235029,77.1916729 554.722029,65.2386729 C560.595029,52.5006729 567.649029,49.9526729 586.065029,40.7436729" id="Fill-8" fill="#FEFEFE"></path>
                <path d="M217.746629,461.091373 C174.277629,500.757373 152.666629,528.342373 125.667629,580.631373 C97.152629,635.857373 80.605629,698.214373 80.605629,733.488373 C80.605629,758.961373 88.225629,789.988373 113.911629,790.318024 C139.794629,790.649373 143.102629,759.354373 148.197629,733.488373 C157.015629,689.392373 161.874629,652.682373 180.522629,604.148373 C197.994629,558.683373 209.558629,532.738373 238.316629,493.425373 C258.759629,465.486373 281.223629,449.529373 298.071629,427.778373 C311.785629,410.142373 294.153629,404.263373 276.519629,416.020373 C262.024629,425.622373 239.083629,441.622373 217.746629,461.091373" id="Fill-10" fill="#FEFEFE"></path>
                <path d="M519.454629,476.769573 C479.097629,532.034573 478.297629,550.005573 454.803629,598.267573 C422.433629,664.763573 417.578629,704.092573 380.354629,772.679573 C365.075629,801.095573 335.295629,839.308573 349.009629,872.621573 C357.237629,892.609573 386.820629,897.315573 403.865629,884.381573 C437.171629,858.904573 440.305629,836.760573 452.843629,802.076573 C476.352629,737.406573 476.465629,690.136573 503.784629,622.764573 C526.385629,567.018573 536.857629,532.660573 574.313629,485.587573 C589.626629,466.338573 607.615629,459.131573 617.409629,439.536573 C629.951629,414.452573 611.534629,406.220573 582.146629,421.898573 C560.201629,433.461573 541.003629,447.374573 519.454629,476.769573" id="Fill-12" fill="#FEFEFE"></path>
                <path d="M213.827729,243.567873 C213.827729,243.567873 262.807729,200.454873 311.785729,202.415873 C360.765729,204.375873 370.559729,225.930873 394.069729,233.769873 C417.578729,241.607873 446.967729,247.487873 490.068729,227.891873 C533.170729,208.293873 588.021729,189.872873 633.086729,227.891873 C684.022729,271.003873 699.305729,321.171873 699.305729,321.171873 C699.305729,321.171873 658.552729,339.591873 637.002729,329.793873 C615.454729,319.994873 601.741729,284.722873 601.741729,284.722873 C601.741729,284.722873 576.074729,328.226873 521.413729,333.713873 C464.597729,339.591873 445.007729,288.641873 445.007729,288.641873 C440.563729,293.084873 425.912729,323.915873 366.642729,323.915873 C298.071729,323.915873 298.071729,265.125873 298.071729,265.125873 C298.071729,265.125873 268.682729,288.641873 241.257729,278.841873 C213.827729,269.043873 213.827729,243.567873 213.827729,243.567873" id="Fill-14" fill="#FEFEFE"></path>
            </g>
            <path d="M2671.178,675.0464 C2671.507,675.7564 2671.947,676.5424 2672.248,677.3794 C2691.676,731.4154 2711.23,785.4064 2730.418,839.5274 C2735.655,854.2994 2739.782,869.4634 2744.416,884.4384 C2744.509,884.3164 2744.953,883.9814 2745.059,883.5614 C2751.758,856.91555 2761.0951,831.151109 2770.56202,805.429174 L2772.28415,800.75274 C2773.71952,796.855791 2775.15438,792.95865 2776.58,789.0584 C2790.006,752.3254 2803.414,715.5844 2816.834,678.8484 C2817.13067,678.037733 2817.45222,677.235956 2817.80696,676.351807 L2818.17307,675.436822 C2818.23604,675.278622 2818.3,675.117289 2818.365,674.9524 L2862.804,674.9524 C2862.314,676.5204 2861.972,677.8344 2861.498,679.0984 C2841.264,732.9794 2821,786.8484 2800.783,840.7344 C2784.609,883.8444 2768.533,926.9904 2752.327,970.0874 C2747.157,983.8354 2740.964,997.1064 2732.699,1009.3234 C2725.853,1019.4414 2717.648,1028.1114 2706.685,1033.8834 C2693.677,1040.7324 2679.772,1042.2204 2665.454,1040.4644 C2660.032,1039.7994 2654.739,1038.1124 2649.366,1036.9954 C2647.376,1036.5814 2646.553,1035.5074 2646.348,1033.5354 C2645.048,1021.0324 2643.675,1008.5354 2642.34,996.0364 C2642.3,995.6664 2642.419,995.2794 2642.502,994.5794 C2645.333,995.2264 2648.065,995.8894 2650.815,996.4734 C2661.306,998.7014 2671.812,999.1664 2682.394,996.9734 C2689.642,995.4724 2695.679,991.9364 2700.037,986.0734 C2703.215,981.7964 2706.226,977.2194 2708.314,972.3484 C2713.206,960.9344 2717.454,949.2474 2722.073,937.7164 C2722.71663,936.109317 2722.27725,934.799306 2721.75515,933.500577 L2721.50558,932.885108 C2721.4505,932.748025 2721.39625,932.610567 2721.344,932.4724 C2713.298,911.1814 2705.22,889.9024 2697.139,868.6244 C2673.176,805.5264 2649.205,742.4304 2625.244,679.3304 C2624.785,678.1204 2624.405,676.8804 2623.99,675.6634 C2625.4696,675.0829 2636.18271,674.691065 2647.30711,674.592924 L2648.54439,674.583233 C2649.78248,674.574762 2651.02161,674.569965 2652.24968,674.568985 L2653.47361,674.569284 C2660.78972,674.578774 2667.56252,674.72744 2671.178,675.0464 Z M2425.4013,575.486 L2425.4013,702.87 C2425.6283,702.99 2425.8563,703.109 2426.0833,703.229 C2426.8993,702.31 2427.7303,701.406 2428.5263,700.472 C2441.5093,685.242 2457.4153,674.349 2477.2433,670.886 C2517.1283,663.917 2551.0683,675.317 2577.8503,706.075 C2591.1223,721.317 2598.6233,739.543 2603.1233,759.056 C2608.0893,780.58 2608.8613,802.337 2606.4853,824.264 C2604.3513,843.956 2599.4673,862.866 2590.5173,880.59 C2579.4723,902.458 2563.8943,920.126 2541.5403,930.884 C2516.9403,942.722 2491.4243,945.368 2465.3073,936.334 C2449.1083,930.731 2436.2513,920.457 2426.2103,906.614 L2425.60471,905.790222 L2425.60471,905.790222 L2424.3793,904.154 L2424.3793,904.154 L2423.5273,904.418 L2423.5273,904.418 C2423.2183,914.602 2422.9103,924.785 2422.5923,935.229 L2381.5493,935.229 L2381.5493,575.486 L2425.4013,575.486 Z M1227.1712,574.8612 C1268.7082,586.2772 1297.8222,612.3012 1315.1912,651.5452 C1318.3572,658.6972 1320.7782,666.1792 1323.7312,674.0052 C1309.56058,677.3547 1296.02772,680.553372 1282.54376,683.740559 L1276.7662,685.1062 L1276.7662,685.1062 C1274.6052,679.5922 1272.7182,674.3052 1270.4852,669.1692 C1264.0442,654.3622 1255.6012,640.9122 1243.2272,630.2552 C1229.9952,618.8612 1214.3552,612.9432 1197.2612,610.7952 C1177.8042,608.3482 1158.5222,609.5482 1139.7472,615.4632 C1111.2102,624.4532 1090.9392,643.2052 1077.3392,669.4762 C1068.0682,687.3872 1063.4682,706.6662 1061.4642,726.6162 C1059.2672,748.4872 1059.7522,770.3182 1063.0352,792.0522 C1066.7782,816.8392 1074.4192,840.1532 1089.7812,860.4012 C1106.7232,882.7332 1129.3132,895.3312 1156.9482,899.1792 C1175.2092,901.7222 1193.3162,901.1162 1211.0092,895.7172 C1238.9022,887.2062 1257.9432,868.5612 1270.3922,842.6812 C1275.0592,832.9782 1278.3432,822.7762 1280.8162,812.3062 C1281.0502,811.3142 1281.3962,810.3492 1281.7942,809.0252 C1297.6542,813.0292 1313.3082,816.9822 1329.5642,821.0862 C1327.4142,827.7942 1325.5632,834.1682 1323.3352,840.4072 C1314.7102,864.5572 1301.9192,886.0802 1283.0492,903.7372 C1263.5852,921.9502 1240.6272,933.4192 1214.5252,938.1352 C1181.3562,944.1292 1148.4592,942.2602 1116.3592,931.7892 C1078.7172,919.5102 1051.9452,894.5872 1034.8362,859.1772 C1015.4132,818.9732 1008.2972,776.4512 1011.7262,732.0512 C1013.7832,705.4122 1020.1062,679.9022 1032.1752,655.9762 C1054.3892,611.9412 1089.7832,584.5682 1137.7322,573.6562 C1167.5582,566.8682 1197.5402,566.7172 1227.1712,574.8612 Z M2242.6042,669.8564 C2257.1412,671.2424 2271.2972,674.3544 2284.5602,680.7614 C2290.3652,683.5644 2295.7572,686.9934 2300.6682,691.1954 C2310.3082,699.4444 2315.6392,710.1574 2318.8352,722.2024 C2321.0732,730.6304 2321.9142,739.2054 2321.9712,747.8644 C2322.1082,768.5684 2322.0672,789.2734 2322.1912,809.9774 C2322.3362,834.0874 2322.5002,858.1984 2322.8242,882.3064 C2322.9572,892.1434 2324.3502,901.8774 2326.2582,911.5284 C2327.5652,918.1354 2330.0032,924.3184 2333.2972,930.1774 C2334.1872,931.7584 2335.0582,933.3494 2336.1232,935.2674 L2290.0502,935.2674 C2284.9502,925.6484 2282.5702,915.0024 2280.9182,903.4694 C2279.5732,904.5354 2278.5162,905.3564 2277.4762,906.1984 C2263.3442,917.6424 2248.1412,927.2734 2230.9622,933.5174 C2213.3702,939.9114 2195.2182,942.3484 2176.5352,941.2794 C2163.0772,940.5104 2150.0032,938.1274 2137.7512,932.3614 C2118.0302,923.0814 2103.7302,908.7184 2098.4182,887.1314 C2091.5972,859.4114 2097.4312,834.6114 2117.8892,814.0854 C2127.4972,804.4464 2139.6382,798.7144 2152.2382,794.0514 C2162.3472,790.3094 2172.9412,788.4634 2183.5682,786.9174 C2203.7722,783.9774 2224.0172,781.3144 2244.1862,778.1564 C2255.2892,776.4184 2266.2072,773.6554 2277.3492,769.9374 C2277.3762,759.5894 2277.8782,749.5124 2275.3772,739.6004 C2271.1092,722.6914 2260.0842,712.6614 2243.5082,708.3284 C2230.0382,704.8074 2216.3232,704.4954 2202.5412,705.5324 C2195.3452,706.0744 2188.2872,707.3554 2181.4082,709.6684 C2170.9052,713.1994 2162.8622,719.7164 2157.0362,729.0734 C2152.7102,736.0214 2149.8312,743.5824 2147.5312,751.3924 C2147.2372,752.3904 2146.9442,753.3884 2146.5252,754.8154 C2132.2502,752.9944 2118.0282,751.1794 2103.7972,749.3634 C2108.1832,719.2834 2123.0352,696.9214 2150.0862,683.1864 C2162.2082,677.0324 2175.1302,673.3764 2188.5312,671.2484 C2206.5012,668.3954 2224.5432,668.1344 2242.6042,669.8564 Z M1499.2467,668.7008 C1516.0907,669.1118 1532.6487,671.2538 1548.5377,677.2158 C1550.0067,677.7668 1551.4637,678.3508 1552.9097,678.9578 C1573.7327,687.7028 1587.0707,702.7928 1591.2767,725.1918 C1592.6957,732.7438 1593.5697,740.5038 1593.6577,748.1808 C1593.9847,776.8728 1593.8287,805.5698 1593.9667,834.2638 C1594.0427,850.1168 1593.9847,865.9848 1594.6737,881.8158 C1595.0487,890.439918 1596.25597,899.046129 1597.51787,907.615199 L1598.0237,911.0408 L1598.0237,911.0408 C1599.0437,917.9498 1601.8227,924.3468 1605.3377,930.3958 C1606.1747,931.8368 1606.8987,933.3438 1607.8187,935.0988 L1561.3767,935.0988 C1559.6087,930.1118 1557.5227,925.0468 1556.0387,919.8108 C1554.5507,914.5568 1553.6627,909.1338 1552.4457,903.4778 C1549.2987,905.9328 1546.2617,908.3698 1543.1527,910.7128 C1525.1617,924.2828 1505.5837,934.5588 1483.2267,938.6828 C1458.1407,943.3108 1433.3207,942.8298 1409.6807,932.1248 C1388.5587,922.5608 1374.2897,906.7918 1369.3437,883.6308 C1362.0127,849.2968 1377.3987,817.6298 1405.2967,802.3438 C1419.5177,794.5518 1434.5837,789.7528 1450.5107,787.4628 C1467.8697,784.9668 1485.3397,783.1588 1502.6177,780.2088 C1516.9057,777.7698 1530.9877,774.1148 1545.1537,770.9678 C1546.4027,770.6908 1547.6047,770.1908 1549.0367,769.7268 L1549.06914,768.217116 C1549.33014,756.146826 1549.55954,744.25304 1544.9957,732.8348 C1540.3697,721.2628 1532.0067,713.4708 1520.2777,709.8168 C1513.2147,707.6168 1505.7967,706.1548 1498.4327,705.4058 C1484.8257,704.0208 1471.2367,704.6278 1457.8577,707.9888 C1443.6767,711.5518 1433.0717,719.6918 1426.6267,732.7828 C1423.6957,738.7348 1421.6777,745.1368 1419.2617,751.3418 C1418.8917,752.2938 1418.6147,753.2828 1418.1897,754.5788 C1403.8647,752.7428 1389.6537,750.9208 1375.5307,749.1098 C1380.9947,712.6848 1401.3437,689.2188 1435.3757,677.2298 C1456.0707,669.9388 1477.5117,668.1698 1499.2467,668.7008 Z M1766.2606,669.424 C1779.1956,671.145 1790.9386,675.971 1802.3766,682.918 C1797.3746,696.425 1792.4106,709.829 1787.3486,723.499 C1784.9816,722.306 1783.0436,721.273 1781.0606,720.34 C1771.4156,715.802 1761.3366,713.509 1750.6146,714.316 C1737.7306,715.286 1727.7796,721.313 1720.3916,731.729 C1713.5126,741.425 1709.9606,752.466 1707.7296,763.994 C1705.4046,776 1704.7286,788.152 1704.7236,800.35 C1704.7046,843.716 1704.7166,887.081 1704.7166,930.447 L1704.71647,931.478309 C1704.71644,931.651321 1704.71639,931.825185 1704.71634,932.000333 L1704.7156,935.385 L1704.7156,935.385 L1661.7276,935.385 C1660.9196,932.512 1660.6456,680.651 1661.4526,675.089 L1700.5576,675.089 L1700.5576,712.456 C1700.8056,712.526 1701.0546,712.594 1701.3026,712.664 C1701.9646,711.609 1702.6606,710.574 1703.2826,709.496 C1707.7366,701.773 1712.5756,694.323 1718.2576,687.422 C1730.8166,672.167 1747.0356,666.866 1766.2606,669.424 Z M2000.3539,676.1005 C2022.7759,684.7955 2037.5269,700.7405 2045.0109,723.5865 C2047.6989,731.7955 2048.4609,740.2455 2048.7709,748.7425 C2049.1869,760.1325 2049.3619,771.5355 2049.3759,782.9335 C2049.4064,807.503 2049.4129,832.0725 2049.41178,856.642 L2049.4019,930.3505 L2049.4019,930.3505 L2049.4019,935.2465 L2005.1029,935.2465 C2005.0679,933.8185 2004.9979,932.3065 2004.9979,930.7945 C2004.9919,880.7385 2004.9949,830.6825 2004.9909,780.6265 L2004.99263,778.141967 C2005.00193,768.617074 2004.99626,759.08558 2003.4019,749.6565 C1999.9449,729.1985 1988.9939,714.9455 1968.4279,709.7205 C1941.7139,702.9345 1918.1319,709.1915 1898.3569,728.5385 C1890.5069,736.2195 1886.8629,746.2085 1884.5939,756.7255 C1882.5429,766.2275 1881.4449,775.8655 1881.4279,785.5755 C1881.3379,833.7965 1881.3509,882.0185 1881.3279,930.2395 L1881.3279,935.2815 L1881.3279,935.2815 L1837.2099,935.2815 L1837.2099,675.0945 L1876.7359,675.0945 L1876.7359,711.3175 C1878.4199,709.1395 1879.5829,707.6055 1880.7769,706.0965 C1895.8799,687.0165 1915.4989,675.2475 1939.3149,670.7725 C1960.0809,666.8695 1980.5489,668.4205 2000.3539,676.1005 Z M2277.3972,805.1434 C2276.5542,805.2024 2276.2752,805.1604 2276.0442,805.2464 C2257.3172,812.2164 2237.8082,815.9264 2218.1912,819.2294 C2206.5902,821.1834 2194.9782,823.1194 2183.4602,825.4984 C2174.9972,827.2464 2166.8352,830.1044 2159.3382,834.5824 C2152.6832,838.5574 2147.8722,844.0974 2145.3372,851.4354 C2142.8042,858.7694 2142.4532,866.3394 2143.9582,873.9084 C2146.5422,886.9074 2154.8312,895.3324 2166.3742,900.9344 C2175.1442,905.1894 2184.5462,906.5664 2194.1922,906.7194 C2212.5652,907.0124 2229.8962,902.9824 2245.3302,892.8984 C2261.9562,882.0364 2272.6502,866.9004 2275.8042,846.9064 C2277.2792,837.5514 2277.3592,828.1354 2277.3942,818.7084 C2277.4112,814.2754 2277.3972,809.8434 2277.3972,805.1434 Z M1549.5457,804.9578 C1539.8417,807.6908 1531.1657,810.7208 1522.2427,812.5258 C1503.5387,816.3088 1484.6947,819.3938 1465.9277,822.8718 C1455.2387,824.8528 1444.7067,827.4448 1434.8687,832.2678 C1428.2597,835.5078 1422.7357,839.9498 1419.1617,846.5548 C1410.5817,862.4098 1414.4747,883.4688 1428.6107,894.5698 C1433.0537,898.0578 1438.2907,900.9848 1443.6287,902.7988 C1460.4007,908.4978 1477.4407,907.5268 1494.2707,902.8348 C1509.4567,898.6008 1522.7747,891.1398 1532.9317,878.7018 C1541.8677,867.7588 1547.5207,855.4628 1548.2117,841.2118 C1548.7937,829.2108 1549.1067,817.1968 1549.5457,804.9578 Z M2492.5933,705.06182 C2471.9603,705.176 2455.3723,713.384 2442.6883,729.609 C2435.7403,738.495 2431.0013,748.489 2427.7983,759.249 C2423.2323,774.589 2421.8793,790.322 2421.8113,806.264 C2422.2413,814.107 2422.3883,821.977 2423.1643,829.786 C2424.5033,843.29 2427.7153,856.351 2434.0253,868.479 C2444.5443,888.698 2460.2193,901.875 2483.5933,904.333 C2506.0723,906.697 2524.9253,899.759 2539.4133,882.13 C2553.2103,865.34 2559.1643,845.473 2561.4373,824.277 C2562.8383,811.212 2562.7643,798.123 2561.4893,785.043 C2560.1973,771.81 2557.3793,758.948 2552.0273,746.72 C2548.5933,738.876 2544.2103,731.602 2538.5383,725.165 C2526.3543,711.341 2510.9143,704.962 2492.5933,705.06182 Z M2782.2337,123.9158 C2800.0197,137.5878 2812.1407,155.6028 2820.4007,176.3038 C2827.0507,192.9678 2830.3917,210.4048 2832.3157,228.1688 C2835.1547,254.3728 2835.1897,280.4068 2833.7257,306.6738 C2832.3087,332.1008 2829.1217,357.2618 2820.4297,381.4028 C2812.7027,402.8618 2801.9007,422.4268 2784.7697,437.9568 C2767.3897,453.7128 2747.0447,463.1548 2723.7977,466.3298 C2705.7907,468.7888 2687.9127,468.1008 2670.5087,462.7758 C2637.4087,452.6498 2617.1137,430.0888 2608.2397,396.9578 C2606.6307,390.9478 2605.6977,384.7568 2604.3297,378.0438 C2614.44901,377.203675 2624.07487,376.404198 2633.64889,375.608976 L2638.86859,375.175421 C2641.47852,374.958636 2644.09058,374.741675 2646.7137,374.5238 C2647.2497,376.7068 2647.7547,378.6978 2648.2287,380.6948 C2650.7577,391.3568 2654.5847,401.4558 2661.1687,410.3418 C2670.0107,422.2778 2682.0497,428.8818 2696.5977,430.6678 C2720.7977,433.6398 2741.6077,426.4008 2758.6067,408.8228 C2767.0507,400.0918 2772.1407,389.2878 2776.4357,378.1218 C2786.8127,351.1448 2791.4167,323.1588 2790.7197,294.2828 C2790.7137,294.0308 2790.6017,293.7808 2790.4177,293.0448 C2789.5577,294.0828 2788.8377,294.8738 2788.2037,295.7288 C2771.7657,317.9358 2750.2437,332.4798 2722.9507,337.3538 C2687.7507,343.6398 2657.0697,333.9218 2631.4767,309.0018 C2614.7127,292.6808 2605.1287,272.3598 2600.8037,249.5658 C2595.2387,220.2478 2597.5637,191.5758 2609.9327,164.2378 C2625.9787,128.7688 2653.4817,107.6008 2691.9327,101.3978 C2725.0977,96.0478 2755.4747,103.3438 2782.2337,123.9158 Z M1593.8015,103.8453 C1618.1135,111.8753 1638.5225,125.4463 1652.8795,147.0903 C1663.9675,163.8053 1668.7485,182.4663 1669.5165,202.8923 C1654.2495,204.0603 1639.1985,205.2123 1624.2025,206.3593 C1623.0285,200.4613 1622.2135,195.0333 1620.8495,189.7473 C1614.4375,164.8953 1598.8715,148.7253 1574.0235,142.2383 C1546.6935,135.1043 1519.3005,135.4203 1492.2805,144.0023 C1480.8865,147.6213 1470.7905,153.6563 1463.1555,163.1763 C1449.3155,180.4313 1450.7705,207.7283 1466.2665,221.9673 C1471.0555,226.3683 1476.7005,229.3973 1482.6075,231.9653 C1498.2765,238.7803 1514.7775,242.8773 1531.3085,246.9133 C1553.4155,252.3103 1575.5905,257.4823 1597.5315,263.4953 C1614.1555,268.0503 1629.7405,275.4073 1643.6305,285.7193 C1665.5455,301.9903 1678.1235,323.9703 1680.1345,351.1773 C1683.3085,394.1093 1664.4685,425.7473 1628.0715,447.3233 C1607.0885,459.7613 1583.9555,465.6613 1559.6885,467.1073 C1534.6735,468.5983 1509.9465,466.6273 1485.7295,459.9633 C1459.3525,452.7063 1436.3335,439.8603 1418.7265,418.4423 C1405.8435,402.7713 1398.5365,384.6153 1395.6085,364.6543 C1394.7195,358.5993 1394.2895,352.4763 1393.5925,345.8353 C1409.1325,344.4593 1423.8505,343.1553 1438.9925,341.8143 C1439.4745,345.2883 1439.9745,348.4623 1440.3465,351.6513 C1442.8365,373.0253 1452.9745,389.9393 1470.2595,402.5753 C1485.2485,413.5323 1502.2195,419.9043 1520.4165,422.7753 C1541.8555,426.1583 1563.2485,425.7453 1584.2925,419.8273 C1597.4685,416.1223 1609.2995,409.9263 1619.2385,400.3163 C1642.0855,378.2253 1640.3395,336.0573 1606.0145,318.9903 C1589.2265,310.6433 1571.4485,305.5333 1553.3725,301.1353 C1549.83207,300.274014 1546.28942,299.421157 1542.74663,298.56879 L1537.43261,297.289614 C1517.94942,292.593371 1498.49379,287.791871 1479.4135,281.5643 C1465.2135,276.9303 1452.1235,270.1723 1440.3005,261.0783 C1421.4435,246.5753 1410.7075,227.3283 1408.4745,203.7113 C1406.1945,179.5933 1411.4695,157.3373 1427.0375,138.1893 C1438.0805,124.6053 1452.0195,114.8003 1467.9405,107.7403 C1485.4045,99.9943 1503.8435,96.4903 1522.8155,95.5333 C1546.9355,94.3173 1570.7385,96.2293 1593.8015,103.8453 Z M1972.9975,101.294694 C1975.3705,101.277 1976.7565,102.051 1978.0745,104.026 C2032.5495,185.738 2087.1285,267.379 2141.5675,349.115 C2152.8905,366.116 2163.3695,383.646 2172.2445,402.086 C2172.4565,402.526 2172.7365,402.934 2173.5335,403.199 C2172.9795,398.213 2172.4675,393.22 2171.8615,388.24 C2168.4165,359.978 2167.3835,331.599 2167.2025,303.146 C2166.7875,237.634 2166.0935,172.124 2165.5135,106.614 C2165.4995,105.056 2165.5125,103.498 2165.5125,101.512 L2210.9585,101.512 L2210.9585,461.58 L2206.7625,461.58 C2193.5285,461.58 2180.2925,461.466 2167.0615,461.660787 C2163.6975,461.708 2161.7135,460.757 2159.7825,457.869 C2100.9625,369.924 2042.0065,282.071 1983.1695,194.138 C1977.5205,185.695 1972.5085,176.824 1966.6535,167.256 C1971.7435,265.546 1970.5685,363.28 1973.3965,461.264 L1927.7035,461.264 L1927.7035,101.595 C1928.7025,101.518 1929.8205,101.359 1930.9385,101.358 C1944.9585,101.341 1958.9795,101.4 1972.9975,101.294694 Z M1050.8153,101.31939 C1108.3363,101.3534 1165.8593,101.3024 1223.3793,101.5004 C1237.7773,101.5504 1252.1403,102.3464 1266.2293,106.0694 C1307.8303,117.0624 1331.7353,149.6214 1335.9593,189.1454 C1337.8593,206.9154 1335.7283,224.2104 1328.3203,240.5884 C1318.8863,261.4454 1302.5303,275.1804 1282.0503,284.4244 C1268.2333,290.6614 1253.6533,294.2534 1238.6983,296.4454 C1237.9543,296.5544 1237.2193,296.7264 1235.8663,296.9884 C1236.7233,297.6964 1237.1043,298.1534 1237.5913,298.3924 C1259.7073,309.2704 1276.5733,326.2034 1290.6303,345.8904 C1299.08463,357.730511 1306.98867,369.967042 1314.85588,382.225915 L1318.48616,387.884081 C1320.30186,390.712594 1322.1198,393.539233 1323.9463,396.3594 C1337.0413,416.5794 1349.9693,436.9084 1362.9663,457.1924 C1363.7353,458.3914 1364.4683,459.6144 1365.4813,461.2524 C1364.2023,461.3704 1363.2513,461.5344 1362.3023,461.5354 C1344.6133,461.5504 1326.9233,461.4864 1309.2363,461.613668 C1306.6503,461.6314 1305.2853,460.7424 1303.9333,458.6244 C1283.9303,427.2814 1264.1003,395.8224 1243.6353,364.7814 C1235.1503,351.9114 1225.5383,339.7464 1215.9183,327.6744 C1208.9953,318.9864 1199.8763,312.7194 1190.1183,307.4124 C1183.7633,303.9564 1176.9913,302.0984 1169.8283,302.0214 C1145.9833,301.7664 1122.1383,301.6734 1098.2923,301.5334 C1097.6613,301.5294 1097.0273,301.6924 1096.1223,301.8134 L1096.1223,461.5464 L1048.0683,461.5464 L1048.0683,101.4334 C1048.9843,101.3934 1049.9003,101.31939 1050.8153,101.31939 Z M2516.427,365.742 L2516.427,397.692 L2296.682,397.692 L2296.682,365.742 L2516.427,365.742 Z M2701.5327,137.4738 C2682.0797,140.4958 2667.7457,151.2458 2657.7587,167.6978 C2639.9787,196.9868 2638.3207,228.1328 2651.1707,259.2568 C2662.3627,286.3658 2683.9447,300.1898 2713.6267,300.4978 C2750.5137,300.9978 2772.6137,276.3078 2780.7667,253.4738 C2785.6097,239.9078 2786.6327,225.9188 2785.1867,211.6428 C2782.8437,188.5138 2773.4977,168.8448 2756.1747,153.2698 C2740.5867,139.2568 2722.1917,134.2638 2701.5327,137.4738 Z M2402.572,96.7267 C2453.353,96.7267 2494.519,139.7087 2494.519,192.7297 C2494.519,245.7497 2453.353,288.7317 2402.572,288.7317 C2351.79,288.7317 2310.624,245.7497 2310.624,192.7297 C2310.624,139.7087 2351.79,96.7267 2402.572,96.7267 Z M1100.5403,140.9264 L1096.2263,140.9264 L1096.2263,260.1204 C1097.0273,260.1744 1097.6503,260.2534 1098.2733,260.2524 C1135.7303,260.2224 1173.1893,260.3844 1210.6433,260.0104 C1220.2683,259.9144 1230.0303,258.8724 1239.4573,256.9404 C1254.0573,253.9494 1266.4943,246.9584 1275.6533,234.5614 C1299.8523,201.8074 1283.9283,155.3454 1245.8873,145.4724 C1233.3503,142.2184 1220.6643,140.9634 1207.8053,140.9444 C1172.0503,140.8924 1136.2953,140.9264 1100.5403,140.9264 Z M2402.572,128.5037 C2368.599,128.5037 2341.058,157.2577 2341.058,192.7297 C2341.058,228.1997 2368.599,256.9547 2402.572,256.9547 C2436.545,256.9547 2464.085,228.1997 2464.085,192.7297 C2464.085,157.2577 2436.545,128.5037 2402.572,128.5037 Z" id="Combined-Shape" fill="#000000"></path>
        </g>
    </g>
</svg>