<svg xmlns="http://www.w3.org/2000/svg" width="358.666" height="21.575" viewBox="0 0 358.666 21.575">
  <path id="Combined_Shape" data-name="Combined Shape" d="M101.2,21.575c-5.44-.022-7.382-.321-9.03-1.4-2.084-1.331-2.686-3.542-2.686-9.852,0-5.61.639-7.6,2.846-8.866,1.894-1.109,3.916-1.4,9.834-1.4l1.447,0c6.548.022,8.22.2,9.937,1.047s2.5,2.715,2.5,5.845v.7h-6.134c-.127-2.323-.589-2.51-6.167-2.51-5.206,0-6.184.117-6.988.827-.764.7-.917,1.54-.917,4.987v.425c.031,4.618.589,5.042,6.64,5.042l1.609,0c3.288-.011,3.954-.068,4.748-.411.933-.387,1.263-1.06,1.263-2.574h6.23c-.033,3.014-.116,4.107-.569,5.084-.821,1.806-2.561,2.671-5.819,2.893-1.057.1-2.973.15-6.616.156Zm-33.967-.033c-4.341-.026-6.929-.288-8.144-.823-1.705-.728-2.465-2.061-2.465-4.323,0-.381.011-.691.031-.922h5.913c.149,1.388.326,1.542,5.158,1.558H69.4c3.945-.011,4.829-.147,5.565-.858.392-.392.508-.95.539-2.6.031-.669.031-.669.063-2.16-1.116,1.824-2.014,2.033-8.728,2.033l-.672,0c-3.86-.022-5.39-.249-6.822-1.014-1.686-.9-2.373-2.442-2.373-5.339,0-3.43.742-5.17,2.561-6.006C61.065.326,63.18.095,68.579.095,76.2.095,78.2.422,79.866,1.938c1.384,1.263,1.74,2.948,1.74,8.2,0,6.149-.335,7.995-1.708,9.405-1.143,1.181-2.463,1.621-5.44,1.813-.7.062-5.464.189-6.449.189ZM63.992,4.831a2.089,2.089,0,0,0-1.011,2.1A2.091,2.091,0,0,0,63.708,8.8c.545.33.775.4,4.041.411l2.082,0c3.253-.009,4.258-.081,4.882-.35a2.137,2.137,0,0,0,.884-2,1.947,1.947,0,0,0-1.9-2.257c-.394-.09-2.964-.158-5-.158C65.472,4.448,64.767,4.506,63.992,4.831ZM316.125,21.514c-6.649-.013-8.244-.189-10.048-1.113-1.3-.638-1.959-2.242-1.959-4.765,0-.2,0-.605.031-1.049h6.294c.064,1.461.228,1.813.981,2.1a18.821,18.821,0,0,0,4.3.319l.657,0c6.73-.013,7.66-.253,7.66-1.969a1.68,1.68,0,0,0-1.075-1.716c-.7-.222-.7-.222-4.017-.253l-6.48,0c-3.389-.026-4.9-.249-6.2-.92-1.511-.79-2.213-2.5-2.213-5.37,0-3.821,1.075-5.434,4.111-6.167,1.688-.44,4.07-.6,8.79-.6h.722c6.747.013,8.413.211,9.9,1.175,1.46.99,1.929,2.319,1.929,5.467h-6.261a1.948,1.948,0,0,0-.4-1.445c-.55-.554-1.85-.651-4.376-.651h-.486c-1.92.009-4.361.066-5.333.125-1.7.128-2.277.576-2.277,1.78a1.594,1.594,0,0,0,1.359,1.685,10.279,10.279,0,0,0,2.592.158h5.977c.541,0,3.4.095,4.492.158,4.026.191,5.6,1.938,5.6,6.228,0,3.923-1.149,5.628-4.236,6.292a52.683,52.683,0,0,1-9.3.541Zm-100.4-.092-7.27,0L220.313.222h8.6l11.539,21.193-7.019,0-2.086-3.782h-13.6l-2.025,3.782v0Zm4.335-8.2H229.1L224.55,4.767Zm-35.609,8.2-6.165,0V.222H188.5l12.776,16.111L201.116.222h6.071V21.417l-10.309,0L184.293,5.465l.16,15.954v0Zm-29.094,0-6.386,0V.222h18.181c3.785,0,5.383.323,6.579,1.335,1.228.983,1.8,2.781,1.8,5.656,0,3.9-.952,5.5-3.636,6.1,2.631.447,3.415,1.56,3.352,4.767v3.335l-6.513,0V18.781c-.031-2.176-.637-2.706-3.085-2.706-.147,0-.3,0-.458,0h-9.834v5.342Zm0-10.523H165.38c3.111,0,3.7-.394,3.7-2.477,0-1.382-.125-1.938-.536-2.385-.468-.5-.963-.6-2.94-.6H155.358ZM123.731,21.421l-7.27,0L128.317.222h8.6L148.46,21.415l-7.019,0-2.086-3.782h-13.6l-2.023,3.782v0Zm4.335-8.2h9.044l-4.554-8.452Zm-121.9,8.2L0,21.419V.222H10.215L22.989,16.333,22.831.222H28.9V21.417l-10.309,0L6.007,5.465l.16,15.954v0Zm280.84,0h-6.447V14.078L268.508.222h8.19l7.115,8.771L290.864.222H298.9L287.007,14.078v7.341Zm-45.281,0V.222h19.035a10.788,10.788,0,0,1,4.871.763c1.705.889,2.4,2.343,2.4,5.02,0,2.739-.935,4.193-2.94,4.576,2.837.539,3.794,1.767,3.794,4.862,0,2.7-.773,4.363-2.434,5.243-1,.521-2.4.733-4.805.733Zm6.261-4.7,11.837,0a4.859,4.859,0,0,0,1.6-.156,1.694,1.694,0,0,0,1.011-1.749A1.749,1.749,0,0,0,261.361,13a5.956,5.956,0,0,0-2.056-.158h-11.32Zm0-8.041,11.165,0a3.989,3.989,0,0,0,1.705-.251,1.744,1.744,0,0,0,.821-1.588,1.732,1.732,0,0,0-1.106-1.749,6.112,6.112,0,0,0-1.962-.158H247.985ZM50.761,21.369H31.3V18.436h19.46v2.933Zm298.511-.013h-6.419V5.4h-9.392V.158h25.2V5.4h-9.392V21.355ZM40.7,14.665a35.556,35.556,0,0,1-5.484-.235,3.756,3.756,0,0,1-3.034-1.938c-.549-1.043-.683-2.075-.683-5.256V6.829a12.329,12.329,0,0,1,.3-3.577A3.648,3.648,0,0,1,34.637.431C35.824.088,37.111,0,40.9,0a42.3,42.3,0,0,1,6.366.216A3.932,3.932,0,0,1,50.829,4.07a29.955,29.955,0,0,1,.129,3.489c0,3.5-.37,4.873-1.581,5.881-.865.739-2.06,1.076-4.124,1.162-.757.044-2.614.066-4.057.066ZM37.039,3.744c-.525.5-.676,1.285-.676,3.511,0,2.281.149,3.131.637,3.63.523.517,1.138.607,4.111.607h.366c3.021-.011,3.719-.161,4.153-.889.359-.55.462-1.322.462-3.441,0-3.942-.046-3.98-4.884-3.98C38.366,3.183,37.547,3.293,37.039,3.744Z" transform="translate(0 0)" fill="#fff"/>
</svg>
