<?xml version="1.0" encoding="UTF-8"?>
<svg width="77px" height="26px" viewBox="0 0 77 26" version="1.1" xmlns="http://www.w3.org/2000/svg" xmlns:xlink="http://www.w3.org/1999/xlink">
    <title>Group 2</title>
    <defs>
        <filter id="filter-1">
            <feColorMatrix in="SourceGraphic" type="matrix" values="0 0 0 0 0.858824 0 0 0 0 0.000000 0 0 0 0 0.047059 0 0 0 1.000000 0"></feColorMatrix>
        </filter>
        <polygon id="path-2" points="3.97042025e-07 6.84694698e-05 22.9963209 6.84694698e-05 22.9963209 25.9890564 3.97042025e-07 25.9890564"></polygon>
    </defs>
    <g id="☮️-Symbols" stroke="none" stroke-width="1" fill="none" fill-rule="evenodd">
        <g id="global/nav/desktop-carnaby" transform="translate(-13.000000, -9.000000)">
            <g id="site-links" transform="translate(13.000000, 0.000000)">
                <g id="Group-2" transform="translate(0.000000, 9.000000)">
                    <g id="logo/tongue/stamp" filter="url(#filter-1)">
                        <g id="Group-3">
                            <mask id="mask-3" fill="white">
                                <use xlink:href="#path-2"></use>
                            </mask>
                            <g id="Clip-2"></g>
                            <path d="M16.0688531,8.26454865 C15.5252908,8.0189931 15.1793875,7.13510253 15.1793875,7.13510253 C15.1793875,7.13510253 14.5318847,8.22526414 13.1530082,8.36279276 C11.7198042,8.51008232 11.2256126,7.23332475 11.2256126,7.23332475 C11.1135207,7.34463451 10.7439565,8.11725909 9.24882433,8.11725909 C7.51908774,8.11725909 7.51908774,6.64399141 7.51908774,6.64399141 C7.51908774,6.64399141 6.77773429,7.23332475 6.08588372,6.98770354 C5.39396705,6.74216987 5.39396705,6.10379108 5.39396705,6.10379108 C5.39396705,6.10379108 6.62951207,5.0233904 7.86503506,5.0725234 C9.10058008,5.12163451 9.34765383,5.66179108 9.94069693,5.85823552 C10.533718,6.0546362 11.2750715,6.2020133 12.3623502,5.71094596 C13.4495849,5.21981296 14.833286,4.75820354 15.9700676,5.71094596 C17.2549613,6.79130286 17.6404757,8.04849478 17.6404757,8.04849478 C17.6404757,8.04849478 16.6124374,8.51008232 16.0688531,8.26454865 M15.5745954,11.0146396 C15.3275437,11.5057069 14.8737343,11.6863062 14.4874929,12.1686631 C13.5426203,13.3482709 13.2784508,14.2092911 12.7083195,15.6062439 C12.0192008,17.2945588 12.0163588,18.4791345 11.4233157,20.0997136 C11.1070216,20.9688971 11.0279757,21.5238264 10.1878148,22.162249 C9.75784253,22.4863736 9.01157625,22.3684325 8.80402548,21.8675604 C8.45807816,21.0327372 9.20927931,20.0751581 9.59472759,19.363047 C10.533718,17.6442894 10.6561864,16.6587406 11.4727305,14.9923769 C12.065399,13.7829392 12.0855791,13.3326008 13.1035935,11.947685 C13.6471998,11.211084 14.1314996,10.8624039 14.6850638,10.5726614 C15.4263952,10.1797726 15.8909776,10.3860655 15.5745954,11.0146396 M7.51908774,10.7199948 C7.09405038,11.2650975 6.52737797,11.6649241 6.01170651,12.3650857 C5.2862592,13.3502406 4.99455134,14.0003938 4.55380613,15.1397322 C4.08340766,16.3559763 3.96080709,17.2759123 3.73840766,18.3809561 C3.60988084,19.0291396 3.52642874,19.8133416 2.87350632,19.8050907 C2.22556284,19.796818 2.0333454,19.0192692 2.0333454,18.3809561 C2.0333454,17.4969998 2.45076015,15.9343517 3.17006092,14.5504207 C3.85111648,13.2400907 4.39628697,12.5488146 5.49281858,11.554818 C6.03107146,11.0669241 6.60977261,10.6659813 6.97541533,10.4253281 C7.42025824,10.1307271 7.86503506,10.2780604 7.51908774,10.7199948 M7.81562031,1.73312104 C7.96386456,1.41392071 8.33946513,1.05545774 8.80402548,0.82465303 C9.44650536,0.505452694 9.94565383,0.466146296 10.4596289,0.775520034 C11.0279757,1.11927593 11.2849632,1.54654697 11.1021088,2.10147626 C10.9538205,2.54341061 10.336037,2.90191734 9.84186743,2.61709916 C9.5453569,2.44521027 9.64414234,2.22423215 8.95226973,2.19965471 C8.60636648,2.18985 8.01330134,2.61709916 7.86503506,2.46976582 C7.63274387,2.23893923 7.67722375,2.03269007 7.81562031,1.73312104 M13.9932573,1.63489882 C14.1414134,1.31572037 14.319355,1.25185842 14.7839153,1.02107559 C15.4263952,0.701853367 16.2122285,0.613435859 16.7360734,0.898275926 C17.1808282,1.14385337 17.4872745,1.55147121 17.3043761,2.10147626 C17.1808282,2.46976582 16.909014,2.71529949 16.4148224,2.69074394 C16.1429201,2.68091734 16.0293301,2.46976582 15.7723425,2.27332138 C15.5499872,2.10147626 15.2732381,2.15546785 15.0310331,2.22423215 C14.7740676,2.29787694 14.5862563,2.39612104 14.3143761,2.32241061 C14.0079958,2.24384158 13.8548387,1.93446785 13.9932573,1.63489882 M22.6418521,7.82259242 C21.3371308,6.9288096 20.5661462,6.61941397 19.7260293,4.90063451 C18.9450868,3.29970859 18.4410475,1.42374731 17.8974632,0.750986364 C17.0869115,-0.255725758 15.2880207,-0.113360438 14.2304613,0.38265303 C13.2914709,0.82465303 13.1035935,1.04560926 12.0163588,2.02776582 C11.7791328,0.956403872 11.2898761,0.11258569 10.0395044,0.0143415825 C9.05112126,-0.0593250842 8.37903218,0.225514983 7.46969502,0.750986364 C6.32308774,1.41392071 5.40879368,2.65145943 4.75153123,3.94301162 C4.13372567,5.16091902 3.82417299,5.78157054 2.88837701,6.66848131 C2.21937222,7.30257054 1.59352548,7.79309074 0.946110728,8.0189931 C0.254238123,8.26454865 0.189974713,8.77041061 0.773148084,9.19763788 C2.10752261,10.1797726 2.25576686,11.2601732 2.50286264,12.2423298 C1.66270172,13.7155318 0.886782184,14.8548702 0.451897126,16.3674443 C-0.0620559387,18.1648146 -0.15105977,19.1519173 0.254238123,21.1801143 C0.60016341,22.8988719 1.60837414,23.9940015 2.61651877,24.7747894 C4.42038851,26.1744123 7.07428889,26.3364527 9.14992874,25.4033854 C10.5831548,24.760148 11.2256126,23.8810722 12.164537,22.7023618 C12.5006807,22.2751345 12.7427975,22.0001867 13.2519479,21.8037204 C15.2780849,21.0179864 16.2171414,19.6577793 17.2549613,17.4478449 C18.0902094,15.6652254 18.3348818,14.5171328 19.380082,12.8316412 C20.4443167,11.1154443 21.7522985,9.6887271 22.6418521,8.80477088 C22.9087314,8.53956212 23.2842659,8.26454865 22.6418521,7.82259242" id="Fill-1" fill="#DB000C" mask="url(#mask-3)"></path>
                        </g>
                    </g>
                    <path d="M32.284,12 C33.6,12 34.3,11.3 34.3,9.984 L34.3,2.816 C34.3,1.5 33.6,0.8 32.284,0.8 L30.716,0.8 C29.4,0.8 28.7,1.5 28.7,2.816 L28.7,9.984 C28.7,11.3 29.4,12 30.716,12 L32.284,12 Z M31.934,10.194 L31.122,10.194 C30.758,10.194 30.562,10.012 30.562,9.634 L30.562,3.166 C30.562,2.802 30.758,2.606 31.122,2.606 L31.934,2.606 C32.298,2.606 32.494,2.802 32.494,3.166 L32.494,9.634 C32.494,10.012 32.298,10.194 31.934,10.194 Z M37.38,12 C37.52,12 37.604,11.916 37.604,11.776 L37.604,7.31 L40.236,7.31 C40.376,7.31 40.46,7.24 40.46,7.086 L40.46,5.686 C40.46,5.546 40.376,5.462 40.236,5.462 L37.604,5.462 L37.604,2.648 L41.076,2.648 C41.216,2.648 41.3,2.564 41.3,2.424 L41.3,1.024 C41.3,0.884 41.216,0.8 41.076,0.8 L35.924,0.8 C35.77,0.8 35.7,0.884 35.7,1.024 L35.7,11.776 C35.7,11.916 35.77,12 35.924,12 L37.38,12 Z M44.38,12 C44.52,12 44.604,11.916 44.604,11.776 L44.604,7.31 L47.236,7.31 C47.376,7.31 47.46,7.24 47.46,7.086 L47.46,5.686 C47.46,5.546 47.376,5.462 47.236,5.462 L44.604,5.462 L44.604,2.648 L48.076,2.648 C48.216,2.648 48.3,2.564 48.3,2.424 L48.3,1.024 C48.3,0.884 48.216,0.8 48.076,0.8 L42.924,0.8 C42.77,0.8 42.7,0.884 42.7,1.024 L42.7,11.776 C42.7,11.916 42.77,12 42.924,12 L44.38,12 Z M51.38,12 C51.52,12 51.604,11.916 51.604,11.776 L51.604,1.024 C51.604,0.884 51.52,0.8 51.38,0.8 L49.924,0.8 C49.77,0.8 49.7,0.884 49.7,1.024 L49.7,11.776 C49.7,11.916 49.77,12 49.924,12 L51.38,12 Z M56.602,12 C57.904,12 58.618,11.3 58.618,9.984 L58.618,8.472 C58.618,8.332 58.534,8.248 58.394,8.248 L56.994,8.248 C56.84,8.248 56.77,8.332 56.77,8.472 L56.77,9.592 C56.77,9.97 56.574,10.152 56.21,10.152 L55.482,10.152 C55.118,10.152 54.922,9.97 54.922,9.592 L54.922,3.208 C54.922,2.844 55.104,2.648 55.482,2.648 L56.21,2.648 C56.574,2.648 56.77,2.844 56.77,3.208 L56.77,4.328 C56.77,4.468 56.84,4.552 56.994,4.552 L58.394,4.552 C58.534,4.552 58.618,4.468 58.618,4.328 L58.618,2.816 C58.618,1.5 57.904,0.8 56.602,0.8 L55.034,0.8 C53.718,0.8 53.004,1.5 53.004,2.816 L53.004,9.984 C53.004,11.3 53.718,12 55.034,12 L56.602,12 Z M61.698,12 C61.838,12 61.922,11.916 61.922,11.776 L61.922,1.024 C61.922,0.884 61.838,0.8 61.698,0.8 L60.242,0.8 C60.088,0.8 60.018,0.884 60.018,1.024 L60.018,11.776 C60.018,11.916 60.088,12 60.242,12 L61.698,12 Z M64.876,12 C65.002,12 65.072,11.93 65.1,11.804 L65.478,9.76 L67.97,9.76 L68.362,11.804 C68.39,11.93 68.46,12 68.586,12 L70.07,12 C70.238,12 70.294,11.916 70.266,11.762 L67.942,0.996 C67.914,0.856 67.83,0.8 67.704,0.8 L65.758,0.8 C65.632,0.8 65.548,0.856 65.52,0.996 L63.196,11.762 C63.154,11.916 63.224,12 63.378,12 L64.876,12 Z M67.62,8.136 L65.828,8.136 L66.724,3.25 L67.62,8.136 Z M76.762,12 C76.916,12 76.986,11.93 76.986,11.776 L76.986,11.776 L76.986,10.376 C76.986,10.236 76.916,10.152 76.762,10.152 L76.762,10.152 L73.43,10.152 L73.43,1.024 C73.43,0.884 73.36,0.8 73.206,0.8 L73.206,0.8 L71.75,0.8 C71.61,0.8 71.526,0.884 71.526,1.024 L71.526,1.024 L71.526,11.776 C71.526,11.93 71.61,12 71.75,12 L71.75,12 L76.762,12 Z M32.284,26 C33.6,26 34.3,25.3 34.3,23.984 L34.3,20.75 C34.3,20.484 34.174,20.33 33.936,20.232 L30.604,19.14 L30.604,17.208 C30.604,16.844 30.814,16.648 31.164,16.648 L31.836,16.648 C32.214,16.648 32.396,16.844 32.396,17.208 L32.396,18.3 C32.396,18.44 32.48,18.524 32.62,18.524 L34.076,18.524 C34.23,18.524 34.3,18.44 34.3,18.3 L34.3,16.816 C34.3,15.5 33.6,14.8 32.284,14.8 L30.716,14.8 C29.414,14.8 28.7,15.5 28.7,16.816 L28.7,20.12 C28.7,20.386 28.826,20.554 29.078,20.638 L32.396,21.73 L32.396,23.592 C32.396,23.97 32.2,24.152 31.836,24.152 L31.164,24.152 C30.814,24.152 30.604,23.97 30.604,23.592 L30.604,22.514 C30.604,22.36 30.534,22.29 30.38,22.29 L28.924,22.29 C28.784,22.29 28.7,22.36 28.7,22.514 L28.7,23.984 C28.7,25.3 29.414,26 30.716,26 L32.284,26 Z M38.948,26 C39.102,26 39.172,25.93 39.172,25.776 L39.172,16.648 L40.796,16.648 C40.95,16.648 41.02,16.564 41.02,16.424 L41.02,15.024 C41.02,14.884 40.95,14.8 40.796,14.8 L35.644,14.8 C35.504,14.8 35.42,14.884 35.42,15.024 L35.42,16.424 C35.42,16.564 35.504,16.648 35.644,16.648 L37.268,16.648 L37.268,25.776 C37.268,25.93 37.352,26 37.492,26 L38.948,26 Z M45.724,26 C47.04,26 47.74,25.3 47.74,23.984 L47.74,16.816 C47.74,15.5 47.04,14.8 45.724,14.8 L44.156,14.8 C42.84,14.8 42.14,15.5 42.14,16.816 L42.14,23.984 C42.14,25.3 42.84,26 44.156,26 L45.724,26 Z M45.374,24.194 L44.562,24.194 C44.198,24.194 44.002,24.012 44.002,23.634 L44.002,17.166 C44.002,16.802 44.198,16.606 44.562,16.606 L45.374,16.606 C45.738,16.606 45.934,16.802 45.934,17.166 L45.934,23.634 C45.934,24.012 45.738,24.194 45.374,24.194 Z M50.82,26 C50.96,26 51.044,25.916 51.044,25.776 L51.044,22.248 L52.01,22.248 L52.948,25.804 C52.976,25.93 53.046,26 53.186,26 L54.642,26 C54.796,26 54.88,25.916 54.838,25.748 L53.872,22.08 C54.544,21.786 54.894,21.17 54.894,20.232 L54.894,16.816 C54.894,15.5 54.194,14.8 52.878,14.8 L49.364,14.8 C49.224,14.8 49.14,14.884 49.14,15.024 L49.14,25.776 C49.14,25.916 49.224,26 49.364,26 L50.82,26 Z M52.43,20.4 L51.044,20.4 L51.044,16.648 L52.43,16.648 C52.794,16.648 52.99,16.844 52.99,17.208 L52.99,19.84 C52.99,20.204 52.794,20.4 52.43,20.4 Z M61.656,26 C61.824,26 61.88,25.916 61.88,25.776 L61.88,24.376 C61.88,24.222 61.824,24.152 61.656,24.152 L58.156,24.152 L58.156,21.324 L60.83,21.324 C60.97,21.324 61.054,21.24 61.054,21.086 L61.054,19.7 C61.054,19.546 60.97,19.462 60.83,19.462 L58.156,19.462 L58.156,16.662 L61.656,16.662 C61.824,16.662 61.88,16.564 61.88,16.424 L61.88,15.024 C61.88,14.884 61.824,14.8 61.656,14.8 L56.504,14.8 C56.378,14.8 56.294,14.884 56.294,15.024 L56.294,25.776 C56.294,25.916 56.378,26 56.504,26 L61.656,26 Z" id="OFFICIALSTORE" fill="#DB000C" fill-rule="nonzero"></path>
                </g>
            </g>
        </g>
    </g>
</svg>