<svg xmlns="http://www.w3.org/2000/svg" xmlns:xlink="http://www.w3.org/1999/xlink" width="301.93" height="134" viewBox="0 0 301.93 134">
  <defs>
    <clipPath id="clip-path">
      <path id="Clip_2" data-name="Clip 2" d="M0,0H39.465V43.618H0Z" fill="none"/>
    </clipPath>
  </defs>
  <g id="collection_title_" data-name="collection title " transform="translate(-1.974)">
    <rect id="Rectangle" width="82" height="4" transform="translate(118 64)" fill="#db000c"/>
    <g id="logo_pantone" data-name="logo/pantone" transform="translate(29)">
      <g id="Pantone_Logo">
        <path id="Shape" d="M0,39.425V.135L19.3,0c3.752.135,7.236.541,10.183,3.117a8.171,8.171,0,0,1,1.743,1.9,15.006,15.006,0,0,1,2.144,7.994,13.913,13.913,0,0,1-2.278,7.858c-3.618,5.283-9.113,5.555-14.74,5.691H9.782v12.87Z" transform="translate(0 0.948)" fill="#db000c"/>
        <path id="Shape-2" data-name="Shape" d="M28.676,39.29,26.8,33.058H12.194L10.319,39.29H0L14.472,0H24.655L38.994,39.29Z" transform="translate(29.212 1.084)" fill="#db000c"/>
        <path id="Path" d="M9.38,0l8.442,14.5c2.01,3.523,4.02,7.181,5.9,10.7L23.316,0H32.7V39.29H23.182L15.946,26.826c-1.206-1.9-2.412-3.929-3.484-5.961-1.206-2.032-2.144-4.2-3.35-6.232L9.38,39.426H0V.135L9.38,0Z" transform="translate(71.556 1.084)" fill="#db000c"/>
        <path id="Path-2" data-name="Path" d="M30.016,0V7.723H19.966V39.29H10.184V7.723H0V0Z" transform="translate(107.602 1.084)" fill="#db000c"/>
        <path id="Shape-3" data-name="Shape" d="M5.628,36.175C.268,30.484,0,23.032,0,20.729A24.116,24.116,0,0,1,3.752,7.994C5.762,5.013,10.319,0,19.3,0c7.37,0,11.926,3.252,13.937,5.419,3.752,3.93,5.895,10.3,5.895,15.716,0,5.961-2.546,12.465-7.37,16.394-2.143,1.761-5.9,4.064-12.328,4.335A18.869,18.869,0,0,1,5.628,36.175Z" transform="translate(137.618)" fill="#db000c"/>
        <path id="Path-3" data-name="Path" d="M9.38,0l8.442,14.5c2.01,3.523,4.02,7.181,5.9,10.7L23.316,0H32.7V39.29H23.182L15.946,26.826c-1.206-1.9-2.412-3.929-3.484-5.961-1.206-2.032-2.144-4.2-3.35-6.232L9.38,39.426H0V.135L9.38,0Z" transform="translate(181.57 1.084)" fill="#db000c"/>
        <path id="Path-4" data-name="Path" d="M28.81,0V7.587H9.782v7.181H27.6v7.452H9.782v9.348h20.77V39.29H0V0Z" transform="translate(220.564 1.084)" fill="#db000c"/>
        <path id="Shape-4" data-name="Shape" d="M2.814,13.413A7.731,7.731,0,0,1,0,7.451,7.523,7.523,0,0,1,7.5,0a7.463,7.463,0,0,1,5.9,2.98,6.665,6.665,0,0,1,1.474,4.471A7.012,7.012,0,0,1,13,12.329,7.481,7.481,0,0,1,7.37,14.9,7.962,7.962,0,0,1,2.814,13.413Z" transform="translate(253.126 0.542)" fill="#db000c"/>
      </g>
    </g>
    <g id="logo_rs_tongue_text" data-name="logo/rs tongue text" transform="translate(1.974 90.364)">
      <g id="Group" transform="translate(0)">
        <path id="STONES" d="M101.047,31.418c-3.671,0-5.684-1.964-5.684-5.655V21.639a.562.562,0,0,1,.632-.628H100.1c.434,0,.632.2.632.628v3.024a1.413,1.413,0,0,0,1.579,1.571H104.2a1.4,1.4,0,0,0,1.579-1.571V19.44l-9.355-3.063a1.4,1.4,0,0,1-1.066-1.453V5.655C95.363,1.964,97.376,0,101.047,0h4.421c3.71,0,5.684,1.964,5.684,5.655V9.818a.562.562,0,0,1-.632.628h-4.105a.58.58,0,0,1-.632-.628V6.755A1.4,1.4,0,0,0,104.2,5.184H102.31a1.431,1.431,0,0,0-1.579,1.571v5.42l9.394,3.063a1.44,1.44,0,0,1,1.026,1.453v9.072c0,3.692-1.974,5.655-5.684,5.655Zm-23.6,0a.569.569,0,0,1-.592-.628V.628A.569.569,0,0,1,77.443,0H91.968c.474,0,.632.236.632.628V4.556c0,.393-.158.668-.632.668H82.1v7.855H89.64a.591.591,0,0,1,.632.668v3.888a.591.591,0,0,1-.632.668H82.1v7.933h9.868c.474,0,.632.2.632.628V30.79c0,.393-.158.628-.632.628Zm-9.078,0a.68.68,0,0,1-.71-.511L61.615,14.138h-.2V30.79a.562.562,0,0,1-.632.628H56.681a.58.58,0,0,1-.632-.628V.628A.58.58,0,0,1,56.681,0h3.908a.68.68,0,0,1,.71.511l6,16.691h.237V.628A.562.562,0,0,1,68.167,0h4.105A.58.58,0,0,1,72.9.628V30.79a.58.58,0,0,1-.632.628ZM42,31.418c-3.71,0-5.684-1.964-5.684-5.655V5.655C36.314,1.964,38.287,0,42,0h4.421C50.129,0,52.1,1.964,52.1,5.655V25.763c0,3.692-1.974,5.655-5.684,5.655Zm-18,0a.562.562,0,0,1-.632-.628V5.184H18.788a.58.58,0,0,1-.632-.628V.628A.58.58,0,0,1,18.788,0H33.314a.562.562,0,0,1,.632.628V4.556a.562.562,0,0,1-.632.628H28.735V30.79c0,.432-.2.628-.632.628Zm-18.315,0C2.013,31.418,0,29.455,0,25.763V21.639a.562.562,0,0,1,.632-.628H4.737c.434,0,.632.2.632.628v3.024a1.413,1.413,0,0,0,1.579,1.571H8.842a1.4,1.4,0,0,0,1.579-1.571V19.44L1.066,16.377A1.4,1.4,0,0,1,0,14.924V5.655C0,1.964,2.013,0,5.684,0H10.1c3.71,0,5.684,1.964,5.684,5.655V9.818a.562.562,0,0,1-.632.628H11.052a.58.58,0,0,1-.632-.628V6.755A1.4,1.4,0,0,0,8.842,5.184H6.947A1.431,1.431,0,0,0,5.368,6.755v5.42l9.394,3.063a1.44,1.44,0,0,1,1.026,1.453v9.072c0,3.692-1.974,5.655-5.684,5.655Z" transform="translate(190.779 3.491)" fill="#fff"/>
        <path id="ROLLING" d="M112.415,31.418c-3.71,0-5.684-1.964-5.684-5.656V5.656C106.731,1.964,108.7,0,112.415,0h5.21c3.671,0,5.684,1.964,5.684,5.656V9.74a.58.58,0,0,1-.632.628H118.73a.562.562,0,0,1-.631-.628V6.755a1.414,1.414,0,0,0-1.579-1.571h-2.841A1.4,1.4,0,0,0,112.1,6.755V24.664a1.4,1.4,0,0,0,1.579,1.57h2.841a1.4,1.4,0,0,0,1.579-1.57V19.4h-2.053a.562.562,0,0,1-.632-.628V14.845c0-.432.2-.629.632-.629h6.631a.563.563,0,0,1,.632.629V25.763c0,3.692-2.013,5.656-5.684,5.656Zm-14.171,0a.68.68,0,0,1-.71-.51l-6.039-16.77h-.2V30.79a.562.562,0,0,1-.632.628h-4.1a.58.58,0,0,1-.632-.628V.628A.58.58,0,0,1,86.561,0h3.908a.68.68,0,0,1,.71.51l6,16.691h.237V.628A.562.562,0,0,1,98.047,0h4.1a.58.58,0,0,1,.632.628V30.79a.58.58,0,0,1-.632.628Zm-21,0a.562.562,0,0,1-.631-.628V.628A.562.562,0,0,1,77.245,0h4.106a.579.579,0,0,1,.631.628V30.79a.579.579,0,0,1-.631.628Zm-18.551,0a.562.562,0,0,1-.632-.628V.628A.58.58,0,0,1,58.694,0h4.1a.562.562,0,0,1,.631.628V26.234h9.394a.562.562,0,0,1,.632.628V30.79c0,.432-.2.628-.632.628Zm-18.947,0a.562.562,0,0,1-.632-.628V.628A.58.58,0,0,1,39.748,0h4.1a.562.562,0,0,1,.632.628V26.234h9.394a.562.562,0,0,1,.632.628V30.79c0,.432-.2.628-.632.628Zm-14.684,0c-3.71,0-5.684-1.964-5.684-5.656V5.656C19.381,1.964,21.354,0,25.064,0h4.421c3.711,0,5.684,1.964,5.684,5.656V25.763c0,3.692-1.974,5.656-5.684,5.656Zm-13.657,0a.619.619,0,0,1-.671-.55L8.092,20.894H5.369v9.9a.58.58,0,0,1-.632.628H.632A.58.58,0,0,1,0,30.79V.628A.58.58,0,0,1,.632,0h9.907c3.71,0,5.683,1.964,5.683,5.656v9.582c0,2.632-.986,4.36-2.881,5.184l2.723,10.29c.118.471-.119.706-.553.706Z" transform="translate(0 3.491)" fill="#fff"/>
        <g id="logo_tongue_stamp" data-name="logo/tongue/stamp" transform="translate(138.369)">
          <g id="Group_3" data-name="Group 3" transform="translate(0 0)">
            <path id="Clip_2-2" data-name="Clip 2" d="M0,0H39.465V43.618H0Z" fill="none"/>
            <g id="Group_3-2" data-name="Group 3" clip-path="url(#clip-path)">
              <path id="Fill_1" data-name="Fill 1" d="M10.933,43.618h0a11.978,11.978,0,0,1-1.73-.125,11.249,11.249,0,0,1-1.681-.378,10.281,10.281,0,0,1-1.586-.636,9.341,9.341,0,0,1-1.445-.9,13.783,13.783,0,0,1-1.28-1.09c-.214-.207-.418-.42-.607-.634s-.392-.464-.567-.7-.357-.512-.513-.776a9.012,9.012,0,0,1-.814-1.8,9.508,9.508,0,0,1-.274-1.034,16.319,16.319,0,0,1-.422-4.184c.015-.3.042-.6.083-.91s.09-.6.155-.928c.118-.587.284-1.241.523-2.056A14.654,14.654,0,0,1,1.3,26c.184-.447.394-.9.641-1.379.462-.9.99-1.78,1.549-2.71.263-.437.534-.889.809-1.36-.039-.152-.077-.308-.114-.458a10.115,10.115,0,0,0-.787-2.335,5.932,5.932,0,0,0-.8-1.172A6.747,6.747,0,0,0,2.031,16a8.108,8.108,0,0,0-.7-.567,1.923,1.923,0,0,1-.544-.556.773.773,0,0,1,.156-1.042,1.963,1.963,0,0,1,.686-.38,6.623,6.623,0,0,0,1.653-.876c.266-.187.538-.4.832-.64.265-.221.543-.466.849-.75a13.158,13.158,0,0,0,1.019-1.044,10.13,10.13,0,0,0,.77-1.012c.213-.319.425-.672.666-1.111.221-.4.447-.837.708-1.341h0l.034-.065a17,17,0,0,1,2.017-3.074,11.551,11.551,0,0,1,1.247-1.281,8.543,8.543,0,0,1,1.4-1c.389-.22.706-.388,1-.529a8.626,8.626,0,0,1,.939-.395A5.805,5.805,0,0,1,16.714,0c.166,0,.34.006.515.019a4.431,4.431,0,0,1,.745.119,3.444,3.444,0,0,1,.633.226,3.021,3.021,0,0,1,.531.323,3.059,3.059,0,0,1,.439.41,3.531,3.531,0,0,1,.358.486,4.484,4.484,0,0,1,.286.553,7.005,7.005,0,0,1,.4,1.263l.553-.49,0,0c.692-.615,1.148-1.021,1.605-1.35A9.221,9.221,0,0,1,24.422.642,6.413,6.413,0,0,1,25.1.38a7.59,7.59,0,0,1,.749-.2,7.9,7.9,0,0,1,.8-.131A7.374,7.374,0,0,1,27.456,0,6.209,6.209,0,0,1,28.4.069a4.792,4.792,0,0,1,.885.22,3.225,3.225,0,0,1,1.434.971,14.937,14.937,0,0,1,1.622,3.42c.439,1.117.937,2.383,1.516,3.545a11.739,11.739,0,0,0,.918,1.557,7.727,7.727,0,0,0,.946,1.105,9.012,9.012,0,0,0,1.034.849c.366.262.763.518,1.183.789.294.189.6.385.924.6.388.261.586.5.607.743.026.306-.241.559-.5.8l-.107.1c-.951.924-1.855,1.885-2.686,2.855a34.2,34.2,0,0,0-2.911,3.9c-.274.433-.523.854-.76,1.286-.213.389-.412.78-.609,1.2-.369.779-.674,1.526-1,2.316-.373.912-.758,1.855-1.281,2.948-.492,1.025-.917,1.826-1.336,2.522a13.751,13.751,0,0,1-1.463,2.03,9.892,9.892,0,0,1-4.071,2.759A4.021,4.021,0,0,0,20.876,38.1l-.265.327,0,0a22.586,22.586,0,0,1-2.134,2.4,9.557,9.557,0,0,1-1.232.972,10.149,10.149,0,0,1-1.538.831,11.541,11.541,0,0,1-2.322.735A12.207,12.207,0,0,1,10.933,43.618ZM26.315,17.409a1.789,1.789,0,0,0-.5.082,3.525,3.525,0,0,0-.612.253c-.258.132-.485.26-.694.392a6.7,6.7,0,0,0-.67.481,7.067,7.067,0,0,0-.667.621,9.42,9.42,0,0,0-.684.814A15.1,15.1,0,0,0,20.4,23.639c-.192.436-.41.93-.707,1.523a32.8,32.8,0,0,0-1.4,3.282c-.231.608-.47,1.236-.755,1.895-.154.354-.309.69-.475,1.027-.186.378-.38.748-.594,1.131-.117.211-.252.433-.4.668-.167.274-.339.557-.5.849a6.523,6.523,0,0,0-.414.894,3.124,3.124,0,0,0-.2.906,2.124,2.124,0,0,0,.023.448,1.906,1.906,0,0,0,.126.439,1.23,1.23,0,0,0,.559.6,1.637,1.637,0,0,0,.4.152,1.846,1.846,0,0,0,.433.051,1.665,1.665,0,0,0,.985-.3,4.928,4.928,0,0,0,1.9-2.836h0c.07-.2.142-.406.223-.625.211-.564.4-1.148.57-1.787.154-.57.283-1.129.408-1.67.145-.629.3-1.28.486-1.951.1-.361.208-.7.323-1.032.129-.375.266-.735.419-1.1.14-.335.268-.649.392-.953h0a16.237,16.237,0,0,1,2.661-4.815,6.137,6.137,0,0,1,.871-.836,3.578,3.578,0,0,0,.994-1.1,1.475,1.475,0,0,0,.168-.5.537.537,0,0,0-.066-.352A.573.573,0,0,0,26.315,17.409ZM12.722,17.24a1.145,1.145,0,0,0-.353.063,1.753,1.753,0,0,0-.4.194,20.956,20.956,0,0,0-2.544,1.9c-.488.433-.9.819-1.252,1.18a14.489,14.489,0,0,0-1.008,1.135,14.014,14.014,0,0,0-.874,1.234c-.272.43-.551.914-.851,1.479A18.846,18.846,0,0,0,4.615,26.2c-.235.582-.441,1.172-.613,1.753a11.016,11.016,0,0,0-.512,2.9,4.748,4.748,0,0,0,.069.823,2.985,2.985,0,0,0,.235.768,1.522,1.522,0,0,0,.444.57,1.152,1.152,0,0,0,.694.229h.018a1.156,1.156,0,0,0,.341-.048.959.959,0,0,0,.276-.136,1.3,1.3,0,0,0,.391-.483,5.631,5.631,0,0,0,.4-1.426c.019-.1.038-.2.058-.3.069-.336.133-.665.2-.983h0c.142-.73.277-1.42.46-2.145.1-.388.2-.753.317-1.114.128-.4.268-.8.427-1.2a25.033,25.033,0,0,1,1.068-2.425,15.689,15.689,0,0,1,1.434-2.231,13.154,13.154,0,0,1,1.49-1.611,11.987,11.987,0,0,0,1.1-1.15,1.029,1.029,0,0,0,.194-.34.328.328,0,0,0-.009-.243.274.274,0,0,0-.138-.125A.556.556,0,0,0,12.722,17.24Zm6.543-5.1h0a2.494,2.494,0,0,0,.152.3,3.552,3.552,0,0,0,.5.658,3.117,3.117,0,0,0,.9.658,3,3,0,0,0,.622.217,3.332,3.332,0,0,0,.746.082c.127,0,.257-.007.388-.02a4.716,4.716,0,0,0,1.542-.419,4.856,4.856,0,0,0,1.085-.7,4.916,4.916,0,0,0,.641-.654,3.046,3.046,0,0,0,.211-.289,5.617,5.617,0,0,0,.413.793,4.043,4.043,0,0,0,.481.632,2.017,2.017,0,0,0,.632.47,1.675,1.675,0,0,0,.674.121,3.739,3.739,0,0,0,.705-.076,6.282,6.282,0,0,0,.652-.166,6.962,6.962,0,0,0,.666-.242s-.043-.136-.138-.358a8.34,8.34,0,0,0-.469-.924,9.751,9.751,0,0,0-.882-1.264,10.049,10.049,0,0,0-1.378-1.378,4.233,4.233,0,0,0-.636-.432,3.934,3.934,0,0,0-.658-.288,4.061,4.061,0,0,0-.673-.161,4.583,4.583,0,0,0-.682-.05,5.722,5.722,0,0,0-.922.079,7.844,7.844,0,0,0-.909.209,13.607,13.607,0,0,0-1.712.643c-.227.1-.453.188-.672.261a6.247,6.247,0,0,1-.621.172,5.381,5.381,0,0,1-.573.095,4.848,4.848,0,0,1-1.473-.064,6.861,6.861,0,0,1-.816-.216,3.9,3.9,0,0,1-.906-.471A4.626,4.626,0,0,0,13.5,8.513l-.141,0a4.765,4.765,0,0,0-1.515.271,7.66,7.66,0,0,0-1.312.6,9.653,9.653,0,0,0-.923.6c-.22.161-.348.27-.349.271a1.125,1.125,0,0,0,.019.174,1.675,1.675,0,0,0,.13.413,1.606,1.606,0,0,0,.353.491,1.922,1.922,0,0,0,1.3.506,2.515,2.515,0,0,0,.7-.106,3.537,3.537,0,0,0,.588-.233,3.662,3.662,0,0,0,.557-.339,2.179,2.179,0,0,0,.046.386,2.785,2.785,0,0,0,.11.4,2.587,2.587,0,0,0,.215.454,2.338,2.338,0,0,0,.881.85,2.9,2.9,0,0,0,.736.28,4.251,4.251,0,0,0,.98.106,4.713,4.713,0,0,0,2.388-.546,2.977,2.977,0,0,0,.911-.824,1.2,1.2,0,0,1,.093-.114ZM15.343,3.691h.02a2.276,2.276,0,0,1,.827.143,1.046,1.046,0,0,1,.36.276,1.362,1.362,0,0,0,.34.281,1.318,1.318,0,0,0,.655.171,1.646,1.646,0,0,0,.933-.309,1.691,1.691,0,0,0,.352-.33,1.34,1.34,0,0,0,.222-.4,1.741,1.741,0,0,0,.1-.659,1.441,1.441,0,0,0-.165-.586,1.991,1.991,0,0,0-.407-.52,3.589,3.589,0,0,0-.628-.46A2.4,2.4,0,0,0,16.709.945a2.816,2.816,0,0,0-.763.112,4.98,4.98,0,0,0-.837.327,4.521,4.521,0,0,0-1.052.707,2.757,2.757,0,0,0-.645.818,1.627,1.627,0,0,0-.2.661.789.789,0,0,0,.281.575.217.217,0,0,0,.158.052,2.428,2.428,0,0,0,.73-.226l.066-.027A2.676,2.676,0,0,1,15.343,3.691Zm11.108-.069a.985.985,0,0,1,.617.193,4.331,4.331,0,0,1,.343.293,2.393,2.393,0,0,0,.346.282.815.815,0,0,0,.413.126l.115,0a1.774,1.774,0,0,0,.52-.072,1.292,1.292,0,0,0,.4-.2,1.469,1.469,0,0,0,.491-.717,1.588,1.588,0,0,0,.087-.647,1.377,1.377,0,0,0-.171-.554,1.794,1.794,0,0,0-.373-.458,2.674,2.674,0,0,0-.519-.36,2.367,2.367,0,0,0-.61-.219,3.263,3.263,0,0,0-.689-.07,4.806,4.806,0,0,0-2.051.495l-.2.1a4.675,4.675,0,0,0-.737.4,1.247,1.247,0,0,0-.235.225,1.566,1.566,0,0,0-.187.308.881.881,0,0,0-.088.375A.767.767,0,0,0,24,3.462a.782.782,0,0,0,.22.272.9.9,0,0,0,.341.165,1.261,1.261,0,0,0,.327.044,2.189,2.189,0,0,0,.662-.136c.077-.024.157-.049.241-.073a2.507,2.507,0,0,1,.655-.11h0Z" transform="translate(0 0)" fill="#db000c"/>
            </g>
          </g>
        </g>
      </g>
    </g>
  </g>
</svg>
