<?xml version="1.0" encoding="UTF-8"?>
<svg width="1044px" height="1188px" viewBox="0 0 1044 1188" version="1.1" xmlns="http://www.w3.org/2000/svg" xmlns:xlink="http://www.w3.org/1999/xlink">
    <title>Group 3</title>
    <defs>
        <polygon id="path-1" points="1.80222554e-05 0.00312852808 1043.833 0.00312852808 1043.833 1187.49996 1.80222554e-05 1187.49996"></polygon>
    </defs>
    <g id="☮️-Symbols" stroke="none" stroke-width="1" fill="none" fill-rule="evenodd">
        <g id="Group-3">
            <mask id="mask-2" fill="white">
                <use xlink:href="#path-1"></use>
            </mask>
            <g id="Clip-2"></g>
            <path d="M729.3862,377.6263 C704.7132,366.4063 689.0122,326.0193 689.0122,326.0193 C689.0122,326.0193 659.6212,375.8313 597.0322,382.1153 C531.9772,388.8453 509.5452,330.5073 509.5452,330.5073 C504.4572,335.5933 487.6822,370.8963 419.8162,370.8963 C341.3012,370.8963 341.3012,303.5793 341.3012,303.5793 C341.3012,303.5793 307.6502,330.5073 276.2462,319.2843 C244.8392,308.0653 244.8392,278.8963 244.8392,278.8963 C244.8392,278.8963 300.9222,229.5303 357.0042,231.7753 C413.0872,234.0193 424.3022,258.7003 451.2212,267.6763 C478.1392,276.6503 511.7902,283.3843 561.1432,260.9463 C610.4942,238.5053 673.3022,217.4133 724.9022,260.9463 C783.2252,310.3103 800.7242,367.7543 800.7242,367.7543 C800.7242,367.7543 754.0602,388.8453 729.3862,377.6263 M706.9512,503.2843 C695.7372,525.7223 675.1382,533.9743 657.6062,556.0143 C614.7172,609.9133 602.7262,649.2553 576.8472,713.0853 C545.5672,790.2283 545.4382,844.3543 518.5192,918.4023 C504.1622,958.1173 500.5742,983.4733 462.4382,1012.6443 C442.9212,1027.4543 409.0472,1022.0653 399.6262,999.1793 C383.9232,961.0343 418.0212,917.2803 435.5172,884.7423 C478.1392,806.2083 483.6982,761.1763 520.7622,685.0363 C547.6642,629.7743 548.5802,609.1973 594.7892,545.9173 C619.4642,512.2603 641.4472,496.3283 666.5742,483.0893 C700.2242,465.1373 721.3122,474.5633 706.9512,503.2843 M341.3012,489.8213 C322.0082,514.7283 296.2862,532.9973 272.8792,564.9893 C239.9502,610.0033 226.7092,639.7103 206.7032,691.7693 C185.3512,747.3423 179.7862,789.3763 169.6912,839.8683 C163.8572,869.4853 160.0692,905.3173 130.4322,904.940297 C101.0212,904.5623 92.2962,869.0343 92.2962,839.8683 C92.2962,799.4783 111.2432,728.0773 143.8932,664.8423 C174.8072,604.9703 199.5532,573.3843 249.3262,527.9663 C273.7582,505.6733 300.0262,487.3533 316.6232,476.3573 C336.8152,462.8963 357.0042,469.6283 341.3012,489.8213 M354.7612,79.1903 C361.4902,64.6053 378.5392,48.2263 399.6262,37.6803 C428.7892,23.0953 451.4462,21.2993 474.7762,35.4353 C500.5742,51.1423 512.2392,70.6653 503.9392,96.0213 C497.2082,116.2143 469.1662,132.5953 446.7352,119.5813 C433.2762,111.7273 437.7602,101.6303 406.3552,100.5073 C390.6542,100.0593 363.7342,119.5813 357.0042,112.8493 C346.4602,102.3023 348.4792,92.8783 354.7612,79.1903 M635.1722,74.7023 C641.8972,60.1183 649.9742,57.2003 671.0612,46.6553 C700.2242,32.0693 735.8942,28.0293 759.6722,41.0443 C779.8602,52.2653 793.7702,70.8903 785.4682,96.0213 C779.8602,112.8493 767.5222,124.0683 745.0902,122.9463 C732.7482,122.4973 727.5922,112.8493 715.9272,103.8733 C705.8342,96.0213 693.2722,98.4883 682.2782,101.6303 C670.6142,104.9953 662.0892,109.4843 649.7482,106.1163 C635.8412,102.5263 628.8892,88.3903 635.1722,74.7023 M1027.7432,357.4323 C968.5202,316.5933 933.5242,302.4563 895.3902,223.9213 C859.9422,150.7713 837.0632,65.0543 812.3892,34.3143 C775.5972,-11.6847 693.9432,-5.1797 645.9392,17.4843 C603.3172,37.6803 594.7892,47.7763 545.4382,92.6533 C534.6702,43.7003 512.4622,5.1443 455.7062,0.6553 C410.8422,-2.7107 380.3352,10.3043 339.0592,34.3143 C287.0132,64.6053 245.5122,121.1513 215.6782,180.1653 C187.6352,235.8143 173.5842,264.1733 131.1072,304.6983 C100.7402,333.6713 72.3322,356.0843 42.9452,366.4063 C11.5402,377.6263 8.6232,400.7403 35.0942,420.2613 C95.6632,465.1373 102.3922,514.5033 113.6082,559.3803 C75.4722,626.6943 40.2522,678.7533 20.5122,747.8663 C-2.8168,829.9923 -6.8568,875.0953 11.5402,967.7683 C27.2422,1046.3023 73.0062,1096.3413 118.7672,1132.0173 C200.6472,1195.9693 321.1112,1203.3733 415.3272,1160.7393 C480.3832,1131.3483 509.5452,1091.1813 552.1642,1037.3233 C567.4222,1017.8023 578.4122,1005.2393 601.5232,996.2623 C693.4922,960.3603 736.1172,898.2093 783.2252,797.2323 C821.1382,715.7803 832.2442,663.3213 879.6872,586.3073 C927.9942,507.8903 987.3652,442.7003 1027.7432,402.3103 C1039.8572,390.1923 1056.9032,377.6263 1027.7432,357.4323" id="Fill-1" fill="#DB000C" mask="url(#mask-2)"></path>
        </g>
    </g>
</svg>