<?xml version="1.0" encoding="UTF-8"?>
<svg width="912px" height="1038px" viewBox="0 0 912 1038" version="1.1" xmlns="http://www.w3.org/2000/svg" xmlns:xlink="http://www.w3.org/1999/xlink">
    <title>Group 2</title>
    <g id="☮️-Symbols" stroke="none" stroke-width="1" fill="none" fill-rule="evenodd">
        <g id="Group-2">
            <path d="M114.500529,266.103573 C151.598529,230.710573 163.868529,205.943573 188.360529,157.342573 C214.415529,105.803573 250.660529,56.4195729 296.113529,29.9645729 C332.161529,8.99657291 358.805529,-2.37042709 397.986529,0.570572913 C447.554529,4.48857291 466.949529,38.1625729 476.353529,80.9155729 C519.454529,41.7225729 526.901529,32.9045729 564.125529,15.2675729 C606.048529,-4.52642709 677.360529,-10.2074271 709.492529,29.9645729 C731.041529,56.8115729 751.022529,131.672573 781.980529,195.556573 C815.285529,264.145573 845.848529,276.490573 897.569529,312.157573 C923.036529,329.793573 908.149529,340.769573 897.569529,351.351573 C862.307529,386.625573 810.455529,443.558573 768.266529,512.043573 C726.833529,579.303573 717.133529,625.118573 684.022529,696.253573 C642.881529,784.440573 605.655529,838.719573 525.334529,870.074573 C505.150529,877.915573 495.553529,888.886573 482.228529,905.934573 C445.007529,952.970573 419.538529,988.050573 362.722529,1013.71957 C280.438529,1050.95257 175.232529,1044.48657 103.724529,988.634573 C63.759529,957.477573 23.791529,913.775573 10.077529,845.188573 C-5.98747099,764.254573 -2.46047099,724.863573 17.913529,653.139573 C35.153529,592.780573 65.912529,547.315573 99.218529,488.527573 C89.423529,449.333573 83.546529,406.220573 30.648529,367.028573 C7.53152901,349.980573 10.077529,329.793573 37.505529,319.995573 C63.170529,310.980573 87.980529,291.406573 114.500529,266.103573" id="Fill-1" fill="#DB000C"></path>
            <path d="M699.498629,321.171873 C699.498629,321.171873 662.275629,339.004873 637.002629,329.793873 C630.340629,327.442873 623.878629,320.780873 618.784629,314.312873 C618.784629,314.312873 572.352629,349.389873 533.170629,361.148873 C493.981629,372.905873 439.130629,347.430873 399.946629,380.745873 C360.766629,414.059873 312.766629,485.587873 290.235629,519.880873 C245.174629,588.470873 211.869629,719.766873 211.869629,719.766873 C211.869629,719.766873 206.971629,662.937873 231.461629,592.389873 C250.072629,538.499873 298.071629,449.333873 327.458629,412.100873 C356.845629,374.867873 382.313629,351.350873 382.313629,351.350873 C382.313629,351.350873 341.173629,357.230873 317.663629,341.552873 C305.320629,333.321873 294.153629,314.117873 294.153629,314.117873 C294.153629,314.117873 231.461629,349.389873 213.827629,363.108873 C196.195629,376.825873 137.421629,419.938873 137.421629,419.938873 C137.421629,419.938873 123.707629,394.463873 113.911629,378.786873 C104.116629,363.108873 86.484629,339.591873 86.484629,339.591873 C86.484629,339.591873 126.646629,301.377873 172.686629,263.165873 C226.955629,218.289873 236.163629,213.585873 270.644629,197.515873 C287.297629,189.678873 328.438629,182.817873 378.396629,214.173873 C404.452629,230.438873 440.109629,236.709873 483.211629,221.031873 C526.311629,205.354873 566.082629,179.879873 625.248629,212.213873 C655.617629,228.870873 680.495629,269.436873 695.777629,296.479873 C707.534629,317.055873 736.922629,321.955873 746.716629,325.874873 C756.511629,329.793873 819.204629,339.591873 819.204629,339.591873 C819.204629,339.591873 753.182629,398.773873 722.228629,434.636873 C672.269629,492.446873 622.309629,577.691873 607.615629,615.905873 C584.107629,677.441873 555.696629,782.477873 546.881629,814.812873 C541.397629,834.995873 534.516629,855.353873 523.491629,874.253873 C518.648629,882.553873 503.011629,893.156873 503.011629,893.156873 C503.011629,893.156873 484.934629,915.777873 452.607629,953.014873 C439.284629,968.296873 406.224629,998.954873 383.300629,1012.86687 C351.367629,1032.07187 288.791629,1036.49587 288.791629,1036.49587 C341.560629,1019.95887 376.999629,1005.78187 434.494629,938.048873 C489.346629,873.423873 504.760629,831.471873 531.208629,751.124873 C566.082629,645.104873 586.064629,578.669873 633.086629,512.043873 C659.731629,474.026873 721.247629,408.180873 740.835629,388.584873 C760.428629,368.987873 781.980629,349.389873 781.980629,349.389873 C781.980629,349.389873 723.203629,336.456873 699.498629,321.171873" id="Fill-4" fill="#231F20"></path>
            <path d="M349.009329,32.9047729 C374.479329,20.1667729 394.266329,18.5987729 414.641329,30.9437729 C437.171329,44.6607729 447.359329,61.7127729 440.110329,83.8567729 C434.233329,101.491773 409.742329,115.798773 390.152329,104.431773 C378.397329,97.5727729 382.314329,88.7547729 354.886329,87.7737729 C341.173329,87.3827729 317.663329,104.431773 311.785329,98.5527729 C302.577329,89.3427729 304.341329,81.1117729 309.827329,69.1567729 C315.703329,56.4197729 330.594329,42.1147729 349.009329,32.9047729" id="Fill-6" fill="#FEFEFE"></path>
            <path d="M586.065029,40.7436729 C611.535029,28.0046729 642.686029,24.4766729 663.453029,35.8436729 C681.084029,45.6416729 693.232029,61.9086729 685.982029,83.8566729 C681.084029,98.5526729 670.308029,108.351673 650.718029,107.371673 C639.939029,106.979673 635.436029,98.5526729 625.249029,90.7146729 C616.434029,83.8566729 605.462029,86.0116729 595.862029,88.7546729 C585.674029,91.6936729 578.230029,95.6146729 567.453029,92.6736729 C555.306029,89.5376729 549.235029,77.1916729 554.722029,65.2386729 C560.595029,52.5006729 567.649029,49.9526729 586.065029,40.7436729" id="Fill-8" fill="#FEFEFE"></path>
            <path d="M217.746629,461.091373 C174.277629,500.757373 152.666629,528.342373 125.667629,580.631373 C97.152629,635.857373 80.605629,698.214373 80.605629,733.488373 C80.605629,758.961373 88.225629,789.988373 113.911629,790.318024 C139.794629,790.649373 143.102629,759.354373 148.197629,733.488373 C157.015629,689.392373 161.874629,652.682373 180.522629,604.148373 C197.994629,558.683373 209.558629,532.738373 238.316629,493.425373 C258.759629,465.486373 281.223629,449.529373 298.071629,427.778373 C311.785629,410.142373 294.153629,404.263373 276.519629,416.020373 C262.024629,425.622373 239.083629,441.622373 217.746629,461.091373" id="Fill-10" fill="#FEFEFE"></path>
            <path d="M519.454629,476.769573 C479.097629,532.034573 478.297629,550.005573 454.803629,598.267573 C422.433629,664.763573 417.578629,704.092573 380.354629,772.679573 C365.075629,801.095573 335.295629,839.308573 349.009629,872.621573 C357.237629,892.609573 386.820629,897.315573 403.865629,884.381573 C437.171629,858.904573 440.305629,836.760573 452.843629,802.076573 C476.352629,737.406573 476.465629,690.136573 503.784629,622.764573 C526.385629,567.018573 536.857629,532.660573 574.313629,485.587573 C589.626629,466.338573 607.615629,459.131573 617.409629,439.536573 C629.951629,414.452573 611.534629,406.220573 582.146629,421.898573 C560.201629,433.461573 541.003629,447.374573 519.454629,476.769573" id="Fill-12" fill="#FEFEFE"></path>
            <path d="M213.827729,243.567873 C213.827729,243.567873 262.807729,200.454873 311.785729,202.415873 C360.765729,204.375873 370.559729,225.930873 394.069729,233.769873 C417.578729,241.607873 446.967729,247.487873 490.068729,227.891873 C533.170729,208.293873 588.021729,189.872873 633.086729,227.891873 C684.022729,271.003873 699.305729,321.171873 699.305729,321.171873 C699.305729,321.171873 658.552729,339.591873 637.002729,329.793873 C615.454729,319.994873 601.741729,284.722873 601.741729,284.722873 C601.741729,284.722873 576.074729,328.226873 521.413729,333.713873 C464.597729,339.591873 445.007729,288.641873 445.007729,288.641873 C440.563729,293.084873 425.912729,323.915873 366.642729,323.915873 C298.071729,323.915873 298.071729,265.125873 298.071729,265.125873 C298.071729,265.125873 268.682729,288.641873 241.257729,278.841873 C213.827729,269.043873 213.827729,243.567873 213.827729,243.567873" id="Fill-14" fill="#FEFEFE"></path>
        </g>
    </g>
</svg>