<?xml version="1.0" encoding="UTF-8"?>
<svg width="238px" height="72px" viewBox="0 0 238 72" version="1.1" xmlns="http://www.w3.org/2000/svg" xmlns:xlink="http://www.w3.org/1999/xlink">
    <title>logo-autumn-basic</title>
    <defs>
        <filter id="filter-1">
            <feColorMatrix in="SourceGraphic" type="matrix" values="0 0 0 0 1.000000 0 0 0 0 1.000000 0 0 0 0 1.000000 0 0 0 1.000000 0"></feColorMatrix>
        </filter>
    </defs>
    <g id="🛣-Carnaby-Design" stroke="none" stroke-width="1" fill="none" fill-rule="evenodd">
        <g id="1366-carnaby---home-stage-1-copy" transform="translate(-347.000000, -457.000000)">
            <g id="collections" transform="translate(259.000000, 199.000000)">
                <g id="logo-autumn-basic" transform="translate(88.000000, 258.000000)" filter="url(#filter-1)">
                    <g>
                        <path d="M166.800428,44.0896779 L166.800428,46.8358726 L153.001505,46.8358726 L153.001505,71.4280142 L149.734876,71.4280142 L149.734876,46.8358726 L135.895334,46.8358726 L135.895334,44.0896779 L166.800428,44.0896779 Z M15.9466347,43.926308 L3.12129067,71.4277593 L-1.44306493e-13,71.4277593 L12.825344,43.926308 L15.9466347,43.926308 Z M27.9061029,44.0899327 L39.2145936,68.4348531 L50.6868283,44.0899327 L54.5227536,44.0899327 L65.9949883,68.4348531 L77.3440976,44.0899327 L80.7738363,44.0899327 L67.9129509,71.4276319 L63.9132816,71.4276319 L52.5648069,47.2872425 L41.1731749,71.4276319 L37.1735056,71.4276319 L24.3132549,44.0899327 L27.9061029,44.0899327 Z M88.8222347,44.0901876 L88.8222347,71.4278867 L85.5556053,71.4278867 L85.5556053,44.0901876 L88.8222347,44.0901876 Z M102.129989,44.0899327 L127.85049,69.0917735 L127.85049,44.0899327 L131.11585,44.0899327 L131.11585,71.4276319 L125.850021,71.4276319 L100.130154,46.4257912 L100.130154,71.4276319 L96.8641595,71.4276319 L96.8641595,44.0899327 L102.129989,44.0899327 Z M199.502326,44.0899327 L199.502326,46.8361274 L175.660438,46.8361274 L175.660438,55.9763044 L198.644257,55.9763044 L198.644257,58.5587469 L175.660438,58.5587469 L175.660438,68.6820743 L199.705419,68.6820743 L199.705419,71.4276319 L172.393809,71.4276319 L172.393809,44.0899327 L199.502326,44.0899327 Z M228.694962,44.0898053 C232.817122,44.0898053 234.735719,44.623115 236.164988,46.1809912 C237.268039,47.4100885 237.839239,49.5012743 237.839239,52.452 C237.839239,56.8777699 236.81933,58.435646 233.471463,59.2142655 C236.247495,59.7469381 237.308023,61.1818407 237.308023,64.3370973 L237.308023,71.4275044 L234.043298,71.4275044 L234.043298,66.2224779 C234.1239,61.5093451 232.940247,60.3611681 228.204364,60.4025841 L209.507719,60.4025841 L209.507719,71.4275044 L206.240455,71.4275044 L206.240455,44.0898053 L228.694962,44.0898053 Z M227.225708,46.836 L209.507719,46.836 L209.507719,57.8214159 L227.428802,57.8214159 C233.022119,57.8214159 234.451388,56.7140177 234.451388,52.2882478 C234.451388,47.9433982 232.980231,46.836 227.225708,46.836 Z M45.3310032,0.000254867257 L45.331932,19.1507102 C45.3362044,20.6351751 45.3601299,20.8972991 45.4941125,21.4358655 C46.1484539,24.3056708 47.8614192,24.7561487 58.1093819,24.7561487 C66.7643312,24.7561487 68.9685285,24.4286442 70.0696752,22.9128212 C70.782267,21.9202726 70.8819661,21.4646986 70.8875014,18.3079192 L70.8877605,0.000254867257 L74.1537552,0.000254867257 L74.1537552,18.5679717 C74.1537552,21.600892 74.0718832,22.4196531 73.7450299,23.4034407 C72.4963782,26.8014159 69.7383067,27.6034764 58.5669029,27.6242606 L58.1093819,27.6246796 C48.6782352,27.6246796 45.5766192,27.1340602 43.7792432,25.4124319 C42.8012219,24.4687858 42.3093552,23.3632991 42.1462459,21.7646442 C42.0719899,21.1739894 42.0645643,20.5843667 42.0638217,19.0979063 L42.0637392,0.000254867257 L45.3310032,0.000254867257 Z M117.490826,0.000254867257 L117.490886,18.5041188 C117.490915,18.5836334 117.49096,18.6604678 117.491027,18.7347451 L117.491755,19.1507102 C117.494913,20.2479234 117.508807,20.6773549 117.569944,21.0442091 L117.593542,21.1720742 C117.610662,21.2568993 117.630634,21.3422018 117.653935,21.4358655 C118.308277,24.3056708 120.021242,24.7561487 130.269205,24.7561487 C138.924154,24.7561487 141.128986,24.4286442 142.229498,22.9128212 C142.94209,21.9202726 143.041789,21.4646986 143.047324,18.3079192 L143.047583,0.000254867257 L146.314213,0.000254867257 L146.314213,18.5679717 C146.314213,21.600892 146.231706,22.4196531 145.904853,23.4034407 C144.656201,26.8014159 141.89813,27.6034764 130.726726,27.6242606 L130.269205,27.6246796 C120.838058,27.6246796 117.736442,27.1340602 115.939701,25.4124319 C114.961045,24.4687858 114.469813,23.3632991 114.306069,21.7646442 C114.240571,21.2396177 114.227472,20.7154067 114.224852,19.5614086 L114.224197,0.000254867257 L117.490826,0.000254867257 Z M22.6930779,0.000509734513 L38.7361819,27.3382088 L35.1433339,27.3382088 L31.5517552,21.1914478 L9.26099253,21.1914478 L5.66814453,27.3382088 L2.0340432,27.3382088 L18.0790512,0.000509734513 L22.6930779,0.000509734513 Z M109.691534,2.71641117e-13 L109.691534,2.74683186 L95.8926117,2.74683186 L95.8926117,27.3383363 L92.6259824,27.3383363 L92.6259824,2.74683186 L78.7864411,2.74683186 L78.7864411,2.71641117e-13 L109.691534,2.71641117e-13 Z M157.847375,0.000254867257 L174.259855,23.5270513 L190.711685,0.000254867257 L195.814405,0.000254867257 L195.814405,27.337954 L192.549679,27.337954 L192.549679,2.7056708 L175.401621,27.337954 L172.99433,27.337954 L155.847541,2.7056708 L155.847541,27.337954 L152.580911,27.337954 L152.580911,0.000254867257 L157.847375,0.000254867257 Z M207.22184,0.000254867257 L232.942341,25.0020956 L232.942341,0.000254867257 L236.207701,0.000254867257 L236.207701,27.337954 L230.941872,27.337954 L205.22264,2.33611327 L205.22264,27.337954 L201.956011,27.337954 L201.956011,0.000254867257 L207.22184,0.000254867257 Z M20.4063739,2.29558938 L10.8127525,18.6083681 L29.9999952,18.6083681 L20.4063739,2.29558938 Z" id="Combined-Shape" fill="#1D1D1B"></path>
                    </g>
                </g>
            </g>
        </g>
    </g>
</svg>