<?xml version="1.0" encoding="UTF-8"?>
<svg width="89px" height="40px" viewBox="0 0 89 40" version="1.1" xmlns="http://www.w3.org/2000/svg" xmlns:xlink="http://www.w3.org/1999/xlink">
    <title>logo/pantone 2</title>
    <g id="Page-1" stroke="none" stroke-width="1" fill="none" fill-rule="evenodd">
        <g id="logo" transform="translate(-53.000000, 0.000000)" fill="#DB000C" fill-rule="nonzero">
            <g id="Group" transform="translate(53.000000, 0.000000)">
                <path d="M21.6419641,26.7949583 C25.5973102,26.7949583 27.5072398,30.1376503 27.2824687,33.7281583 L27.2824687,33.7281583 L18.8997572,33.7281583 C18.9896657,35.7602491 19.9786583,36.6862652 21.7537252,36.6862652 C23.0349202,36.6862652 24.0688671,35.8957637 24.271161,35.1730194 L24.271161,35.1730194 L27.0807991,35.1730194 C26.1810906,37.9284818 24.271161,39.1029412 21.6419641,39.1029412 C17.9781959,39.1029412 15.7086327,36.5733364 15.7086327,32.9602426 C15.7086327,29.4600776 18.1130586,26.7949583 21.6419641,26.7949583 Z M40.1621622,22.6617647 L40.1621622,38.7867406 L37.1283773,38.7867406 L37.1283773,37.2960806 L37.0834231,37.2960806 C36.3410543,38.5602556 35.0380066,39.1029412 33.5545176,39.1029412 C30.0487136,39.1029412 28.3410779,36.0764497 28.3410779,32.8473138 C28.3410779,29.7085209 30.0711907,26.7949583 33.4870863,26.7949583 C34.8581897,26.7949583 36.2061917,27.382188 36.9260834,28.5340616 L36.9260834,28.5340616 L36.9710376,28.5340616 L36.9710376,22.6617647 L40.1621622,22.6617647 Z M9.3692773,22.6620784 C12.2457224,22.6620784 14.066368,24.6722108 14.066368,27.1114726 C14.066368,29.0080488 13.3021464,30.4309515 11.5270794,31.1536957 L11.5270794,31.1536957 L11.5270794,31.1982399 C13.2571922,31.649955 13.7516885,33.3438868 13.864074,34.9700613 C13.9315053,35.985793 13.9090282,37.883624 14.5383872,38.7864269 L14.5383872,38.7864269 L11.010106,38.7864269 C10.7609848,38.1935508 10.6722687,37.4164378 10.6058961,36.6162329 L10.551257,35.9284463 C10.5234533,35.585484 10.4925082,35.2467368 10.447554,34.9248898 C10.2009302,33.2315854 9.5490942,32.485628 7.7734029,32.485628 L7.7734029,32.485628 L4.2451217,32.485628 L4.2451217,38.7864269 L0.7162162,38.7864269 L0.7162162,22.6620784 L9.3692773,22.6620784 Z M34.3412163,29.2116343 C32.2508455,29.2116343 31.5322025,31.0178675 31.5322025,32.9370295 C31.5322025,34.7664758 32.363231,36.6862652 34.3412163,36.6862652 C36.4540642,36.6862652 37.0834231,34.8348604 37.0834231,32.9150711 C37.0834231,31.0178675 36.40911,29.2116343 34.3412163,29.2116343 Z M21.5514313,29.2116343 C19.5291162,29.2116343 18.9447114,30.7926373 18.8997572,31.6954402 L18.8997572,31.6954402 L24.0907198,31.6954402 C23.7991418,30.0692657 23.1023515,29.2116343 21.5514313,29.2116343 Z M8.1105594,25.4175408 L4.2451217,25.4175408 L4.2451217,29.9566506 L8.1105594,29.9566506 C9.6839568,29.9566506 10.5380868,29.2790779 10.5380868,27.6529034 C10.5380868,26.0951135 9.6839568,25.4175408 8.1105594,25.4175408 L8.1105594,25.4175408 Z" id="Combined-Shape"></path>
                <path d="M6.6351264,0.52966541 C9.9858293,0.52966541 13.0672513,2.01347099 13.0672513,5.77878618 L9.6484473,5.77878618 C9.5359866,3.81623136 8.1639666,3.31402024 6.4776815,3.31402024 C5.3530749,3.31402024 4.0485313,3.79340358 4.0485313,5.16243617 C4.0485313,6.41859807 4.8132638,6.57839252 8.8387305,7.62783621 C10.0083214,7.92459733 13.6070624,8.677914 13.6070624,12.37538 C13.6070624,15.3651848 11.2903729,17.6029412 6.9275242,17.6029412 C3.3737674,17.6029412 0.0455567,15.8223745 0.090541,11.8046855 L3.5093449,11.8046855 C3.5093449,13.9733244 5.1731379,14.8179522 7.0624769,14.8179522 C8.2995442,14.8179522 10.1882584,14.4527078 10.1882584,12.78628 C10.1882584,11.0285411 7.7822251,10.732414 5.4211761,10.0932363 C3.0363854,9.4540585 0.6309769,8.5181196 0.6309769,5.45919729 C0.6309769,2.12697577 3.7336415,0.52966541 6.6351264,0.52966541 Z M82.028689,0.52966541 C85.379392,0.52966541 88.460189,2.01347099 88.460189,5.77878618 L85.04201,5.77878618 C84.929549,3.81623136 83.557529,3.31402024 81.871244,3.31402024 C80.746637,3.31402024 79.442094,3.79340358 79.442094,5.16243617 C79.442094,6.41859807 80.206826,6.57839252 84.232293,7.62783621 C85.401884,7.92459733 89,8.677914 89,12.37538 C89,15.3651848 86.683935,17.6029412 82.321087,17.6029412 C78.76733,17.6029412 75.439119,15.8223745 75.484103,11.8046855 L78.902283,11.8046855 C78.902283,13.9733244 80.5667,14.8179522 82.455415,14.8179522 C83.692482,14.8179522 85.581196,14.4527078 85.581196,12.78628 C85.581196,11.0285411 83.175788,10.732414 80.814114,10.0932363 C78.429948,9.4540585 76.023914,8.5181196 76.023914,5.45919729 C76.023914,2.12697577 79.127204,0.52966541 82.028689,0.52966541 Z M35.9638038,0.52941176 C40.9339401,0.52941176 43.8579172,4.29599517 43.8579172,9.1342159 C43.8579172,13.8367382 40.9339401,17.6026875 35.9638038,17.6026875 C30.9936675,17.6026875 28.0703152,13.8367382 28.0703152,9.1342159 C28.0703152,4.29599517 30.9936675,0.52941176 35.9638038,0.52941176 Z M27.2592864,0.91710353 L27.2592864,3.93037025 L22.4465951,3.93037025 L22.4465951,17.2142348 L18.9159552,17.2142348 L18.9159552,3.93037025 L14.1032638,3.93037025 L14.1032638,0.91710353 L27.2592864,0.91710353 Z M49.4373403,0.91716694 L56.139371,11.8504045 L56.184355,11.8504045 L56.184355,0.91716694 L59.490074,0.91716694 L59.490074,17.2142983 L55.960058,17.2142983 L49.2798954,6.30388849 L49.2355359,6.30388849 L49.2355359,17.2142983 L45.9291926,17.2142983 L45.9291926,0.91716694 L49.4373403,0.91716694 Z M74.267841,0.91716694 L74.267841,3.93043366 L65.788932,3.93043366 L65.788932,7.42244962 L73.570585,7.42244962 L73.570585,10.2068045 L65.788932,10.2068045 L65.788932,14.2016656 L74.447778,14.2016656 L74.447778,17.2142983 L62.258293,17.2142983 L62.258293,0.91716694 L74.267841,0.91716694 Z M35.9638038,3.54204438 C32.793038,3.54204438 31.6015799,6.28074366 31.6015799,9.1342159 C31.6015799,11.8507215 32.793038,14.5894208 35.9638038,14.5894208 C39.1345696,14.5894208 40.3266525,11.8507215 40.3266525,9.1342159 C40.3266525,6.28074366 39.1345696,3.54204438 35.9638038,3.54204438 Z" id="Combined-Shape"></path>
            </g>
        </g>
    </g>
</svg>