<svg id="collection_title_" data-name="collection title " xmlns="http://www.w3.org/2000/svg" width="195.36" height="22.4" viewBox="0 0 195.36 22.4">
  <defs>
    <style>
      .cls-1 {
        fill:#fff;
      }
    </style>
  </defs>
  <g id="Group_5" data-name="Group 5" transform="translate(-1.82 -9.6)">
    <path id="Fall_2020" data-name="Fall 2020" class="cls-1" d="M-90.48-15.968h13.44a.758.758,0,0,0,.768-.768v-4.9a.758.758,0,0,0-.768-.768H-90.48a7.19,7.19,0,0,0-7.2,7.2V-.768A.758.758,0,0,0-96.912,0h4.864a.758.758,0,0,0,.768-.768V-7.2a.813.813,0,0,1,.8-.8h13.44a.739.739,0,0,0,.768-.768v-4.864a.739.739,0,0,0-.768-.768H-90.48a.684.684,0,0,1-.544-.256.684.684,0,0,1-.256-.544A.786.786,0,0,1-90.48-15.968ZM-53.712-22.4h-13.44a7.211,7.211,0,0,0-7.2,7.2V-.768A.779.779,0,0,0-73.584,0h4.9a.779.779,0,0,0,.768-.768V-13.632a2.276,2.276,0,0,1,.224-1.024,3.17,3.17,0,0,1,.352-.544.848.848,0,0,1,.192-.16,2.1,2.1,0,0,1,.544-.384,2.665,2.665,0,0,1,1.024-.224h5.472a.779.779,0,0,1,.768.768.786.786,0,0,1-.768.8h-5.472a.766.766,0,0,0-.8.768v4.864a.766.766,0,0,0,.8.768h5.472a.786.786,0,0,1,.768.8V-.768A.779.779,0,0,0-58.576,0h4.864a.786.786,0,0,0,.8-.768V-21.632A.786.786,0,0,0-53.712-22.4Zm2.72,15.2a7.19,7.19,0,0,0,7.2,7.2h13.44a.758.758,0,0,0,.768-.768v-4.9a.758.758,0,0,0-.768-.768h-11.9a2.265,2.265,0,0,1-1.536-.608.849.849,0,0,1-.192-.16,2.418,2.418,0,0,1-.576-1.568V-21.632a.786.786,0,0,0-.8-.768h-4.864a.758.758,0,0,0-.768.768Zm23.328,0a7.19,7.19,0,0,0,7.2,7.2h13.44a.758.758,0,0,0,.768-.768v-4.9a.758.758,0,0,0-.768-.768h-11.9a2.265,2.265,0,0,1-1.536-.608.848.848,0,0,1-.192-.16,2.418,2.418,0,0,1-.576-1.568V-21.632a.786.786,0,0,0-.8-.768H-26.9a.758.758,0,0,0-.768.768ZM5.264-.768A.779.779,0,0,0,6.032,0h20.32a.786.786,0,0,0,.8-.768v-4.9a.786.786,0,0,0-.8-.768H13.232a.779.779,0,0,1-.768-.768.752.752,0,0,1,.736-.768h6.72a7.218,7.218,0,0,0,7.232-7.2A7.224,7.224,0,0,0,19.92-22.4H6.032a.786.786,0,0,0-.768.8v4.864a.758.758,0,0,0,.768.768h13.12a.786.786,0,0,1,.768.8.779.779,0,0,1-.768.768H12.464a7.211,7.211,0,0,0-7.2,7.2ZM29.072-7.2a7.211,7.211,0,0,0,7.2,7.2H43.28a7.218,7.218,0,0,0,7.232-7.2v-8a7.218,7.218,0,0,0-7.232-7.2H36.272a7.211,7.211,0,0,0-7.2,7.2ZM44.08-8.768A2.285,2.285,0,0,1,43.472-7.2a.848.848,0,0,1-.192.16,2.15,2.15,0,0,1-1.536.608h-3.9a2.285,2.285,0,0,1-1.568-.608.848.848,0,0,1-.192-.16A2.418,2.418,0,0,1,35.5-8.768v-4.864A2.418,2.418,0,0,1,36.08-15.2a.848.848,0,0,1,.192-.16,2.285,2.285,0,0,1,1.568-.608h3.9a2.15,2.15,0,0,1,1.536.608.848.848,0,0,1,.192.16,2.285,2.285,0,0,1,.608,1.568Zm8.352,8A.779.779,0,0,0,53.2,0H73.52a.786.786,0,0,0,.8-.768v-4.9a.786.786,0,0,0-.8-.768H60.4a.779.779,0,0,1-.768-.768.752.752,0,0,1,.736-.768h6.72a7.218,7.218,0,0,0,7.232-7.2A7.224,7.224,0,0,0,67.088-22.4H53.2a.786.786,0,0,0-.768.8v4.864a.758.758,0,0,0,.768.768H66.32a.786.786,0,0,1,.768.8.779.779,0,0,1-.768.768H59.632a7.211,7.211,0,0,0-7.2,7.2ZM76.24-7.2A7.211,7.211,0,0,0,83.44,0h7.008A7.218,7.218,0,0,0,97.68-7.2v-8a7.218,7.218,0,0,0-7.232-7.2H83.44a7.211,7.211,0,0,0-7.2,7.2ZM91.248-8.768A2.285,2.285,0,0,1,90.64-7.2a.848.848,0,0,1-.192.16,2.15,2.15,0,0,1-1.536.608h-3.9A2.285,2.285,0,0,1,83.44-7.04a.848.848,0,0,1-.192-.16,2.418,2.418,0,0,1-.576-1.568v-4.864a2.418,2.418,0,0,1,.576-1.568.848.848,0,0,1,.192-.16,2.285,2.285,0,0,1,1.568-.608h3.9a2.15,2.15,0,0,1,1.536.608.848.848,0,0,1,.192.16,2.285,2.285,0,0,1,.608,1.568Z" transform="translate(99.5 32)"/>
  </g>
</svg>
