<?xml version="1.0" encoding="UTF-8"?>
<svg width="282px" height="46px" viewBox="0 0 282 46" version="1.1" xmlns="http://www.w3.org/2000/svg" xmlns:xlink="http://www.w3.org/1999/xlink">
    <title>logo/carnaby core central</title>
    <g id="🛣-Carnaby-Design" stroke="none" stroke-width="1" fill="none" fill-rule="evenodd">
        <g id="1366-carnaby---home-stage-1" transform="translate(-543.000000, -1207.000000)" fill="#FFFFFF" fill-rule="nonzero">
            <g id="collections" transform="translate(44.000000, 828.000000)">
                <g id="collection" transform="translate(432.000000, 127.000000)">
                    <g id="collection-title-" transform="translate(66.500000, 252.000000)">
                        <g id="logo/carnaby-core-central" transform="translate(0.500000, 0.000000)">
                            <path d="M5.81195122,20.1526 L5.66292683,5.1428 L17.5252683,20.1526 L27.2416585,20.1526 L27.2416585,0.2093 L21.519122,0.2093 L21.6681463,15.3686 L9.62697561,0.2093 L-3.2580984e-14,0.2093 L-3.2580984e-14,20.1526 L5.81195122,20.1526 Z M42.6538156,13.739207 C44.6067486,13.6581498 45.734215,13.3339207 46.5395482,12.6449339 C47.687148,11.692511 48.0294146,10.3753304 48.0294146,7.11277533 C48.0294146,5.47136564 47.989148,4.37709251 47.9086147,3.82995595 C47.626748,1.66167401 46.6200816,0.587665198 44.5463486,0.202643172 C43.6000821,0.0405286344 42.4122156,-2.00195416e-13 38.5466163,-2.00195416e-13 C35.0031503,-2.00195416e-13 33.7750172,0.0810572687 32.6475507,0.405286344 C31.137551,0.851101322 30.3523511,1.62114537 29.9698178,3.05991189 C29.7424296,3.91816533 29.6933851,4.47126198 29.688402,6.42554564 L29.6879512,6.80881057 C29.6879512,9.76740088 29.8087512,10.7603524 30.3322178,11.753304 C30.835551,12.7462555 31.7012842,13.3136564 33.1911506,13.5770925 C33.9562171,13.7311013 35.4662672,13.7936674 38.3599879,13.799539 L38.8284829,13.8 C40.1371494,13.8 41.9290157,13.7797357 42.6538156,13.739207 Z M39.0930248,10.8140337 L38.7495075,10.8146 C35.9655354,10.8146 35.3650708,10.7264873 34.8737816,10.2418676 C34.4188842,9.77927606 34.2733171,8.98626197 34.2733171,6.82750141 C34.2733171,4.71279718 34.4188842,3.98586761 34.9101734,3.52327606 C35.3832667,3.10474085 36.1292985,2.9946 38.840487,2.9946 C43.3894611,2.9946 43.4440488,3.03865634 43.4440488,6.73938873 C43.4440488,8.69989577 43.3530693,9.44885352 43.0073473,9.97752958 C42.6043419,10.6563235 41.9819873,10.8040241 39.0930248,10.8140337 L39.0930248,10.8140337 Z M47.846,20.1066 L47.846,17.3466 L29.5045366,17.3466 L29.5045366,20.1066 L47.846,20.1066 Z M70.1813171,20.0928 C72.9829756,19.9134 74.2347805,19.4948 75.3077561,18.3885 C76.5893659,17.0729 76.9172195,15.3088 76.9172195,9.5381 C76.9172195,4.5747 76.5893659,3.0199 75.2779512,1.8239 C73.6982927,0.3887 71.8205854,0.0897 64.6376098,0.0897 C59.6601951,0.0897 57.5738537,0.299 56.1134146,1.0166 C54.4145366,1.794 53.6992195,3.4385 53.6992195,6.6677 C53.6992195,9.3886 54.3549268,10.8537 55.9345854,11.6909 C57.2616868,12.3990579 58.6957885,12.6241776 62.3656342,12.6459127 L62.9983415,12.6477 C69.3169756,12.6477 70.1813171,12.4384 71.2244878,10.7341 C71.1946829,12.1394 71.1946829,12.1394 71.164878,12.7673 C71.1350732,14.3819 71.0158537,14.8603 70.6581951,15.2191 C69.9739788,15.8769 69.207954,16.0149261 65.4126444,16.0256849 L63.8368785,16.0252217 C59.3047885,16.0124467 59.1137724,15.8729133 58.9746829,14.5613 L53.4011707,14.5613 C53.3713659,14.8902 53.3713659,15.3088 53.3713659,15.4284 C53.3713659,17.5513 54.0866829,18.8071 55.6961463,19.4948 C56.8502575,20.0031 59.3336293,20.2446994 63.3722363,20.2699749 L64.101122,20.2722 C64.9952683,20.2722 69.4958049,20.1526 70.1813171,20.0928 Z M65.8179943,8.67042066 L63.8574335,8.66919165 C60.8198195,8.65908784 60.5722244,8.598044 60.0476585,8.2823 C59.6005854,8.0132 59.3621463,7.3853 59.3621463,6.5182 C59.3621463,5.5016 59.69,4.8438 60.3159024,4.5448 C61.0312195,4.2458 61.657122,4.186 64.7568293,4.186 C66.5749268,4.186 69.0785366,4.2458 69.466,4.3355 C70.7476098,4.5448 71.2542927,5.1428 71.2542927,6.4584 C71.2542927,7.3853 70.926439,8.1029 70.4197561,8.3421 C69.828626,8.59625 68.8387177,8.66370957 65.8179943,8.67042066 L65.8179943,8.67042066 Z M103.626976,20.1526 C106.726683,19.9433 108.336146,19.136 109.111073,17.4317 C109.528341,16.5347 109.617756,15.548 109.647561,12.6477 L103.776,12.6477 C103.776,14.0829 103.448146,14.7108 102.583805,15.0696 C101.853585,15.38355 101.260282,15.4456859 98.1083579,15.4563145 L96.5930244,15.4583 C90.9471289,15.4583 90.3639265,15.11971 90.3352096,10.7148148 L90.334,10.3155 C90.334,7.0863 90.4830244,6.279 91.1983415,5.6212 C91.9434634,4.9634 92.8376098,4.8438 97.7852195,4.8438 C103.030878,4.8438 103.477951,5.0232 103.597171,7.2059 L109.379317,7.2059 L109.379317,6.5481 C109.379317,3.6179 108.634195,1.8538 107.024732,1.0465 C105.435459,0.263312903 103.924435,0.0819527575 97.6603894,0.0618113323 L96.2949756,0.0598 C90.7214634,0.0598 88.8139512,0.3289 87.0256585,1.3754 C84.9393171,2.5714 84.3432195,4.4551 84.3432195,9.7175 C84.3432195,15.6377 84.9095122,17.7307 86.8766341,18.9865 C88.421719,19.99114 90.1865493,20.2793282 95.3881977,20.3007758 L97.3907007,20.3007758 C100.56553,20.2938232 102.54874,20.2581294 103.626976,20.1526 Z M116.624195,20.1526 L118.531707,16.5945 L131.347805,16.5945 L133.314927,20.1526 L139.93161,20.1526 L129.052829,0.2093 L120.945902,0.2093 L109.769073,20.1526 L116.624195,20.1526 Z M129.231659,12.4384 L120.707463,12.4384 L124.939756,4.485 L129.231659,12.4384 Z M146.431366,20.1526 L146.431366,15.1294 L155.700683,15.1294 C158.412927,15.0696 159.009024,15.5181 159.038829,17.6709 L159.038829,20.1526 L165.178634,20.1526 L165.178634,17.0131 C165.238244,13.9932 164.493122,12.9467 162.019317,12.5281 C164.552732,11.96 165.446878,10.4949 165.446878,6.7873 C165.446878,4.0963 164.91039,2.392 163.748,1.4651 C162.615415,0.5083 161.065561,0.2093 157.548585,0.2093 L140.41078,0.2093 L140.41078,20.1526 L146.431366,20.1526 Z M155.879512,10.2557 L146.431366,10.2557 L146.431366,5.1129 L156.088146,5.1129 C157.906244,5.1129 158.412927,5.2026 158.86,5.681 C159.247463,6.0996 159.366683,6.6378 159.366683,7.9235 C159.366683,9.8969 158.80039,10.2557 155.879512,10.2557 Z M173.854146,20.1526 L173.705122,5.1428 L185.567463,20.1526 L195.283854,20.1526 L195.283854,0.2093 L189.561317,0.2093 L189.710341,15.3686 L177.669171,0.2093 L168.042195,0.2093 L168.042195,20.1526 L173.854146,20.1526 Z M203.333463,20.1526 L205.240976,16.5945 L218.057073,16.5945 L220.024195,20.1526 L226.640878,20.1526 L215.762098,0.2093 L207.655171,0.2093 L196.478341,20.1526 L203.333463,20.1526 Z M215.940927,12.4384 L207.416732,12.4384 L211.649024,4.485 L215.940927,12.4384 Z M246.612439,20.1526 C248.907415,20.1526 250.218829,19.9433 251.14278,19.4649 C252.722439,18.6277 253.437756,17.043 253.437756,14.5314 C253.437756,11.6311 252.54361,10.465 249.861171,9.9567 C251.738878,9.5979 252.633024,8.2524 252.633024,5.6511 C252.633024,3.1096 251.977317,1.7641 250.367854,0.9269 C249.324683,0.4186 248.072878,0.2093 245.777902,0.2093 L227.835366,0.2093 L227.835366,20.1526 L246.612439,20.1526 Z M244.261043,8.16040316 L233.736732,8.1627 L233.736732,4.6345 L243.751171,4.6345 C244.913561,4.6345 245.21161,4.6644 245.599073,4.784 C246.25478,5.0232 246.642244,5.6212 246.642244,6.4285 C246.642244,7.1162 246.344195,7.6544 245.867317,7.9235 C245.522905,8.08296667 245.154944,8.14793457 244.261043,8.16040316 L244.261043,8.16040316 Z M244.894128,15.7264432 L233.736732,15.7274 L233.736732,12.0796 L244.406878,12.0796 C245.748098,12.0796 245.986537,12.1095 246.344195,12.2291 C246.999902,12.4683 247.357561,13.0663 247.357561,13.9334 C247.357561,14.7706 246.999902,15.3686 246.403805,15.5779 C246.055088,15.68554 245.82708,15.720523 244.894128,15.7264432 Z M270.518244,20.1526 L270.518244,13.2457 L281.724878,0.2093 L274.154439,0.2093 L267.507951,8.4617 L260.801854,0.2093 L253.08239,0.2093 L264.438049,13.2457 L264.438049,20.1526 L270.518244,20.1526 Z" id="NO.9CARNABYCORE"></path>
                            <path d="M128.685842,25.3008719 C133.530131,25.3089885 135.145999,25.3761091 136.451317,25.599 C139.52122,26.1671 141.011463,27.7518 141.428732,30.9511 C141.547951,31.7584 141.607561,33.373 141.607561,35.7949 C141.607561,40.6088 141.100878,42.5523 139.402,43.9576 C138.209805,44.9742 136.540732,45.4526 133.649659,45.5722 C132.576683,45.632 129.924049,45.6619 127.986732,45.6619 L127.293183,45.6612198 C123.009392,45.6525563 120.773951,45.56024 119.641366,45.333 C117.435805,44.9443 116.154195,44.1071 115.409073,42.642 C114.634146,41.1769 114.455317,39.7118 114.455317,35.3464 L114.455317,35.3464 L114.455984,34.7808926 C114.463361,31.8973471 114.535966,31.0812529 114.872585,29.8149 C115.438878,27.692 116.601268,26.5558 118.836634,25.898 C120.505707,25.4196 122.323805,25.3 127.569463,25.3 Z M99.0737073,25.3598 L100.439121,25.3618113 C106.703167,25.3819528 108.21419,25.5633129 109.803463,26.3465 C111.412927,27.1538 112.158049,28.9179 112.158049,31.8481 L112.158049,31.8481 L112.158049,32.5059 L106.375902,32.5059 C106.256683,30.3232 105.80961,30.1438 100.563951,30.1438 C95.6163415,30.1438 94.7221951,30.2634 93.9770732,30.9212 C93.2617561,31.579 93.1127317,32.3863 93.1127317,35.6155 L93.1127317,35.6155 L93.1139413,36.0148148 C93.1426582,40.41971 93.7258606,40.7583 99.3717561,40.7583 L99.3717561,40.7583 L100.88709,40.7563145 C104.039014,40.7456859 104.632317,40.68355 105.362537,40.3696 C106.226878,40.0108 106.554732,39.3829 106.554732,37.9477 L106.554732,37.9477 L112.426293,37.9477 C112.396488,40.848 112.307073,41.8347 111.889805,42.7317 C111.114878,44.436 109.505415,45.2433 106.405707,45.4526 C105.327472,45.5581294 103.344262,45.5938232 100.169432,45.6007758 L100.169432,45.6007758 L98.1669294,45.6007758 C92.965281,45.5793282 91.2004507,45.29114 89.6553659,44.2865 C87.6882439,43.0307 87.1219512,40.9377 87.1219512,35.0175 L87.1228854,34.663904 C87.1498163,29.6698325 87.7654656,27.8442182 89.8043902,26.6754 C91.5926829,25.6289 93.5001951,25.3598 99.0737073,25.3598 L99.0737073,25.3598 Z M161.221463,25.5093 C164.738439,25.5093 166.288293,25.8083 167.420878,26.7651 C168.583268,27.692 169.119756,29.3963 169.119756,32.0873 C169.119756,35.7949 168.22561,37.26 165.692195,37.8281 C168.166,38.2467 168.911122,39.2932 168.851512,42.3131 L168.851512,42.3131 L168.851512,45.4526 L162.711707,45.4526 L162.711707,42.9709 C162.681902,40.8181 162.085805,40.3696 159.373561,40.4294 L159.373561,40.4294 L150.104244,40.4294 L150.104244,45.4526 L144.083659,45.4526 L144.083659,25.5093 Z M193.740878,25.5093 L193.740878,30.0242 L177.676049,30.0242 L177.676049,33.4627 L192.816927,33.4627 L192.816927,37.4095 L177.676049,37.4095 L177.676049,40.9377 L193.949512,40.9377 L193.949512,45.4526 L171.715073,45.4526 L171.715073,25.5093 L193.740878,25.5093 Z M128.684882,30.17398 L128.046341,30.1737 C123.605415,30.1737 122.383415,30.3232 121.608488,30.8913 C120.803756,31.5192 120.565317,32.5059 120.565317,35.3763 C120.565317,38.3065 120.803756,39.3829 121.548878,40.0108 C122.35361,40.6686 123.337171,40.7882 127.897317,40.7882 L127.897317,40.7882 L128.459998,40.7874313 C133.192119,40.7738447 134.211536,40.573363 134.871659,39.652 C135.437951,38.9344 135.586976,37.9178 135.586976,35.2567 C135.586976,30.3812412 135.502743,30.1815112 128.684882,30.17398 Z M159.761024,30.4129 L150.104244,30.4129 L150.104244,35.5557 L159.55239,35.5557 C162.473268,35.5557 163.039561,35.1969 163.039561,33.2235 C163.039561,31.9378 162.920341,31.3996 162.532878,30.981 C162.085805,30.5026 161.579122,30.4129 159.761024,30.4129 L159.761024,30.4129 Z" id="Combined-Shape"></path>
                        </g>
                    </g>
                </g>
            </g>
        </g>
    </g>
</svg>