<?xml version="1.0" encoding="UTF-8"?>
<svg width="137px" height="34px" viewBox="0 0 137 34" version="1.1" xmlns="http://www.w3.org/2000/svg" xmlns:xlink="http://www.w3.org/1999/xlink">
    <title>logo-no9carnaby-collection-tile</title>
    <g id="🛣-Carnaby-Design" stroke="none" stroke-width="1" fill="none" fill-rule="evenodd">
        <g id="1366-carnaby---nav-collections-1" transform="translate(-554.000000, -334.000000)" fill="#FFFFFF">
            <g id="collections" transform="translate(261.000000, 165.000000)">
                <g id="collection" transform="translate(252.000000, 20.000000)">
                    <g id="logo-no9carnaby-collection-tile" transform="translate(41.000000, 148.000000)">
                        <path d="M13.3546151,34.8533142 C15.5012611,34.7056945 16.6158658,34.136304 17.1525273,32.9342575 C17.4414989,32.3016014 17.5034213,31.6056797 17.5240622,29.5600917 L13.4578192,29.5600917 C13.4578192,30.5723415 13.2307701,31.0152007 12.6321862,31.2682631 C12.1264859,31.4896928 11.7156044,31.5335174 9.53279665,31.5410137 L8.48337992,31.5424141 C4.57341754,31.5424141 4.16953131,31.3036058 4.14964391,28.1968235 L4.14880624,27.915186 C4.14880624,25.6376241 4.25201037,25.0682336 4.74739022,24.6042858 C5.2634109,24.140338 5.88263571,24.0559839 9.309013,24.0559839 C12.9417986,24.0559839 13.251411,24.1825151 13.3339743,25.7219782 L17.3382947,25.7219782 L17.3382947,25.2580304 C17.3382947,23.1913539 16.822274,21.9471303 15.7076694,21.3777399 C14.6070472,20.8253563 13.5606153,20.6974426 9.22256416,20.6832368 L8.27697165,20.6818182 C4.41713699,20.6818182 3.09612406,20.871615 1.85767443,21.6097138 C0.412816541,22.4532552 5.40992538e-13,23.7818329 5.40992538e-13,27.4934152 C5.40992538e-13,31.6689453 0.392175714,33.1451428 1.7544703,34.0308613 C2.82449077,34.7394361 4.04669194,34.9426959 7.64899909,34.9578229 L9.03579617,34.9578229 C11.2344665,34.9529192 12.6079028,34.9277443 13.3546151,34.8533142 Z M22.3556034,34.8533142 L23.6766164,32.3437785 L32.552172,32.3437785 L33.9144666,34.8533142 L38.4967302,34.8533142 L30.9628283,20.7872609 L25.3485234,20.7872609 L17.6082132,34.8533142 L22.3556034,34.8533142 Z M31.0866733,29.412472 L25.1833968,29.412472 L28.1143942,23.8029215 L31.0866733,29.412472 Z M42.9980183,34.8533142 L42.9980183,31.3104402 L49.4173155,31.3104402 C51.2956307,31.2682631 51.7084473,31.5845912 51.7290881,33.1029657 L51.7290881,34.8533142 L55.9810985,34.8533142 L55.9810985,32.639018 C56.0223801,30.5090759 55.5063594,29.7709771 53.7931708,29.4757376 C55.5476411,29.0750554 56.1668659,28.0417172 56.1668659,25.4267387 C56.1668659,23.5287705 55.795331,22.326724 54.9903388,21.6729794 C54.2059873,20.9981462 53.1326643,20.7872609 50.6970467,20.7872609 L38.8285712,20.7872609 L38.8285712,34.8533142 L42.9980183,34.8533142 Z M49.5411604,27.8730089 L42.9980183,27.8730089 L42.9980183,24.2457807 L49.6856462,24.2457807 C50.9447367,24.2457807 51.2956307,24.3090463 51.6052431,24.6464629 C51.8735739,24.9417024 51.9561372,25.3212961 51.9561372,26.2281031 C51.9561372,27.6199464 51.5639615,27.8730089 49.5411604,27.8730089 Z M61.9891669,34.8533142 L61.8859628,24.2668693 L70.1010119,34.8533142 L76.8299215,34.8533142 L76.8299215,20.7872609 L72.8668827,20.7872609 L72.9700869,31.4791485 L64.6311928,20.7872609 L57.9642056,20.7872609 L57.9642056,34.8533142 L61.9891669,34.8533142 Z M82.4045326,34.8533142 L83.7255455,32.3437785 L92.6011012,32.3437785 L93.9633957,34.8533142 L98.5456593,34.8533142 L91.0117575,20.7872609 L85.3974525,20.7872609 L77.6571424,34.8533142 L82.4045326,34.8533142 Z M91.1356024,29.412472 L85.2323259,29.412472 L88.1633233,23.8029215 L91.1356024,29.412472 Z M112.376601,34.8533142 C113.965945,34.8533142 114.874141,34.7056945 115.514007,34.3682779 C116.607971,33.7777989 117.103351,32.6601065 117.103351,30.8886695 C117.103351,28.8430815 116.484126,28.0206286 114.626451,27.6621235 C115.926823,27.4090611 116.546048,26.460077 116.546048,24.6253744 C116.546048,22.8328488 116.09195,21.8838647 114.977345,21.2933857 C114.254916,20.9348806 113.388002,20.7872609 111.798658,20.7872609 L99.3728802,20.7872609 L99.3728802,34.8533142 L112.376601,34.8533142 Z M110.748184,26.3951914 L103.459764,26.3968114 L103.459764,23.9083642 L110.395082,23.9083642 C111.200074,23.9083642 111.406482,23.9294527 111.674813,24.0138068 C112.128911,24.1825151 112.397242,24.6042858 112.397242,25.1736763 C112.397242,25.6587126 112.190834,26.0383063 111.860581,26.2281031 C111.622064,26.3405753 111.367239,26.3863973 110.748184,26.3951914 L110.748184,26.3951914 Z M111.186616,31.7315361 L103.459764,31.7322109 L103.459764,29.1594096 L110.84918,29.1594096 C111.778017,29.1594096 111.943144,29.1804981 112.190834,29.2648522 C112.644932,29.4335605 112.892622,29.8553312 112.892622,30.4668988 C112.892622,31.0573778 112.644932,31.4791485 112.232115,31.6267682 C111.990618,31.702687 111.832715,31.7273606 111.186616,31.7315361 Z M128.932132,34.8533142 L128.932132,29.9818625 L136.693083,20.7872609 L131.450313,20.7872609 L126.847409,26.6076967 L122.203223,20.7872609 L116.857248,20.7872609 L124.721404,29.9818625 L124.721404,34.8533142 L128.932132,34.8533142 Z" id="NO.9CARNABYCORE" fill-rule="nonzero"></path>
                        <path d="M86.3624589,1.65455962 C91.0427315,1.66493851 92.3064756,1.88974907 93.3737574,2.87730977 C94.2819538,3.7208512 94.5090029,4.81745506 94.5090029,8.318152 C94.5090029,12.3882394 94.2819538,13.632463 93.3943982,14.5603586 C92.6513285,15.3406344 91.7844137,15.6358739 89.844176,15.7624051 C89.369437,15.8045822 86.2526721,15.8889363 85.6334473,15.8889363 L85.6334473,15.8889363 L85.1286707,15.887367 C82.3318068,15.8695401 80.6119927,15.6991395 79.812734,15.3406344 C78.6981294,14.8555981 78.2027495,13.9698796 78.2027495,12.4725935 L78.2027495,12.4725935 L78.2032309,12.3550388 C78.2044345,12.2246957 78.2086469,12.0267216 78.2233904,11.861026 L78.2233904,11.861026 L82.083225,11.861026 C82.1795489,12.7861098 82.3118336,12.8845229 85.4504503,12.8935332 L85.4504503,12.8935332 L86.5417183,12.8938599 C89.1700911,12.8862717 89.7005876,12.7889216 90.1744292,12.3249738 C90.4221191,12.0719114 90.5046824,11.7344948 90.5253233,10.5957139 C90.5459641,10.1528546 90.5459641,10.1528546 90.5666049,9.16169343 C89.844176,10.36374 89.245592,10.5113597 84.8697367,10.5113597 L84.8697367,10.5113597 L84.4315667,10.5100991 C81.8900818,10.4947693 80.8969206,10.3359919 79.9778607,9.83652658 C78.8838968,9.24604758 78.4297986,8.21270932 78.4297986,6.29365257 C78.4297986,4.0160907 78.9251785,2.85622124 80.1017056,2.30791931 C81.1131061,1.80179445 82.557964,1.6541747 86.0049822,1.6541747 Z M47.9083664,1.73852884 L56.2472606,12.4304165 L56.1440564,1.73852884 L60.1070952,1.73852884 L60.1070952,15.8045822 L53.3781856,15.8045822 L45.1631364,5.21813724 L45.2663406,15.8045822 L41.2413793,15.8045822 L41.2413793,1.73852884 L47.9083664,1.73852884 Z M74.3762577,13.8255042 L74.3762577,15.7721383 L61.6742103,15.7721383 L61.6742103,13.8255042 L74.3762577,13.8255042 Z M68.5011989,1.59140286 C70.7341429,1.59561443 71.4843666,1.62796364 72.0911441,1.73383377 C73.5272702,2.00539065 74.2244188,2.76289142 74.4196204,4.29218544 C74.4753923,4.67808207 74.5032782,5.44987531 74.5032782,6.60756518 C74.5032782,8.90865244 74.2662477,9.83766283 73.4714983,10.5094088 C72.9137794,10.9953527 72.132973,11.2240322 70.7805047,11.281202 C70.2785577,11.309787 69.0376332,11.3240794 68.1313401,11.3240794 L68.1313401,11.3240794 L67.8068923,11.3237543 C65.8028986,11.319613 64.7571409,11.2754851 64.2273079,11.1668623 C63.195528,10.9810602 62.5959802,10.5808711 62.2474059,9.88054023 C61.8848886,9.18020932 61.8012308,8.47987842 61.8012308,6.39317816 L61.8012308,6.39317816 L61.801543,6.12286056 C61.804994,4.7445 61.8389588,4.35439972 61.9964324,3.74907168 C62.2613489,2.73430649 62.8051248,2.19119273 63.8508477,1.87675844 C64.6316541,1.64807896 65.4821754,1.59090909 67.9361384,1.59090909 Z M68.5593406,3.7034651 L67.9023726,3.70345909 C66.2175,3.71017324 65.7311733,3.79352415 65.417786,4.07588344 C65.0775526,4.40215028 64.9767427,4.91485531 64.9767427,6.40636085 C64.9767427,7.92893943 65.0775526,8.488254 65.3925835,8.81452084 C65.7328169,9.15632419 66.1486577,9.21847026 68.0766471,9.21847026 L68.3145437,9.21807085 C70.3152422,9.21101103 70.7462426,9.10683751 71.0253367,8.62808265 C71.2647602,8.25520626 71.3277664,7.72696472 71.3277664,6.34421479 C71.3277664,3.8554817 71.2933975,3.71147694 68.5593406,3.7034651 Z M86.2900115,4.54365153 L85.8280092,4.54353292 C83.9046705,4.54711175 83.4868013,4.59426806 83.0120622,4.79636653 C82.5786049,5.00725189 82.3515558,5.47119967 82.3515558,6.18820989 C82.3515558,6.79977743 82.5166824,7.24263668 82.8262948,7.4324335 C83.1895733,7.65512844 83.3610408,7.69818279 85.4646852,7.70530903 L85.4646852,7.70530903 L86.8224361,7.70617586 C88.9143832,7.70144251 89.5999262,7.65386312 90.0093026,7.47461057 C90.3601967,7.30590228 90.5872458,6.79977743 90.5872458,6.14603282 C90.5872458,5.21813724 90.2363517,4.79636653 89.3487961,4.64874678 C89.0804654,4.58548117 87.3466359,4.5433041 86.0875455,4.5433041 Z" id="Combined-Shape"></path>
                    </g>
                </g>
            </g>
        </g>
    </g>
</svg>