<?xml version="1.0" encoding="UTF-8"?>
<svg width="245px" height="37px" viewBox="0 0 245 37" version="1.1" xmlns="http://www.w3.org/2000/svg" xmlns:xlink="http://www.w3.org/1999/xlink">
    <title>logo/rs tongue text</title>
    <defs>
        <filter id="filter-1">
            <feColorMatrix in="SourceGraphic" type="matrix" values="0 0 0 0 1.000000 0 0 0 0 1.000000 0 0 0 0 1.000000 0 0 0 1.000000 0"></feColorMatrix>
        </filter>
        <filter id="filter-2">
            <feColorMatrix in="SourceGraphic" type="matrix" values="0 0 0 0 0.858824 0 0 0 0 0.000000 0 0 0 0 0.047059 0 0 0 1.000000 0"></feColorMatrix>
        </filter>
        <polygon id="path-3" points="5.52652906e-07 9.57614962e-05 32.0091647 9.57614962e-05 32.0091647 36.3483306 5.52652906e-07 36.3483306"></polygon>
    </defs>
    <g id="🛣-Carnaby-Design" stroke="none" stroke-width="1" fill="none" fill-rule="evenodd">
        <g id="1366-carnaby---home-stage-1" transform="translate(-993.000000, -1288.000000)">
            <g id="collections" transform="translate(44.000000, 828.000000)">
                <g id="collection" transform="translate(864.000000, 127.000000)">
                    <g id="collection-title-" transform="translate(55.000000, 259.000000)">
                        <g id="logo/rs-tongue-text" transform="translate(28.500000, 71.000000)" filter="url(#filter-1)">
                            <g id="Group" transform="translate(0.000000, 3.636364)">
                                <path d="M164.532086,29.0909091 C167.541429,29.0909091 169.142143,27.4545455 169.142143,24.3781818 L169.142143,16.8181818 C169.142143,16.1963636 168.854014,15.8363636 168.309771,15.6072727 L160.690371,13.0545455 L160.690371,8.53818182 C160.690371,7.68727273 161.170586,7.22909091 161.970943,7.22909091 L163.507629,7.22909091 C164.372014,7.22909091 164.7882,7.68727273 164.7882,8.53818182 L164.7882,11.0909091 C164.7882,11.4181818 164.980286,11.6145455 165.300429,11.6145455 L168.629914,11.6145455 C168.982071,11.6145455 169.142143,11.4181818 169.142143,11.0909091 L169.142143,7.62181818 C169.142143,4.54545455 167.541429,2.90909091 164.532086,2.90909091 L160.946486,2.90909091 C157.969157,2.90909091 156.336429,4.54545455 156.336429,7.62181818 L156.336429,15.3454545 C156.336429,15.9672727 156.624557,16.36 157.200814,16.5563636 L164.7882,19.1090909 L164.7882,23.4618182 C164.7882,24.3454545 164.34,24.7709091 163.507629,24.7709091 L161.970943,24.7709091 C161.170586,24.7709091 160.690371,24.3454545 160.690371,23.4618182 L160.690371,20.9418182 C160.690371,20.5818182 160.5303,20.4181818 160.178143,20.4181818 L156.848657,20.4181818 C156.528514,20.4181818 156.336429,20.5818182 156.336429,20.9418182 L156.336429,24.3781818 C156.336429,27.4545455 157.969157,29.0909091 160.946486,29.0909091 L164.532086,29.0909091 Z M179.1306,29.0909091 C179.482757,29.0909091 179.642829,28.9272727 179.642829,28.5672727 L179.642829,7.22909091 L183.356486,7.22909091 C183.708643,7.22909091 183.868714,7.03272727 183.868714,6.70545455 L183.868714,3.43272727 C183.868714,3.10545455 183.708643,2.90909091 183.356486,2.90909091 L171.575229,2.90909091 C171.255086,2.90909091 171.063,3.10545455 171.063,3.43272727 L171.063,6.70545455 C171.063,7.03272727 171.255086,7.22909091 171.575229,7.22909091 L175.288886,7.22909091 L175.288886,28.5672727 C175.288886,28.9272727 175.480971,29.0909091 175.801114,29.0909091 L179.1306,29.0909091 Z M193.985229,29.0909091 C196.994571,29.0909091 198.595286,27.4545455 198.595286,24.3781818 L198.595286,7.62181818 C198.595286,4.54545455 196.994571,2.90909091 193.985229,2.90909091 L190.399629,2.90909091 C187.390286,2.90909091 185.789571,4.54545455 185.789571,7.62181818 L185.789571,24.3781818 C185.789571,27.4545455 187.390286,29.0909091 190.399629,29.0909091 L193.985229,29.0909091 Z M193.184871,24.8690909 L191.328043,24.8690909 C190.495671,24.8690909 190.047471,24.4436364 190.047471,23.56 L190.047471,8.44 C190.047471,7.58909091 190.495671,7.13090909 191.328043,7.13090909 L193.184871,7.13090909 C194.017243,7.13090909 194.465443,7.58909091 194.465443,8.44 L194.465443,23.56 C194.465443,24.4436364 194.017243,24.8690909 193.184871,24.8690909 Z M205.638429,29.0909091 C205.990586,29.0909091 206.150657,28.8945455 206.150657,28.5672727 L206.150657,14.6909091 L206.310729,14.6909091 L211.208914,28.6654545 C211.304957,28.96 211.497043,29.0909091 211.785171,29.0909091 L214.954586,29.0909091 C215.274729,29.0909091 215.466814,28.8945455 215.466814,28.5672727 L215.466814,3.43272727 C215.466814,3.10545455 215.274729,2.90909091 214.954586,2.90909091 L211.6251,2.90909091 C211.272943,2.90909091 211.112871,3.10545455 211.112871,3.43272727 L211.112871,17.2436364 L210.920786,17.2436364 L206.054614,3.33454545 C205.958571,3.04 205.766486,2.90909091 205.478357,2.90909091 L202.308943,2.90909091 C201.9888,2.90909091 201.796714,3.10545455 201.796714,3.43272727 L201.796714,28.5672727 C201.796714,28.8945455 201.9888,29.0909091 202.308943,29.0909091 L205.638429,29.0909091 Z M230.929714,29.0909091 C231.313886,29.0909091 231.441943,28.8945455 231.441943,28.5672727 L231.441943,25.2945455 C231.441943,24.9345455 231.313886,24.7709091 230.929714,24.7709091 L222.926143,24.7709091 L222.926143,18.16 L229.040871,18.16 C229.361014,18.16 229.5531,17.9636364 229.5531,17.6036364 L229.5531,14.3636364 C229.5531,14.0036364 229.361014,13.8072727 229.040871,13.8072727 L222.926143,13.8072727 L222.926143,7.26181818 L230.929714,7.26181818 C231.313886,7.26181818 231.441943,7.03272727 231.441943,6.70545455 L231.441943,3.43272727 C231.441943,3.10545455 231.313886,2.90909091 230.929714,2.90909091 L219.148457,2.90909091 C218.860329,2.90909091 218.668243,3.10545455 218.668243,3.43272727 L218.668243,28.5672727 C218.668243,28.8945455 218.860329,29.0909091 219.148457,29.0909091 L230.929714,29.0909091 Z M241.8786,29.0909091 C244.887943,29.0909091 246.488657,27.4545455 246.488657,24.3781818 L246.488657,16.8181818 C246.488657,16.1963636 246.200529,15.8363636 245.656286,15.6072727 L238.036886,13.0545455 L238.036886,8.53818182 C238.036886,7.68727273 238.5171,7.22909091 239.317457,7.22909091 L240.854143,7.22909091 C241.718529,7.22909091 242.134714,7.68727273 242.134714,8.53818182 L242.134714,11.0909091 C242.134714,11.4181818 242.3268,11.6145455 242.646943,11.6145455 L245.976429,11.6145455 C246.328586,11.6145455 246.488657,11.4181818 246.488657,11.0909091 L246.488657,7.62181818 C246.488657,4.54545455 244.887943,2.90909091 241.8786,2.90909091 L238.293,2.90909091 C235.315671,2.90909091 233.682943,4.54545455 233.682943,7.62181818 L233.682943,15.3454545 C233.682943,15.9672727 233.971071,16.36 234.547329,16.5563636 L242.134714,19.1090909 L242.134714,23.4618182 C242.134714,24.3454545 241.686514,24.7709091 240.854143,24.7709091 L239.317457,24.7709091 C238.5171,24.7709091 238.036886,24.3454545 238.036886,23.4618182 L238.036886,20.9418182 C238.036886,20.5818182 237.876814,20.4181818 237.524657,20.4181818 L234.195171,20.4181818 C233.875029,20.4181818 233.682943,20.5818182 233.682943,20.9418182 L233.682943,24.3781818 C233.682943,27.4545455 235.315671,29.0909091 238.293,29.0909091 L241.8786,29.0909091 Z" id="STONES" fill="#FFFFFF" fill-rule="nonzero"></path>
                                <path d="M5.44242857,29.0909091 C5.76257143,29.0909091 5.95465714,28.8945455 5.95465714,28.5672727 L5.95465714,20.32 L8.16364286,20.32 L10.3086,28.6327273 C10.3726286,28.9272727 10.5327,29.0909091 10.8528429,29.0909091 L14.1823286,29.0909091 C14.5344857,29.0909091 14.7265714,28.8945455 14.6305286,28.5018182 L12.4215429,19.9272727 C13.9582286,19.24 14.7585857,17.8 14.7585857,15.6072727 L14.7585857,7.62181818 C14.7585857,4.54545455 13.1578714,2.90909091 10.1485286,2.90909091 L2.11294286,2.90909091 C1.7928,2.90909091 1.60071429,3.10545455 1.60071429,3.43272727 L1.60071429,28.5672727 C1.60071429,28.8945455 1.7928,29.0909091 2.11294286,29.0909091 L5.44242857,29.0909091 Z M9.12407143,16 L5.95465714,16 L5.95465714,7.22909091 L9.12407143,7.22909091 C9.95644286,7.22909091 10.4046429,7.68727273 10.4046429,8.53818182 L10.4046429,14.6909091 C10.4046429,15.5418182 9.95644286,16 9.12407143,16 Z M25.5153857,29.0909091 C28.5247286,29.0909091 30.1254429,27.4545455 30.1254429,24.3781818 L30.1254429,7.62181818 C30.1254429,4.54545455 28.5247286,2.90909091 25.5153857,2.90909091 L21.9297857,2.90909091 C18.9204429,2.90909091 17.3197286,4.54545455 17.3197286,7.62181818 L17.3197286,24.3781818 C17.3197286,27.4545455 18.9204429,29.0909091 21.9297857,29.0909091 L25.5153857,29.0909091 Z M24.7150286,24.8690909 L22.8582,24.8690909 C22.0258286,24.8690909 21.5776286,24.4436364 21.5776286,23.56 L21.5776286,8.44 C21.5776286,7.58909091 22.0258286,7.13090909 22.8582,7.13090909 L24.7150286,7.13090909 C25.5474,7.13090909 25.9956,7.58909091 25.9956,8.44 L25.9956,23.56 C25.9956,24.4436364 25.5474,24.8690909 24.7150286,24.8690909 Z M45.3002143,29.0909091 C45.6523714,29.0909091 45.8124429,28.9272727 45.8124429,28.5672727 L45.8124429,28.5672727 L45.8124429,25.2945455 C45.8124429,24.9672727 45.6523714,24.7709091 45.3002143,24.7709091 L45.3002143,24.7709091 L37.6808143,24.7709091 L37.6808143,3.43272727 C37.6808143,3.10545455 37.5207429,2.90909091 37.1685857,2.90909091 L37.1685857,2.90909091 L33.8391,2.90909091 C33.5189571,2.90909091 33.3268714,3.10545455 33.3268714,3.43272727 L33.3268714,3.43272727 L33.3268714,28.5672727 C33.3268714,28.9272727 33.5189571,29.0909091 33.8391,29.0909091 L33.8391,29.0909091 L45.3002143,29.0909091 Z M60.6670714,29.0909091 C61.0192286,29.0909091 61.1793,28.9272727 61.1793,28.5672727 L61.1793,28.5672727 L61.1793,25.2945455 C61.1793,24.9672727 61.0192286,24.7709091 60.6670714,24.7709091 L60.6670714,24.7709091 L53.0476714,24.7709091 L53.0476714,3.43272727 C53.0476714,3.10545455 52.8876,2.90909091 52.5354429,2.90909091 L52.5354429,2.90909091 L49.2059571,2.90909091 C48.8858143,2.90909091 48.6937286,3.10545455 48.6937286,3.43272727 L48.6937286,3.43272727 L48.6937286,28.5672727 C48.6937286,28.9272727 48.8858143,29.0909091 49.2059571,29.0909091 L49.2059571,29.0909091 L60.6670714,29.0909091 Z M67.5821571,29.0909091 C67.9023,29.0909091 68.0943857,28.8945455 68.0943857,28.5672727 L68.0943857,3.43272727 C68.0943857,3.10545455 67.9023,2.90909091 67.5821571,2.90909091 L64.2526714,2.90909091 C63.9005143,2.90909091 63.7404429,3.10545455 63.7404429,3.43272727 L63.7404429,28.5672727 C63.7404429,28.8945455 63.9005143,29.0909091 64.2526714,29.0909091 L67.5821571,29.0909091 Z M75.1375286,29.0909091 C75.4896857,29.0909091 75.6497571,28.8945455 75.6497571,28.5672727 L75.6497571,14.6909091 L75.8098286,14.6909091 L80.7080143,28.6654545 C80.8040571,28.96 80.9961429,29.0909091 81.2842714,29.0909091 L84.4536857,29.0909091 C84.7738286,29.0909091 84.9659143,28.8945455 84.9659143,28.5672727 L84.9659143,3.43272727 C84.9659143,3.10545455 84.7738286,2.90909091 84.4536857,2.90909091 L81.1242,2.90909091 C80.7720429,2.90909091 80.6119714,3.10545455 80.6119714,3.43272727 L80.6119714,17.2436364 L80.4198857,17.2436364 L75.5537143,3.33454545 C75.4576714,3.04 75.2655857,2.90909091 74.9774571,2.90909091 L71.8080429,2.90909091 C71.4879,2.90909091 71.2958143,3.10545455 71.2958143,3.43272727 L71.2958143,28.5672727 C71.2958143,28.8945455 71.4879,29.0909091 71.8080429,29.0909091 L75.1375286,29.0909091 Z M97.0032857,29.0909091 C99.9806143,29.0909091 101.613343,27.4545455 101.613343,24.3781818 L101.613343,15.28 C101.613343,14.92 101.421257,14.7563636 101.101114,14.7563636 L95.7227143,14.7563636 C95.3705571,14.7563636 95.2104857,14.92 95.2104857,15.28 L95.2104857,18.5527273 C95.2104857,18.88 95.3705571,19.0763636 95.7227143,19.0763636 L97.3874571,19.0763636 L97.3874571,23.4618182 C97.3874571,24.3454545 96.9392571,24.7709091 96.1068857,24.7709091 L93.8018571,24.7709091 C92.9694857,24.7709091 92.5212857,24.3454545 92.5212857,23.4618182 L92.5212857,8.53818182 C92.5212857,7.68727273 92.9374714,7.22909091 93.8018571,7.22909091 L96.1068857,7.22909091 C96.9392571,7.22909091 97.3874571,7.68727273 97.3874571,8.53818182 L97.3874571,11.0254545 C97.3874571,11.3527273 97.5475286,11.5490909 97.8996857,11.5490909 L101.101114,11.5490909 C101.421257,11.5490909 101.613343,11.3527273 101.613343,11.0254545 L101.613343,7.62181818 C101.613343,4.54545455 99.9806143,2.90909091 97.0032857,2.90909091 L92.7774,2.90909091 C89.7680571,2.90909091 88.1673429,4.54545455 88.1673429,7.62181818 L88.1673429,24.3781818 C88.1673429,27.4545455 89.7680571,29.0909091 92.7774,29.0909091 L97.0032857,29.0909091 Z" id="ROLLING" fill="#FFFFFF" fill-rule="nonzero"></path>
                                <g transform="translate(113.828571, 0.000000)" id="logo/tongue/stamp" filter="url(#filter-2)">
                                    <g id="Group-3">
                                        <mask id="mask-4" fill="white">
                                            <use xlink:href="#path-3"></use>
                                        </mask>
                                        <g id="Clip-2"></g>
                                        <path d="M22.3666458,11.5588093 C21.6100476,11.215375 21.1285761,9.97916437 21.1285761,9.97916437 C21.1285761,9.97916437 20.2273003,11.5038659 18.3080071,11.6962137 C16.3130939,11.902213 15.6252161,10.1165381 15.6252161,10.1165381 C15.4691925,10.2722161 14.9547867,11.3528099 12.8736741,11.3528099 C10.4660097,11.3528099 10.4660097,9.29229568 10.4660097,9.29229568 C10.4660097,9.29229568 9.43410096,10.1165381 8.47109653,9.77301194 C7.5080001,9.4296082 7.5080001,8.53677074 7.5080001,8.53677074 C7.5080001,8.53677074 9.22778667,7.02572084 10.9475426,7.09443832 C12.6673292,7.16312519 13.0112374,7.91858892 13.8367092,8.19333639 C14.6621503,8.46802265 15.6940591,8.67414448 17.20747,7.98733701 C18.7208197,7.30043771 20.6468285,6.65483012 22.2291438,7.98733701 C24.01762,9.49832568 24.5542273,11.2566361 24.5542273,11.2566361 C24.5542273,11.2566361 23.1232746,11.902213 22.3666458,11.5588093 M21.678676,15.4050903 C21.3347984,16.0918978 20.7031295,16.3444842 20.1655103,17.0191093 C18.8503181,18.6689103 18.4826138,19.8731344 17.6890336,21.8269146 C16.7298316,24.1881941 16.7258758,25.8449434 15.900404,28.1114876 C15.4601463,29.3271289 15.3501202,30.1032537 14.1806788,30.9961524 C13.5821895,31.4494735 12.5434425,31.284521 12.2545473,30.5840006 C11.7730144,29.4164157 12.8186304,28.0771442 13.3551457,27.0811846 C14.6621503,24.6773278 14.8326172,23.2989379 15.9691857,20.9683594 C16.7941362,19.2768381 16.8222253,18.6469942 18.2392255,16.710049 C18.995885,15.6798378 19.6699942,15.1921732 20.4405143,14.7869391 C21.4723923,14.2374441 22.1190564,14.5259657 21.678676,15.4050903 M10.4660097,14.9929997 C9.87438938,15.7553811 9.08562362,16.3145791 8.36784739,17.2938261 C7.35807879,18.6716651 6.9520432,19.5809703 6.33855872,21.1744506 C5.68379911,22.8754913 5.51314825,24.1621151 5.20358483,25.7076309 C5.02468507,26.6141812 4.90852596,27.7109672 3.99970663,27.6994275 C3.09781759,27.6878574 2.83026525,26.6003765 2.83026525,25.7076309 C2.83026525,24.4713284 3.41127547,22.2858066 4.41248852,20.3502388 C5.36046709,18.5176094 6.11930379,17.5507897 7.64559406,16.1605846 C8.39480195,15.4782155 9.20031081,14.9174564 9.70925823,14.5808785 C10.3284464,14.1688491 10.9475426,14.3749097 10.4660097,14.9929997 M10.8787609,2.42394552 C11.0851059,1.97751148 11.6079139,1.47616468 12.2545473,1.15336088 C13.1488314,0.706926844 13.8436088,0.651952862 14.5590239,1.0846434 C15.3501202,1.56542088 15.7078277,2.16300275 15.453308,2.93912764 C15.2469017,3.55721763 14.3869931,4.05862565 13.6991459,3.66027854 C13.2864253,3.4198745 13.4239273,3.1108142 12.4608922,3.07644016 C11.9794207,3.06272727 11.1539182,3.66027854 10.9475426,3.45421794 C10.6242106,3.13138353 10.6861233,2.84292317 10.8787609,2.42394552 M19.4775712,2.28657178 C19.6837934,1.84016835 19.9314749,1.75085093 20.5781082,1.42807775 C21.4723923,0.981613101 22.5662138,0.85795225 23.2953667,1.25632997 C23.9144322,1.59979492 24.3409827,2.16988981 24.0864017,2.93912764 C23.9144322,3.45421794 23.5360872,3.79762167 22.8482093,3.76327824 C22.4697416,3.74953474 22.3116327,3.45421794 21.9539252,3.17947046 C21.6444231,2.93912764 21.2592091,3.01464034 20.9220778,3.1108142 C20.564401,3.2138139 20.3029816,3.35121824 19.9245446,3.24812672 C19.4980861,3.13823998 19.2849028,2.70554943 19.4775712,2.28657178 M31.5157705,10.9406887 C29.6996958,9.69064279 28.6265426,9.25792164 27.4571625,6.85403428 C26.3701487,4.61497704 25.6685636,1.99125497 24.9119348,1.05033058 C23.7837072,-0.357658402 21.2797853,-0.158546067 19.8077415,0.535179063 C18.5007368,1.15336088 18.2392255,1.46239057 16.7258758,2.83603612 C16.3956749,1.33762779 15.714666,0.157462504 13.9742418,0.0200581573 C12.5984862,-0.0829721457 11.6629883,0.315405571 10.3972587,1.05033058 C8.80126685,1.97751148 7.52863766,3.70833486 6.61377732,5.51470156 C5.75383803,7.21806856 5.32296377,8.08611264 4.02040552,9.32654729 C3.08920071,10.2133854 2.21806869,10.8994276 1.31691562,11.215375 C0.353880517,11.5588093 0.26443064,12.2663085 1.07616451,12.8638292 C2.93351438,14.2374441 3.13985933,15.748494 3.48379825,17.1221396 C2.31435687,19.182562 1.2343347,20.7760422 0.629007118,22.8915305 C-0.0863772414,25.4053352 -0.210263941,26.7858984 0.353880517,29.6225375 C0.835382734,32.0263942 2.23873692,33.5580441 3.64199911,34.6500551 C6.15285133,36.6075696 9.84688286,36.8341996 12.7360188,35.5292103 C14.7309627,34.6295776 15.6252161,33.400101 16.9321288,31.7515549 C17.4000157,31.1540343 17.7370244,30.7694919 18.4457237,30.4947138 C21.2659554,29.3957851 22.5730521,27.4933976 24.01762,24.4025803 C25.1802231,21.9094062 25.5207889,20.3036823 26.9756297,17.9463514 C28.456965,15.5460759 30.2775782,13.5506673 31.5157705,12.3143649 C31.8872467,11.9434435 32.4099627,11.5588093 31.5157705,10.9406887" id="Fill-1" fill="#DB000C" mask="url(#mask-4)"></path>
                                    </g>
                                </g>
                            </g>
                        </g>
                    </g>
                </g>
            </g>
        </g>
    </g>
</svg>