<?xml version="1.0" encoding="UTF-8"?>
<svg width="303px" height="44px" viewBox="0 0 303 44" version="1.1" xmlns="http://www.w3.org/2000/svg" xmlns:xlink="http://www.w3.org/1999/xlink">
    <title>logo/rs tongue text</title>
    <defs>
        <filter id="filter-1">
            <feColorMatrix in="SourceGraphic" type="matrix" values="0 0 0 0 0.858824 0 0 0 0 0.000000 0 0 0 0 0.047059 0 0 0 1.000000 0"></feColorMatrix>
        </filter>
        <polygon id="path-2" points="6.81383302e-07 0.000114913795 39.4651147 0.000114913795 39.4651147 43.6179967 6.81383302e-07 43.6179967"></polygon>
    </defs>
    <g id="🛣-Carnaby-Design" stroke="none" stroke-width="1" fill="none" fill-rule="evenodd">
        <g id="1366-carnaby---collection-fold" transform="translate(-152.000000, -462.000000)">
            <g id="collection-title-" transform="translate(151.000000, 372.000000)">
                <g id="Group" transform="translate(0.000000, 86.000000)">
                    <g id="Group" transform="translate(0.000000, 4.363636)">
                        <path d="M202.856829,34.9090909 C206.567143,34.9090909 208.540714,32.9454545 208.540714,29.2538182 L208.540714,20.1818182 C208.540714,19.4356364 208.185471,19.0036364 207.514457,18.7287273 L198.120257,15.6654545 L198.120257,10.2458182 C198.120257,9.22472727 198.712329,8.67490909 199.699114,8.67490909 L201.593743,8.67490909 C202.659471,8.67490909 203.1726,9.22472727 203.1726,10.2458182 L203.1726,13.3090909 C203.1726,13.7018182 203.409429,13.9374545 203.804143,13.9374545 L207.909171,13.9374545 C208.343357,13.9374545 208.540714,13.7018182 208.540714,13.3090909 L208.540714,9.14618182 C208.540714,5.45454545 206.567143,3.49090909 202.856829,3.49090909 L198.436029,3.49090909 C194.765186,3.49090909 192.752143,5.45454545 192.752143,9.14618182 L192.752143,18.4145455 C192.752143,19.1607273 193.107386,19.632 193.817871,19.8676364 L203.1726,22.9309091 L203.1726,28.1541818 C203.1726,29.2145455 202.62,29.7250909 201.593743,29.7250909 L199.699114,29.7250909 C198.712329,29.7250909 198.120257,29.2145455 198.120257,28.1541818 L198.120257,25.1301818 C198.120257,24.6981818 197.9229,24.5018182 197.488714,24.5018182 L193.383686,24.5018182 C192.988971,24.5018182 192.752143,24.6981818 192.752143,25.1301818 L192.752143,29.2538182 C192.752143,32.9454545 194.765186,34.9090909 198.436029,34.9090909 L202.856829,34.9090909 Z M220.8558,34.9090909 C221.289986,34.9090909 221.487343,34.7127273 221.487343,34.2807273 L221.487343,8.67490909 L226.066029,8.67490909 C226.500214,8.67490909 226.697571,8.43927273 226.697571,8.04654545 L226.697571,4.11927273 C226.697571,3.72654545 226.500214,3.49090909 226.066029,3.49090909 L211.540543,3.49090909 C211.145829,3.49090909 210.909,3.72654545 210.909,4.11927273 L210.909,8.04654545 C210.909,8.43927273 211.145829,8.67490909 211.540543,8.67490909 L216.119229,8.67490909 L216.119229,34.2807273 C216.119229,34.7127273 216.356057,34.9090909 216.750771,34.9090909 L220.8558,34.9090909 Z M239.170543,34.9090909 C242.880857,34.9090909 244.854429,32.9454545 244.854429,29.2538182 L244.854429,9.14618182 C244.854429,5.45454545 242.880857,3.49090909 239.170543,3.49090909 L234.749743,3.49090909 C231.039429,3.49090909 229.065857,5.45454545 229.065857,9.14618182 L229.065857,29.2538182 C229.065857,32.9454545 231.039429,34.9090909 234.749743,34.9090909 L239.170543,34.9090909 Z M238.183757,29.8429091 L235.894414,29.8429091 C234.868157,29.8429091 234.315557,29.3323636 234.315557,28.272 L234.315557,10.128 C234.315557,9.10690909 234.868157,8.55709091 235.894414,8.55709091 L238.183757,8.55709091 C239.210014,8.55709091 239.762614,9.10690909 239.762614,10.128 L239.762614,28.272 C239.762614,29.3323636 239.210014,29.8429091 238.183757,29.8429091 Z M253.538143,34.9090909 C253.972329,34.9090909 254.169686,34.6734545 254.169686,34.2807273 L254.169686,17.6290909 L254.367043,17.6290909 L260.406171,34.3985455 C260.524586,34.752 260.761414,34.9090909 261.116657,34.9090909 L265.024329,34.9090909 C265.419043,34.9090909 265.655871,34.6734545 265.655871,34.2807273 L265.655871,4.11927273 C265.655871,3.72654545 265.419043,3.49090909 265.024329,3.49090909 L260.9193,3.49090909 C260.485114,3.49090909 260.287757,3.72654545 260.287757,4.11927273 L260.287757,20.6923636 L260.050929,20.6923636 L254.051271,4.00145455 C253.932857,3.648 253.696029,3.49090909 253.340786,3.49090909 L249.433114,3.49090909 C249.0384,3.49090909 248.801571,3.72654545 248.801571,4.11927273 L248.801571,34.2807273 C248.801571,34.6734545 249.0384,34.9090909 249.433114,34.9090909 L253.538143,34.9090909 Z M284.720571,34.9090909 C285.194229,34.9090909 285.352114,34.6734545 285.352114,34.2807273 L285.352114,30.3534545 C285.352114,29.9214545 285.194229,29.7250909 284.720571,29.7250909 L274.852714,29.7250909 L274.852714,21.792 L282.391757,21.792 C282.786471,21.792 283.0233,21.5563636 283.0233,21.1243636 L283.0233,17.2363636 C283.0233,16.8043636 282.786471,16.5687273 282.391757,16.5687273 L274.852714,16.5687273 L274.852714,8.71418182 L284.720571,8.71418182 C285.194229,8.71418182 285.352114,8.43927273 285.352114,8.04654545 L285.352114,4.11927273 C285.352114,3.72654545 285.194229,3.49090909 284.720571,3.49090909 L270.195086,3.49090909 C269.839843,3.49090909 269.603014,3.72654545 269.603014,4.11927273 L269.603014,34.2807273 C269.603014,34.6734545 269.839843,34.9090909 270.195086,34.9090909 L284.720571,34.9090909 Z M298.2198,34.9090909 C301.930114,34.9090909 303.903686,32.9454545 303.903686,29.2538182 L303.903686,20.1818182 C303.903686,19.4356364 303.548443,19.0036364 302.877429,18.7287273 L293.483229,15.6654545 L293.483229,10.2458182 C293.483229,9.22472727 294.0753,8.67490909 295.062086,8.67490909 L296.956714,8.67490909 C298.022443,8.67490909 298.535571,9.22472727 298.535571,10.2458182 L298.535571,13.3090909 C298.535571,13.7018182 298.7724,13.9374545 299.167114,13.9374545 L303.272143,13.9374545 C303.706329,13.9374545 303.903686,13.7018182 303.903686,13.3090909 L303.903686,9.14618182 C303.903686,5.45454545 301.930114,3.49090909 298.2198,3.49090909 L293.799,3.49090909 C290.128157,3.49090909 288.115114,5.45454545 288.115114,9.14618182 L288.115114,18.4145455 C288.115114,19.1607273 288.470357,19.632 289.180843,19.8676364 L298.535571,22.9309091 L298.535571,28.1541818 C298.535571,29.2145455 297.982971,29.7250909 296.956714,29.7250909 L295.062086,29.7250909 C294.0753,29.7250909 293.483229,29.2145455 293.483229,28.1541818 L293.483229,25.1301818 C293.483229,24.6981818 293.285871,24.5018182 292.851686,24.5018182 L288.746657,24.5018182 C288.351943,24.5018182 288.115114,24.6981818 288.115114,25.1301818 L288.115114,29.2538182 C288.115114,32.9454545 290.128157,34.9090909 293.799,34.9090909 L298.2198,34.9090909 Z" id="STONES" fill="#FFFFFF" fill-rule="nonzero"></path>
                        <path d="M6.71014286,34.9090909 C7.10485714,34.9090909 7.34168571,34.6734545 7.34168571,34.2807273 L7.34168571,24.384 L10.0652143,24.384 L12.7098,34.3592727 C12.7887429,34.7127273 12.9861,34.9090909 13.3808143,34.9090909 L17.4858429,34.9090909 C17.9200286,34.9090909 18.1568571,34.6734545 18.0384429,34.2021818 L15.3149143,23.9127273 C17.2095429,23.088 18.1963286,21.36 18.1963286,18.7287273 L18.1963286,9.14618182 C18.1963286,5.45454545 16.2227571,3.49090909 12.5124429,3.49090909 L2.60511429,3.49090909 C2.2104,3.49090909 1.97357143,3.72654545 1.97357143,4.11927273 L1.97357143,34.2807273 C1.97357143,34.6734545 2.2104,34.9090909 2.60511429,34.9090909 L6.71014286,34.9090909 Z M11.2493571,19.2 L7.34168571,19.2 L7.34168571,8.67490909 L11.2493571,8.67490909 C12.2756143,8.67490909 12.8282143,9.22472727 12.8282143,10.2458182 L12.8282143,17.6290909 C12.8282143,18.6501818 12.2756143,19.2 11.2493571,19.2 Z M31.4587286,34.9090909 C35.1690429,34.9090909 37.1426143,32.9454545 37.1426143,29.2538182 L37.1426143,9.14618182 C37.1426143,5.45454545 35.1690429,3.49090909 31.4587286,3.49090909 L27.0379286,3.49090909 C23.3276143,3.49090909 21.3540429,5.45454545 21.3540429,9.14618182 L21.3540429,29.2538182 C21.3540429,32.9454545 23.3276143,34.9090909 27.0379286,34.9090909 L31.4587286,34.9090909 Z M30.4719429,29.8429091 L28.1826,29.8429091 C27.1563429,29.8429091 26.6037429,29.3323636 26.6037429,28.272 L26.6037429,10.128 C26.6037429,9.10690909 27.1563429,8.55709091 28.1826,8.55709091 L30.4719429,8.55709091 C31.4982,8.55709091 32.0508,9.10690909 32.0508,10.128 L32.0508,28.272 C32.0508,29.3323636 31.4982,29.8429091 30.4719429,29.8429091 Z M55.8520714,34.9090909 C56.2862571,34.9090909 56.4836143,34.7127273 56.4836143,34.2807273 L56.4836143,34.2807273 L56.4836143,30.3534545 C56.4836143,29.9607273 56.2862571,29.7250909 55.8520714,29.7250909 L55.8520714,29.7250909 L46.4578714,29.7250909 L46.4578714,4.11927273 C46.4578714,3.72654545 46.2605143,3.49090909 45.8263286,3.49090909 L45.8263286,3.49090909 L41.7213,3.49090909 C41.3265857,3.49090909 41.0897571,3.72654545 41.0897571,4.11927273 L41.0897571,4.11927273 L41.0897571,34.2807273 C41.0897571,34.7127273 41.3265857,34.9090909 41.7213,34.9090909 L41.7213,34.9090909 L55.8520714,34.9090909 Z M74.7983571,34.9090909 C75.2325429,34.9090909 75.4299,34.7127273 75.4299,34.2807273 L75.4299,34.2807273 L75.4299,30.3534545 C75.4299,29.9607273 75.2325429,29.7250909 74.7983571,29.7250909 L74.7983571,29.7250909 L65.4041571,29.7250909 L65.4041571,4.11927273 C65.4041571,3.72654545 65.2068,3.49090909 64.7726143,3.49090909 L64.7726143,3.49090909 L60.6675857,3.49090909 C60.2728714,3.49090909 60.0360429,3.72654545 60.0360429,4.11927273 L60.0360429,4.11927273 L60.0360429,34.2807273 C60.0360429,34.7127273 60.2728714,34.9090909 60.6675857,34.9090909 L60.6675857,34.9090909 L74.7983571,34.9090909 Z M83.3241857,34.9090909 C83.7189,34.9090909 83.9557286,34.6734545 83.9557286,34.2807273 L83.9557286,4.11927273 C83.9557286,3.72654545 83.7189,3.49090909 83.3241857,3.49090909 L79.2191571,3.49090909 C78.7849714,3.49090909 78.5876143,3.72654545 78.5876143,4.11927273 L78.5876143,34.2807273 C78.5876143,34.6734545 78.7849714,34.9090909 79.2191571,34.9090909 L83.3241857,34.9090909 Z M92.6394429,34.9090909 C93.0736286,34.9090909 93.2709857,34.6734545 93.2709857,34.2807273 L93.2709857,17.6290909 L93.4683429,17.6290909 L99.5074714,34.3985455 C99.6258857,34.752 99.8627143,34.9090909 100.217957,34.9090909 L104.125629,34.9090909 C104.520343,34.9090909 104.757171,34.6734545 104.757171,34.2807273 L104.757171,4.11927273 C104.757171,3.72654545 104.520343,3.49090909 104.125629,3.49090909 L100.0206,3.49090909 C99.5864143,3.49090909 99.3890571,3.72654545 99.3890571,4.11927273 L99.3890571,20.6923636 L99.1522286,20.6923636 L93.1525714,4.00145455 C93.0341571,3.648 92.7973286,3.49090909 92.4420857,3.49090909 L88.5344143,3.49090909 C88.1397,3.49090909 87.9028714,3.72654545 87.9028714,4.11927273 L87.9028714,34.2807273 C87.9028714,34.6734545 88.1397,34.9090909 88.5344143,34.9090909 L92.6394429,34.9090909 Z M119.598429,34.9090909 C123.269271,34.9090909 125.282314,32.9454545 125.282314,29.2538182 L125.282314,18.336 C125.282314,17.904 125.045486,17.7076364 124.650771,17.7076364 L118.019571,17.7076364 C117.585386,17.7076364 117.388029,17.904 117.388029,18.336 L117.388029,22.2632727 C117.388029,22.656 117.585386,22.8916364 118.019571,22.8916364 L120.072086,22.8916364 L120.072086,28.1541818 C120.072086,29.2145455 119.519486,29.7250909 118.493229,29.7250909 L115.651286,29.7250909 C114.625029,29.7250909 114.072429,29.2145455 114.072429,28.1541818 L114.072429,10.2458182 C114.072429,9.22472727 114.585557,8.67490909 115.651286,8.67490909 L118.493229,8.67490909 C119.519486,8.67490909 120.072086,9.22472727 120.072086,10.2458182 L120.072086,13.2305455 C120.072086,13.6232727 120.269443,13.8589091 120.703629,13.8589091 L124.650771,13.8589091 C125.045486,13.8589091 125.282314,13.6232727 125.282314,13.2305455 L125.282314,9.14618182 C125.282314,5.45454545 123.269271,3.49090909 119.598429,3.49090909 L114.3882,3.49090909 C110.677886,3.49090909 108.704314,5.45454545 108.704314,9.14618182 L108.704314,29.2538182 C108.704314,32.9454545 110.677886,34.9090909 114.3882,34.9090909 L119.598429,34.9090909 Z" id="ROLLING" fill="#FFFFFF" fill-rule="nonzero"></path>
                        <g transform="translate(140.342857, 0.000000)" id="logo/tongue/stamp" filter="url(#filter-1)">
                            <g id="Group-3">
                                <mask id="mask-3" fill="white">
                                    <use xlink:href="#path-2"></use>
                                </mask>
                                <g id="Clip-2"></g>
                                <path d="M27.5765472,13.8705712 C26.6437133,13.45845 26.0500918,11.9749972 26.0500918,11.9749972 C26.0500918,11.9749972 24.9388803,13.8046391 22.5725228,14.0354564 C20.1129311,14.2826556 19.2648247,12.1398457 19.2648247,12.1398457 C19.0724582,12.3266593 18.438231,13.6233719 15.8723613,13.6233719 C12.9038754,13.6233719 12.9038754,11.1507548 12.9038754,11.1507548 C12.9038754,11.1507548 11.6316024,12.1398457 10.4442837,11.7276143 C9.25685153,11.3155298 9.25685153,10.2441249 9.25685153,10.2441249 C9.25685153,10.2441249 11.377231,8.43086501 13.4975726,8.51332599 C15.617952,8.59575023 16.0419674,9.5023067 17.0597178,9.83200367 C18.0774303,10.1616272 19.3497034,10.4089734 21.2156358,9.58480441 C23.0814925,8.76052525 25.45613,7.98579614 27.4070167,9.58480441 C29.6120858,11.3979908 30.2736859,13.5079633 30.2736859,13.5079633 C30.2736859,13.5079633 28.5094189,14.2826556 27.5765472,13.8705712 M26.7283274,18.4861084 C26.3043498,19.3102773 25.5255452,19.6133811 24.8626975,20.4229311 C23.2411552,22.4026924 22.7878009,23.8477612 21.8093707,26.1922975 C20.6267402,29.0258329 20.621863,31.013932 19.6041126,33.7337851 C19.0613049,35.1925546 18.9256502,36.1239045 17.4838088,37.1953829 C16.7459124,37.7393682 15.4652082,37.5414252 15.1090201,36.7008007 C14.515323,35.2996988 15.8044961,33.692573 16.4659828,32.4974215 C18.0774303,29.6127934 18.2876044,27.9587254 19.6889157,25.1620312 C20.7060233,23.1322057 20.7406553,22.376393 22.4877198,20.0520588 C23.4206292,18.8158053 24.2517599,18.2306079 25.2017585,17.7443269 C26.4739938,17.084933 27.2712864,17.4311589 26.7283274,18.4861084 M12.9038754,17.9915996 C12.174448,18.9064573 11.2019536,19.5774949 10.3169845,20.7525914 C9.07200879,22.4059982 8.57139463,23.4971644 7.81501015,25.4093407 C7.00773626,27.4505895 6.79733539,28.9945381 6.41566483,30.849157 C6.19509365,31.9370174 6.05187739,33.2531607 4.9313652,33.239313 C3.81939759,33.2254288 3.48952382,31.9204518 3.48952382,30.849157 C3.48952382,29.3655941 4.20586975,26.7429679 5.44029709,24.4202865 C6.60908995,22.2211313 7.54468379,21.0609477 9.42649549,19.3927016 C10.3502177,18.5738586 11.3433551,17.9009477 11.9708525,17.4970542 C12.7342693,17.0026189 13.4975726,17.2498916 12.9038754,17.9915996 M13.4127695,2.90873462 C13.6671787,2.37301377 14.3117653,1.77139761 15.1090201,1.38403306 C16.2116114,0.848312213 17.0682246,0.782343434 17.9502824,1.30157208 C18.9256502,1.87850505 19.3666791,2.59560331 19.0528737,3.52695317 C18.7983888,4.26866116 17.7381802,4.87035078 16.8901116,4.39233425 C16.3812553,4.1038494 16.5507859,3.73297704 15.3634294,3.69172819 C14.7698078,3.67527273 13.7520196,4.39233425 13.4975726,4.14506152 C13.0989263,3.75766024 13.1752604,3.41150781 13.4127695,2.90873462 M24.0145154,2.74388613 C24.2687734,2.20820202 24.5741477,2.10102112 25.3714025,1.7136933 C26.4739938,1.17793572 27.8226009,1.0295427 28.7215967,1.50759596 C29.4848622,1.9197539 30.0107699,2.60386777 29.6968888,3.52695317 C29.4848622,4.14506152 29.0183886,4.55714601 28.1702822,4.51593388 C27.7036573,4.49944169 27.5087199,4.14506152 27.0676909,3.81536455 C26.686096,3.52695317 26.2111534,3.61756841 25.7954935,3.73297704 C25.3545024,3.85657668 25.0321902,4.02146189 24.5656031,3.89775207 C24.0398089,3.76588797 23.7769685,3.24665932 24.0145154,2.74388613 M38.8567934,13.1288264 C36.6176972,11.6287713 35.2945726,11.109506 33.8528068,8.22484114 C32.512593,5.53797245 31.6475865,2.38950597 30.7147148,1.26039669 C29.3236872,-0.429190083 26.2365225,-0.19025528 24.4215929,0.642214876 C22.8101454,1.38403306 22.4877198,1.75486869 20.621863,3.40324334 C20.2147477,1.60515335 19.3751103,0.188955005 17.2292861,0.0240697888 C15.5330733,-0.0995665748 14.3796683,0.378486685 12.8191101,1.26039669 C10.8513611,2.37301377 9.28229623,4.45000184 8.15433589,6.61764187 C7.09408946,8.66168228 6.56285091,9.70333517 4.95688552,11.1918567 C3.80877357,12.2560624 2.73472727,13.0793131 1.62366704,13.45845 C0.436310517,13.8705712 0.326024926,14.7195702 1.32683736,15.436595 C3.61682296,17.084933 3.87123219,18.8981928 4.29528539,20.5465675 C2.85344401,23.0190744 1.52185042,24.9312507 0.775522833,27.4698365 C-0.106497241,30.4864022 -0.259241084,32.1430781 0.436310517,35.547045 C1.02996988,38.4316731 2.76020978,40.2696529 4.49033626,41.5800661 C7.58604562,43.9290836 12.1405343,44.2010395 15.7026417,42.6350523 C18.1622712,41.5554931 19.2648247,40.0801212 20.8761588,38.1018659 C21.4530315,37.3848411 21.8685401,36.9233903 22.742318,36.5936566 C26.2194711,35.2749421 27.8310321,32.9920771 29.6120858,29.2830964 C31.045496,26.2912874 31.4653903,24.3644187 33.2591097,21.5356217 C35.085495,18.6552911 37.3301867,16.2608007 38.8567934,14.7772378 C39.3147981,14.3321322 39.9592712,13.8705712 38.8567934,13.1288264" id="Fill-1" fill="#DB000C" mask="url(#mask-3)"></path>
                            </g>
                        </g>
                    </g>
                </g>
            </g>
        </g>
    </g>
</svg>