<?xml version="1.0" encoding="UTF-8"?>
<svg width="158px" height="9px" viewBox="0 0 158 9" version="1.1" xmlns="http://www.w3.org/2000/svg" xmlns:xlink="http://www.w3.org/1999/xlink">
    <title>logo-autumn-horizontal</title>
    <g id="🛣-Carnaby-Design" stroke="none" stroke-width="1" fill="none" fill-rule="evenodd">
        <g id="1366-carnaby---home-stage-1-copy" transform="translate(-604.000000, -1328.000000)" fill="#FFFFFF">
            <g id="Combined-Shape" transform="translate(598.000000, 1319.000000)">
                <path d="M12.7546041,9 L18,18 L16.8252953,18 L15.6510056,15.9763897 L8.36289751,15.9763897 L7.18819278,18 L6,18 L11.2460184,9 L12.7546041,9 Z M21.0181559,9 L21.0186561,15.300057 C21.0204899,15.7304253 21.0290478,15.8158575 21.0689846,15.9836928 C21.2667137,16.8903387 21.7746442,17.0558179 24.7171413,17.0650144 L25.0001978,17.0654365 C27.6972825,17.0654365 28.384162,16.958736 28.7273051,16.4648829 C28.9565286,16.1310806 28.9822396,15.9836928 28.9822396,14.8622996 L28.9822396,9 L30,9 L30,15.0493369 C30,16.0374582 29.9744868,16.3042094 29.8726316,16.6247261 C29.4782643,17.746742 28.6007278,18 25.0001978,18 C22.0612318,18 21.0946956,17.8401568 20.5345912,17.2792527 C20.2298169,16.9718141 20.0765397,16.611648 20.025711,16.0908084 C20.0077133,15.9411371 20.002314,15.7916692 20.0006942,15.5047697 L20,9 L21.0181559,9 Z M41,9 L41,9.90427912 L36.5350652,9.90427912 L36.5350652,18 L35.4780778,18 L35.4780778,9.90427912 L31,9.90427912 L31,9 L41,9 Z M44.0179582,9 L44.0179582,14.8622996 C44.0179582,15.689955 44.0179582,15.7700842 44.0687868,15.9836928 C44.2665159,16.8903387 44.7744464,17.0558179 47.7169435,17.0650144 L48,17.0654365 C50.6970848,17.0654365 51.384162,16.958736 51.7271073,16.4648829 C51.9563308,16.1310806 51.9820418,15.9836928 51.9820418,14.8622996 L51.9820418,9 L53,9 L53,15.0493369 C53,16.0374582 52.974289,16.3042094 52.8724338,16.6247261 C52.4780665,17.746742 51.60053,18 48,18 C45.061034,18 44.0944978,17.8401568 43.5345912,17.2792527 C43.2296191,16.9718141 43.0765397,16.611648 43.0255132,16.0908084 C43.007654,15.9411371 43.0022962,15.7916692 43.0006889,15.5047697 L43,9 L44.0179582,9 Z M56.7054022,9 L62.0201409,16.745391 L67.3476218,9 L69,9 L69,18 L67.9428068,18 L67.9428068,9.89066542 L62.3898708,18 L61.6103347,18 L56.0578097,9.89066542 L56.0578097,18 L55,18 L55,9 L56.7054022,9 Z M73.6911318,9 L81.951323,17.2309987 L81.951323,9 L83,9 L83,18 L81.3088682,18 L73.0490846,9.76900128 L73.0490846,18 L72,18 L72,9 L73.6911318,9 Z M92,9 L87.174401,18 L86,18 L90.825599,9 L92,9 Z M96.1454233,9 L99.7506435,17.0147302 L103.408066,9 L104.630984,9 L108.288407,17.0147302 L111.906577,9 L113,9 L108.899866,18 L107.624746,18 L104.006778,10.0526046 L100.375052,18 L99.0999314,18 L95,9 L96.1454233,9 Z M115,9 L115,18 L114,18 L114,9 L115,9 Z M120.691132,9 L128.951323,17.2309987 L128.951323,9 L130,9 L130,18 L128.308868,18 L120.048881,9.76900128 L120.048881,18 L119,18 L119,9 L120.691132,9 Z M141,9 L141,9.90406936 L136.535065,9.90406936 L136.535065,18 L135.478078,18 L135.478078,9.90406936 L131,9.90406936 L131,9 L141,9 Z M151.933075,9 L151.933075,9.90409043 L144.076453,9.90409043 L144.076453,12.9131803 L151.650315,12.9131803 L151.650315,13.7633609 L144.076453,13.7633609 L144.076453,17.0961193 L152,17.0961193 L152,18 L143,18 L143,9 L151.933075,9 Z M161.10613,9 C162.410661,9 163.017836,9.17557394 163.470153,9.68845123 C163.819234,10.0930894 164,10.7815406 164,11.7529659 C164,13.2099988 163.677231,13.7228761 162.617739,13.9792099 C163.496264,14.1545741 163.831887,14.6269666 163.831887,15.6657266 L163.831887,18 L162.798707,18 L162.798707,16.2864235 C162.823234,14.7944645 162.477849,14.3876012 161.118857,14.3706323 L155.033984,14.370423 L155.033984,18 L154,18 L154,9 L161.10613,9 Z M12.0069515,9.75557627 L8.87025541,15.1259993 L15.1436477,15.1259993 L12.0069515,9.75557627 Z M160.641159,9.90409043 L155.033984,9.90409043 L155.033984,13.5206619 L160.705431,13.5206619 C162.475536,13.5206619 162.927854,13.156089 162.927854,11.6990561 C162.927854,10.2686633 162.46228,9.90409043 160.641159,9.90409043 Z"></path>
            </g>
        </g>
    </g>
</svg>