<?xml version="1.0" encoding="UTF-8"?>
<svg width="87px" height="38px" viewBox="0 0 87 38" version="1.1" xmlns="http://www.w3.org/2000/svg" xmlns:xlink="http://www.w3.org/1999/xlink">
    <title>logo-stonesred-collection-tile</title>
    <g id="🛣-Carnaby-Design" stroke="none" stroke-width="1" fill="none" fill-rule="evenodd">
        <g id="logo-stonesred-collection-tile" fill="#FFFFFF" fill-rule="nonzero">
            <path d="M21.064915,25.4556579 C24.8779825,25.4556579 26.7192096,28.6428759 26.5025238,32.0663835 L26.5025238,32.0663835 L18.4213487,32.0663835 C18.508023,34.0039585 19.4614404,34.886904 21.172656,34.886904 C22.4077648,34.886904 23.4045193,34.13317 23.5995365,33.4440418 L23.5995365,33.4440418 L26.3081085,33.4440418 C25.4407636,36.0713431 23.5995365,37.1911765 21.064915,37.1911765 C17.5329371,37.1911765 15.3450128,34.7792277 15.3450128,31.3341848 C15.3450128,27.9968182 17.6629485,25.4556579 21.064915,25.4556579 Z M38.9189189,21.5147059 L38.9189189,36.8896829 L35.994263,36.8896829 L35.994263,35.4683559 L35.9509259,35.4683559 C35.235261,36.6737321 33.9790855,37.1911765 32.5489594,37.1911765 C29.1692634,37.1911765 27.5230536,34.3054521 27.5230536,31.2265085 C27.5230536,28.233706 29.190932,25.4556579 32.4839537,25.4556579 C33.8057368,25.4556579 35.1052495,26.0155746 35.7992459,27.1138727 L35.7992459,27.1138727 L35.842583,27.1138727 L35.842583,21.5147059 L38.9189189,21.5147059 Z M9.2336918,21.515005 C12.0066677,21.515005 13.7618223,23.4316428 13.7618223,25.7574506 C13.7618223,27.565814 13.0250907,28.9225351 11.3138751,29.6116634 L11.3138751,29.6116634 L11.3138751,29.6541357 C12.9817536,30.0848408 13.4584623,31.6999851 13.5668052,33.2505236 C13.6318109,34.2190119 13.6101423,36.0285717 14.2168624,36.8893838 L14.2168624,36.8893838 L10.8154979,36.8893838 C10.5753378,36.3240833 10.489813,35.5831151 10.4258279,34.820129 L10.3731542,34.1643326 C10.3463506,33.8373219 10.3165187,33.5143305 10.2731816,33.2074531 C10.0354291,31.592907 9.4070404,30.8816453 7.6952229,30.8816453 L7.6952229,30.8816453 L4.2938584,30.8816453 L4.2938584,36.8893838 L0.8918919,36.8893838 L0.8918919,21.515005 L9.2336918,21.515005 Z M33.3073596,27.7599304 C31.292182,27.7599304 30.5993895,29.4821527 30.5993895,31.3120513 C30.5993895,33.0564072 31.4005249,34.886904 33.3073596,34.886904 C35.3442058,34.886904 35.9509259,33.1216111 35.9509259,31.2911143 C35.9509259,29.4821527 35.3008686,27.7599304 33.3073596,27.7599304 Z M20.9776388,27.7599304 C19.0280688,27.7599304 18.4646859,29.2673984 18.4213487,30.1282104 L18.4213487,30.1282104 L23.425586,30.1282104 C23.1444964,28.5776719 22.4727705,27.7599304 20.9776388,27.7599304 Z M8.0202516,24.1423063 L4.2938584,24.1423063 L4.2938584,28.4702947 L8.0202516,28.4702947 C9.5370519,28.4702947 10.3604578,27.824237 10.3604578,26.2736985 C10.3604578,24.788364 9.5370519,24.1423063 8.0202516,24.1423063 L8.0202516,24.1423063 Z" id="Combined-Shape"></path>
            <path d="M6.5978917,0.41200655 C9.8280656,0.41200655 12.7986451,1.82679792 12.7986451,5.41698217 L9.5028197,5.41698217 C9.3944044,3.54570897 8.0717376,3.06685651 6.4461102,3.06685651 C5.3619571,3.06685651 4.1043395,3.52394295 4.1043395,4.8292996 C4.1043395,6.02703537 4.8415637,6.17939752 8.7222295,7.18002988 C9.8497487,7.46298815 13.3190386,8.1812668 13.3190386,11.7067576 C13.3190386,14.5575018 11.0856832,16.6911765 6.8797715,16.6911765 C3.4538477,16.6911765 0.2453568,14.9934268 0.2887229,11.1626071 L3.5845484,11.1626071 C3.5845484,13.2303791 5.1884926,14.0357219 7.0098699,14.0357219 C8.2024383,14.0357219 10.0232132,13.6874656 10.0232132,12.098546 C10.0232132,10.4225624 7.7037278,10.1402087 5.4276086,9.5307602 C3.1286018,8.9213116 0.8097187,8.0289047 0.8097187,5.11225788 C0.8097187,1.93502341 3.8007767,0.41200655 6.5978917,0.41200655 Z M79.279455,0.41200655 C82.509629,0.41200655 85.479607,1.82679792 85.479607,5.41698217 L82.184383,5.41698217 C82.075968,3.54570897 80.753301,3.06685651 79.127674,3.06685651 C78.043521,3.06685651 76.785903,3.52394295 76.785903,4.8292996 C76.785903,6.02703537 77.523127,6.17939752 81.403793,7.18002988 C82.531312,7.46298815 86,8.1812668 86,11.7067576 C86,14.5575018 83.767247,16.6911765 79.561335,16.6911765 C76.135411,16.6911765 72.926921,14.9934268 72.970287,11.1626071 L76.26551,11.1626071 C76.26551,13.2303791 77.870056,14.0357219 79.690831,14.0357219 C80.8834,14.0357219 82.704175,13.6874656 82.704175,12.098546 C82.704175,10.4225624 80.385292,10.1402087 78.10857,9.5307602 C75.810165,8.9213116 73.49068,8.0289047 73.49068,5.11225788 C73.49068,1.93502341 76.48234,0.41200655 79.279455,0.41200655 Z M34.8715806,0.41176471 C39.662935,0.41176471 42.4817331,4.00315818 42.4817331,8.6163454 C42.4817331,13.1001458 39.662935,16.6909346 34.8715806,16.6909346 C30.0802262,16.6909346 27.2620305,13.1001458 27.2620305,8.6163454 C27.2620305,4.00315818 30.0802262,0.41176471 34.8715806,0.41176471 Z M26.4801754,0.7814243 L26.4801754,3.65453908 L21.8406024,3.65453908 L21.8406024,16.3205495 L18.436964,16.3205495 L18.436964,3.65453908 L13.797391,3.65453908 L13.797391,0.7814243 L26.4801754,0.7814243 Z M47.8604576,0.78148476 L54.321408,11.2061996 L54.364774,11.2061996 L54.364774,0.78148476 L57.551582,0.78148476 L57.551582,16.32061 L54.148546,16.32061 L47.7086761,5.91766112 L47.6659123,5.91766112 L47.6659123,16.32061 L44.4785022,16.32061 L44.4785022,0.78148476 L47.8604576,0.78148476 Z M71.797775,0.78148476 L71.797775,3.65459954 L63.623863,3.65459954 L63.623863,6.98419615 L71.1256,6.98419615 L71.1256,9.6390461 L63.623863,9.6390461 L63.623863,13.4480998 L71.97124,13.4480998 L71.97124,16.32061 L60.220225,16.32061 L60.220225,0.78148476 L71.797775,0.78148476 Z M34.8715806,3.28427487 C31.8148712,3.28427487 30.6662712,5.89559279 30.6662712,8.6163454 C30.6662712,11.2065019 31.8148712,13.8178198 34.8715806,13.8178198 C37.9282901,13.8178198 39.0774924,11.2065019 39.0774924,8.6163454 C39.0774924,5.89559279 37.9282901,3.28427487 34.8715806,3.28427487 Z" id="Combined-Shape"></path>
        </g>
    </g>
</svg>