<?xml version="1.0" encoding="UTF-8"?>
<svg width="264px" height="26px" viewBox="0 0 264 26" version="1.1" xmlns="http://www.w3.org/2000/svg" xmlns:xlink="http://www.w3.org/1999/xlink">
    <!-- Generator: Sketch 53.2 (72643) - https://sketchapp.com -->
    <title>logo/collection/fall 2020 horizontal</title>
    <desc>Created with Sketch.</desc>
    <defs>
        <polygon id="path-1" points="3.10728542e-07 5.26688229e-05 17.9971207 5.26688229e-05 17.9971207 19.9915818 3.10728542e-07 19.9915818"></polygon>
    </defs>
    <g id="logo/collection/fall-2020-horizontal" stroke="none" stroke-width="1" fill="none" fill-rule="evenodd">
        <rect id="Rectangle" fill="#FFFFFF" transform="translate(115.385954, 13.000000) rotate(-70.000000) translate(-115.385954, -13.000000) " x="102.385954" y="12" width="26" height="2"></rect>
        <g id="logo/rs-text" transform="translate(150.385954, 5.000000)" fill="#FFFFFF" fill-rule="nonzero">
            <path d="M2.55539255,14.5833333 C2.73372183,14.5833333 2.8407194,14.4770833 2.8407194,14.3 L2.8407194,9.8375 L4.07119143,9.8375 L5.26599762,14.3354167 C5.30166347,14.4947917 5.39082811,14.5833333 5.56915739,14.5833333 L7.42378191,14.5833333 C7.61994412,14.5833333 7.72694169,14.4770833 7.67344291,14.2645833 L6.44297087,9.625 C7.29895142,9.253125 7.74477462,8.47395833 7.74477462,7.2875 L7.74477462,2.96666667 C7.74477462,1.30208333 6.85312821,0.416666667 5.17683297,0.416666667 L0.700768026,0.416666667 C0.522438745,0.416666667 0.415441176,0.522916667 0.415441176,0.7 L0.415441176,14.3 C0.415441176,14.4770833 0.522438745,14.5833333 0.700768026,14.5833333 L2.55539255,14.5833333 Z M4.60617928,7.5 L2.8407194,7.5 L2.8407194,2.75416667 L4.60617928,2.75416667 C5.06983541,2.75416667 5.3194964,3.00208333 5.3194964,3.4625 L5.3194964,6.79166667 C5.3194964,7.25208333 5.06983541,7.5 4.60617928,7.5 Z M13.7366385,14.5833333 C15.4129337,14.5833333 16.3045801,13.6979167 16.3045801,12.0333333 L16.3045801,2.96666667 C16.3045801,1.30208333 15.4129337,0.416666667 13.7366385,0.416666667 L11.7393505,0.416666667 C10.0630553,0.416666667 9.17140887,1.30208333 9.17140887,2.96666667 L9.17140887,12.0333333 C9.17140887,13.6979167 10.0630553,14.5833333 11.7393505,14.5833333 L13.7366385,14.5833333 Z M13.2908153,12.2989583 L12.2565054,12.2989583 C11.7928493,12.2989583 11.5431883,12.06875 11.5431883,11.590625 L11.5431883,3.409375 C11.5431883,2.94895833 11.7928493,2.70104167 12.2565054,2.70104167 L13.2908153,2.70104167 C13.7544714,2.70104167 14.0041324,2.94895833 14.0041324,3.409375 L14.0041324,11.590625 C14.0041324,12.06875 13.7544714,12.2989583 13.2908153,12.2989583 Z M24.757388,14.5833333 C24.9535502,14.5833333 25.0427149,14.4947917 25.0427149,14.3 L25.0427149,14.3 L25.0427149,12.5291667 C25.0427149,12.3520833 24.9535502,12.2458333 24.757388,12.2458333 L24.757388,12.2458333 L20.5131511,12.2458333 L20.5131511,0.7 C20.5131511,0.522916667 20.4239865,0.416666667 20.2278243,0.416666667 L20.2278243,0.416666667 L18.3731998,0.416666667 C18.1948705,0.416666667 18.0878729,0.522916667 18.0878729,0.7 L18.0878729,0.7 L18.0878729,14.3 C18.0878729,14.4947917 18.1948705,14.5833333 18.3731998,14.5833333 L18.3731998,14.5833333 L24.757388,14.5833333 Z M33.3171935,14.5833333 C33.5133557,14.5833333 33.6025203,14.4947917 33.6025203,14.3 L33.6025203,14.3 L33.6025203,12.5291667 C33.6025203,12.3520833 33.5133557,12.2458333 33.3171935,12.2458333 L33.3171935,12.2458333 L29.0729566,12.2458333 L29.0729566,0.7 C29.0729566,0.522916667 28.983792,0.416666667 28.7876298,0.416666667 L28.7876298,0.416666667 L26.9330052,0.416666667 C26.754676,0.416666667 26.6476784,0.522916667 26.6476784,0.7 L26.6476784,0.7 L26.6476784,14.3 C26.6476784,14.4947917 26.754676,14.5833333 26.9330052,14.5833333 L26.9330052,14.5833333 L33.3171935,14.5833333 Z M37.169106,14.5833333 C37.3474352,14.5833333 37.4544328,14.4770833 37.4544328,14.3 L37.4544328,0.7 C37.4544328,0.522916667 37.3474352,0.416666667 37.169106,0.416666667 L35.3144814,0.416666667 C35.1183192,0.416666667 35.0291546,0.522916667 35.0291546,0.7 L35.0291546,14.3 C35.0291546,14.4770833 35.1183192,14.5833333 35.3144814,14.5833333 L37.169106,14.5833333 Z M41.377677,14.5833333 C41.5738392,14.5833333 41.6630038,14.4770833 41.6630038,14.3 L41.6630038,6.79166667 L41.7521685,6.79166667 L44.4806065,14.353125 C44.5341053,14.5125 44.6411028,14.5833333 44.8015992,14.5833333 L46.5670591,14.5833333 C46.7453883,14.5833333 46.8523859,14.4770833 46.8523859,14.3 L46.8523859,0.7 C46.8523859,0.522916667 46.7453883,0.416666667 46.5670591,0.416666667 L44.7124345,0.416666667 C44.5162723,0.416666667 44.4271077,0.522916667 44.4271077,0.7 L44.4271077,8.17291667 L44.3201101,8.17291667 L41.6095051,0.646875 C41.5560063,0.4875 41.4490087,0.416666667 41.2885123,0.416666667 L39.5230525,0.416666667 C39.3447232,0.416666667 39.2377256,0.522916667 39.2377256,0.7 L39.2377256,14.3 C39.2377256,14.4770833 39.3447232,14.5833333 39.5230525,14.5833333 L41.377677,14.5833333 Z M53.5575669,14.5833333 C55.2160292,14.5833333 56.1255085,13.6979167 56.1255085,12.0333333 L56.1255085,7.11041667 C56.1255085,6.915625 56.0185109,6.82708333 55.8401817,6.82708333 L52.8442497,6.82708333 C52.6480875,6.82708333 52.5589229,6.915625 52.5589229,7.11041667 L52.5589229,8.88125 C52.5589229,9.05833333 52.6480875,9.16458333 52.8442497,9.16458333 L53.771562,9.16458333 L53.771562,11.5375 C53.771562,12.015625 53.521901,12.2458333 53.0582449,12.2458333 L51.7742741,12.2458333 C51.3106179,12.2458333 51.0609569,12.015625 51.0609569,11.5375 L51.0609569,3.4625 C51.0609569,3.00208333 51.292785,2.75416667 51.7742741,2.75416667 L53.0582449,2.75416667 C53.521901,2.75416667 53.771562,3.00208333 53.771562,3.4625 L53.771562,4.80833333 C53.771562,4.98541667 53.8607266,5.09166667 54.0568889,5.09166667 L55.8401817,5.09166667 C56.0185109,5.09166667 56.1255085,4.98541667 56.1255085,4.80833333 L56.1255085,2.96666667 C56.1255085,1.30208333 55.2160292,0.416666667 53.5575669,0.416666667 L51.2036204,0.416666667 C49.5273251,0.416666667 48.6356787,1.30208333 48.6356787,2.96666667 L48.6356787,12.0333333 C48.6356787,13.6979167 49.5273251,14.5833333 51.2036204,14.5833333 L53.5575669,14.5833333 Z M66.9322629,14.5833333 C68.6085582,14.5833333 69.5002046,13.6979167 69.5002046,12.0333333 L69.5002046,7.94270833 C69.5002046,7.60625 69.3397082,7.41145833 69.0365484,7.2875 L64.7923116,5.90625 L64.7923116,3.4625 C64.7923116,3.00208333 65.0598055,2.75416667 65.5056287,2.75416667 L66.3616092,2.75416667 C66.8430983,2.75416667 67.0749264,3.00208333 67.0749264,3.4625 L67.0749264,4.84375 C67.0749264,5.02083333 67.1819239,5.12708333 67.3602532,5.12708333 L69.2148777,5.12708333 C69.4110399,5.12708333 69.5002046,5.02083333 69.5002046,4.84375 L69.5002046,2.96666667 C69.5002046,1.30208333 68.6085582,0.416666667 66.9322629,0.416666667 L64.934975,0.416666667 C63.2765127,0.416666667 62.3670333,1.30208333 62.3670333,2.96666667 L62.3670333,7.14583333 C62.3670333,7.48229167 62.5275297,7.69479167 62.8485224,7.80104167 L67.0749264,9.18229167 L67.0749264,11.5375 C67.0749264,12.015625 66.8252654,12.2458333 66.3616092,12.2458333 L65.5056287,12.2458333 C65.0598055,12.2458333 64.7923116,12.015625 64.7923116,11.5375 L64.7923116,10.1739583 C64.7923116,9.97916667 64.7031469,9.890625 64.5069847,9.890625 L62.6523602,9.890625 C62.4740309,9.890625 62.3670333,9.97916667 62.3670333,10.1739583 L62.3670333,12.0333333 C62.3670333,13.6979167 63.2765127,14.5833333 64.934975,14.5833333 L66.9322629,14.5833333 Z M75.0640781,14.5833333 C75.2602403,14.5833333 75.349405,14.4947917 75.349405,14.3 L75.349405,2.75416667 L77.4180246,2.75416667 C77.6141869,2.75416667 77.7033515,2.64791667 77.7033515,2.47083333 L77.7033515,0.7 C77.7033515,0.522916667 77.6141869,0.416666667 77.4180246,0.416666667 L70.8555071,0.416666667 C70.6771778,0.416666667 70.5701803,0.522916667 70.5701803,0.7 L70.5701803,2.47083333 C70.5701803,2.64791667 70.6771778,2.75416667 70.8555071,2.75416667 L72.9241268,2.75416667 L72.9241268,14.3 C72.9241268,14.4947917 73.0311243,14.5833333 73.2094536,14.5833333 L75.0640781,14.5833333 Z M83.3385568,14.5833333 C85.014852,14.5833333 85.9064984,13.6979167 85.9064984,12.0333333 L85.9064984,2.96666667 C85.9064984,1.30208333 85.014852,0.416666667 83.3385568,0.416666667 L81.3412688,0.416666667 C79.6649736,0.416666667 78.7733272,1.30208333 78.7733272,2.96666667 L78.7733272,12.0333333 C78.7733272,13.6979167 79.6649736,14.5833333 81.3412688,14.5833333 L83.3385568,14.5833333 Z M82.8927336,12.2989583 L81.8584237,12.2989583 C81.3947676,12.2989583 81.1451066,12.06875 81.1451066,11.590625 L81.1451066,3.409375 C81.1451066,2.94895833 81.3947676,2.70104167 81.8584237,2.70104167 L82.8927336,2.70104167 C83.3563897,2.70104167 83.6060507,2.94895833 83.6060507,3.409375 L83.6060507,11.590625 C83.6060507,12.06875 83.3563897,12.2989583 82.8927336,12.2989583 Z M89.8297426,14.5833333 C90.0259048,14.5833333 90.1150694,14.4770833 90.1150694,14.3 L90.1150694,6.79166667 L90.2042341,6.79166667 L92.9326721,14.353125 C92.9861709,14.5125 93.0931684,14.5833333 93.2536648,14.5833333 L95.0191247,14.5833333 C95.1974539,14.5833333 95.3044515,14.4770833 95.3044515,14.3 L95.3044515,0.7 C95.3044515,0.522916667 95.1974539,0.416666667 95.0191247,0.416666667 L93.1645001,0.416666667 C92.9683379,0.416666667 92.8791733,0.522916667 92.8791733,0.7 L92.8791733,8.17291667 L92.7721757,8.17291667 L90.0615707,0.646875 C90.0080719,0.4875 89.9010743,0.416666667 89.7405779,0.416666667 L87.9751181,0.416666667 C87.7967888,0.416666667 87.6897912,0.522916667 87.6897912,0.7 L87.6897912,14.3 C87.6897912,14.4770833 87.7967888,14.5833333 87.9751181,14.5833333 L89.8297426,14.5833333 Z M103.917756,14.5833333 C104.131751,14.5833333 104.203083,14.4770833 104.203083,14.3 L104.203083,12.5291667 C104.203083,12.334375 104.131751,12.2458333 103.917756,12.2458333 L99.4595238,12.2458333 L99.4595238,8.66875 L102.865613,8.66875 C103.043942,8.66875 103.15094,8.5625 103.15094,8.36770833 L103.15094,6.61458333 C103.15094,6.41979167 103.043942,6.31354167 102.865613,6.31354167 L99.4595238,6.31354167 L99.4595238,2.771875 L103.917756,2.771875 C104.131751,2.771875 104.203083,2.64791667 104.203083,2.47083333 L104.203083,0.7 C104.203083,0.522916667 104.131751,0.416666667 103.917756,0.416666667 L97.3552382,0.416666667 C97.1947419,0.416666667 97.0877443,0.522916667 97.0877443,0.7 L97.0877443,14.3 C97.0877443,14.4770833 97.1947419,14.5833333 97.3552382,14.5833333 L103.917756,14.5833333 Z M110.016617,14.5833333 C111.692912,14.5833333 112.584559,13.6979167 112.584559,12.0333333 L112.584559,7.94270833 C112.584559,7.60625 112.424062,7.41145833 112.120903,7.2875 L107.876666,5.90625 L107.876666,3.4625 C107.876666,3.00208333 108.14416,2.75416667 108.589983,2.75416667 L109.445963,2.75416667 C109.927453,2.75416667 110.159281,3.00208333 110.159281,3.4625 L110.159281,4.84375 C110.159281,5.02083333 110.266278,5.12708333 110.444607,5.12708333 L112.299232,5.12708333 C112.495394,5.12708333 112.584559,5.02083333 112.584559,4.84375 L112.584559,2.96666667 C112.584559,1.30208333 111.692912,0.416666667 110.016617,0.416666667 L108.019329,0.416666667 C106.360867,0.416666667 105.451388,1.30208333 105.451388,2.96666667 L105.451388,7.14583333 C105.451388,7.48229167 105.611884,7.69479167 105.932877,7.80104167 L110.159281,9.18229167 L110.159281,11.5375 C110.159281,12.015625 109.90962,12.2458333 109.445963,12.2458333 L108.589983,12.2458333 C108.14416,12.2458333 107.876666,12.015625 107.876666,11.5375 L107.876666,10.1739583 C107.876666,9.97916667 107.787501,9.890625 107.591339,9.890625 L105.736714,9.890625 C105.558385,9.890625 105.451388,9.97916667 105.451388,10.1739583 L105.451388,12.0333333 C105.451388,13.6979167 106.360867,14.5833333 108.019329,14.5833333 L110.016617,14.5833333 Z" id="ROLLINGSTONES"></path>
        </g>
        <g id="logo/tongue/stamp" fill="#FFFFFF" transform="translate(125.385954, 3.000000)">
            <g id="Group-3" fill="none">
                <mask id="mask-2" fill="white">
                    <use xlink:href="#path-1"></use>
                </mask>
                <g id="Clip-2"></g>
                <path d="M12.5756241,6.35734512 C12.1502276,6.16845623 11.8795207,5.4885404 11.8795207,5.4885404 C11.8795207,5.4885404 11.3727793,6.32712626 10.2936586,6.43291751 C9.17202069,6.54621717 8.78526207,5.56409596 8.78526207,5.56409596 C8.69753793,5.64971886 8.40831379,6.24404545 7.23821034,6.24404545 C5.88450345,6.24404545 5.88450345,5.11076263 5.88450345,5.11076263 C5.88450345,5.11076263 5.30431379,5.56409596 4.76286552,5.37515657 C4.22136552,5.18628451 4.22136552,4.69522391 4.22136552,4.69522391 C4.22136552,4.69522391 5.18831379,3.86414646 6.15524483,3.90194108 C7.1221931,3.93971886 7.31555517,4.35522391 7.77967586,4.50633502 C8.24377931,4.65741246 8.82396897,4.77077946 9.67488276,4.39303535 C10.5257621,4.01524074 11.6086586,3.66015657 12.4983138,4.39303535 C13.5038828,5.22407912 13.8055897,6.19114983 13.8055897,6.19114983 C13.8055897,6.19114983 13.0010379,6.54621717 12.5756241,6.35734512 M12.1888138,8.47279966 C11.995469,8.85054377 11.6403138,8.98946633 11.3380379,9.3605101 C10.5985724,10.2679007 10.391831,10.9302239 9.94564138,12.004803 C9.40633103,13.3035067 9.4041069,14.2147189 8.93998621,15.4613182 C8.69245172,16.1299209 8.63058966,16.5567896 7.97307241,17.0478838 C7.63657241,17.2972104 7.05253793,17.2064865 6.8901069,16.8212003 C6.61936552,16.1790286 7.20726207,15.4424293 7.50891724,14.8946515 C8.24377931,13.5725303 8.33962414,12.8144158 8.97865862,11.5325976 C9.44248621,10.6022609 9.45827931,10.2558468 10.2549862,9.19052694 C10.6804172,8.62391077 11.0594345,8.35569529 11.4926586,8.1328165 C12.072831,7.83059428 12.4364172,7.98928114 12.1888138,8.47279966 M5.88450345,8.24614983 C5.55186552,8.6654596 5.10838276,8.97301852 4.70481379,9.51160438 C4.13707241,10.2694158 3.90877931,10.7695337 3.56384828,11.6459478 C3.19571034,12.5815202 3.09976207,13.2891633 2.92571034,14.139197 C2.82512414,14.6377997 2.75981379,15.241032 2.24883103,15.2346347 C1.74174483,15.2283215 1.59131379,14.6302071 1.59131379,14.139197 C1.59131379,13.4592306 1.91798621,12.2571936 2.48091724,11.1926313 C3.01391724,10.1846852 3.44057241,9.65293434 4.29872759,8.88832155 C4.71996897,8.51301852 5.17286552,8.20460101 5.45902069,8.01948316 C5.80715862,7.792867 6.15524483,7.90620034 5.88450345,8.24614983 M6.11657241,1.33317003 C6.23258966,1.08763131 6.52653793,0.811890572 6.8901069,0.634348485 C7.39291724,0.388809764 7.78355517,0.358574074 8.18579655,0.596553872 C8.63058966,0.860981481 8.83171034,1.18965152 8.6886069,1.6165202 C8.57255517,1.9564697 8.08907241,2.23224411 7.70233103,2.0131532 C7.47027931,1.88093098 7.54758966,1.71094781 7.00612414,1.69204209 C6.73541724,1.6845 6.27127931,2.0131532 6.15524483,1.89981987 C5.97345172,1.72226094 6.00826207,1.56360774 6.11657241,1.33317003 M10.9512448,1.25761448 C11.0671931,1.01209259 11.2064517,0.962968013 11.5700207,0.785442761 C12.072831,0.539887205 12.687831,0.471873737 13.0977966,0.690981481 C13.4458655,0.879887205 13.6856931,1.19343939 13.5425552,1.6165202 C13.4458655,1.89981987 13.2331414,2.08869192 12.8463828,2.06980303 C12.6335897,2.06224411 12.5446931,1.89981987 12.3435724,1.74870875 C12.1695552,1.6165202 11.952969,1.65805219 11.7634172,1.71094781 C11.5623138,1.76759764 11.415331,1.84317003 11.2025552,1.7864697 C10.9627793,1.72603199 10.8429172,1.48805219 10.9512448,1.25761448 M17.7197103,6.01737879 C16.6986241,5.32985354 16.0952448,5.0918569 15.4377621,3.76971886 C14.8265897,2.53823737 14.4321241,1.09519024 14.0067103,0.577681818 C13.3723655,-0.196712121 11.9645379,-0.0872003367 11.1368828,0.294348485 C10.4020207,0.634348485 10.2549862,0.804314815 9.4041069,1.55981987 C9.21845172,0.735695286 8.83555517,0.0866043771 7.85700345,0.0110319865 C7.08348621,-0.0456346801 6.55750345,0.173473064 5.84584828,0.577681818 C4.94850345,1.08763131 4.23296897,2.03958418 3.71858966,3.03308586 C3.23508966,3.96993771 2.99283103,4.44736195 2.26046897,5.12960101 C1.7369,5.61736195 1.2471069,5.99468519 0.740434483,6.16845623 C0.198968966,6.35734512 0.148675862,6.7464697 0.605072414,7.07510606 C1.64936552,7.83059428 1.76538276,8.66167172 1.95876207,9.41717677 C1.30124483,10.5504091 0.694003448,11.4268232 0.353658621,12.5903418 C-0.0485655172,13.9729343 -0.11822069,14.7322441 0.198968966,16.2923956 C0.469693103,17.6145168 1.25872759,18.4569242 2.04771034,19.0575303 C3.45943448,20.1341633 5.5364,20.2588098 7.16081379,19.5410657 C8.28246897,19.0462677 8.78526207,18.3700556 9.52007241,17.4633552 C9.78314138,17.1347189 9.97262414,16.9232205 10.3710897,16.7720926 C11.9567621,16.1676818 12.6916759,15.1213687 13.5038828,13.4214192 C14.1575552,12.0501734 14.3490379,11.1670253 15.1670207,9.87049327 C15.9999,8.55034175 17.0235379,7.452867 17.7197103,6.77290067 C17.9285724,6.56889394 18.222469,6.35734512 17.7197103,6.01737879" id="Fill-1" fill="#DB000C" mask="url(#mask-2)"></path>
            </g>
        </g>
        <path d="M3.502,19 C3.74,19 3.91,18.813 3.91,18.592 L3.91,15.175 C3.927,14.937 4.097,14.75 4.335,14.75 L11.475,14.75 C11.713,14.75 11.883,14.58 11.883,14.342 L11.883,11.758 C11.883,11.52 11.713,11.35 11.475,11.35 L4.335,11.35 C4.216,11.35 4.114,11.299 4.046,11.214 C3.961,11.146 3.91,11.044 3.91,10.925 C3.91,10.704 4.097,10.517 4.335,10.517 L11.475,10.517 C11.713,10.517 11.883,10.33 11.883,10.109 L11.883,7.508 C11.883,7.287 11.713,7.1 11.475,7.1 L4.335,7.1 C2.21,7.1 0.51,8.817 0.51,10.925 L0.51,18.592 C0.51,18.813 0.68,19 0.918,19 L3.502,19 Z M15.912,19 C16.133,19 16.32,18.813 16.32,18.592 L16.32,11.758 C16.32,11.571 16.354,11.384 16.439,11.214 C16.49,11.112 16.558,11.01 16.626,10.925 C16.66,10.891 16.694,10.857 16.728,10.84 C16.813,10.755 16.915,10.687 17.017,10.636 C17.187,10.568 17.357,10.517 17.561,10.517 L20.468,10.517 C20.689,10.517 20.876,10.704 20.876,10.925 C20.876,11.163 20.689,11.35 20.468,11.35 L17.561,11.35 C17.323,11.35 17.136,11.52 17.136,11.758 L17.136,14.342 C17.136,14.58 17.323,14.75 17.561,14.75 L20.468,14.75 C20.689,14.75 20.876,14.937 20.876,15.175 L20.876,18.592 C20.876,18.813 21.063,19 21.284,19 L23.868,19 C24.106,19 24.293,18.813 24.293,18.592 L24.293,7.508 C24.293,7.287 24.106,7.1 23.868,7.1 L16.728,7.1 C14.62,7.1 12.903,8.817 12.903,10.925 L12.903,18.592 C12.903,18.813 13.09,19 13.311,19 L15.912,19 Z M36.278,19 C36.516,19 36.686,18.813 36.686,18.592 L36.686,15.991 C36.686,15.77 36.516,15.583 36.278,15.583 L29.954,15.583 C29.648,15.583 29.359,15.464 29.138,15.26 C29.104,15.243 29.07,15.209 29.036,15.175 C28.849,14.954 28.73,14.665 28.73,14.342 L28.73,7.508 C28.73,7.287 28.543,7.1 28.305,7.1 L25.721,7.1 C25.483,7.1 25.313,7.287 25.313,7.508 L25.313,15.175 C25.313,17.283 27.013,19 29.138,19 L36.278,19 Z M48.671,19 C48.909,19 49.079,18.813 49.079,18.592 L49.079,15.991 C49.079,15.77 48.909,15.583 48.671,15.583 L42.347,15.583 C42.041,15.583 41.752,15.464 41.531,15.26 C41.497,15.243 41.463,15.209 41.429,15.175 C41.242,14.954 41.123,14.665 41.123,14.342 L41.123,7.508 C41.123,7.287 40.936,7.1 40.698,7.1 L38.114,7.1 C37.876,7.1 37.706,7.287 37.706,7.508 L37.706,15.175 C37.706,17.283 39.406,19 41.531,19 L48.671,19 Z M66.402,19 C66.64,19 66.827,18.813 66.827,18.592 L66.827,15.991 C66.827,15.77 66.64,15.583 66.402,15.583 L59.432,15.583 C59.211,15.583 59.024,15.396 59.024,15.175 C59.024,14.954 59.194,14.767 59.415,14.767 L62.985,14.767 C65.11,14.767 66.827,13.05 66.827,10.942 C66.827,8.817 65.11,7.1 62.985,7.1 L55.607,7.1 C55.386,7.1 55.199,7.287 55.199,7.525 L55.199,10.109 C55.199,10.347 55.386,10.517 55.607,10.517 L62.577,10.517 C62.798,10.517 62.985,10.704 62.985,10.942 C62.985,11.163 62.798,11.35 62.577,11.35 L59.024,11.35 C56.916,11.35 55.199,13.067 55.199,15.175 L55.199,18.592 C55.199,18.813 55.386,19 55.607,19 L66.402,19 Z M75.395,19 C77.52,19 79.237,17.283 79.237,15.175 L79.237,10.925 C79.237,8.817 77.52,7.1 75.395,7.1 L71.672,7.1 C69.564,7.1 67.847,8.817 67.847,10.925 L67.847,15.175 C67.847,17.283 69.564,19 71.672,19 L75.395,19 Z M74.579,15.583 L72.505,15.583 C72.182,15.583 71.893,15.464 71.672,15.26 C71.638,15.243 71.604,15.209 71.57,15.175 C71.383,14.954 71.264,14.665 71.264,14.342 L71.264,11.758 C71.264,11.435 71.383,11.146 71.57,10.925 C71.604,10.891 71.638,10.857 71.672,10.84 C71.893,10.636 72.182,10.517 72.505,10.517 L74.579,10.517 C74.902,10.517 75.191,10.636 75.395,10.84 C75.429,10.857 75.463,10.891 75.497,10.925 C75.701,11.146 75.82,11.435 75.82,11.758 L75.82,14.342 C75.82,14.665 75.701,14.954 75.497,15.175 C75.463,15.209 75.429,15.243 75.395,15.26 C75.191,15.464 74.902,15.583 74.579,15.583 Z M91.46,19 C91.698,19 91.885,18.813 91.885,18.592 L91.885,15.991 C91.885,15.77 91.698,15.583 91.46,15.583 L84.49,15.583 C84.269,15.583 84.082,15.396 84.082,15.175 C84.082,14.954 84.252,14.767 84.473,14.767 L88.043,14.767 C90.168,14.767 91.885,13.05 91.885,10.942 C91.885,8.817 90.168,7.1 88.043,7.1 L80.665,7.1 C80.444,7.1 80.257,7.287 80.257,7.525 L80.257,10.109 C80.257,10.347 80.444,10.517 80.665,10.517 L87.635,10.517 C87.856,10.517 88.043,10.704 88.043,10.942 C88.043,11.163 87.856,11.35 87.635,11.35 L84.082,11.35 C81.974,11.35 80.257,13.067 80.257,15.175 L80.257,18.592 C80.257,18.813 80.444,19 80.665,19 L91.46,19 Z M100.453,19 C102.578,19 104.295,17.283 104.295,15.175 L104.295,10.925 C104.295,8.817 102.578,7.1 100.453,7.1 L96.73,7.1 C94.622,7.1 92.905,8.817 92.905,10.925 L92.905,15.175 C92.905,17.283 94.622,19 96.73,19 L100.453,19 Z M99.637,15.583 L97.563,15.583 C97.24,15.583 96.951,15.464 96.73,15.26 C96.696,15.243 96.662,15.209 96.628,15.175 C96.441,14.954 96.322,14.665 96.322,14.342 L96.322,11.758 C96.322,11.435 96.441,11.146 96.628,10.925 C96.662,10.891 96.696,10.857 96.73,10.84 C96.951,10.636 97.24,10.517 97.563,10.517 L99.637,10.517 C99.96,10.517 100.249,10.636 100.453,10.84 C100.487,10.857 100.521,10.891 100.555,10.925 C100.759,11.146 100.878,11.435 100.878,11.758 L100.878,14.342 C100.878,14.665 100.759,14.954 100.555,15.175 C100.521,15.209 100.487,15.243 100.453,15.26 C100.249,15.464 99.96,15.583 99.637,15.583 Z" id="Fall2020" fill="#FFFFFF" fill-rule="nonzero"></path>
    </g>
</svg>