<?xml version="1.0" encoding="UTF-8"?>
<svg width="122px" height="9px" viewBox="0 0 122 9" version="1.1" xmlns="http://www.w3.org/2000/svg" xmlns:xlink="http://www.w3.org/1999/xlink">
    <title>logo-no9carnaby-product-listing</title>
    <g id="🛣-Carnaby-Design" stroke="none" stroke-width="1" fill="none" fill-rule="evenodd">
        <g id="1366-carnaby---product-listing-category-full" transform="translate(-245.000000, -727.000000)" fill="#FFFFFF">
            <g id="row-1" transform="translate(151.000000, 360.000000)">
                <g id="Group" transform="translate(69.000000, 358.000000)">
                    <g id="logo/collection/carnaby-core-central" transform="translate(25.000000, 9.000000)">
                        <path d="M44.4020118,8.93411473 C45.752567,8.84105104 46.4538168,8.48209107 46.7914557,7.7242867 C46.9732612,7.32544229 47.0122195,6.88671344 47.0252056,5.59711652 L44.4669423,5.59711652 C44.4669423,6.23526757 44.3240952,6.51445866 43.947498,6.67399642 C43.6293384,6.81359197 43.3708337,6.84122025 41.9975274,6.84594614 L41.3372903,6.846829 C38.8773505,6.846829 38.6232468,6.69627744 38.6107347,4.73767341 L38.6102077,4.56012106 C38.6102077,3.12428119 38.6751382,2.76532123 38.9868048,2.47283533 C39.3114575,2.18034943 39.7010407,2.12717017 41.8567347,2.12717017 C44.1422896,2.12717017 44.3370813,2.20693906 44.3890257,3.17746045 L46.9083306,3.17746045 L46.9083306,2.88497455 C46.9083306,1.58208282 46.5836779,0.797688815 45.8824281,0.438728848 C45.1899753,0.0904905054 44.5316161,0.0098500596 41.8023457,0.000894324005 L41.2074293,0 C38.7790271,0 37.9479162,0.119653322 37.1687497,0.584971798 C36.2597222,1.11676434 36,1.9543376 36,4.29422479 C36,6.92659788 36.246736,7.85723483 37.1038192,8.415617 C37.777019,8.86232274 38.5459628,8.99046347 40.8123424,9 L41.6848412,9 C43.0681273,8.99690858 43.9322203,8.9810376 44.4020118,8.93411473 Z M50.0649538,8.93411473 L50.8960647,7.35203192 L56.4800911,7.35203192 L57.3371742,8.93411473 L60.2200901,8.93411473 L55.4801608,0.066474068 L51.9479394,0.066474068 L47.078149,8.93411473 L50.0649538,8.93411473 Z M55.5580774,5.50405283 L51.8440506,5.50405283 L53.6880779,1.96763241 L55.5580774,5.50405283 Z M63.0520606,8.93411473 L63.0520606,6.70058605 L67.0907401,6.70058605 C68.272476,6.67399642 68.5321981,6.87341863 68.5451842,7.8306452 L68.5451842,8.93411473 L71.2203224,8.93411473 L71.2203224,7.53815931 C71.2462947,6.19538313 70.921642,5.73006466 69.843795,5.54393727 C70.9476142,5.29133581 71.3371974,4.63988994 71.3371974,2.99133306 C71.3371974,1.79479983 71.1034475,1.03699546 70.5969893,0.624856239 C70.1035172,0.199422204 69.4282396,0.066474068 67.8958788,0.066474068 L60.4288668,0.066474068 L60.4288668,8.93411473 L63.0520606,8.93411473 Z M67.1686568,4.53353143 L63.0520606,4.53353143 L63.0520606,2.2468235 L67.2595595,2.2468235 C68.0517121,2.2468235 68.272476,2.28670794 68.4672676,2.49942495 C68.636087,2.68555235 68.6880314,2.92485899 68.6880314,3.49653597 C68.6880314,4.37399367 68.4412954,4.53353143 67.1686568,4.53353143 Z M75.0002788,8.93411473 L74.9353482,2.26011831 L80.1038192,8.93411473 L84.3372903,8.93411473 L84.3372903,0.066474068 L81.8439576,0.066474068 L81.9088882,6.80694456 L76.6625006,0.066474068 L72.4679877,0.066474068 L72.4679877,8.93411473 L75.0002788,8.93411473 Z M87.8445384,8.93411473 L88.6756493,7.35203192 L94.2596757,7.35203192 L95.1167588,8.93411473 L97.9996748,8.93411473 L93.2597454,0.066474068 L89.727524,0.066474068 L84.8577336,8.93411473 L87.8445384,8.93411473 Z M93.337662,5.50405283 L89.6236352,5.50405283 L91.4676625,1.96763241 L93.337662,5.50405283 Z M106.701366,8.93411473 C107.701296,8.93411473 108.272685,8.84105104 108.675254,8.62833402 C109.363518,8.25607924 109.675185,7.55145412 109.675185,6.43468978 C109.675185,5.14509286 109.285601,4.62659513 108.116852,4.4005833 C108.934977,4.24104554 109.32456,3.64277892 109.32456,2.48613014 C109.32456,1.35607099 109.038865,0.757804375 108.337616,0.385549594 C107.883102,0.159537763 107.337685,0.066474068 106.337755,0.066474068 L98.520118,0.066474068 L98.520118,8.93411473 L106.701366,8.93411473 Z M105.676853,3.60187321 L101.091367,3.60289448 L101.091367,2.03410648 L105.4547,2.03410648 C105.961158,2.03410648 106.091019,2.04740129 106.259838,2.10058055 C106.545533,2.20693906 106.714352,2.47283533 106.714352,2.83179529 C106.714352,3.13757601 106.584491,3.37688265 106.376713,3.49653597 C106.226652,3.56744165 106.066329,3.59632914 105.676853,3.60187321 L105.676853,3.60187321 Z M105.952691,6.96605689 L101.091367,6.96648232 L101.091367,5.34451506 L105.740394,5.34451506 C106.324769,5.34451506 106.428658,5.35780988 106.584491,5.41098913 C106.870185,5.51734764 107.026019,5.78324391 107.026019,6.16879351 C107.026019,6.54104829 106.870185,6.80694456 106.610463,6.90000825 C106.458526,6.94786958 106.359182,6.96342451 105.952691,6.96605689 Z M117.117223,8.93411473 L117.117223,5.86301279 L122,0.066474068 L118.701529,0.066474068 L115.805627,3.73584262 L112.883752,0.066474068 L109.52035,0.066474068 L114.468057,5.86301279 L114.468057,8.93411473 L117.117223,8.93411473 Z" id="NO.9CARNABYCORE" fill-rule="nonzero"></path>
                        <path d="M27.7316462,0.0398230088 C30.8133774,0.0398230088 31.6189752,0.172566372 32.2967003,0.809734513 C32.8593401,1.34070796 33,2.03097345 33,4.23451327 C33,6.79646018 32.8593401,7.57964602 32.3094876,8.16371681 C31.849146,8.65486726 31.3120808,8.84070796 30.1100778,8.92035398 C29.8159707,8.94690265 27.8850934,9 27.5014755,9 L27.1887597,8.99901216 C25.4560654,8.98779089 24.3906177,8.88053097 23.8954663,8.65486726 C23.2049539,8.34955752 22.8980596,7.7920354 22.8980596,6.84955752 L22.8980596,6.84955752 L22.8988779,6.73316814 C22.9001055,6.65415929 22.9031745,6.55221239 22.9108468,6.46460177 L22.9108468,6.46460177 L25.3020656,6.46460177 C25.3617395,7.04690265 25.4436917,7.10884956 27.3881064,7.11452114 L27.3881064,7.11452114 L28.0641614,7.11472676 C29.6924732,7.10995032 30.0211229,7.04867257 30.3146741,6.75663717 C30.4681213,6.59734513 30.5192703,6.38495575 30.5320576,5.66814159 C30.5448449,5.38938053 30.5448449,5.38938053 30.5576321,4.76548673 C30.1100778,5.52212389 29.7392471,5.61504425 27.0283466,5.61504425 L27.0283466,5.61504425 L26.7568945,5.61425077 C25.1824108,5.60460128 24.5671343,5.50465766 23.9977645,5.19026549 C23.3200393,4.81858407 23.0387195,4.16814159 23.0387195,2.96017699 C23.0387195,1.52654867 23.3456139,0.796460177 24.0744881,0.451327434 C24.7010641,0.132743363 25.5961728,0.0398230088 27.7316462,0.0398230088 Z M4.13028704,0.092920354 L9.29634266,6.82300885 L9.23240633,0.092920354 L11.6875615,0.092920354 L11.6875615,8.94690265 L7.51891264,8.94690265 L2.42958061,2.28318584 L2.49351695,8.94690265 L7.16759985e-13,8.94690265 L7.16759985e-13,0.092920354 L4.13028704,0.092920354 Z M20.5274971,7.70115725 L20.5274971,8.9264806 L12.6584101,8.9264806 L12.6584101,7.70115725 L20.5274971,7.70115725 Z M17.0245152,0.000640077588 C18.3023688,0.00438610544 18.7485943,0.025569001 19.1118388,0.0899650036 C20.001538,0.26089851 20.4334308,0.73771303 20.5543608,1.70033857 C20.5889123,1.94324408 20.606188,2.4290551 20.606188,3.15777163 C20.606188,4.60620819 20.4593444,5.19098071 19.9669866,5.61381623 C19.6214724,5.91969724 19.1377524,6.06364124 18.2998804,6.09962725 C17.9889175,6.11762025 17.2201483,6.12661675 16.6586877,6.12661675 L16.457688,6.12641208 C15.2161873,6.12380534 14.5683265,6.09602864 14.2400879,6.02765524 C13.6008866,5.91070074 13.2294588,5.65879873 13.0135124,5.21797021 C12.7889281,4.77714169 12.737101,4.33631317 12.737101,3.02282412 L12.7372944,2.85267069 C12.7394323,1.98505134 12.760474,1.73949981 12.8580309,1.35847155 C13.0221502,0.719720029 13.3590266,0.377853015 14.0068658,0.179930007 C14.4905858,0.0359860014 15.017495,-2.13162821e-13 16.5377577,-2.13162821e-13 Z M16.8467525,1.32959073 L16.6638378,1.32947583 C15.5006494,1.32947583 15.1805774,1.37837371 14.9776049,1.56418566 C14.7668258,1.76955676 14.7043727,2.09228276 14.7043727,3.03112206 C14.7043727,3.98952051 14.7668258,4.34158525 14.9619916,4.54695635 C15.1727707,4.76210702 15.4303897,4.80122532 16.6248047,4.80122532 L16.6248047,4.80122532 L16.7721848,4.80097392 C18.0116441,4.79653005 18.2786545,4.73095726 18.451557,4.42960143 C18.599883,4.19489161 18.6389162,3.86238602 18.6389162,2.99200376 L18.6381123,2.69385061 C18.6278683,1.34659264 18.4895829,1.32947583 16.6638378,1.32947583 Z M27.9423652,1.85875713 L27.5589049,1.85869888 C26.4211948,1.86189791 26.1663344,1.89276419 25.8774926,2.01769912 C25.60896,2.15044248 25.4683001,2.44247788 25.4683001,2.89380531 C25.4683001,3.27876106 25.5705982,3.55752212 25.7624072,3.67699115 C25.9874631,3.81716814 26.0936895,3.84426903 27.3969251,3.84875469 L27.3969251,3.84875469 L28.2380698,3.84930032 C29.5340588,3.84632088 29.9587618,3.81637168 30.2123759,3.70353982 C30.4297595,3.59734513 30.5704194,3.27876106 30.5704194,2.86725664 C30.5704194,2.28318584 30.3530359,2.01769912 29.8031834,1.92477876 C29.6369489,1.88495575 28.5628186,1.85840708 27.7827953,1.85840708 Z" id="Combined-Shape"></path>
                    </g>
                </g>
            </g>
        </g>
    </g>
</svg>