<svg xmlns="http://www.w3.org/2000/svg" xmlns:xlink="http://www.w3.org/1999/xlink" width="177" height="28" viewBox="0 0 177 28">
  <defs>
    <style>
      .cls-1 {
        fill: none;
      }

      .cls-2 {
        fill: #fff;
      }

      .cls-3 {
        clip-path: url(#clip-path);
      }

      .cls-4 {
        fill: #db000c;
      }
    </style>
    <clipPath id="clip-path">
      <path id="Clip_2" data-name="Clip 2" class="cls-1" d="M0,0H22.754V25.444H0Z"/>
    </clipPath>
  </defs>
  <g id="Group_1" data-name="Group 1" transform="translate(-10 -56)">
    <g id="logo_rs_tongue_text" data-name="logo/rs tongue text" transform="translate(10 56)">
      <g id="Group" transform="translate(1.138 2.545)">
        <path id="STONES" class="cls-2" d="M58.258,18.327a2.953,2.953,0,0,1-3.277-3.3V12.623a.326.326,0,0,1,.364-.367h2.367c.25,0,.364.115.364.367v1.764a.82.82,0,0,0,.91.916h1.092a.81.81,0,0,0,.91-.916V11.34L55.6,9.553a.816.816,0,0,1-.614-.848V3.3A2.953,2.953,0,0,1,58.258,0h2.549a2.944,2.944,0,0,1,3.277,3.3V5.727a.326.326,0,0,1-.364.367H61.353a.336.336,0,0,1-.364-.367V3.94a.81.81,0,0,0-.91-.916H58.987a.83.83,0,0,0-.91.916V7.1l5.416,1.787a.84.84,0,0,1,.592.848v5.292a2.944,2.944,0,0,1-3.277,3.3Zm-13.609,0a.33.33,0,0,1-.341-.367V.367A.33.33,0,0,1,44.65,0h8.375c.273,0,.364.137.364.367V2.657c0,.229-.091.389-.364.389H47.335V7.629h4.347a.343.343,0,0,1,.364.389v2.268a.343.343,0,0,1-.364.389H47.335V15.3h5.689c.273,0,.364.115.364.367v2.291c0,.229-.091.367-.364.367Zm-5.234,0a.392.392,0,0,1-.41-.3L35.524,8.247H35.41v9.713a.326.326,0,0,1-.364.367H32.679a.336.336,0,0,1-.364-.367V.367A.336.336,0,0,1,32.679,0h2.253a.392.392,0,0,1,.41.3L38.8,10.034h.137V.367A.326.326,0,0,1,39.3,0h2.367a.336.336,0,0,1,.364.367V17.961a.336.336,0,0,1-.364.367Zm-15.2,0a2.944,2.944,0,0,1-3.277-3.3V3.3A2.944,2.944,0,0,1,24.214,0h2.549a2.944,2.944,0,0,1,3.277,3.3V15.028a2.944,2.944,0,0,1-3.277,3.3Zm-10.377,0a.326.326,0,0,1-.364-.367V3.024h-2.64a.336.336,0,0,1-.364-.367V.367A.336.336,0,0,1,10.832,0h8.375a.326.326,0,0,1,.364.367V2.657a.326.326,0,0,1-.364.367h-2.64V17.961c0,.252-.114.367-.364.367Zm-10.559,0A2.953,2.953,0,0,1,0,15.028V12.623a.326.326,0,0,1,.364-.367H2.731c.25,0,.364.115.364.367v1.764a.82.82,0,0,0,.91.916H5.1a.81.81,0,0,0,.91-.916V11.34L.614,9.553A.816.816,0,0,1,0,8.705V3.3A2.953,2.953,0,0,1,3.277,0H5.826A2.944,2.944,0,0,1,9.1,3.3V5.727a.326.326,0,0,1-.364.367H6.372a.336.336,0,0,1-.364-.367V3.94a.81.81,0,0,0-.91-.916H4.005a.83.83,0,0,0-.91.916V7.1L8.511,8.889a.84.84,0,0,1,.592.848v5.292a2.944,2.944,0,0,1-3.277,3.3Z" transform="translate(109.993 2.036)"/>
        <path id="ROLLING" class="cls-2" d="M64.812,18.327a2.944,2.944,0,0,1-3.277-3.3V3.3A2.944,2.944,0,0,1,64.812,0h3a2.953,2.953,0,0,1,3.277,3.3V5.681a.336.336,0,0,1-.364.367H68.453a.326.326,0,0,1-.364-.367V3.94a.82.82,0,0,0-.91-.916H65.541a.81.81,0,0,0-.91.916V14.387a.81.81,0,0,0,.91.916h1.639a.81.81,0,0,0,.91-.916v-3.07H66.906a.326.326,0,0,1-.364-.367V8.66c0-.252.114-.367.364-.367h3.823a.326.326,0,0,1,.364.367v6.369a2.953,2.953,0,0,1-3.277,3.3Zm-8.17,0a.392.392,0,0,1-.41-.3L52.751,8.247h-.114v9.713a.326.326,0,0,1-.364.367H49.906a.336.336,0,0,1-.364-.367V.367A.336.336,0,0,1,49.906,0h2.253a.392.392,0,0,1,.41.3l3.459,9.736h.137V.367A.326.326,0,0,1,56.529,0H58.9a.336.336,0,0,1,.364.367V17.961a.336.336,0,0,1-.364.367Zm-12.107,0a.326.326,0,0,1-.364-.367V.367A.326.326,0,0,1,44.536,0H46.9a.336.336,0,0,1,.364.367V17.961a.336.336,0,0,1-.364.367Zm-10.7,0a.326.326,0,0,1-.364-.367V.367A.336.336,0,0,1,33.84,0h2.367a.326.326,0,0,1,.364.367V15.3h5.416a.326.326,0,0,1,.364.367v2.291c0,.252-.114.367-.364.367Zm-10.923,0a.326.326,0,0,1-.364-.367V.367A.336.336,0,0,1,22.916,0h2.367a.326.326,0,0,1,.364.367V15.3h5.416a.326.326,0,0,1,.364.367v2.291c0,.252-.114.367-.364.367Zm-8.466,0a2.944,2.944,0,0,1-3.277-3.3V3.3A2.944,2.944,0,0,1,14.451,0H17a2.944,2.944,0,0,1,3.277,3.3V15.028A2.944,2.944,0,0,1,17,18.327Zm-7.874,0a.358.358,0,0,1-.387-.321L4.665,12.188H3.095v5.773a.336.336,0,0,1-.364.367H.364A.336.336,0,0,1,0,17.961V.367A.336.336,0,0,1,.364,0H6.076A2.944,2.944,0,0,1,9.353,3.3v5.59a2.967,2.967,0,0,1-1.661,3.024l1.57,6c.068.275-.068.412-.319.412Z" transform="translate(0 2.036)"/>
        <g id="logo_tongue_stamp" data-name="logo/tongue/stamp" transform="translate(79.776)">
          <g id="Group_3" data-name="Group 3" transform="translate(0 0)">
            <path id="Clip_2-2" data-name="Clip 2" class="cls-1" d="M0,0H22.754V25.444H0Z"/>
            <g id="Group_3-2" data-name="Group 3" class="cls-3">
              <path id="Fill_1" data-name="Fill 1" class="cls-4" d="M6.3,25.444h0a6.827,6.827,0,0,1-1-.073,6.421,6.421,0,0,1-.969-.221,5.888,5.888,0,0,1-.914-.371,5.376,5.376,0,0,1-.833-.524,7.972,7.972,0,0,1-.738-.636c-.123-.121-.241-.245-.35-.37s-.226-.271-.327-.41-.206-.3-.3-.453a5.287,5.287,0,0,1-.469-1.048,5.6,5.6,0,0,1-.158-.6A9.628,9.628,0,0,1,.008,18.3c.009-.177.024-.35.048-.531s.052-.352.09-.541c.068-.343.164-.724.3-1.2a8.615,8.615,0,0,1,.3-.86c.106-.26.227-.524.37-.8.267-.526.571-1.038.893-1.581.151-.255.308-.519.466-.793-.023-.089-.045-.18-.066-.267a5.948,5.948,0,0,0-.454-1.362A3.462,3.462,0,0,0,1.5,9.672a3.914,3.914,0,0,0-.327-.337A4.685,4.685,0,0,0,.765,9,1.116,1.116,0,0,1,.451,8.68a.455.455,0,0,1,.09-.608,1.128,1.128,0,0,1,.4-.222,3.8,3.8,0,0,0,.953-.511c.153-.109.31-.231.479-.374.153-.129.313-.272.489-.437a7.635,7.635,0,0,0,.587-.609,5.9,5.9,0,0,0,.444-.59c.123-.186.245-.392.384-.648.127-.234.258-.488.408-.782h0L4.7,3.86A9.928,9.928,0,0,1,5.865,2.067a6.7,6.7,0,0,1,.719-.747A4.927,4.927,0,0,1,7.391.735C7.615.607,7.8.509,7.966.426A4.942,4.942,0,0,1,8.507.2,3.312,3.312,0,0,1,9.636,0c.1,0,.2,0,.3.011a2.527,2.527,0,0,1,.43.069,1.97,1.97,0,0,1,.365.132A1.738,1.738,0,0,1,11.034.4a1.772,1.772,0,0,1,.253.239,2.059,2.059,0,0,1,.206.284,2.627,2.627,0,0,1,.165.322,4.121,4.121,0,0,1,.231.737l.319-.286,0,0c.4-.359.662-.6.926-.788A5.3,5.3,0,0,1,14.08.375a3.671,3.671,0,0,1,.389-.153A4.336,4.336,0,0,1,14.9.1,4.5,4.5,0,0,1,15.36.027,4.2,4.2,0,0,1,15.83,0a3.539,3.539,0,0,1,.541.04,2.736,2.736,0,0,1,.51.128,1.859,1.859,0,0,1,.827.567,8.758,8.758,0,0,1,.935,1.995c.253.651.54,1.39.874,2.068a6.866,6.866,0,0,0,.529.908,4.494,4.494,0,0,0,.545.645,5.209,5.209,0,0,0,.6.5c.211.153.44.3.682.46.169.11.344.224.533.352.224.152.338.294.35.434.015.179-.139.326-.288.468l-.062.06c-.548.539-1.069,1.1-1.549,1.666a19.936,19.936,0,0,0-1.678,2.277c-.158.253-.3.5-.438.75-.123.227-.237.455-.351.7-.213.454-.388.89-.575,1.351-.215.532-.437,1.082-.739,1.72-.284.6-.529,1.065-.77,1.471a8.019,8.019,0,0,1-.844,1.184,5.7,5.7,0,0,1-2.347,1.609,2.324,2.324,0,0,0-1.076.88l-.153.191,0,0a13.126,13.126,0,0,1-1.23,1.4,5.52,5.52,0,0,1-.71.567,5.83,5.83,0,0,1-.887.485,6.6,6.6,0,0,1-1.339.429A6.959,6.959,0,0,1,6.3,25.444Zm8.868-15.289a1.02,1.02,0,0,0-.289.048,2.019,2.019,0,0,0-.353.148c-.149.077-.28.152-.4.229a3.866,3.866,0,0,0-.386.28,4.094,4.094,0,0,0-.384.362,5.48,5.48,0,0,0-.394.475,8.834,8.834,0,0,0-1.206,2.092c-.111.254-.236.543-.407.888a19.257,19.257,0,0,0-.806,1.915c-.133.354-.271.721-.436,1.105-.089.207-.178.4-.274.6-.107.22-.219.436-.343.66-.067.123-.145.253-.228.39-.1.16-.2.325-.287.5a3.826,3.826,0,0,0-.239.521,1.841,1.841,0,0,0-.114.529,1.254,1.254,0,0,0,.013.261,1.122,1.122,0,0,0,.073.256.714.714,0,0,0,.322.348.937.937,0,0,0,.23.088,1.053,1.053,0,0,0,.25.03.952.952,0,0,0,.568-.177,2.877,2.877,0,0,0,1.094-1.654h0c.04-.116.082-.237.129-.365.122-.329.229-.67.329-1.043.089-.332.163-.659.235-.974.084-.367.17-.747.28-1.138.059-.211.12-.408.186-.6.074-.219.153-.429.241-.642.08-.2.154-.379.226-.556h0a9.5,9.5,0,0,1,1.534-2.809,3.557,3.557,0,0,1,.5-.488,2.079,2.079,0,0,0,.573-.642.867.867,0,0,0,.1-.294.316.316,0,0,0-.038-.205A.329.329,0,0,0,15.172,10.155Zm-7.837-.1a.653.653,0,0,0-.2.037,1.006,1.006,0,0,0-.23.113,12.094,12.094,0,0,0-1.467,1.106c-.282.253-.518.478-.722.688a8.421,8.421,0,0,0-.581.662,8.175,8.175,0,0,0-.5.72c-.157.251-.318.533-.491.863a11.054,11.054,0,0,0-.476,1.036c-.136.34-.255.684-.353,1.023A6.5,6.5,0,0,0,2.012,18a2.8,2.8,0,0,0,.04.48,1.756,1.756,0,0,0,.136.448.886.886,0,0,0,.256.332.659.659,0,0,0,.4.133h.01a.659.659,0,0,0,.2-.028.55.55,0,0,0,.159-.08A.753.753,0,0,0,3.435,19a3.315,3.315,0,0,0,.231-.832c.011-.057.022-.116.034-.173.04-.2.077-.388.113-.573h0c.082-.426.16-.829.265-1.251.057-.226.116-.439.183-.65.074-.235.155-.464.246-.7a14.691,14.691,0,0,1,.616-1.415,9.166,9.166,0,0,1,.827-1.3,7.64,7.64,0,0,1,.859-.94A6.958,6.958,0,0,0,7.44,10.5a.6.6,0,0,0,.112-.2.193.193,0,0,0-.005-.142.158.158,0,0,0-.079-.073A.317.317,0,0,0,7.335,10.057Zm3.772-2.975h0a1.462,1.462,0,0,0,.088.175,2.071,2.071,0,0,0,.287.384,1.8,1.8,0,0,0,.52.384,1.717,1.717,0,0,0,.359.127,1.9,1.9,0,0,0,.43.048,2.222,2.222,0,0,0,.224-.012,2.694,2.694,0,0,0,.889-.245,2.8,2.8,0,0,0,.625-.407,2.853,2.853,0,0,0,.369-.382,1.777,1.777,0,0,0,.121-.169,3.291,3.291,0,0,0,.238.463,2.356,2.356,0,0,0,.277.369,1.164,1.164,0,0,0,.364.274.956.956,0,0,0,.389.07,2.132,2.132,0,0,0,.407-.044,3.587,3.587,0,0,0,.376-.1,3.984,3.984,0,0,0,.384-.141s-.025-.079-.079-.209a4.888,4.888,0,0,0-.27-.539,5.69,5.69,0,0,0-.509-.737,5.828,5.828,0,0,0-.795-.8,2.439,2.439,0,0,0-.366-.252,2.255,2.255,0,0,0-.379-.168,2.319,2.319,0,0,0-.388-.094,2.612,2.612,0,0,0-.393-.029,3.261,3.261,0,0,0-.532.046,4.478,4.478,0,0,0-.524.122,7.788,7.788,0,0,0-.987.375c-.131.058-.261.11-.388.152a3.569,3.569,0,0,1-.358.1,3.069,3.069,0,0,1-.33.055,2.763,2.763,0,0,1-.849-.037,3.919,3.919,0,0,1-.471-.126,2.242,2.242,0,0,1-.522-.275,2.647,2.647,0,0,0-1.531-.494l-.082,0a2.719,2.719,0,0,0-.873.158,4.391,4.391,0,0,0-.756.348,5.559,5.559,0,0,0-.532.348c-.127.094-.2.157-.2.158a.664.664,0,0,0,.011.1.985.985,0,0,0,.075.241.937.937,0,0,0,.2.286,1.083,1.083,0,0,0,.4.237,1.067,1.067,0,0,0,.355.059,1.434,1.434,0,0,0,.4-.062A2.025,2.025,0,0,0,7.118,6.7a2.108,2.108,0,0,0,.321-.2,1.285,1.285,0,0,0,.027.225,1.64,1.64,0,0,0,.064.231,1.517,1.517,0,0,0,.124.265,1.355,1.355,0,0,0,.508.5,1.659,1.659,0,0,0,.425.163,2.424,2.424,0,0,0,.565.062,2.691,2.691,0,0,0,1.377-.319,1.724,1.724,0,0,0,.525-.481.7.7,0,0,1,.054-.066ZM8.846,2.153h.012a1.3,1.3,0,0,1,.477.083.6.6,0,0,1,.208.161.787.787,0,0,0,.2.164.753.753,0,0,0,.378.1.942.942,0,0,0,.538-.18.98.98,0,0,0,.2-.193.784.784,0,0,0,.128-.232,1.027,1.027,0,0,0,.056-.385.848.848,0,0,0-.1-.342,1.16,1.16,0,0,0-.235-.3,2.071,2.071,0,0,0-.362-.268A1.37,1.37,0,0,0,9.634.551a1.606,1.606,0,0,0-.44.065,2.851,2.851,0,0,0-.483.191A2.6,2.6,0,0,0,8.1,1.22a1.606,1.606,0,0,0-.372.477.957.957,0,0,0-.113.386.462.462,0,0,0,.162.335.124.124,0,0,0,.091.03,1.388,1.388,0,0,0,.421-.132L8.332,2.3A1.529,1.529,0,0,1,8.846,2.153Zm6.4-.04a.563.563,0,0,1,.356.112,2.505,2.505,0,0,1,.2.171,1.383,1.383,0,0,0,.2.164.466.466,0,0,0,.238.074l.066,0a1.012,1.012,0,0,0,.3-.042.741.741,0,0,0,.232-.118.857.857,0,0,0,.283-.418.936.936,0,0,0,.05-.377.81.81,0,0,0-.1-.323,1.044,1.044,0,0,0-.215-.267,1.542,1.542,0,0,0-.3-.21,1.355,1.355,0,0,0-.352-.127,1.86,1.86,0,0,0-.4-.041A2.745,2.745,0,0,0,14.628,1l-.114.056a2.686,2.686,0,0,0-.425.234.722.722,0,0,0-.135.131.915.915,0,0,0-.108.18.519.519,0,0,0-.051.219.453.453,0,0,0,.172.358.515.515,0,0,0,.2.1.719.719,0,0,0,.189.026,1.249,1.249,0,0,0,.382-.079c.045-.014.09-.029.139-.043a1.43,1.43,0,0,1,.378-.064h0Z" transform="translate(0 0)"/>
            </g>
          </g>
        </g>
      </g>
    </g>
  </g>
</svg>
